<?xml version="1.0" standalone="no"?>
  <!DOCTYPE svg PUBLIC "-//W3C//DTD SVG 1.1//EN" "http://www.w3.org/Graphics/SVG/1.1/DTD/svg11.dtd" >
  <svg>
  <metadata>
  Created by font-carrier
  </metadata>
  <defs>
  <font id="AkzidenzGroteskPro-BoldCnIt" horiz-adv-x="1002" vert-adv-y="1002" >
    <font-face
      
      font-family="Akzidenz-Grotesk Pro Bold Cnd"
      
      font-weight="400"
      
      font-stretch="normal"
      
      units-per-em="1000"
      
      ascent="994"
      
      descent="-249"
      
    />
      <missing-glyph />

      

      
      <glyph glyph-name="uni21" unicode="&#x21;" d="M293 706L221 393L155 190L77 190L107 387L180 706L293 706M164 132L133 0L14 0L45 132L164 132Z"  horiz-adv-x="229" vert-adv-y="1000"  />

      
      <glyph glyph-name="uni22" unicode="&#x22;" d="M407 740L298 452L273 452L299 740L407 740M245 740L136 452L111 452L138 740L245 740Z"  horiz-adv-x="306" vert-adv-y="1000"  />

      
      <glyph glyph-name="uni23" unicode="&#x23;" d="M618 494L597 409L476 409L444 310L561 310L540 225L418 225L346 0L254 0L325 225L243 225L172 0L78 0L150 225L32 225L53 310L177 310L210 409L89 409L109 494L236 494L304 706L396 706L329 494L411 494L478 706L569 706L503 494L618 494M383 409L301 409L270 310L352 310L383 409Z"  horiz-adv-x="583" vert-adv-y="1000"  />

      
      <glyph glyph-name="uni24" unicode="&#x24;" d="M431 481L319 481L335 547Q339 562 339 578Q339 614 295 614Q261 614 241.50 583.50Q222 553 222 519Q222 493 239 470L336 339Q379 281 379 217Q379 166 362.50 117.50Q346 69 305 32Q264-5 205-5L188-5L167-99L116-99L137-5Q82 1 52 30.50Q22 60 22 110Q22 131 32 178L45 235L156 235L140 169Q134 146 134 132Q134 113 148 101.50Q162 90 185 90Q217 90 236 112Q245 122 254.50 154.50Q264 187 264 206Q264 242 236 278L162 376Q127 422 117.50 446.50Q108 471 108 506Q108 528 113.50 552.50Q119 577 132 604.50Q145 632 164.50 653.50Q184 675 216.50 689Q249 703 288 703L301 703L319 784L370 784L352 703Q452 690 452 594Q452 571 445 541L431 481Z"  horiz-adv-x="417" vert-adv-y="1000"  />

      
      <glyph glyph-name="uni25" unicode="&#x25;" d="M709 312L663 113Q648 46 617.50 20.50Q587-5 532-5Q420-5 420 80Q420 100 427 132L474 334Q487 391 514 420Q541 449 604 449Q657 449 686.50 428Q716 407 716 370Q716 340 709 312M626 693L203-45L144-23L568 716L626 693M342 534L296 335Q281 268 250.50 242.50Q220 217 165 217Q53 217 53 302Q53 320 61 354L108 559Q121 616 150 643.50Q179 671 237 671Q290 671 319.50 650Q349 629 349 592Q349 562 342 534M581 108L632 331Q636 346 636 358Q636 387 600 387Q580 387 570.50 376.50Q561 366 554 337L504 113Q500 91 500 87Q500 57 536 57Q555 57 564.50 68Q574 79 581 108M215 330L265 554Q269 574 269 580Q269 609 233 609Q213 609 204 598.50Q195 588 188 559L137 335Q133 315 133 309Q133 280 169 280Q189 280 198.50 290.50Q208 301 215 330Z"  horiz-adv-x="708" vert-adv-y="1000"  />

      
      <glyph glyph-name="uni26" unicode="&#x26;" d="M413 320L516 320Q485 189 407 108Q425 85 469 85L476 85L456 0Q424-6 402-6Q371-6 355 0Q339 6 316 28Q244-11 172-11Q98-11 53.50 35.50Q9 82 9 158Q9 225 47.50 276.50Q86 328 171 392L188 405Q171 476 171 527Q171 617 214.50 667.50Q258 718 335 718Q395 718 430 687Q465 656 465 601Q465 562 437 516Q431 505 425 497Q419 489 414 483Q409 477 398 466.50Q387 456 379.50 449Q372 442 351.50 423Q331 404 316 390Q345 272 368 207Q380 227 385 236.50Q390 246 397 266.50Q404 287 413 320M292 496Q360 560 360 597Q360 610 352 618.50Q344 627 330 627Q310 627 297.50 606.50Q285 586 285 550Q285 532 292 496M277 117Q248 197 219 305Q168 258 149.50 230Q131 202 131 167Q131 132 150.50 113Q170 94 206 94Q243 94 277 117Z"  horiz-adv-x="521" vert-adv-y="1000"  />

      
      <glyph glyph-name="uni27" unicode="&#x27;" d="M245 740L136 452L111 452L138 740L245 740Z"  horiz-adv-x="144" vert-adv-y="1000"  />

      
      <glyph glyph-name="uni28" unicode="&#x28;" d="M403 775L382 682L368 676Q311 652 285 616Q259 580 239 495L150 110Q143 80 143 44Q143 26 145.50 13Q148 0 162-28Q176-56 203-93L183-181Q97-121 60.50-67Q24-13 24 44Q24 81 37 137L128 527Q146 603 179 649.50Q212 696 262.50 723Q313 750 403 775Z"  horiz-adv-x="292" vert-adv-y="1000"  />

      
      <glyph glyph-name="uni29" unicode="&#x29;" d="M127 687L148 775Q306 662 306 550Q306 512 293 457L203 66Q194 27 178.50-5.50Q163-38 148-60Q133-82 107.50-101.50Q82-121 65.50-131.50Q49-142 18-153Q-13-164-27-168.50Q-41-173-72-181L-51-88Q11-66 41.50-26.50Q72 13 91 98L180 483Q188 515 188 543Q188 613 127 687Z"  horiz-adv-x="292" vert-adv-y="1000"  />

      
      <glyph glyph-name="uni2a" unicode="&#x2a;" d="M434 520L331 510L369 419L291 384L249 480L172 413L117 480L191 544L105 595L148 669L237 618L262 718L346 697L321 596L426 605L434 520Z"  horiz-adv-x="378" vert-adv-y="1000"  />

      
      <glyph glyph-name="uni2b" unicode="&#x2b;" d="M508 348L484 247L346 247L310 90L195 90L231 247L90 247L113 348L254 348L290 505L405 505L369 348L508 348Z"  horiz-adv-x="558" vert-adv-y="1000"  />

      
      <glyph glyph-name="uni2c" unicode="&#x2c;" d="M133 129L103 0L-11-135L-55-135L44 0L-14 0L16 129L133 129Z"  horiz-adv-x="187" vert-adv-y="1000"  />

      
      <glyph glyph-name="uni2d" unicode="&#x2d;" d="M309 341L286 242L37 242L60 341L309 341Z"  horiz-adv-x="314" vert-adv-y="1000"  />

      
      <glyph glyph-name="uni2e" unicode="&#x2e;" d="M133 129L103 0L-14 0L16 129L133 129Z"  horiz-adv-x="187" vert-adv-y="1000"  />

      
      <glyph glyph-name="uni2f" unicode="&#x2f;" d="M353 706L61 0L-38 0L255 706L353 706Z"  horiz-adv-x="250" vert-adv-y="1000"  />

      
      <glyph glyph-name="uni30" unicode="&#x30;" d="M430 482L360 180Q335 73 292.50 31.50Q250-10 165-10Q93-10 52.50 20.50Q12 51 12 105Q12 130 21 172L101 517Q137 673 289 673Q360 673 399.50 641Q439 609 439 551Q439 519 430 482M238 148L320 502Q327 532 327 541Q327 585 278 585Q252 585 239.50 570Q227 555 217 514L135 162Q128 133 128 116Q128 99 140.50 88.50Q153 78 174 78Q202 78 216 94Q230 110 238 148Z"  horiz-adv-x="396" vert-adv-y="1000"  />

      
      <glyph glyph-name="uni31" unicode="&#x31;" d="M377 665L223 0L106 0L223 507L213 501Q174 478 114 469L137 561Q188 574 220.50 594.50Q253 615 299 665L377 665Z"  horiz-adv-x="396" vert-adv-y="1000"  />

      
      <glyph glyph-name="uni32" unicode="&#x32;" d="M345 100L322 0L-28 0Q-6 97 26.50 155.50Q59 214 125 270Q159 299 199 329.50Q239 360 254.50 373Q270 386 284 405.50Q298 425 304 451L318 510Q323 528 323 543Q323 562 310.50 573Q298 584 276 584Q251 584 236.50 569.50Q222 555 215 521L197 442L88 442L107 523Q126 603 167.50 639Q209 675 283 675Q356 675 397.50 643.50Q439 612 439 557Q439 532 434 513L417 442Q400 373 354 330Q323 300 214 213Q170 178 153.50 157Q137 136 124 100L345 100Z"  horiz-adv-x="396" vert-adv-y="1000"  />

      
      <glyph glyph-name="uni33" unicode="&#x33;" d="M87 466L102 530Q107 552 109 558.50Q111 565 118 585Q125 605 132 613.50Q139 622 153 636.50Q167 651 184 657Q201 663 226.50 668.50Q252 674 284 674Q433 674 433 564Q433 543 427 519L417 475Q404 414 379.50 389.50Q355 365 295 359Q367 342 367 275Q367 244 359 210L344 142Q326 60 285.50 25.50Q245-9 156-9Q0-9 0 101Q0 119 8 153L21 209L136 209L124 156Q119 131 119 121Q119 80 166 80Q195 80 207.50 94Q220 108 230 150L244 207Q252 238 252 263Q252 291 236 303.50Q220 316 182 316L158 316L176 394L196 394Q240 394 265 410Q290 426 301 474L312 521Q315 534 315 546Q315 585 271 585Q246 585 232.50 570.50Q219 556 209 517L197 466L87 466Z"  horiz-adv-x="396" vert-adv-y="1000"  />

      
      <glyph glyph-name="uni34" unicode="&#x34;" d="M434 668L331 219L374 219L353 126L309 126L280 0L173 0L202 126L3 126L24 219L296 668L434 668M312 561L122 219L224 219L312 561Z"  horiz-adv-x="396" vert-adv-y="1000"  />

      
      <glyph glyph-name="uni35" unicode="&#x35;" d="M456 665L433 565L217 565L183 429Q226 465 284 465Q334 465 363 439Q392 413 392 369Q392 341 381 296L343 136Q325 58 285.50 24.50Q246-9 159-9Q1-9 1 96Q1 116 6 141L21 207L136 207L124 157Q119 135 119 121Q119 82 165 82Q196 82 209.50 100Q223 118 235 172L261 291Q269 328 269 335Q269 376 224 376Q172 376 149 309L57 309L146 665L456 665Z"  horiz-adv-x="396" vert-adv-y="1000"  />

      
      <glyph glyph-name="uni36" unicode="&#x36;" d="M428 490L318 490L327 526Q329 533 329 547Q329 586 283 586Q251 586 238.50 568.50Q226 551 215 504L189 390Q232 432 291 432Q338 432 365.50 406Q393 380 393 335Q393 314 380 258L357 155Q336 62 292.50 27.50Q249-7 173-7Q98-7 56.50 24Q15 55 15 112Q15 131 20 154L106 525Q110 543 112 550Q114 557 121 576.50Q128 596 135.50 606Q143 616 157 631.50Q171 647 188 654.50Q205 662 230.50 668.50Q256 675 287 675Q441 675 441 565Q441 544 436 524L428 490M242 151L267 264Q272 284 272 295Q272 335 226 335Q199 335 183.50 320Q168 305 160 269L135 160Q130 135 130 124Q130 83 178 83Q205 83 219.50 98.50Q234 114 242 151Z"  horiz-adv-x="396" vert-adv-y="1000"  />

      
      <glyph glyph-name="uni37" unicode="&#x37;" d="M486 665L463 566Q426 523 378 450Q330 377 292 308Q251 234 213 135Q193 84 172 0L47 0Q78 119 149.50 256Q221 393 312 509L357 567L202 567L184 489L87 489L127 665L486 665Z"  horiz-adv-x="396" vert-adv-y="1000"  />

      
      <glyph glyph-name="uni38" unicode="&#x38;" d="M429 520L417 464Q407 414 385.50 388.50Q364 363 322 349Q377 324 377 272Q377 254 369 219L354 153Q334 65 291 28Q248-9 163-9Q11-9 11 103Q11 122 19 159L37 242Q49 299 71.50 323Q94 347 140 358Q93 383 93 432Q93 454 97 471L114 543Q145 674 288 674Q359 674 396.50 645.50Q434 617 434 564Q434 545 429 520M307 458L321 524Q324 536 324 545Q324 584 281 584Q255 584 242.50 572.50Q230 561 223 531L207 462Q203 446 203 435Q203 395 248 395Q273 395 286 407.50Q299 420 307 458M240 145L262 247Q266 269 266 271Q266 312 217 312Q168 312 155 253L132 150Q128 130 128 122Q128 84 175 84Q227 84 240 145Z"  horiz-adv-x="396" vert-adv-y="1000"  />

      
      <glyph glyph-name="uni39" unicode="&#x39;" d="M29 182L139 182L131 143Q128 131 128 121Q128 82 174 82Q200 82 216 97.50Q232 113 243 164L268 282Q229 240 173 240Q121 240 93.50 265.50Q66 291 66 338Q66 367 77 414L101 512Q113 561 122.50 583.50Q132 606 148 625Q193 676 284 676Q360 676 401 644.50Q442 613 442 556Q442 537 437 515L345 119Q316-7 169-7Q16-7 16 103Q16 121 21 144L29 182M297 403L322 508Q327 531 327 544Q327 585 279 585Q253 585 239 570Q225 555 216 518L190 408Q185 388 185 377Q185 337 231 337Q257 337 272.50 350.50Q288 364 297 403Z"  horiz-adv-x="396" vert-adv-y="1000"  />

      
      <glyph glyph-name="uni3a" unicode="&#x3a;" d="M264 512L234 383L118 383L147 512L264 512M176 129L146 0L29 0L59 129L176 129Z"  horiz-adv-x="229" vert-adv-y="1000"  />

      
      <glyph glyph-name="uni3b" unicode="&#x3b;" d="M264 512L234 383L118 383L147 512L264 512M176 129L146 0L32-135L-12-135L87 0L29 0L59 129L176 129Z"  horiz-adv-x="229" vert-adv-y="1000"  />

      
      <glyph glyph-name="uni3c" unicode="&#x3c;" d="M522 572L493 447L216 318L438 189L411 77L95 270L120 377L522 572Z"  horiz-adv-x="559" vert-adv-y="1000"  />

      
      <glyph glyph-name="uni3d" unicode="&#x3d;" d="M531 453L509 355L119 355L142 453L531 453M487 261L465 163L75 163L97 261L487 261Z"  horiz-adv-x="559" vert-adv-y="1000"  />

      
      <glyph glyph-name="uni3e" unicode="&#x3e;" d="M517 377L492 270L90 76L119 200L396 329L174 458L201 571L517 377Z"  horiz-adv-x="559" vert-adv-y="1000"  />

      
      <glyph glyph-name="uni3f" unicode="&#x3f;" d="M242 190L129 190L136 222Q147 271 159 296Q171 321 203 354L281 435Q314 470 327 499Q334 515 342 552Q350 589 350 602Q350 637 310 637Q283 637 271 618Q259 599 248 555L227 466L116 466L133 540Q141 574 147.50 595Q154 616 168.50 642.50Q183 669 201.50 683.50Q220 698 251.50 708Q283 718 325 718Q394 718 431.50 689.50Q469 661 469 608Q469 555 445 493Q434 465 425.50 452Q417 439 385 404L302 313Q294 304 288 297Q282 290 277.50 284.50Q273 279 269.50 272.50Q266 266 264 263Q262 260 259.50 252Q257 244 256 241Q255 238 252 227Q249 216 248 212L242 190M232 130L202 0L86 0L116 130L232 130Z"  horiz-adv-x="417" vert-adv-y="1000"  />

      
      <glyph glyph-name="uni40" unicode="&#x40;" d="M555 504L645 504L604 345Q567 201 567 177Q567 152 586 152Q609 152 644 195Q682 241 704.50 307Q727 373 727 436Q727 532 670.50 585.50Q614 639 513 639Q414 639 326.50 581.50Q239 524 186.50 428Q134 332 134 224Q134 96 212 26Q290-44 416-44Q592-44 747 102L789 40Q719-22 664-54Q544-123 410-123Q252-123 150-32Q48 59 48 215Q48 351 111 466Q174 581 282.50 647.50Q391 714 519 714Q649 714 729.50 639.50Q810 565 810 443Q810 350 773.50 262.50Q737 175 678 121.50Q619 68 556 68Q520 68 496.50 86Q473 104 469 136Q410 68 341 68Q281 68 246.50 109Q212 150 212 223Q212 340 282.50 432Q353 524 442 524Q475 524 498.50 511.50Q522 499 543 464L555 504M505 350Q505 435 442 435Q394 435 354 369.50Q314 304 314 235Q314 198 329.50 178Q345 158 373 158Q419 158 462 220Q505 282 505 350Z"  horiz-adv-x="829" vert-adv-y="1000"  />

      
      <glyph glyph-name="uni41" unicode="&#x41;" d="M249 706L398 706L379 0L251 0L259 115L139 115L95 0L-39 0L249 706M178 224L268 224L290 527L178 224Z"  horiz-adv-x="437" vert-adv-y="1000"  />

      
      <glyph glyph-name="uni42" unicode="&#x42;" d="M163 706L363 706Q396 706 419 702.50Q442 699 465 689Q488 679 499.50 657Q511 635 511 601Q511 576 505 551L495 506Q481 441 458 415.50Q435 390 384 380Q450 365 450 311Q450 281 440 236L420 146Q413 116 404.50 96Q396 76 377.50 51Q359 26 324 13Q289 0 239 0L0 0L163 706M270 605L229 427L264 427Q315 427 335 440Q355 453 363 492L372 534Q377 556 377 566Q377 587 364 596Q351 605 322 605L270 605M205 325L153 102L199 102Q252 102 269.50 113Q287 124 298 173L317 256Q321 276 321 287Q321 308 307.50 316.50Q294 325 261 325L205 325Z"  horiz-adv-x="478" vert-adv-y="1000"  />

      
      <glyph glyph-name="uni43" unicode="&#x43;" d="M490 449L362 449L378 521Q387 558 387 572Q387 621 333 621Q302 621 284.50 603Q267 585 257 544L171 174Q165 145 165 131Q165 86 219 86Q253 86 270 104.50Q287 123 298 173L319 265L447 265L428 180Q403 66 354.50 25.50Q306-15 205-15Q113-15 72.50 17.50Q32 50 32 112Q32 136 43 186L124 534Q148 636 200 678.50Q252 721 353 721Q520 721 520 608Q520 579 510 536L490 449Z"  horiz-adv-x="458" vert-adv-y="1000"  />

      
      <glyph glyph-name="uni44" unicode="&#x44;" d="M163 706L360 706Q516 706 516 582Q516 555 501 491L426 167Q406 80 360 40Q314 0 221 0L0 0L163 706M269 603L154 103L200 103Q252 103 270.50 118.50Q289 134 302 189L378 519Q384 546 384 558Q384 583 368 593Q352 603 312 603L269 603Z"  horiz-adv-x="479" vert-adv-y="1000"  />

      
      <glyph glyph-name="uni45" unicode="&#x45;" d="M505 706L480 599L268 599L230 433L430 433L405 326L205 326L155 109L377 109L352 0L0 0L163 706L505 706Z"  horiz-adv-x="417" vert-adv-y="1000"  />

      
      <glyph glyph-name="uni46" unicode="&#x46;" d="M509 706L484 597L269 597L228 420L430 420L406 315L204 315L131 0L0 0L163 706L509 706Z"  horiz-adv-x="396" vert-adv-y="1000"  />

      
      <glyph glyph-name="uni47" unicode="&#x47;" d="M492 478L363 478L378 546Q382 566 382 573Q382 619 326 619Q292 619 275.50 600Q259 581 247 528L166 176Q159 144 159 133Q159 111 173.50 98.50Q188 86 213 86Q245 86 263 105Q281 124 291 167L316 277L236 277L261 383L471 383L382 0L271 0L281 42Q230-15 150-15Q90-15 57 15Q24 45 24 100Q24 135 34 178L116 531Q141 636 191.50 678.50Q242 721 343 721Q519 721 519 611Q519 591 510 555L492 478Z"  horiz-adv-x="488" vert-adv-y="1000"  />

      
      <glyph glyph-name="uni48" unicode="&#x48;" d="M542 706L379 0L249 0L323 323L204 323L130 0L0 0L163 706L293 706L229 429L348 429L412 706L542 706Z"  horiz-adv-x="479" vert-adv-y="1000"  />

      
      <glyph glyph-name="uni49" unicode="&#x49;" d="M292 706L129 0L0 0L163 706L292 706Z"  horiz-adv-x="228" vert-adv-y="1000"  />

      
      <glyph glyph-name="uni4a" unicode="&#x4a;" d="M464 706L338 160Q315 61 270.50 22.50Q226-16 139-16Q64-16 25 14Q-14 44-14 101Q-14 130-5 167L8 224L129 224L115 164Q108 132 108 121Q108 88 147 88Q172 88 184.50 103.50Q197 119 207 161L333 706L464 706Z"  horiz-adv-x="396" vert-adv-y="1000"  />

      
      <glyph glyph-name="uni4b" unicode="&#x4b;" d="M566 706L333 391L411 0L274 0L212 345L132 0L0 0L163 706L295 706L231 431L428 706L566 706Z"  horiz-adv-x="458" vert-adv-y="1000"  />

      
      <glyph glyph-name="uni4c" unicode="&#x4c;" d="M346 107L321 0L0 0L163 706L293 706L155 107L346 107Z"  horiz-adv-x="375" vert-adv-y="1000"  />

      
      <glyph glyph-name="uni4d" unicode="&#x4d;" d="M751 706L588 0L458 0L611 612L356 0L235 0L259 612L128 0L0 0L163 706L375 706L344 212L542 706L751 706Z"  horiz-adv-x="688" vert-adv-y="1000"  />

      
      <glyph glyph-name="uni4e" unicode="&#x4e;" d="M563 706L400 0L236 0L233 529L122 0L0 0L163 706L330 706L337 188L444 706L563 706Z"  horiz-adv-x="500" vert-adv-y="1000"  />

      
      <glyph glyph-name="uni4f" unicode="&#x4f;" d="M503 516L424 172Q403 81 357.50 33Q312-15 208-15Q29-15 29 123Q29 155 41 207L116 529Q141 635 188 678.50Q235 722 332 722Q419 722 466 686.50Q513 651 513 585Q513 561 503 516M295 180L375 524Q382 553 382 573Q382 623 326 623Q292 623 276 605Q260 587 247 530L169 192Q159 148 159 136Q159 87 218 87Q238 87 251 92.50Q264 98 272.50 113Q281 128 285 141Q289 154 295 180Z"  horiz-adv-x="479" vert-adv-y="1000"  />

      
      <glyph glyph-name="uni50" unicode="&#x50;" d="M163 706L390 706Q445 706 478.50 679Q512 652 512 599Q512 573 504 535L481 434Q463 356 427 325Q391 294 309 294L199 294L131 0L0 0L163 706M270 602L222 395L285 395Q323 395 336.50 406.50Q350 418 359 458L375 530Q380 553 380 563Q380 584 368 593Q356 602 327 602L270 602Z"  horiz-adv-x="457" vert-adv-y="1000"  />

      
      <glyph glyph-name="uni51" unicode="&#x51;" d="M456-22L370-94L295-2Q255-15 209-15Q29-15 29 123Q29 155 41 207L123 557Q144 646 195.50 684Q247 722 332 722Q418 722 465.50 686Q513 650 513 585Q513 559 503 516L429 193Q410 108 385 65L456-22M292 168L375 524Q382 553 382 573Q382 623 326 623Q294 623 277 604.50Q260 586 247 530L169 192Q159 148 159 136Q159 87 218 87Q250 87 265.50 104Q281 121 292 168Z"  horiz-adv-x="479" vert-adv-y="1000"  />

      
      <glyph glyph-name="uni52" unicode="&#x52;" d="M163 706L386 706Q519 706 519 594Q519 570 514 550L498 481Q484 422 458.50 396Q433 370 379 361Q417 350 433.50 331Q450 312 450 278Q450 252 442 217L414 94Q407 47 407 43Q407 15 422 0L279 0Q272 22 272 37Q272 54 278 80L309 211Q319 251 319 267Q319 290 304.50 300.50Q290 311 256 311L202 311L130 0L0 0L163 706M225 412L277 412Q327 412 343 426Q359 440 372 495L384 547Q387 558 387 567Q387 587 374 596Q361 605 330 605L270 605L225 412Z"  horiz-adv-x="479" vert-adv-y="1000"  />

      
      <glyph glyph-name="uni53" unicode="&#x53;" d="M472 499L342 499L353 548Q357 564 357 580Q357 622 307 622Q285 622 269.50 609.50Q254 597 246.50 578Q239 559 236 543.50Q233 528 233 516Q233 479 257 459L339 390Q387 350 401.50 321.50Q416 293 416 249Q416 195 387 111Q343-15 190-15Q103-15 56 18.50Q9 52 9 114Q9 142 20 187L35 249L164 249L150 192Q140 151 140 129Q140 109 156 97Q172 85 198 85Q237 85 251 110Q265 134 273.50 171Q282 208 282 228Q282 270 241 302L171 358Q102 414 102 486Q102 579 152 649Q202 721 317 721Q491 721 491 605Q491 584 485 559L472 499Z"  horiz-adv-x="448" vert-adv-y="1000"  />

      
      <glyph glyph-name="uni54" unicode="&#x54;" d="M506 706L483 604L352 604L212 0L81 0L221 604L91 604L114 706L506 706Z"  horiz-adv-x="396" vert-adv-y="1000"  />

      
      <glyph glyph-name="uni55" unicode="&#x55;" d="M540 706L414 159Q393 68 341.50 26.50Q290-15 198-15Q115-15 72 19.50Q29 54 29 120Q29 144 42 201L158 706L288 706L170 194Q161 152 161 143Q161 96 216 96Q245 96 261 114.50Q277 133 288 182L409 706L540 706Z"  horiz-adv-x="476" vert-adv-y="1000"  />

      
      <glyph glyph-name="uni56" unicode="&#x56;" d="M518 706L222 0L91 0L114 706L248 706L209 239L381 706L518 706Z"  horiz-adv-x="417" vert-adv-y="1000"  />

      
      <glyph glyph-name="uni57" unicode="&#x57;" d="M808 706L509 0L372 0L415 484L228 0L89 0L123 706L254 706L203 174L401 706L524 706L475 174L672 706L808 706Z"  horiz-adv-x="708" vert-adv-y="1000"  />

      
      <glyph glyph-name="uni58" unicode="&#x58;" d="M563 706L347 372L421 0L284 0L251 239L117 0L-32 0L208 380L141 706L279 706L308 513L415 706L563 706Z"  horiz-adv-x="479" vert-adv-y="1000"  />

      
      <glyph glyph-name="uni59" unicode="&#x59;" d="M528 706L273 209L224 0L91 0L142 218L113 706L246 706L240 350L388 706L528 706Z"  horiz-adv-x="417" vert-adv-y="1000"  />

      
      <glyph glyph-name="uni5a" unicode="&#x5a;" d="M496 706L480 636L147 110L364 110L339 0L-30 0L-11 82L312 597L127 597L153 706L496 706Z"  horiz-adv-x="417" vert-adv-y="1000"  />

      
      <glyph glyph-name="uni5b" unicode="&#x5b;" d="M447 761L427 672L305 672L131-80L254-80L233-170L-8-170L207 761L447 761Z"  horiz-adv-x="333" vert-adv-y="1000"  />

      
      <glyph glyph-name="uni5c" unicode="&#x5c;" d="M262 0L171 0L112 706L203 706L262 0Z"  horiz-adv-x="312" vert-adv-y="1000"  />

      
      <glyph glyph-name="uni5d" unicode="&#x5d;" d="M378 762L163-168L-77-168L-56-79L66-79L239 672L116 672L137 762L378 762Z"  horiz-adv-x="333" vert-adv-y="1000"  />

      
      <glyph glyph-name="uni5e" unicode="&#x5e;" d="M532 358L416 358L374 600L222 359L94 359L338 707L447 707L532 358Z"  horiz-adv-x="559" vert-adv-y="1000"  />

      
      <glyph glyph-name="uni5f" unicode="&#x5f;" d="M409-221L-111-221L-90-129L430-129L409-221Z"  horiz-adv-x="500" vert-adv-y="1000"  />

      
      <glyph glyph-name="uni60" unicode="&#x60;" d="M214 574L128 574L-6 706L147 706L214 574Z"  horiz-adv-x="208" vert-adv-y="1000"  />

      
      <glyph glyph-name="uni61" unicode="&#x61;" d="M321 0L196 0Q190 8 190 22Q190 33 192 45Q151-11 90-11Q48-11 25.50 13Q3 37 3 83Q3 133 17.50 178Q32 223 56 247Q86 277 145 300L259 344L265 368Q271 393 271 405Q271 437 233 437Q209 437 199 421Q189 405 182 370L179 355L70 355L77 388Q92 459 130.50 490Q169 521 242 521Q313 521 352 496Q391 471 391 425Q391 399 377 340L327 125Q311 53 311 34Q311 14 321 0M204 108L236 247Q190 228 173 218Q156 208 145 193Q122 161 122 115Q122 82 150 82Q168 82 204 108Z"  horiz-adv-x="396" vert-adv-y="1000"  />

      
      <glyph glyph-name="uni62" unicode="&#x62;" d="M157 706L276 706L221 469Q265 520 329 520Q374 520 398.50 495Q423 470 423 424Q423 408 413 364L367 160Q348 73 326 41Q289-11 221-11Q154-11 126 47L114 0L-5 0L157 706M195 359L149 155Q145 140 145 127Q145 87 186 87Q209 87 223.50 104.50Q238 122 247 163L290 356Q295 381 295 388Q295 425 256 425Q231 425 217 409.50Q203 394 195 359Z"  horiz-adv-x="417" vert-adv-y="1000"  />

      
      <glyph glyph-name="uni63" unicode="&#x63;" d="M390 317L273 317L284 362Q290 388 290 401Q290 436 250 436Q230 436 215.50 423Q201 410 191 367L142 158Q134 123 134 112Q134 96 145.50 87Q157 78 177 78Q200 78 211.50 92Q223 106 232 143L246 202L363 202L354 162Q333 65 301 32Q259-12 175-12Q19-12 19 104Q19 129 28 171L72 365Q86 428 117 464.50Q148 501 179.50 511Q211 521 253 521Q327 521 367.50 493.50Q408 466 408 415Q408 396 399 356L390 317Z"  horiz-adv-x="396" vert-adv-y="1000"  />

      
      <glyph glyph-name="uni64" unicode="&#x64;" d="M484 706L321 0L201 0L213 47Q172-10 109-10Q63-10 38 14Q13 38 13 82Q13 109 26 165L79 395Q92 451 127.50 485Q163 519 216 519Q284 519 309 464L365 706L484 706M239 163L285 361Q289 378 289 388Q289 429 245 429Q223 429 210 414Q197 399 189 363L144 165Q138 139 138 126Q138 91 176 91Q200 91 215 107Q230 123 239 163Z"  horiz-adv-x="417" vert-adv-y="1000"  />

      
      <glyph glyph-name="uni65" unicode="&#x65;" d="M363 230L160 230L138 129Q136 119 136 113Q136 79 174 79Q194 79 205.50 92Q217 105 224 134L232 168L347 168L343 149Q326 66 287 27.50Q248-11 168-11Q20-11 20 106Q20 135 36 206L73 373Q88 444 130 481.50Q172 519 255 519Q398 519 398 405Q398 379 387 334L363 230M264 311L277 372Q281 389 281 398Q281 431 245 431Q224 431 213 419.50Q202 408 195 380L179 311L264 311Z"  horiz-adv-x="396" vert-adv-y="1000"  />

      
      <glyph glyph-name="uni66" unicode="&#x66;" d="M349 703L327 607Q312 610 305 610Q283 610 273 596Q263 582 256 551L246 508L299 508L281 428L227 428L129 0L11 0L109 428L56 428L75 508L128 508L150 601Q164 661 198.50 685.50Q233 710 286 710Q320 710 349 703Z"  horiz-adv-x="241" vert-adv-y="1000"  />

      
      <glyph glyph-name="uni67" unicode="&#x67;" d="M320 508L440 508L324 2Q313-48 301.50-77.50Q290-107 268.50-133.50Q247-160 212.50-171.50Q178-183 127-183Q-23-183-23-80Q-23-64-18-42L100-42Q96-57 96-62Q96-77 107.50-86Q119-95 138-95Q164-95 176.50-79.50Q189-64 199-19L211 36Q178-6 116-6Q67-6 39.50 18Q12 42 12 83Q12 101 23 152L74 374Q90 443 123.50 480.50Q157 518 220 518Q285 518 311 467L320 508M237 151L284 357Q288 372 288 386Q288 428 246 428Q223 428 210 414Q197 400 190 366L144 166Q137 134 137 126Q137 88 178 88Q222 88 237 151Z"  horiz-adv-x="417" vert-adv-y="1000"  />

      
      <glyph glyph-name="uni68" unicode="&#x68;" d="M157 706L278 706L223 471Q266 518 327 518Q370 518 394.50 496Q419 474 419 436Q419 413 405 352L324 0L206 0L290 364Q295 387 295 396Q295 433 259 433Q235 433 220.50 417Q206 401 198 365L114 0L-5 0L157 706Z"  horiz-adv-x="417" vert-adv-y="1000"  />

      
      <glyph glyph-name="uni69" unicode="&#x69;" d="M278 706L250 586L130 586L158 706L278 706M232 508L115 0L-5 0L112 508L232 508Z"  horiz-adv-x="208" vert-adv-y="1000"  />

      
      <glyph glyph-name="uni6a" unicode="&#x6a;" d="M276 706L248 587L129 587L157 706L276 706M230 508L102-48Q86-117 51-147Q16-177-52-177Q-72-177-99-174L-76-75Q-57-75-44.50-71.50Q-32-68-25.50-59.50Q-19-51-17-44.50Q-15-38-11-23L111 508L230 508Z"  horiz-adv-x="208" vert-adv-y="1000"  />

      
      <glyph glyph-name="uni6b" unicode="&#x6b;" d="M454 508L279 296L362 0L233 0L173 261L113 0L-5 0L158 706L276 706L191 337L322 508L454 508Z"  horiz-adv-x="396" vert-adv-y="1000"  />

      
      <glyph glyph-name="uni6c" unicode="&#x6c;" d="M278 706L115 0L-5 0L158 706L278 706Z"  horiz-adv-x="208" vert-adv-y="1000"  />

      
      <glyph glyph-name="uni6d" unicode="&#x6d;" d="M112 508L233 508L223 471Q266 518 326 518Q391 518 412 466Q468 518 532 518Q575 518 600 496Q625 474 625 436Q625 413 611 352L530 0L412 0L496 364Q500 383 500 396Q500 433 466 433Q446 433 432.50 419.50Q419 406 414.50 394Q410 382 406 364L322 0L204 0L288 364Q293 387 293 396Q293 433 258 433Q235 433 220.50 417Q206 401 198 365L114 0L-5 0L112 508Z"  horiz-adv-x="623" vert-adv-y="1000"  />

      
      <glyph glyph-name="uni6e" unicode="&#x6e;" d="M112 508L233 508L223 471Q266 518 327 518Q370 518 394.50 496Q419 474 419 436Q419 413 405 352L324 0L206 0L290 364Q295 387 295 396Q295 433 259 433Q235 433 220.50 417Q206 401 198 365L114 0L-5 0L112 508Z"  horiz-adv-x="417" vert-adv-y="1000"  />

      
      <glyph glyph-name="uni6f" unicode="&#x6f;" d="M391 362L340 140Q322 60 281 24Q240-12 167-12Q94-12 55 17.50Q16 47 16 103Q16 123 24 158L74 373Q109 521 252 521Q320 521 358.50 492Q397 463 397 412Q397 390 391 362M220 130L274 367Q281 395 281 408Q281 441 246 441Q222 441 212 426.50Q202 412 192 367L138 134Q133 114 133 103Q133 71 169 71Q190 71 201.50 84Q213 97 220 130Z"  horiz-adv-x="396" vert-adv-y="1000"  />

      
      <glyph glyph-name="uni70" unicode="&#x70;" d="M111 508L231 508L219 461Q260 518 323 518Q369 518 394 494Q419 470 419 426Q419 399 406 343L356 125Q325-11 216-11Q148-11 123 44L72-176L-47-176L111 508M243 145L288 344Q294 369 294 382Q294 417 256 417Q232 417 217 401Q202 385 193 345L147 147Q143 130 143 120Q143 79 186 79Q209 79 222 94Q235 109 243 145Z"  horiz-adv-x="417" vert-adv-y="1000"  />

      
      <glyph glyph-name="uni71" unicode="&#x71;" d="M439 508L283-176L164-176L213 39Q169-12 106-12Q61-12 36.50 13Q12 38 12 84Q12 105 21 144L68 354Q76 392 85 416.50Q94 441 110 467Q126 493 151.50 506Q177 519 213 519Q281 519 309 461L321 508L439 508M240 149L286 353Q290 375 290 381Q290 421 249 421Q225 421 211 403.50Q197 386 188 345L145 152Q140 127 140 120Q140 83 179 83Q203 83 217.50 97Q232 111 240 149Z"  horiz-adv-x="417" vert-adv-y="1000"  />

      
      <glyph glyph-name="uni72" unicode="&#x72;" d="M113 508L232 508L216 443Q255 517 340 517L350 517L322 399Q304 407 284 407Q240 407 217.50 380.50Q195 354 183 302L113 0L-5 0L113 508Z"  horiz-adv-x="292" vert-adv-y="1000"  />

      
      <glyph glyph-name="uni73" unicode="&#x73;" d="M370 347L267 347L275 383Q278 396 278 406Q278 439 240 439Q217 439 203.50 422Q190 405 190 376Q190 354 212 336L270 288Q331 237 331 169Q331 83 283.50 36.50Q236-10 147-10Q8-10 8 90Q8 113 19 161L23 179L133 179L127 155Q120 128 120 110Q120 94 130.50 84.50Q141 75 159 75Q185 75 201.50 97.50Q218 120 218 155Q218 172 209 185Q200 198 172 222L127 260Q74 304 74 366Q74 437 121.50 478.50Q169 520 250 520Q313 520 348.50 495Q384 470 384 424Q384 409 379 387L370 347Z"  horiz-adv-x="375" vert-adv-y="1000"  />

      
      <glyph glyph-name="uni74" unicode="&#x74;" d="M305 508L287 429L228 429L165 158Q158 130 158 116Q158 85 201 85Q203 85 223 87L203 1Q172-5 150-5Q36-5 36 83Q36 109 43 138L111 429L58 429L76 508L128 508L172 698L290 698L246 508L305 508Z"  horiz-adv-x="255" vert-adv-y="1000"  />

      
      <glyph glyph-name="uni75" unicode="&#x75;" d="M437 508L320 0L199 0L208 37Q167-10 105-10Q62-10 37.50 12Q13 34 13 72Q13 100 26 156L108 508L226 508L142 144Q137 121 137 112Q137 75 173 75Q218 75 234 143L318 508L437 508Z"  horiz-adv-x="417" vert-adv-y="1000"  />

      
      <glyph glyph-name="uni76" unicode="&#x76;" d="M421 508L179 0L63 0L69 508L186 508L157 156L300 508L421 508Z"  horiz-adv-x="354" vert-adv-y="1000"  />

      
      <glyph glyph-name="uni77" unicode="&#x77;" d="M629 508L394 0L282 0L305 307L172 0L59 0L73 508L189 508L163 172L304 508L398 508L374 172L513 508L629 508Z"  horiz-adv-x="562" vert-adv-y="1000"  />

      
      <glyph glyph-name="uni78" unicode="&#x78;" d="M410 508L266 275L317 0L192 0L175 205L76 0L-50 0L120 275L80 508L200 508L211 338L290 508L410 508Z"  horiz-adv-x="372" vert-adv-y="1000"  />

      
      <glyph glyph-name="uni79" unicode="&#x79;" d="M418 508L161-67Q135-127 102.50-152Q70-177 8-177Q-32-177-75-168L-36-75Q-9-82 6-82Q57-82 81-1Q69 452 67 508L183 508L175 181L299 508L418 508Z"  horiz-adv-x="354" vert-adv-y="1000"  />

      
      <glyph glyph-name="uni7a" unicode="&#x7a;" d="M383 508L361 413L119 99L302 99L279 0L-30 0L-7 99L237 413L79 413L102 508L383 508Z"  horiz-adv-x="354" vert-adv-y="1000"  />

      
      <glyph glyph-name="uni7b" unicode="&#x7b;" d="M424 764L404 674L367 674Q335 674 320.50 654Q306 634 294 582L259 431Q242 355 215 331Q188 307 124 300Q162 291 183 268Q204 245 204 213Q204 188 195 149L167 28Q155-26 155-42Q155-82 198-82L231-82L211-171L138-171Q89-171 63-144Q37-117 37-67Q37-37 50 17L82 153Q89 183 89 200Q89 231 74 244Q59 257 16 260L36 348L41 348Q96 348 115 365.50Q134 383 150 453L189 623Q206 696 237.50 730Q269 764 334 764L424 764Z"  horiz-adv-x="314" vert-adv-y="1000"  />

      
      <glyph glyph-name="uni7c" unicode="&#x7c;" d="M289 762L73-169L-45-169L170 762L289 762Z"  horiz-adv-x="205" vert-adv-y="1000"  />

      
      <glyph glyph-name="uni7d" unicode="&#x7d;" d="M-77-171L-57-81L-20-81Q11-81 26-60.50Q41-40 53 12L88 164Q106 239 134 262.50Q162 286 224 293Q186 301 165 324.50Q144 348 144 380Q144 410 152 445L180 566Q192 617 192 630Q192 675 149 675L116 675L137 765L209 765Q311 765 311 655Q311 636 297 577L266 441Q258 407 258 394Q258 363 272.50 349.50Q287 336 331 333L311 246L306 246Q253 246 233 228.50Q213 211 197 141L159-29Q143-102 110.50-136.50Q78-171 13-171L-77-171Z"  horiz-adv-x="314" vert-adv-y="1000"  />

      
      <glyph glyph-name="uni7e" unicode="&#x7e;" d="M497 382L528 282Q458 216 380 216Q347 216 305 241L279 257Q246 277 219 277Q177 277 115 221L83 318Q157 388 231 388Q262 388 298 367L336 344Q363 327 389 327Q437 327 497 382Z"  horiz-adv-x="559" vert-adv-y="1000"  />

      
      <glyph glyph-name="unia1" unicode="&#xa1;" d="M277 706L247 574L128 574L158 706L277 706M214 516L185 319L111 0L-2 0L71 313L136 516L214 516Z"  horiz-adv-x="229" vert-adv-y="1000"  />

      
      <glyph glyph-name="unia2" unicode="&#xa2;" d="M396 317L279 317L290 362Q296 388 296 401Q296 436 256 436Q232 436 219.50 421Q207 406 197 367L148 158Q141 128 141 112Q141 78 183 78Q206 78 217.50 92Q229 106 238 143L252 202L370 202L360 162Q345 103 334.50 76.50Q324 50 307 32Q266-11 182-12L160-106L109-106L132-8Q77 2 51 29Q25 56 25 104Q25 129 34 171L78 365Q96 446 136.50 483.50Q177 521 250 521L254 521L272 598L323 598L305 518Q414 499 414 415Q414 396 405 356L396 317Z"  horiz-adv-x="406" vert-adv-y="1000"  />

      
      <glyph glyph-name="unia3" unicode="&#xa3;" d="M55 278L69 339L153 339L146 374Q138 418 138 455Q138 525 169 594Q219 703 352 703Q505 703 505 578Q505 560 495 517L487 481L372 481L382 522Q387 542 387 558Q387 608 340 608Q302 608 279.50 567Q257 526 257 455Q257 424 264 384L273 339L379 339L364 278L280 278Q281 267 281 255Q281 214 268 182Q255 150 220 107Q253 83 277 83Q299 83 312 100Q325 117 336 158L346 197L447 197L434 143Q417 71 394 42Q352-12 288-12Q231-12 162 40L151 30Q104-11 60-11Q23-11-0.50 10Q-24 31-24 66Q-24 107 6 133.50Q36 160 82 160Q116 160 161 138Q181 167 181 197Q181 226 166 278L55 278M110 74Q89 94 68 94Q55 94 47 86.50Q39 79 39 67Q39 57 45 50.50Q51 44 61 44Q80 44 105 69L110 74Z"  horiz-adv-x="479" vert-adv-y="1000"  />

      
      <glyph glyph-name="unia4" unicode="&#xa4;" d="M713 553L627 476Q653 420 653 372Q653 255 585 178L654 94L562 12L493 96Q423 58 352 58Q307 58 275.50 68.50Q244 79 201 108L113 32L34 127L122 204Q97 258 97 316Q97 417 163 501L95 584L189 665L256 583Q319 621 399 621Q476 621 548 571L636 648L713 553M531 358Q531 424 491 466Q451 508 388 508Q317 508 268 454Q219 400 219 321Q219 256 258.50 213.50Q298 171 359 171Q430 171 480.50 225.50Q531 280 531 358Z"  horiz-adv-x="700" vert-adv-y="1000"  />

      
      <glyph glyph-name="unia5" unicode="&#xa5;" d="M510 665L348 351L427 351L410 278L311 278L280 221L397 221L380 150L260 150L226 0L95 0L129 150L9 150L26 221L144 221L141 278L39 278L56 351L137 351L118 665L251 665L242 349L375 665L510 665Z"  horiz-adv-x="417" vert-adv-y="1000"  />

      
      <glyph glyph-name="unia6" unicode="&#xa6;" d="M289 763L197 361L82 361L175 763L289 763M167 233L74-169L-40-169L52 233L167 233Z"  horiz-adv-x="205" vert-adv-y="1000"  />

      
      <glyph glyph-name="unia7" unicode="&#xa7;" d="M461 504L345 504L355 551Q360 571 360 588Q360 629 312 629Q284 629 267.50 610Q251 591 251 558Q251 526 288 485L382 381Q434 325 434 270Q434 222 408.50 182.50Q383 143 321 100Q347 63 347 18Q347-66 301.50-117Q256-168 155-168Q74-168 31-137Q-12-106-12-48Q-12-25-4 12L8 64L125 64L114 10Q107-23 107-33Q107-75 159-75Q219-75 219 10Q219 32 210 49Q201 66 170 101L80 202Q32 255 32 310Q32 353 57.50 390Q83 427 148 472Q127 506 127 543Q127 624 177 671Q227 718 320 718Q393 718 435.50 688.50Q478 659 478 608Q478 585 471 550L461 504M274 167L278 171Q308 201 315 212Q322 223 322 241Q322 266 301 290L194 410Q147 370 147 334Q147 310 178 275L274 167Z"  horiz-adv-x="437" vert-adv-y="1000"  />

      
      <glyph glyph-name="unia8" unicode="&#xa8;" d="M275 715L247 595L131 595L159 715L275 715M78 715L50 595L-67 595L-39 715L78 715Z"  horiz-adv-x="208" vert-adv-y="1000"  />

      
      <glyph glyph-name="unia9" unicode="&#xa9;" d="M567 412L476 412L483 443Q488 463 488 478Q488 507 451 507Q431 507 420.50 496Q410 485 404 458L362 263Q356 233 356 231Q356 205 394 205Q416 205 425 216.50Q434 228 442 261L452 301L544 301L532 247Q515 173 486 147Q457 121 391 121Q329 121 294.50 146.50Q260 172 260 219Q260 233 272 289L310 467Q324 534 360 562Q396 590 468 590Q523 590 552.50 567.50Q582 545 582 504Q582 479 577 454L567 412M777 360Q777 205 675 101Q573-3 420-3Q272-3 168.50 101Q65 205 65 353Q65 502 168.50 605.50Q272 709 421 709Q567 709 672 606.50Q777 504 777 360M731 347Q731 484 642 576.50Q553 669 421 669Q293 669 202 576Q111 483 111 352Q111 220 200.50 128.50Q290 37 420 37Q547 37 639 128.50Q731 220 731 347Z"  horiz-adv-x="819" vert-adv-y="1000"  />

      
      <glyph glyph-name="uniaa" unicode="&#xaa;" d="M296 361L209 361Q205 369 205 376Q205 384 207 393Q178 354 139 354Q75 354 75 426Q75 531 163 566L253 601L257 618Q260 630 260 642Q260 663 234 663Q210 663 204 633L199 609L122 609L128 635Q139 684 164 704Q189 724 241 724Q290 724 317 707Q344 690 344 658Q344 634 335 598L300 448Q290 406 290 385Q290 371 296 361M215 442L236 530Q185 509 174 492Q160 473 160 446Q160 424 179 424Q191 424 215 442Z"  horiz-adv-x="282" vert-adv-y="1000"  />

      
      <glyph glyph-name="uniab" unicode="&#xab;" d="M327 430L303 327L249 283L284 242L262 148L181 241L203 333L327 430M182 430L158 327L104 283L139 242L117 148L36 241L58 333L182 430Z"  horiz-adv-x="313" vert-adv-y="1000"  />

      
      <glyph glyph-name="uniac" unicode="&#xac;" d="M511 348L446 63L331 63L373 249L69 249L92 348L511 348Z"  horiz-adv-x="559" vert-adv-y="1000"  />

      
      <glyph glyph-name="uniad" unicode="&#xad;" d="M309 341L286 242L37 242L60 341L309 341Z"  horiz-adv-x="314" vert-adv-y="1000"  />

      
      <glyph glyph-name="uniae" unicode="&#xae;" d="M348 585L500 585Q534 585 553.50 566.50Q573 548 573 513Q573 500 570 486L560 441Q552 403 536.50 386.50Q521 370 489 364Q531 351 531 311Q531 293 526 272L509 193Q506 175 506 160Q506 142 514 133L423 133Q419 146 419 156Q419 169 423 184L440 264Q446 292 446 299Q446 328 408 328L376 328L333 133L250 133L348 585M777 360Q777 205 675 101Q573-3 420-3Q272-3 168.50 101Q65 205 65 353Q65 502 168.50 605.50Q272 709 421 709Q567 709 672 606.50Q777 504 777 360M731 347Q731 484 642 576.50Q553 669 421 669Q293 669 202 576Q111 483 111 352Q111 220 200.50 128.50Q290 37 420 37Q547 37 639 128.50Q731 220 731 347M392 401L423 401Q453 401 462.50 410Q472 419 480 454L485 474Q488 486 488 491Q488 515 453 515L416 515L392 401Z"  horiz-adv-x="819" vert-adv-y="1000"  />

      
      <glyph glyph-name="uniaf" unicode="&#xaf;" d="M255 675L236 594L-48 594L-30 675L255 675Z"  horiz-adv-x="208" vert-adv-y="1000"  />

      
      <glyph glyph-name="unib0" unicode="&#xb0;" d="M423 591Q423 524 376 476.50Q329 429 263 429Q196 429 148.50 476.50Q101 524 101 591Q101 658 148 705Q195 752 261 752Q329 752 376 705.50Q423 659 423 591M341 593Q341 625 318 648.50Q295 672 263 672Q230 672 206.50 649Q183 626 183 593Q183 561 206.50 537.50Q230 514 262 514Q295 514 318 537Q341 560 341 593Z"  horiz-adv-x="354" vert-adv-y="1000"  />

      
      <glyph glyph-name="unib1" unicode="&#xb1;" d="M525 415L501 315L363 315L327 157L212 157L248 315L107 315L130 415L271 415L307 572L422 572L386 415L525 415M453 101L430 0L35 0L58 101L453 101Z"  horiz-adv-x="559" vert-adv-y="1000"  />

      
      <glyph glyph-name="unib2" unicode="&#xb2;" d="M271 224L32 224Q51 305 74 344.50Q97 384 164 433Q213 468 227.50 484Q242 500 248 532L254 562Q257 577 257 583Q257 609 226 609Q208 609 199 600.50Q190 592 186 570L175 518L97 518L109 571Q121 623 149.50 647Q178 671 228 671Q280 671 309 649.50Q338 628 338 591Q338 578 335 563L329 530Q318 467 264 422L194 364Q148 327 138 292L285 292L271 224Z"  horiz-adv-x="319" vert-adv-y="1000"  />

      
      <glyph glyph-name="unib3" unicode="&#xb3;" d="M77 363L153 363L148 336Q145 321 145 310Q145 280 178 280Q211 280 221 327L232 379Q234 391 234 395Q234 434 185 434L168 434L181 486L197 486Q229 486 244 496.50Q259 507 268 541L275 568Q277 578 277 583Q277 611 245 611Q227 611 218 601.50Q209 592 202 566L194 534L118 534L125 565Q138 623 166.50 648Q195 673 253 673Q357 673 357 596Q357 589 353 569L347 540Q339 498 319.50 482Q300 466 264 463Q314 451 314 401Q314 386 309 364L299 318Q288 267 259 242.50Q230 218 173 218Q121 218 93 238.50Q65 259 65 297Q65 320 71 341L77 363Z"  horiz-adv-x="319" vert-adv-y="1000"  />

      
      <glyph glyph-name="unib4" unicode="&#xb4;" d="M222 706L76 574L-14 574L76 706L222 706Z"  horiz-adv-x="208" vert-adv-y="1000"  />

      
      <glyph glyph-name="unib5" unicode="&#xb5;" d="M455 508L367 125Q351 54 351 34Q351 12 361 0L236 0Q230 8 230 22Q230 32 232 42Q221 17 209 7Q197-3 177-3Q148-3 133 25L87-176L-32-176L126 508L244 508L163 153Q158 128 158 121Q158 83 194 83Q238 83 254 152L336 508L455 508Z"  horiz-adv-x="445" vert-adv-y="1000"  />

      
      <glyph glyph-name="unib6" unicode="&#xb6;" d="M624 706L604 623L569 623L387-167L299-167L481 623L390 623L207-167L118-167L227 301Q114 355 114 478Q114 535 139 584Q164 633 209 663Q274 706 407 706L624 706Z"  horiz-adv-x="580" vert-adv-y="1000"  />

      
      <glyph glyph-name="unib7" unicode="&#xb7;" d="M188 356L159 227L42 227L71 356L188 356Z"  horiz-adv-x="187" vert-adv-y="1000"  />

      
      <glyph glyph-name="unib8" unicode="&#xb8;" d="M96 9L141 9L127-51Q214-56 214-113Q214-150 184.50-169.50Q155-189 99-189Q41-189-6-172L3-143Q33-148 50-148Q96-148 96-119Q96-99 70-91L96 9Z"  horiz-adv-x="208" vert-adv-y="1000"  />

      
      <glyph glyph-name="unib9" unicode="&#xb9;" d="M314 665L213 224L132 224L208 558Q178 537 136 534L151 597Q182 606 204.50 620Q227 634 253 665L314 665Z"  horiz-adv-x="319" vert-adv-y="1000"  />

      
      <glyph glyph-name="uniba" unicode="&#xba;" d="M349 614L312 460Q299 405 269.50 380Q240 355 188 355Q135 355 107 375.50Q79 396 79 434Q79 445 85 472L121 622Q146 725 249 725Q298 725 325.50 704.50Q353 684 353 649Q353 631 349 614M224 449L263 612Q268 634 268 641Q268 664 242 664Q218 664 208 629L167 462Q164 451 164 440Q164 418 190 418Q216 418 224 449Z"  horiz-adv-x="282" vert-adv-y="1000"  />

      
      <glyph glyph-name="unibb" unicode="&#xbb;" d="M312 335L291 243L166 146L190 249L244 293L209 334L231 428L312 335M167 335L146 243L21 146L45 249L99 293L65 334L86 428L167 335Z"  horiz-adv-x="313" vert-adv-y="1000"  />

      
      <glyph glyph-name="unibc" unicode="&#xbc;" d="M614 692L191-46L132-24L556 715L614 692M300 665L199 224L118 224L194 558Q164 537 122 534L137 597Q168 606 190.50 620Q213 634 239 665L300 665M681 441L616 156L650 156L633 87L600 87L580 0L504 0L524 87L382 87L398 152L584 441L681 441M594 370L468 156L540 156L594 370Z"  horiz-adv-x="708" vert-adv-y="1000"  />

      
      <glyph glyph-name="unibd" unicode="&#xbd;" d="M605 692L183-46L124-24L548 715L605 692M301 665L200 224L119 224L195 558Q165 537 123 534L138 597Q169 606 191.50 620Q214 634 240 665L301 665M622 0L383 0Q402 79 424.50 116.50Q447 154 515 204Q564 239 578.50 255Q593 271 599 303L605 333Q608 348 608 354Q608 380 577 380Q559 380 550 371.50Q541 363 537 341L526 289L448 289L460 342Q472 394 500.50 418Q529 442 579 442Q631 442 660 420.50Q689 399 689 362Q689 349 686 334L680 301Q673 264 658.50 239.50Q644 215 615 193L545 139Q500 105 489 68L636 68L622 0Z"  horiz-adv-x="708" vert-adv-y="1000"  />

      
      <glyph glyph-name="unibe" unicode="&#xbe;" d="M636 693L213-45L154-23L578 716L636 693M73 363L149 363L144 336Q141 321 141 310Q141 280 174 280Q207 280 217 327L228 379Q230 391 230 395Q230 434 181 434L164 434L177 486L193 486Q225 486 240 496.50Q255 507 264 541L271 568Q273 578 273 583Q273 611 241 611Q223 611 214 601.50Q205 592 198 566L190 534L114 534L121 565Q134 623 162.50 648Q191 673 249 673Q353 673 353 596Q353 589 349 569L343 540Q335 498 315.50 482Q296 466 260 463Q310 451 310 401Q310 386 305 364L295 318Q284 267 255 242.50Q226 218 169 218Q117 218 89 238.50Q61 259 61 297Q61 320 67 341L73 363M688 441L623 156L657 156L640 87L607 87L587 0L511 0L531 87L389 87L405 152L591 441L688 441M601 370L475 156L547 156L601 370Z"  horiz-adv-x="708" vert-adv-y="1000"  />

      
      <glyph glyph-name="unibf" unicode="&#xbf;" d="M238 517L351 517L344 485Q333 436 321 411Q309 386 277 353L199 272Q166 237 153 208Q146 192 138 155Q130 118 130 105Q130 70 170 70Q197 70 209 89Q221 108 232 152L253 241L364 241L347 167Q339 132 333 111.50Q327 91 313 64.50Q299 38 280 24Q261 10 229.50-0.50Q198-11 155-11Q86-11 48.50 17.50Q11 46 11 99Q11 152 35 214Q46 242 54.50 255Q63 268 95 303L178 394Q208 427 216 442.50Q224 458 233 495L238 517M249 576L279 706L395 706L365 576L249 576Z"  horiz-adv-x="417" vert-adv-y="1000"  />

      
      <glyph glyph-name="unic0" unicode="&#xc0;" d="M249 706L398 706L379 0L251 0L259 115L139 115L95 0L-39 0L249 706M178 224L268 224L290 527L178 224M391 762L304 762L190 895L337 895L391 762Z"  horiz-adv-x="437" vert-adv-y="1000"  />

      
      <glyph glyph-name="unic1" unicode="&#xc1;" d="M249 706L398 706L379 0L251 0L259 115L139 115L95 0L-39 0L249 706M178 224L268 224L290 527L178 224M495 897L351 763L259 763L340 897L495 897Z"  horiz-adv-x="437" vert-adv-y="1000"  />

      
      <glyph glyph-name="unic2" unicode="&#xc2;" d="M249 706L398 706L379 0L251 0L259 115L139 115L95 0L-39 0L249 706M178 224L268 224L290 527L178 224M473 762L374 762L340 835L282 762L172 762L282 895L411 895L473 762Z"  horiz-adv-x="437" vert-adv-y="1000"  />

      
      <glyph glyph-name="unic3" unicode="&#xc3;" d="M249 706L398 706L379 0L251 0L259 115L139 115L95 0L-39 0L249 706M178 224L268 224L290 527L178 224M447 886L508 886Q492 819 468.50 789Q445 759 406 759Q382 759 344 778L314 793Q291 805 277 805Q246 805 232 763L165 763Q181 826 207.50 856.50Q234 887 277 887Q300 887 334 872L377 852Q395 843 407 843Q421 843 429 852Q437 861 447 886Z"  horiz-adv-x="437" vert-adv-y="1000"  />

      
      <glyph glyph-name="unic4" unicode="&#xc4;" d="M249 706L398 706L379 0L251 0L259 115L139 115L95 0L-39 0L249 706M178 224L268 224L290 527L178 224M516 883L488 762L372 762L400 883L516 883M316 883L288 762L171 762L199 883L316 883Z"  horiz-adv-x="437" vert-adv-y="1000"  />

      
      <glyph glyph-name="unic5" unicode="&#xc5;" d="M249 706L398 706L379 0L251 0L259 115L139 115L95 0L-39 0L249 706M178 224L268 224L290 527L178 224M398 892.50Q398 892.50 411 879.25Q424 866 424 829Q424 792 398 766Q372 740 335 740Q298 740 272 766.50Q246 793 246 830Q246 866 272 892.50Q298 919 334 919Q372 919 398 892.50M376 829Q376 847 364 860Q352 873 335 873Q317 873 305 860.50Q293 848 293 830Q293 812 305.50 799.50Q318 787 335 787Q352 787 364 799.50Q376 812 376 829Z"  horiz-adv-x="437" vert-adv-y="1000"  />

      
      <glyph glyph-name="unic6" unicode="&#xc6;" d="M786 706L761 597L554 597L516 434L721 434L696 328L492 328L441 109L681 109L656 0L286 0L320 146L189 146L106 0L-45 0L384 706L786 706M417 560L248 253L344 253L417 560Z"  horiz-adv-x="712" vert-adv-y="1000"  />

      
      <glyph glyph-name="unic7" unicode="&#xc7;" d="M447 265L428 180Q403 69 354.50 28Q306-13 209-16L201-51Q287-56 287-113Q287-189 173-189Q108-189 69-172L78-143Q107-148 124-148Q170-148 170-119Q170-100 144-91L164-13Q32-4 32 112Q32 138 43 186L124 534Q148 636 200 678.50Q252 721 353 721Q520 721 520 608Q520 579 510 536L490 449L362 449L378 521Q386 557 386 574Q386 621 333 621Q302 621 284.50 603Q267 585 257 544L171 174Q165 145 165 131Q165 86 219 86Q253 86 270 104.50Q287 123 298 173L319 265L447 265Z"  horiz-adv-x="458" vert-adv-y="1000"  />

      
      <glyph glyph-name="unic8" unicode="&#xc8;" d="M505 706L480 599L268 599L230 433L430 433L405 326L205 326L155 109L377 109L352 0L0 0L163 706L505 706M408 762L321 762L207 895L354 895L408 762Z"  horiz-adv-x="417" vert-adv-y="1000"  />

      
      <glyph glyph-name="unic9" unicode="&#xc9;" d="M505 706L480 599L268 599L230 433L430 433L405 326L205 326L155 109L377 109L352 0L0 0L163 706L505 706M504 897L360 763L268 763L349 897L504 897Z"  horiz-adv-x="417" vert-adv-y="1000"  />

      
      <glyph glyph-name="unica" unicode="&#xca;" d="M505 706L480 599L268 599L230 433L430 433L405 326L205 326L155 109L377 109L352 0L0 0L163 706L505 706M487 762L388 762L354 835L296 762L186 762L296 895L425 895L487 762Z"  horiz-adv-x="417" vert-adv-y="1000"  />

      
      <glyph glyph-name="unicb" unicode="&#xcb;" d="M505 706L480 599L268 599L230 433L430 433L405 326L205 326L155 109L377 109L352 0L0 0L163 706L505 706M530 883L502 762L386 762L414 883L530 883M330 883L302 762L185 762L213 883L330 883Z"  horiz-adv-x="417" vert-adv-y="1000"  />

      
      <glyph glyph-name="unicc" unicode="&#xcc;" d="M292 706L129 0L0 0L163 706L292 706M305 762L218 762L104 895L251 895L305 762Z"  horiz-adv-x="228" vert-adv-y="1000"  />

      
      <glyph glyph-name="unicd" unicode="&#xcd;" d="M292 706L129 0L0 0L163 706L292 706M398 897L254 763L162 763L243 897L398 897Z"  horiz-adv-x="228" vert-adv-y="1000"  />

      
      <glyph glyph-name="unice" unicode="&#xce;" d="M292 706L129 0L0 0L163 706L292 706M386 762L287 762L253 835L195 762L85 762L195 895L324 895L386 762Z"  horiz-adv-x="228" vert-adv-y="1000"  />

      
      <glyph glyph-name="unicf" unicode="&#xcf;" d="M292 706L129 0L0 0L163 706L292 706M425 883L397 762L281 762L309 883L425 883M225 883L197 762L80 762L108 883L225 883Z"  horiz-adv-x="228" vert-adv-y="1000"  />

      
      <glyph glyph-name="unid0" unicode="&#xd0;" d="M163 706L360 706Q516 706 516 582Q516 555 501 491L424 159Q402 66 351 33Q300 0 211 0L0 0L92 392L34 392L52 467L109 467L163 706M269 603L239 467L315 467L298 392L222 392L154 103L200 103Q250 103 270 119Q290 135 302 189L378 519Q384 546 384 558Q384 583 368 593Q352 603 312 603L269 603Z"  horiz-adv-x="479" vert-adv-y="1000"  />

      
      <glyph glyph-name="unid1" unicode="&#xd1;" d="M563 706L400 0L236 0L233 529L122 0L0 0L163 706L330 706L337 188L444 706L563 706M500 886L561 886Q545 819 521.50 789Q498 759 459 759Q435 759 397 778L367 793Q344 805 330 805Q298 805 285 763L218 763Q234 826 260.50 856.50Q287 887 330 887Q353 887 387 872L430 852Q448 843 460 843Q474 843 482 852Q490 861 500 886Z"  horiz-adv-x="500" vert-adv-y="1000"  />

      
      <glyph glyph-name="unid2" unicode="&#xd2;" d="M503 516L424 172Q403 81 357.50 33Q312-15 208-15Q29-15 29 123Q29 155 41 207L116 529Q141 635 188 678.50Q235 722 332 722Q419 722 466 686.50Q513 651 513 585Q513 561 503 516M295 180L375 524Q382 553 382 573Q382 623 326 623Q292 623 276 605Q260 587 247 530L169 192Q159 148 159 136Q159 87 218 87Q238 87 251 92.50Q264 98 272.50 113Q281 128 285 141Q289 154 295 180M406 762L319 762L205 895L352 895L406 762Z"  horiz-adv-x="479" vert-adv-y="1000"  />

      
      <glyph glyph-name="unid3" unicode="&#xd3;" d="M503 516L424 172Q403 81 357.50 33Q312-15 208-15Q29-15 29 123Q29 155 41 207L116 529Q141 635 188 678.50Q235 722 332 722Q419 722 466 686.50Q513 651 513 585Q513 561 503 516M295 180L375 524Q382 553 382 573Q382 623 326 623Q292 623 276 605Q260 587 247 530L169 192Q159 148 159 136Q159 87 218 87Q238 87 251 92.50Q264 98 272.50 113Q281 128 285 141Q289 154 295 180M515 897L371 763L279 763L360 897L515 897Z"  horiz-adv-x="479" vert-adv-y="1000"  />

      
      <glyph glyph-name="unid4" unicode="&#xd4;" d="M503 516L424 172Q403 81 357.50 33Q312-15 208-15Q29-15 29 123Q29 155 41 207L116 529Q141 635 188 678.50Q235 722 332 722Q419 722 466 686.50Q513 651 513 585Q513 561 503 516M295 180L375 524Q382 553 382 573Q382 623 326 623Q292 623 276 605Q260 587 247 530L169 192Q159 148 159 136Q159 87 218 87Q238 87 251 92.50Q264 98 272.50 113Q281 128 285 141Q289 154 295 180M499 762L400 762L366 835L308 762L198 762L308 895L437 895L499 762Z"  horiz-adv-x="479" vert-adv-y="1000"  />

      
      <glyph glyph-name="unid5" unicode="&#xd5;" d="M503 516L424 172Q403 81 357.50 33Q312-15 208-15Q29-15 29 123Q29 155 41 207L116 529Q141 635 188 678.50Q235 722 332 722Q419 722 466 686.50Q513 651 513 585Q513 561 503 516M295 180L375 524Q382 553 382 573Q382 623 326 623Q292 623 276 605Q260 587 247 530L169 192Q159 148 159 136Q159 87 218 87Q238 87 251 92.50Q264 98 272.50 113Q281 128 285 141Q289 154 295 180M472 886L533 886Q517 819 493.50 789Q470 759 431 759Q407 759 369 778L339 793Q316 805 302 805Q270 805 257 763L190 763Q206 826 232.50 856.50Q259 887 302 887Q325 887 359 872L402 852Q420 843 432 843Q446 843 454 852Q462 861 472 886Z"  horiz-adv-x="479" vert-adv-y="1000"  />

      
      <glyph glyph-name="unid6" unicode="&#xd6;" d="M503 516L424 172Q403 81 357.50 33Q312-15 208-15Q29-15 29 123Q29 155 41 207L116 529Q141 635 188 678.50Q235 722 332 722Q419 722 466 686.50Q513 651 513 585Q513 561 503 516M295 180L375 524Q382 553 382 573Q382 623 326 623Q292 623 276 605Q260 587 247 530L169 192Q159 148 159 136Q159 87 218 87Q238 87 251 92.50Q264 98 272.50 113Q281 128 285 141Q289 154 295 180M537 883L509 762L393 762L421 883L537 883M337 883L309 762L192 762L220 883L337 883Z"  horiz-adv-x="479" vert-adv-y="1000"  />

      
      <glyph glyph-name="unid7" unicode="&#xd7;" d="M464 401L352 290L432 161L340 94L270 210L168 109L105 188L216 298L137 428L228 494L298 378L400 480L464 401Z"  horiz-adv-x="558" vert-adv-y="1000"  />

      
      <glyph glyph-name="unid8" unicode="&#xd8;" d="M562 664L512 604Q513 596 513 587Q513 559 503 516L429 193Q409 106 390 74Q339-15 210-15Q97-15 54 39L26 4L-25 47L29 112L29 123Q29 156 41 207L116 530Q141 640 191 681Q241 722 334 722Q434 722 484 670L512 703L562 664M198 319L378 540Q382 556 382 572Q382 623 326 623Q295 623 278 605.50Q261 588 251 547L198 319M344 392L165 177Q159 152 159 133Q159 111 174.50 99Q190 87 218 87Q255 87 269 107.50Q283 128 296 183L344 392Z"  horiz-adv-x="479" vert-adv-y="1000"  />

      
      <glyph glyph-name="unid9" unicode="&#xd9;" d="M540 706L414 159Q393 68 341.50 26.50Q290-15 198-15Q115-15 72 19.50Q29 54 29 120Q29 144 42 201L158 706L288 706L170 194Q161 152 161 143Q161 96 216 96Q245 96 261 114.50Q277 133 288 182L409 706L540 706M424 762L337 762L223 895L370 895L424 762Z"  horiz-adv-x="476" vert-adv-y="1000"  />

      
      <glyph glyph-name="unida" unicode="&#xda;" d="M540 706L414 159Q393 68 341.50 26.50Q290-15 198-15Q115-15 72 19.50Q29 54 29 120Q29 144 42 201L158 706L288 706L170 194Q161 152 161 143Q161 96 216 96Q245 96 261 114.50Q277 133 288 182L409 706L540 706M516 897L372 763L280 763L361 897L516 897Z"  horiz-adv-x="476" vert-adv-y="1000"  />

      
      <glyph glyph-name="unidb" unicode="&#xdb;" d="M540 706L414 159Q393 68 341.50 26.50Q290-15 198-15Q115-15 72 19.50Q29 54 29 120Q29 144 42 201L158 706L288 706L170 194Q161 152 161 143Q161 96 216 96Q245 96 261 114.50Q277 133 288 182L409 706L540 706M505 762L406 762L372 835L314 762L204 762L314 895L443 895L505 762Z"  horiz-adv-x="476" vert-adv-y="1000"  />

      
      <glyph glyph-name="unidc" unicode="&#xdc;" d="M540 706L414 159Q393 68 341.50 26.50Q290-15 198-15Q115-15 72 19.50Q29 54 29 120Q29 144 42 201L158 706L288 706L170 194Q161 152 161 143Q161 96 216 96Q245 96 261 114.50Q277 133 288 182L409 706L540 706M543 883L515 762L399 762L427 883L543 883M343 883L315 762L198 762L226 883L343 883Z"  horiz-adv-x="476" vert-adv-y="1000"  />

      
      <glyph glyph-name="unidd" unicode="&#xdd;" d="M528 706L273 209L224 0L91 0L142 218L113 706L246 706L240 350L388 706L528 706M491 897L347 763L255 763L336 897L491 897Z"  horiz-adv-x="417" vert-adv-y="1000"  />

      
      <glyph glyph-name="unide" unicode="&#xde;" d="M163 706L294 706L261 565L345 565Q480 565 480 457Q480 424 472 394L442 266Q416 153 285 153L167 153L131 0L0 0L163 706M238 461L190 254L253 254Q291 254 304 265.50Q317 277 326 317L343 389Q348 412 348 422Q348 443 335.50 452Q323 461 294 461L238 461Z"  horiz-adv-x="457" vert-adv-y="1000"  />

      
      <glyph glyph-name="unidf" unicode="&#xdf;" d="M114 0L-5 0L130 582Q147 656 185.50 688.50Q224 721 301 721Q371 721 409.50 693.50Q448 666 448 616Q448 593 442 569L433 528Q422 476 403 457Q384 438 340 433Q379 426 395.50 410.50Q412 395 412 366Q412 343 404 311L363 132Q358 110 354.50 98Q351 86 339.50 62.50Q328 39 313 26Q298 13 270.50 2Q243-9 208-9Q180-9 141 0L158 69Q169 67 181 67Q207 67 221.50 80.50Q236 94 244 129L286 310Q290 327 290 344Q290 378 242 378L224 378L243 459L257 459Q289 459 303 470Q317 481 324 514L337 569Q341 586 341 600Q341 635 298 635Q260 635 250 591L114 0Z"  horiz-adv-x="417" vert-adv-y="1000"  />

      
      <glyph glyph-name="unie0" unicode="&#xe0;" d="M321 0L196 0Q190 8 190 22Q190 33 192 45Q151-11 90-11Q48-11 25.50 13Q3 37 3 83Q3 133 17.50 178Q32 223 56 247Q86 277 145 300L259 344L265 368Q271 393 271 405Q271 437 233 437Q209 437 199 421Q189 405 182 370L179 355L70 355L77 388Q92 459 130.50 490Q169 521 242 521Q313 521 352 496Q391 471 391 425Q391 399 377 340L327 125Q311 53 311 34Q311 14 321 0M204 108L236 247Q190 228 173 218Q156 208 145 193Q122 161 122 115Q122 82 150 82Q168 82 204 108M323 574L237 574L103 706L256 706L323 574Z"  horiz-adv-x="396" vert-adv-y="1000"  />

      
      <glyph glyph-name="unie1" unicode="&#xe1;" d="M321 0L196 0Q190 8 190 22Q190 33 192 45Q151-11 90-11Q48-11 25.50 13Q3 37 3 83Q3 133 17.50 178Q32 223 56 247Q86 277 145 300L259 344L265 368Q271 393 271 405Q271 437 233 437Q209 437 199 421Q189 405 182 370L179 355L70 355L77 388Q92 459 130.50 490Q169 521 242 521Q313 521 352 496Q391 471 391 425Q391 399 377 340L327 125Q311 53 311 34Q311 14 321 0M204 108L236 247Q190 228 173 218Q156 208 145 193Q122 161 122 115Q122 82 150 82Q168 82 204 108M431 706L285 574L195 574L285 706L431 706Z"  horiz-adv-x="396" vert-adv-y="1000"  />

      
      <glyph glyph-name="unie2" unicode="&#xe2;" d="M321 0L196 0Q190 8 190 22Q190 33 192 45Q151-11 90-11Q48-11 25.50 13Q3 37 3 83Q3 133 17.50 178Q32 223 56 247Q86 277 145 300L259 344L265 368Q271 393 271 405Q271 437 233 437Q209 437 199 421Q189 405 182 370L179 355L70 355L77 388Q92 459 130.50 490Q169 521 242 521Q313 521 352 496Q391 471 391 425Q391 399 377 340L327 125Q311 53 311 34Q311 14 321 0M204 108L236 247Q190 228 173 218Q156 208 145 193Q122 161 122 115Q122 82 150 82Q168 82 204 108M409 574L309 574L282 647L217 574L107 574L224 706L353 706L409 574Z"  horiz-adv-x="396" vert-adv-y="1000"  />

      
      <glyph glyph-name="unie3" unicode="&#xe3;" d="M321 0L196 0Q190 8 190 22Q190 33 192 45Q151-11 90-11Q48-11 25.50 13Q3 37 3 83Q3 133 17.50 178Q32 223 56 247Q86 277 145 300L259 344L265 368Q271 393 271 405Q271 437 233 437Q209 437 199 421Q189 405 182 370L179 355L70 355L77 388Q92 459 130.50 490Q169 521 242 521Q313 521 352 496Q391 471 391 425Q391 399 377 340L327 125Q311 53 311 34Q311 14 321 0M204 108L236 247Q190 228 173 218Q156 208 145 193Q122 161 122 115Q122 82 150 82Q168 82 204 108M375 698L435 698Q409 572 337 572Q315 572 274 594Q233 616 214 616Q187 616 169 574L109 574Q122 633 151 666Q180 699 220 699Q247 699 287.50 677.50Q328 656 338 656Q351 656 359.50 665.50Q368 675 375 698Z"  horiz-adv-x="396" vert-adv-y="1000"  />

      
      <glyph glyph-name="unie4" unicode="&#xe4;" d="M321 0L196 0Q190 8 190 22Q190 33 192 45Q151-11 90-11Q48-11 25.50 13Q3 37 3 83Q3 133 17.50 178Q32 223 56 247Q86 277 145 300L259 344L265 368Q271 393 271 405Q271 437 233 437Q209 437 199 421Q189 405 182 370L179 355L70 355L77 388Q92 459 130.50 490Q169 521 242 521Q313 521 352 496Q391 471 391 425Q391 399 377 340L327 125Q311 53 311 34Q311 14 321 0M204 108L236 247Q190 228 173 218Q156 208 145 193Q122 161 122 115Q122 82 150 82Q168 82 204 108M448 715L420 595L304 595L332 715L448 715M251 715L223 595L106 595L134 715L251 715Z"  horiz-adv-x="396" vert-adv-y="1000"  />

      
      <glyph glyph-name="unie5" unicode="&#xe5;" d="M321 0L196 0Q190 8 190 22Q190 33 192 45Q151-11 90-11Q48-11 25.50 13Q3 37 3 83Q3 133 17.50 178Q32 223 56 247Q86 277 145 300L259 344L265 368Q271 393 271 405Q271 437 233 437Q209 437 199 421Q189 405 182 370L179 355L70 355L77 388Q92 459 130.50 490Q169 521 242 521Q313 521 352 496Q391 471 391 425Q391 399 377 340L327 125Q311 53 311 34Q311 14 321 0M204 108L236 247Q190 228 173 218Q156 208 145 193Q122 161 122 115Q122 82 150 82Q168 82 204 108M353 663Q353 626 326.50 599.50Q300 573 263 573Q226 573 199.50 598.50Q173 624 173 661Q173 699 199 725.50Q225 752 263 752Q301 752 327 726.50Q353 701 353 663M291.50 632Q291.50 632 297.75 638Q304 644 304 662Q304 680 292.50 692.50Q281 705 264 705Q246 705 233.50 692.50Q221 680 221 662Q221 645 233 632.50Q245 620 262 620Q279 620 291.50 632Z"  horiz-adv-x="396" vert-adv-y="1000"  />

      
      <glyph glyph-name="unie6" unicode="&#xe6;" d="M550 231L347 231L330 158Q323 129 323 116Q323 83 360 83Q380 83 391.50 96Q403 109 411 138L419 169L534 169L530 150Q513 67 474 28.50Q435-10 356-10Q259-10 224 48Q167-10 98-10Q3-10 3 85Q3 173 38.50 223Q74 273 145 300L259 344L265 368Q271 393 271 405Q271 437 233 437Q215 437 203.50 425Q192 413 189 401.50Q186 390 181 365L179 355L70 355L77 387Q92 458 130 489.50Q168 521 242 521Q303 521 345 500Q391 520 440 520Q585 520 585 405Q585 380 574 335L550 231M451 312L463 367Q467 384 467 393Q467 426 430 426Q410 426 398 414Q386 402 380 375L366 312L451 312M211 114L237 248Q191 229 173.50 218.50Q156 208 145 193Q122 161 122 115Q122 83 149 83Q173 83 211 114Z"  horiz-adv-x="583" vert-adv-y="1000"  />

      
      <glyph glyph-name="unie7" unicode="&#xe7;" d="M390 317L273 317L284 362Q290 388 290 401Q290 436 250 436Q237 436 228 432.50Q219 429 208.50 413Q198 397 191 367L142 158Q134 123 134 112Q134 96 145.50 87Q157 78 177 78Q200 78 211.50 92Q223 106 232 143L246 202L363 202L354 162Q333 65 301 32Q260-10 177-12L169-51Q255-56 255-113Q255-150 225.50-169.50Q196-189 140-189Q73-189 36-172L45-143Q75-148 92-148Q137-148 137-119Q137-99 112-91L133-9Q19 7 19 104Q19 129 28 171L72 365Q93 455 139 488Q185 521 253 521Q327 521 367.50 493.50Q408 466 408 415Q408 396 399 356L390 317Z"  horiz-adv-x="396" vert-adv-y="1000"  />

      
      <glyph glyph-name="unie8" unicode="&#xe8;" d="M363 230L160 230L138 129Q136 119 136 113Q136 79 174 79Q194 79 205.50 92Q217 105 224 134L232 168L347 168L343 149Q326 66 287 27.50Q248-11 168-11Q20-11 20 106Q20 135 36 206L73 373Q88 444 130 481.50Q172 519 255 519Q398 519 398 405Q398 379 387 334L363 230M264 311L277 372Q281 389 281 398Q281 431 245 431Q224 431 213 419.50Q202 408 195 380L179 311L264 311M322 574L236 574L102 706L255 706L322 574Z"  horiz-adv-x="396" vert-adv-y="1000"  />

      
      <glyph glyph-name="unie9" unicode="&#xe9;" d="M363 230L160 230L138 129Q136 119 136 113Q136 79 174 79Q194 79 205.50 92Q217 105 224 134L232 168L347 168L343 149Q326 66 287 27.50Q248-11 168-11Q20-11 20 106Q20 135 36 206L73 373Q88 444 130 481.50Q172 519 255 519Q398 519 398 405Q398 379 387 334L363 230M264 311L277 372Q281 389 281 398Q281 431 245 431Q224 431 213 419.50Q202 408 195 380L179 311L264 311M432 706L286 574L196 574L286 706L432 706Z"  horiz-adv-x="396" vert-adv-y="1000"  />

      
      <glyph glyph-name="uniea" unicode="&#xea;" d="M363 230L160 230L138 129Q136 119 136 113Q136 79 174 79Q194 79 205.50 92Q217 105 224 134L232 168L347 168L343 149Q326 66 287 27.50Q248-11 168-11Q20-11 20 106Q20 135 36 206L73 373Q88 444 130 481.50Q172 519 255 519Q398 519 398 405Q398 379 387 334L363 230M264 311L277 372Q281 389 281 398Q281 431 245 431Q224 431 213 419.50Q202 408 195 380L179 311L264 311M414 574L314 574L287 647L222 574L112 574L229 706L358 706L414 574Z"  horiz-adv-x="396" vert-adv-y="1000"  />

      
      <glyph glyph-name="unieb" unicode="&#xeb;" d="M363 230L160 230L138 129Q136 119 136 113Q136 79 174 79Q194 79 205.50 92Q217 105 224 134L232 168L347 168L343 149Q326 66 287 27.50Q248-11 168-11Q20-11 20 106Q20 135 36 206L73 373Q88 444 130 481.50Q172 519 255 519Q398 519 398 405Q398 379 387 334L363 230M264 311L277 372Q281 389 281 398Q281 431 245 431Q224 431 213 419.50Q202 408 195 380L179 311L264 311M450 715L422 595L306 595L334 715L450 715M253 715L225 595L108 595L136 715L253 715Z"  horiz-adv-x="396" vert-adv-y="1000"  />

      
      <glyph glyph-name="uniec" unicode="&#xec;" d="M232 508L115 0L-5 0L112 508L232 508M252 574L166 574L32 706L185 706L252 574Z"  horiz-adv-x="208" vert-adv-y="1000"  />

      
      <glyph glyph-name="unied" unicode="&#xed;" d="M232 508L115 0L-5 0L112 508L232 508M345 706L199 574L109 574L199 706L345 706Z"  horiz-adv-x="208" vert-adv-y="1000"  />

      
      <glyph glyph-name="uniee" unicode="&#xee;" d="M232 508L115 0L-5 0L112 508L232 508M330 574L230 574L203 647L138 574L28 574L145 706L274 706L330 574Z"  horiz-adv-x="208" vert-adv-y="1000"  />

      
      <glyph glyph-name="unief" unicode="&#xef;" d="M232 508L115 0L-5 0L112 508L232 508M365 715L337 595L221 595L249 715L365 715M168 715L140 595L23 595L51 715L168 715Z"  horiz-adv-x="208" vert-adv-y="1000"  />

      
      <glyph glyph-name="unif0" unicode="&#xf0;" d="M402 660L349 627Q400 547 400 454Q400 404 387 345L340 140Q322 60 281 24Q240-12 167-12Q94-12 55 17.50Q16 47 16 103Q16 123 24 158L70 356Q87 430 129 466.50Q171 503 226 503Q266 503 292 480Q284 534 265 575L189 529L162 573L240 621L236 626Q188 686 183 691L254 736Q293 708 320 670L377 705L402 660M220 130L270 350Q277 378 277 392Q277 424 242 424Q204 424 193 373L138 134Q133 114 133 103Q133 71 169 71Q190 71 201.50 84Q213 97 220 130Z"  horiz-adv-x="396" vert-adv-y="1000"  />

      
      <glyph glyph-name="unif1" unicode="&#xf1;" d="M112 508L233 508L223 471Q266 518 327 518Q370 518 394.50 496Q419 474 419 436Q419 413 405 352L324 0L206 0L290 364Q295 387 295 396Q295 433 259 433Q235 433 220.50 417Q206 401 198 365L114 0L-5 0L112 508M391 698L451 698Q425 572 353 572Q331 572 290 594Q249 616 230 616Q203 616 185 574L125 574Q138 633 167 666Q196 699 236 699Q263 699 303.50 677.50Q344 656 354 656Q367 656 375.50 665.50Q384 675 391 698Z"  horiz-adv-x="417" vert-adv-y="1000"  />

      
      <glyph glyph-name="unif2" unicode="&#xf2;" d="M391 362L340 140Q322 60 281 24Q240-12 167-12Q94-12 55 17.50Q16 47 16 103Q16 123 24 158L74 373Q109 521 252 521Q320 521 358.50 492Q397 463 397 412Q397 390 391 362M220 130L274 367Q281 395 281 408Q281 441 246 441Q222 441 212 426.50Q202 412 192 367L138 134Q133 114 133 103Q133 71 169 71Q190 71 201.50 84Q213 97 220 130M330 574L244 574L110 706L263 706L330 574Z"  horiz-adv-x="396" vert-adv-y="1000"  />

      
      <glyph glyph-name="unif3" unicode="&#xf3;" d="M391 362L340 140Q322 60 281 24Q240-12 167-12Q94-12 55 17.50Q16 47 16 103Q16 123 24 158L74 373Q109 521 252 521Q320 521 358.50 492Q397 463 397 412Q397 390 391 362M220 130L274 367Q281 395 281 408Q281 441 246 441Q222 441 212 426.50Q202 412 192 367L138 134Q133 114 133 103Q133 71 169 71Q190 71 201.50 84Q213 97 220 130M435 706L289 574L199 574L289 706L435 706Z"  horiz-adv-x="396" vert-adv-y="1000"  />

      
      <glyph glyph-name="unif4" unicode="&#xf4;" d="M391 362L340 140Q322 60 281 24Q240-12 167-12Q94-12 55 17.50Q16 47 16 103Q16 123 24 158L74 373Q109 521 252 521Q320 521 358.50 492Q397 463 397 412Q397 390 391 362M220 130L274 367Q281 395 281 408Q281 441 246 441Q222 441 212 426.50Q202 412 192 367L138 134Q133 114 133 103Q133 71 169 71Q190 71 201.50 84Q213 97 220 130M413 574L313 574L286 647L221 574L111 574L228 706L357 706L413 574Z"  horiz-adv-x="396" vert-adv-y="1000"  />

      
      <glyph glyph-name="unif5" unicode="&#xf5;" d="M391 362L340 140Q322 60 281 24Q240-12 167-12Q94-12 55 17.50Q16 47 16 103Q16 123 24 158L74 373Q109 521 252 521Q320 521 358.50 492Q397 463 397 412Q397 390 391 362M220 130L274 367Q281 395 281 408Q281 441 246 441Q222 441 212 426.50Q202 412 192 367L138 134Q133 114 133 103Q133 71 169 71Q190 71 201.50 84Q213 97 220 130M375 698L435 698Q409 572 337 572Q315 572 274 594Q233 616 214 616Q187 616 169 574L109 574Q122 633 151 666Q180 699 220 699Q247 699 287.50 677.50Q328 656 338 656Q351 656 359.50 665.50Q368 675 375 698Z"  horiz-adv-x="396" vert-adv-y="1000"  />

      
      <glyph glyph-name="unif6" unicode="&#xf6;" d="M391 362L340 140Q322 60 281 24Q240-12 167-12Q94-12 55 17.50Q16 47 16 103Q16 123 24 158L74 373Q109 521 252 521Q320 521 358.50 492Q397 463 397 412Q397 390 391 362M220 130L274 367Q281 395 281 408Q281 441 246 441Q222 441 212 426.50Q202 412 192 367L138 134Q133 114 133 103Q133 71 169 71Q190 71 201.50 84Q213 97 220 130M454 715L426 595L310 595L338 715L454 715M257 715L229 595L112 595L140 715L257 715Z"  horiz-adv-x="396" vert-adv-y="1000"  />

      
      <glyph glyph-name="unif7" unicode="&#xf7;" d="M410 533L381 405L269 405L298 533L410 533M517 349L494 248L84 248L107 349L517 349M333 192L304 64L192 64L221 192L333 192Z"  horiz-adv-x="559" vert-adv-y="1000"  />

      
      <glyph glyph-name="unif8" unicode="&#xf8;" d="M407 507L442 473L397 427L397 415Q397 390 391 362L340 140Q322 60 281 24Q240-12 167-12Q78-12 37 36L2 1L-33 32L17 87L17 103Q17 124 24 158L74 373Q109 521 252 521Q333 521 376 474L407 507M162 243L275 365L277 373Q282 396 282 408Q282 441 246 441Q208 441 198 395L162 243M254 274L141 148L137 133Q132 114 132 102Q132 70 169 70Q190 70 201.50 83.50Q213 97 221 132L254 274Z"  horiz-adv-x="396" vert-adv-y="1000"  />

      
      <glyph glyph-name="unif9" unicode="&#xf9;" d="M437 508L320 0L199 0L208 37Q167-10 105-10Q62-10 37.50 12Q13 34 13 72Q13 100 26 156L108 508L226 508L142 144Q137 121 137 112Q137 75 173 75Q218 75 234 143L318 508L437 508M351 574L265 574L131 706L284 706L351 574Z"  horiz-adv-x="417" vert-adv-y="1000"  />

      
      <glyph glyph-name="unifa" unicode="&#xfa;" d="M437 508L320 0L199 0L208 37Q167-10 105-10Q62-10 37.50 12Q13 34 13 72Q13 100 26 156L108 508L226 508L142 144Q137 121 137 112Q137 75 173 75Q218 75 234 143L318 508L437 508M441 706L295 574L205 574L295 706L441 706Z"  horiz-adv-x="417" vert-adv-y="1000"  />

      
      <glyph glyph-name="unifb" unicode="&#xfb;" d="M437 508L320 0L199 0L208 37Q167-10 105-10Q62-10 37.50 12Q13 34 13 72Q13 100 26 156L108 508L226 508L142 144Q137 121 137 112Q137 75 173 75Q218 75 234 143L318 508L437 508M430 574L330 574L303 647L238 574L128 574L245 706L374 706L430 574Z"  horiz-adv-x="417" vert-adv-y="1000"  />

      
      <glyph glyph-name="unifc" unicode="&#xfc;" d="M437 508L320 0L199 0L208 37Q167-10 105-10Q62-10 37.50 12Q13 34 13 72Q13 100 26 156L108 508L226 508L142 144Q137 121 137 112Q137 75 173 75Q218 75 234 143L318 508L437 508M470 715L442 595L326 595L354 715L470 715M273 715L245 595L128 595L156 715L273 715Z"  horiz-adv-x="417" vert-adv-y="1000"  />

      
      <glyph glyph-name="unifd" unicode="&#xfd;" d="M418 508L161-67Q135-127 102.50-152Q70-177 8-177Q-32-177-75-168L-36-75Q-9-82 6-82Q57-82 81-1Q69 452 67 508L183 508L175 181L299 508L418 508M422 706L276 574L186 574L276 706L422 706Z"  horiz-adv-x="354" vert-adv-y="1000"  />

      
      <glyph glyph-name="unife" unicode="&#xfe;" d="M157 706L277 706L219 461Q260 518 323 518Q369 518 394 494Q419 470 419 426Q419 399 406 343L359 138Q340 55 305 22Q270-11 216-11Q148-11 123 44L72-176L-47-176L157 706M243 145L288 344Q294 369 294 382Q294 417 256 417Q232 417 217 401Q202 385 193 345L147 147Q143 130 143 120Q143 79 186 79Q209 79 222 94Q235 109 243 145Z"  horiz-adv-x="417" vert-adv-y="1000"  />

      
      <glyph glyph-name="uniff" unicode="&#xff;" d="M418 508L161-67Q135-127 102.50-152Q70-177 8-177Q-32-177-75-168L-36-75Q-9-82 6-82Q57-82 81-1Q69 452 67 508L183 508L175 181L299 508L418 508M437 715L409 595L293 595L321 715L437 715M240 715L212 595L95 595L123 715L240 715Z"  horiz-adv-x="354" vert-adv-y="1000"  />

      
      <glyph glyph-name="uni0100" unicode="&#x0100;" d="M249 706L398 706L379 0L251 0L259 115L139 115L95 0L-39 0L249 706M178 224L268 224L290 527L178 224M489 851L470 770L186 770L204 851L489 851Z"  horiz-adv-x="437" vert-adv-y="1000"  />

      
      <glyph glyph-name="uni0101" unicode="&#x0101;" d="M321 0L196 0Q190 8 190 22Q190 33 192 45Q151-11 90-11Q48-11 25.50 13Q3 37 3 83Q3 133 17.50 178Q32 223 56 247Q86 277 145 300L259 344L265 368Q271 393 271 405Q271 437 233 437Q209 437 199 421Q189 405 182 370L179 355L70 355L77 388Q92 459 130.50 490Q169 521 242 521Q313 521 352 496Q391 471 391 425Q391 399 377 340L327 125Q311 53 311 34Q311 14 321 0M204 108L236 247Q190 228 173 218Q156 208 145 193Q122 161 122 115Q122 82 150 82Q168 82 204 108M433 675L414 594L130 594L148 675L433 675Z"  horiz-adv-x="396" vert-adv-y="1000"  />

      
      <glyph glyph-name="uni0102" unicode="&#x0102;" d="M249 706L398 706L379 0L251 0L259 115L139 115L95 0L-39 0L249 706M178 224L268 224L290 527L178 224M447 910L504 881Q445 761 335 761Q276 761 239 797Q202 833 194 892L260 908Q266 884 288.50 867Q311 850 346 850Q414 850 447 910Z"  horiz-adv-x="437" vert-adv-y="1000"  />

      
      <glyph glyph-name="uni0103" unicode="&#x0103;" d="M321 0L196 0Q190 8 190 22Q190 33 192 45Q151-11 90-11Q48-11 25.50 13Q3 37 3 83Q3 133 17.50 178Q32 223 56 247Q86 277 145 300L259 344L265 368Q271 393 271 405Q271 437 233 437Q209 437 199 421Q189 405 182 370L179 355L70 355L77 388Q92 459 130.50 490Q169 521 242 521Q313 521 352 496Q391 471 391 425Q391 399 377 340L327 125Q311 53 311 34Q311 14 321 0M204 108L236 247Q190 228 173 218Q156 208 145 193Q122 161 122 115Q122 82 150 82Q168 82 204 108M398 737L454 708Q391 575 279 575Q218 575 181 613.50Q144 652 136 723L202 739Q215 668 293 668Q364 668 398 737Z"  horiz-adv-x="396" vert-adv-y="1000"  />

      
      <glyph glyph-name="uni0104" unicode="&#x0104;" d="M249 706L398 706L379 0L366 0Q334-8 307-37Q280-66 280-94Q280-129 316-129Q338-129 375-110L356-175Q318-190 281-190Q237-190 209-168.50Q181-147 181-112Q181-77 204-51.50Q227-26 278 0L251 0L259 115L139 115L95 0L-39 0L249 706M178 224L268 224L290 527L178 224Z"  horiz-adv-x="437" vert-adv-y="1000"  />

      
      <glyph glyph-name="uni0105" unicode="&#x0105;" d="M321 0L295 0Q257-12 233.50-41.50Q210-71 210-94Q210-129 246-129Q268-129 305-110L286-175Q248-190 211-190Q167-190 139-168.50Q111-147 111-112Q111-77 133-52.50Q155-28 207 0L196 0Q190 8 190 22Q190 33 192 45Q151-11 90-11Q48-11 25.50 13Q3 37 3 83Q3 133 17.50 178Q32 223 56 247Q86 277 145 300L259 344L265 368Q271 393 271 405Q271 437 233 437Q209 437 199 421Q189 405 182 370L179 355L70 355L77 388Q92 459 130.50 490Q169 521 242 521Q313 521 352 496Q391 471 391 425Q391 399 377 340L327 125Q311 53 311 34Q311 14 321 0M204 108L236 247Q190 228 173 218Q156 208 145 193Q122 161 122 115Q122 82 150 82Q168 82 204 108Z"  horiz-adv-x="396" vert-adv-y="1000"  />

      
      <glyph glyph-name="uni0106" unicode="&#x0106;" d="M490 449L362 449L378 521Q387 558 387 572Q387 621 333 621Q302 621 284.50 603Q267 585 257 544L171 174Q165 145 165 131Q165 86 219 86Q253 86 270 104.50Q287 123 298 173L319 265L447 265L428 180Q403 66 354.50 25.50Q306-15 205-15Q113-15 72.50 17.50Q32 50 32 112Q32 136 43 186L124 534Q148 636 200 678.50Q252 721 353 721Q520 721 520 608Q520 579 510 536L490 449M541 897L397 763L305 763L386 897L541 897Z"  horiz-adv-x="458" vert-adv-y="1000"  />

      
      <glyph glyph-name="uni0107" unicode="&#x0107;" d="M390 317L273 317L284 362Q290 388 290 401Q290 436 250 436Q230 436 215.50 423Q201 410 191 367L142 158Q134 123 134 112Q134 96 145.50 87Q157 78 177 78Q200 78 211.50 92Q223 106 232 143L246 202L363 202L354 162Q333 65 301 32Q259-12 175-12Q19-12 19 104Q19 129 28 171L72 365Q86 428 117 464.50Q148 501 179.50 511Q211 521 253 521Q327 521 367.50 493.50Q408 466 408 415Q408 396 399 356L390 317M450 706L304 574L214 574L304 706L450 706Z"  horiz-adv-x="396" vert-adv-y="1000"  />

      
      <glyph glyph-name="uni0108" unicode="&#x0108;" d="M490 449L362 449L378 521Q387 558 387 572Q387 621 333 621Q302 621 284.50 603Q267 585 257 544L171 174Q165 145 165 131Q165 86 219 86Q253 86 270 104.50Q287 123 298 173L319 265L447 265L428 180Q403 66 354.50 25.50Q306-15 205-15Q113-15 72.50 17.50Q32 50 32 112Q32 136 43 186L124 534Q148 636 200 678.50Q252 721 353 721Q520 721 520 608Q520 579 510 536L490 449M521 762L422 762L388 835L330 762L220 762L330 895L459 895L521 762Z"  horiz-adv-x="458" vert-adv-y="1000"  />

      
      <glyph glyph-name="uni0109" unicode="&#x0109;" d="M390 317L273 317L284 362Q290 388 290 401Q290 436 250 436Q230 436 215.50 423Q201 410 191 367L142 158Q134 123 134 112Q134 96 145.50 87Q157 78 177 78Q200 78 211.50 92Q223 106 232 143L246 202L363 202L354 162Q333 65 301 32Q259-12 175-12Q19-12 19 104Q19 129 28 171L72 365Q86 428 117 464.50Q148 501 179.50 511Q211 521 253 521Q327 521 367.50 493.50Q408 466 408 415Q408 396 399 356L390 317M431 574L331 574L304 647L239 574L129 574L246 706L375 706L431 574Z"  horiz-adv-x="396" vert-adv-y="1000"  />

      
      <glyph glyph-name="uni010A" unicode="&#x010A;" d="M490 449L362 449L378 521Q387 558 387 572Q387 621 333 621Q302 621 284.50 603Q267 585 257 544L171 174Q165 145 165 131Q165 86 219 86Q253 86 270 104.50Q287 123 298 173L319 265L447 265L428 180Q403 66 354.50 25.50Q306-15 205-15Q113-15 72.50 17.50Q32 50 32 112Q32 136 43 186L124 534Q148 636 200 678.50Q252 721 353 721Q520 721 520 608Q520 579 510 536L490 449M449 883L421 762L303 762L331 883L449 883Z"  horiz-adv-x="458" vert-adv-y="1000"  />

      
      <glyph glyph-name="uni010B" unicode="&#x010B;" d="M390 317L273 317L284 362Q290 388 290 401Q290 436 250 436Q230 436 215.50 423Q201 410 191 367L142 158Q134 123 134 112Q134 96 145.50 87Q157 78 177 78Q200 78 211.50 92Q223 106 232 143L246 202L363 202L354 162Q333 65 301 32Q259-12 175-12Q19-12 19 104Q19 129 28 171L72 365Q86 428 117 464.50Q148 501 179.50 511Q211 521 253 521Q327 521 367.50 493.50Q408 466 408 415Q408 396 399 356L390 317M372 715L344 595L226 595L254 715L372 715Z"  horiz-adv-x="396" vert-adv-y="1000"  />

      
      <glyph glyph-name="uni010C" unicode="&#x010C;" d="M490 449L362 449L378 521Q387 558 387 572Q387 621 333 621Q302 621 284.50 603Q267 585 257 544L171 174Q165 145 165 131Q165 86 219 86Q253 86 270 104.50Q287 123 298 173L319 265L447 265L428 180Q403 66 354.50 25.50Q306-15 205-15Q113-15 72.50 17.50Q32 50 32 112Q32 136 43 186L124 534Q148 636 200 678.50Q252 721 353 721Q520 721 520 608Q520 579 510 536L490 449M540 894L430 761L301 761L239 894L338 894L372 821L430 894L540 894Z"  horiz-adv-x="458" vert-adv-y="1000"  />

      
      <glyph glyph-name="uni010D" unicode="&#x010D;" d="M390 317L273 317L284 362Q290 388 290 401Q290 436 250 436Q230 436 215.50 423Q201 410 191 367L142 158Q134 123 134 112Q134 96 145.50 87Q157 78 177 78Q200 78 211.50 92Q223 106 232 143L246 202L363 202L354 162Q333 65 301 32Q259-12 175-12Q19-12 19 104Q19 129 28 171L72 365Q86 428 117 464.50Q148 501 179.50 511Q211 521 253 521Q327 521 367.50 493.50Q408 466 408 415Q408 396 399 356L390 317M459 707L343 575L214 575L157 707L258 707L285 634L350 707L459 707Z"  horiz-adv-x="396" vert-adv-y="1000"  />

      
      <glyph glyph-name="uni010E" unicode="&#x010E;" d="M163 706L360 706Q516 706 516 582Q516 555 501 491L426 167Q406 80 360 40Q314 0 221 0L0 0L163 706M269 603L154 103L200 103Q252 103 270.50 118.50Q289 134 302 189L378 519Q384 546 384 558Q384 583 368 593Q352 603 312 603L269 603M511 894L401 761L272 761L210 894L309 894L343 821L401 894L511 894Z"  horiz-adv-x="479" vert-adv-y="1000"  />

      
      <glyph glyph-name="uni010F" unicode="&#x010F;" d="M484 706L321 0L201 0L213 47Q172-10 109-10Q63-10 38 14Q13 38 13 82Q13 109 26 165L79 395Q92 451 127.50 485Q163 519 216 519Q284 519 309 464L365 706L484 706M239 163L285 361Q289 378 289 388Q289 429 245 429Q223 429 210 414Q197 399 189 363L144 165Q138 139 138 126Q138 91 176 91Q200 91 215 107Q230 123 239 163M526 541L486 541L521 603L484 603L508 706L609 706L585 603L526 541Z"  horiz-adv-x="417" vert-adv-y="1000"  />

      
      <glyph glyph-name="uni0110" unicode="&#x0110;" d="M163 706L360 706Q516 706 516 582Q516 555 501 491L424 159Q402 66 351 33Q300 0 211 0L0 0L92 392L34 392L52 467L109 467L163 706M269 603L239 467L315 467L298 392L222 392L154 103L200 103Q250 103 270 119Q290 135 302 189L378 519Q384 546 384 558Q384 583 368 593Q352 603 312 603L269 603Z"  horiz-adv-x="479" vert-adv-y="1000"  />

      
      <glyph glyph-name="uni0111" unicode="&#x0111;" d="M453 571L321 0L201 0L213 47Q172-10 109-10Q63-10 38 14Q13 38 13 82Q13 109 26 165L79 395Q92 451 127.50 485Q163 519 216 519Q284 519 309 464L334 571L219 571L237 650L352 650L365 706L484 706L471 650L514 650L496 571L453 571M239 163L285 361Q289 378 289 388Q289 429 245 429Q223 429 210 414Q197 399 189 363L144 165Q138 139 138 126Q138 91 176 91Q200 91 215 107Q230 123 239 163Z"  horiz-adv-x="417" vert-adv-y="1000"  />

      
      <glyph glyph-name="uni0112" unicode="&#x0112;" d="M505 706L480 599L268 599L230 433L430 433L405 326L205 326L155 109L377 109L352 0L0 0L163 706L505 706M495 851L476 770L192 770L210 851L495 851Z"  horiz-adv-x="417" vert-adv-y="1000"  />

      
      <glyph glyph-name="uni0113" unicode="&#x0113;" d="M363 230L160 230L138 129Q136 119 136 113Q136 79 174 79Q194 79 205.50 92Q217 105 224 134L232 168L347 168L343 149Q326 66 287 27.50Q248-11 168-11Q20-11 20 106Q20 135 36 206L73 373Q88 444 130 481.50Q172 519 255 519Q398 519 398 405Q398 379 387 334L363 230M264 311L277 372Q281 389 281 398Q281 431 245 431Q224 431 213 419.50Q202 408 195 380L179 311L264 311M433 675L414 594L130 594L148 675L433 675Z"  horiz-adv-x="396" vert-adv-y="1000"  />

      
      <glyph glyph-name="uni0114" unicode="&#x0114;" d="M505 706L480 599L268 599L230 433L430 433L405 326L205 326L155 109L377 109L352 0L0 0L163 706L505 706M454 907L511 878Q452 758 342 758Q283 758 246 794Q209 830 201 889L267 905Q273 881 295.50 864Q318 847 353 847Q421 847 454 907Z"  horiz-adv-x="417" vert-adv-y="1000"  />

      
      <glyph glyph-name="uni0115" unicode="&#x0115;" d="M363 230L160 230L138 129Q136 119 136 113Q136 79 174 79Q194 79 205.50 92Q217 105 224 134L232 168L347 168L343 149Q326 66 287 27.50Q248-11 168-11Q20-11 20 106Q20 135 36 206L73 373Q88 444 130 481.50Q172 519 255 519Q398 519 398 405Q398 379 387 334L363 230M264 311L277 372Q281 389 281 398Q281 431 245 431Q224 431 213 419.50Q202 408 195 380L179 311L264 311M402 737L458 708Q395 575 283 575Q222 575 185 613.50Q148 652 140 723L206 739Q219 668 297 668Q368 668 402 737Z"  horiz-adv-x="396" vert-adv-y="1000"  />

      
      <glyph glyph-name="uni0116" unicode="&#x0116;" d="M505 706L480 599L268 599L230 433L430 433L405 326L205 326L155 109L377 109L352 0L0 0L163 706L505 706M419 883L391 762L273 762L301 883L419 883Z"  horiz-adv-x="417" vert-adv-y="1000"  />

      
      <glyph glyph-name="uni0117" unicode="&#x0117;" d="M363 230L160 230L138 129Q136 119 136 113Q136 79 174 79Q194 79 205.50 92Q217 105 224 134L232 168L347 168L343 149Q326 66 287 27.50Q248-11 168-11Q20-11 20 106Q20 135 36 206L73 373Q88 444 130 481.50Q172 519 255 519Q398 519 398 405Q398 379 387 334L363 230M264 311L277 372Q281 389 281 398Q281 431 245 431Q224 431 213 419.50Q202 408 195 380L179 311L264 311M358 715L330 595L212 595L240 715L358 715Z"  horiz-adv-x="396" vert-adv-y="1000"  />

      
      <glyph glyph-name="uni0118" unicode="&#x0118;" d="M505 706L480 599L268 599L230 433L430 433L405 326L205 326L155 109L377 109L352 0L330 0Q298-7 271-37Q244-67 244-94Q244-129 280-129Q302-129 339-110L320-175Q282-190 245-190Q201-190 173-168.50Q145-147 145-112Q145-77 167-52.50Q189-28 241 0L0 0L163 706L505 706Z"  horiz-adv-x="417" vert-adv-y="1000"  />

      
      <glyph glyph-name="uni0119" unicode="&#x0119;" d="M363 230L160 230L138 129Q136 119 136 113Q136 79 174 79Q194 79 205.50 92Q217 105 224 134L232 168L347 168L343 149Q330 89 311.50 58Q293 27 257 6Q218-16 197-44Q176-72 176-94Q176-129 212-129Q234-129 271-110L252-175Q214-190 177-190Q133-190 105-168.50Q77-147 77-112Q77-81 95-58Q113-35 154-11Q20-5 20 106Q20 135 36 206L73 373Q88 444 130 481.50Q172 519 255 519Q398 519 398 405Q398 379 387 334L363 230M264 311L277 372Q281 389 281 398Q281 431 245 431Q224 431 213 419.50Q202 408 195 380L179 311L264 311Z"  horiz-adv-x="396" vert-adv-y="1000"  />

      
      <glyph glyph-name="uni011A" unicode="&#x011A;" d="M505 706L480 599L268 599L230 433L430 433L405 326L205 326L155 109L377 109L352 0L0 0L163 706L505 706M508 894L398 761L269 761L207 894L306 894L340 821L398 894L508 894Z"  horiz-adv-x="417" vert-adv-y="1000"  />

      
      <glyph glyph-name="uni011B" unicode="&#x011B;" d="M363 230L160 230L138 129Q136 119 136 113Q136 79 174 79Q194 79 205.50 92Q217 105 224 134L232 168L347 168L343 149Q326 66 287 27.50Q248-11 168-11Q20-11 20 106Q20 135 36 206L73 373Q88 444 130 481.50Q172 519 255 519Q398 519 398 405Q398 379 387 334L363 230M264 311L277 372Q281 389 281 398Q281 431 245 431Q224 431 213 419.50Q202 408 195 380L179 311L264 311M444 707L328 575L199 575L142 707L243 707L270 634L335 707L444 707Z"  horiz-adv-x="396" vert-adv-y="1000"  />

      
      <glyph glyph-name="uni011C" unicode="&#x011C;" d="M492 478L363 478L378 546Q382 566 382 573Q382 619 326 619Q292 619 275.50 600Q259 581 247 528L166 176Q159 144 159 133Q159 111 173.50 98.50Q188 86 213 86Q245 86 263 105Q281 124 291 167L316 277L236 277L261 383L471 383L382 0L271 0L281 42Q230-15 150-15Q90-15 57 15Q24 45 24 100Q24 135 34 178L116 531Q141 636 191.50 678.50Q242 721 343 721Q519 721 519 611Q519 591 510 555L492 478M513 762L414 762L380 835L322 762L212 762L322 895L451 895L513 762Z"  horiz-adv-x="488" vert-adv-y="1000"  />

      
      <glyph glyph-name="uni011D" unicode="&#x011D;" d="M320 508L440 508L324 2Q313-48 301.50-77.50Q290-107 268.50-133.50Q247-160 212.50-171.50Q178-183 127-183Q-23-183-23-80Q-23-64-18-42L100-42Q96-57 96-62Q96-77 107.50-86Q119-95 138-95Q164-95 176.50-79.50Q189-64 199-19L211 36Q178-6 116-6Q67-6 39.50 18Q12 42 12 83Q12 101 23 152L74 374Q90 443 123.50 480.50Q157 518 220 518Q285 518 311 467L320 508M237 151L284 357Q288 372 288 386Q288 428 246 428Q223 428 210 414Q197 400 190 366L144 166Q137 134 137 126Q137 88 178 88Q222 88 237 151M425 574L325 574L298 647L233 574L123 574L240 706L369 706L425 574Z"  horiz-adv-x="417" vert-adv-y="1000"  />

      
      <glyph glyph-name="uni011E" unicode="&#x011E;" d="M492 478L363 478L378 546Q382 566 382 573Q382 619 326 619Q292 619 275.50 600Q259 581 247 528L166 176Q159 144 159 133Q159 111 173.50 98.50Q188 86 213 86Q245 86 263 105Q281 124 291 167L316 277L236 277L261 383L471 383L382 0L271 0L281 42Q230-15 150-15Q90-15 57 15Q24 45 24 100Q24 135 34 178L116 531Q141 636 191.50 678.50Q242 721 343 721Q519 721 519 611Q519 591 510 555L492 478M475 910L532 881Q473 761 363 761Q304 761 267 797Q230 833 222 892L288 908Q294 884 316.50 867Q339 850 374 850Q442 850 475 910Z"  horiz-adv-x="488" vert-adv-y="1000"  />

      
      <glyph glyph-name="uni011F" unicode="&#x011F;" d="M320 508L440 508L324 2Q313-48 301.50-77.50Q290-107 268.50-133.50Q247-160 212.50-171.50Q178-183 127-183Q-23-183-23-80Q-23-64-18-42L100-42Q96-57 96-62Q96-77 107.50-86Q119-95 138-95Q164-95 176.50-79.50Q189-64 199-19L211 36Q178-6 116-6Q67-6 39.50 18Q12 42 12 83Q12 101 23 152L74 374Q90 443 123.50 480.50Q157 518 220 518Q285 518 311 467L320 508M237 151L284 357Q288 372 288 386Q288 428 246 428Q223 428 210 414Q197 400 190 366L144 166Q137 134 137 126Q137 88 178 88Q222 88 237 151M410 737L466 708Q403 575 291 575Q230 575 193 613.50Q156 652 148 723L214 739Q227 668 305 668Q376 668 410 737Z"  horiz-adv-x="417" vert-adv-y="1000"  />

      
      <glyph glyph-name="uni0120" unicode="&#x0120;" d="M492 478L363 478L378 546Q382 566 382 573Q382 619 326 619Q292 619 275.50 600Q259 581 247 528L166 176Q159 144 159 133Q159 111 173.50 98.50Q188 86 213 86Q245 86 263 105Q281 124 291 167L316 277L236 277L261 383L471 383L382 0L271 0L281 42Q230-15 150-15Q90-15 57 15Q24 45 24 100Q24 135 34 178L116 531Q141 636 191.50 678.50Q242 721 343 721Q519 721 519 611Q519 591 510 555L492 478M442 883L414 762L296 762L324 883L442 883Z"  horiz-adv-x="488" vert-adv-y="1000"  />

      
      <glyph glyph-name="uni0121" unicode="&#x0121;" d="M320 508L440 508L324 2Q313-48 301.50-77.50Q290-107 268.50-133.50Q247-160 212.50-171.50Q178-183 127-183Q-23-183-23-80Q-23-64-18-42L100-42Q96-57 96-62Q96-77 107.50-86Q119-95 138-95Q164-95 176.50-79.50Q189-64 199-19L211 36Q178-6 116-6Q67-6 39.50 18Q12 42 12 83Q12 101 23 152L74 374Q90 443 123.50 480.50Q157 518 220 518Q285 518 311 467L320 508M237 151L284 357Q288 372 288 386Q288 428 246 428Q223 428 210 414Q197 400 190 366L144 166Q137 134 137 126Q137 88 178 88Q222 88 237 151M367 715L339 595L221 595L249 715L367 715Z"  horiz-adv-x="417" vert-adv-y="1000"  />

      
      <glyph glyph-name="uni0122" unicode="&#x0122;" d="M492 478L363 478L378 546Q382 566 382 573Q382 619 326 619Q292 619 275.50 600Q259 581 247 528L166 176Q159 144 159 133Q159 111 173.50 98.50Q188 86 213 86Q245 86 263 105Q281 124 291 167L316 277L236 277L261 383L471 383L382 0L271 0L281 42Q230-15 150-15Q90-15 57 15Q24 45 24 100Q24 135 34 178L116 531Q141 636 191.50 678.50Q242 721 343 721Q519 721 519 611Q519 591 510 555L492 478M160-179L124-179L156-123L123-123L143-35L234-35L214-123L160-179Z"  horiz-adv-x="488" vert-adv-y="1000"  />

      
      <glyph glyph-name="uni0123" unicode="&#x0123;" d="M320 508L440 508L324 2Q313-48 301.50-77.50Q290-107 268.50-133.50Q247-160 212.50-171.50Q178-183 127-183Q-23-183-23-80Q-23-64-18-42L100-42Q96-57 96-62Q96-77 107.50-86Q119-95 138-95Q164-95 176.50-79.50Q189-64 199-19L211 36Q178-6 116-6Q67-6 39.50 18Q12 42 12 83Q12 101 23 152L74 374Q90 443 123.50 480.50Q157 518 220 518Q285 518 311 467L320 508M237 151L284 357Q288 372 288 386Q288 428 246 428Q223 428 210 414Q197 400 190 366L144 166Q137 134 137 126Q137 88 178 88Q222 88 237 151M304 718L340 718L308 662L341 662L321 574L230 574L250 662L304 718Z"  horiz-adv-x="417" vert-adv-y="1000"  />

      
      <glyph glyph-name="uni0124" unicode="&#x0124;" d="M542 706L379 0L249 0L323 323L204 323L130 0L0 0L163 706L293 706L229 429L348 429L412 706L542 706M521 762L422 762L388 835L330 762L220 762L330 895L459 895L521 762Z"  horiz-adv-x="479" vert-adv-y="1000"  />

      
      <glyph glyph-name="uni0125" unicode="&#x0125;" d="M157 706L278 706L223 471Q266 518 327 518Q370 518 394.50 496Q419 474 419 436Q419 413 405 352L324 0L206 0L290 364Q295 387 295 396Q295 433 259 433Q235 433 220.50 417Q206 401 198 365L114 0L-5 0L157 706M365 762L266 762L232 835L174 762L64 762L174 895L303 895L365 762Z"  horiz-adv-x="417" vert-adv-y="1000"  />

      
      <glyph glyph-name="uni0126" unicode="&#x0126;" d="M75 523L97 621L143 621L163 706L293 706L273 621L392 621L412 706L542 706L522 621L569 621L547 523L499 523L379 0L249 0L323 323L204 323L130 0L0 0L120 523L75 523M229 429L348 429L369 523L250 523L229 429Z"  horiz-adv-x="479" vert-adv-y="1000"  />

      
      <glyph glyph-name="uni0127" unicode="&#x0127;" d="M361 571L246 571L223 471Q266 518 327 518Q370 518 394.50 496Q419 474 419 436Q419 413 405 352L324 0L206 0L290 364Q295 387 295 396Q295 433 259 433Q235 433 220.50 417Q206 401 198 365L114 0L-5 0L126 571L84 571L102 650L144 650L157 706L278 706L265 650L379 650L361 571Z"  horiz-adv-x="417" vert-adv-y="1000"  />

      
      <glyph glyph-name="uni0128" unicode="&#x0128;" d="M292 706L129 0L0 0L163 706L292 706M354 886L415 886Q399 819 375.50 789Q352 759 313 759Q289 759 251 778L221 793Q198 805 184 805Q152 805 139 763L72 763Q88 826 114.50 856.50Q141 887 184 887Q207 887 241 872L284 852Q302 843 314 843Q328 843 336 852Q344 861 354 886Z"  horiz-adv-x="228" vert-adv-y="1000"  />

      
      <glyph glyph-name="uni0129" unicode="&#x0129;" d="M232 508L115 0L-5 0L112 508L232 508M299 698L359 698Q333 572 261 572Q239 572 198 594Q157 616 138 616Q111 616 93 574L33 574Q46 633 75 666Q104 699 144 699Q171 699 211.50 677.50Q252 656 262 656Q275 656 283.50 665.50Q292 675 299 698Z"  horiz-adv-x="208" vert-adv-y="1000"  />

      
      <glyph glyph-name="uni012A" unicode="&#x012A;" d="M292 706L129 0L0 0L163 706L292 706M368 850L348 770L120 770L139 850L368 850Z"  horiz-adv-x="228" vert-adv-y="1000"  />

      
      <glyph glyph-name="uni012B" unicode="&#x012B;" d="M232 508L115 0L-5 0L112 508L232 508M322 675L302 594L74 594L93 675L322 675Z"  horiz-adv-x="208" vert-adv-y="1000"  />

      
      <glyph glyph-name="uni012C" unicode="&#x012C;" d="M292 706L129 0L0 0L163 706L292 706M354 910L411 881Q352 761 242 761Q183 761 146 797Q109 833 101 892L167 908Q173 884 195.50 867Q218 850 253 850Q321 850 354 910Z"  horiz-adv-x="228" vert-adv-y="1000"  />

      
      <glyph glyph-name="uni012D" unicode="&#x012D;" d="M232 508L115 0L-5 0L112 508L232 508M307 737L363 708Q300 575 188 575Q127 575 90 613.50Q53 652 45 723L111 739Q124 668 202 668Q272 668 307 737Z"  horiz-adv-x="208" vert-adv-y="1000"  />

      
      <glyph glyph-name="uni012E" unicode="&#x012E;" d="M292 706L129 0Q90-13 67.50-42Q45-71 45-94Q45-129 81-129Q103-129 140-110L121-175Q83-190 46-190Q2-190-26-168.50Q-54-147-54-112Q-54-77-32-52.50Q-10-28 42 0L0 0L163 706L292 706Z"  horiz-adv-x="228" vert-adv-y="1000"  />

      
      <glyph glyph-name="uni012F" unicode="&#x012F;" d="M232 508L115 0Q80-12 57-42Q34-72 34-94Q34-129 70-129Q92-129 129-110L110-175Q72-190 35-190Q-9-190-37-168.50Q-65-147-65-112Q-65-77-43-52.50Q-21-28 31 0L-5 0L112 508L232 508M278 706L250 586L130 586L158 706L278 706Z"  horiz-adv-x="208" vert-adv-y="1000"  />

      
      <glyph glyph-name="uni0130" unicode="&#x0130;" d="M292 706L129 0L0 0L163 706L292 706M322 883L294 762L176 762L204 883L322 883Z"  horiz-adv-x="228" vert-adv-y="1000"  />

      
      <glyph glyph-name="uni0131" unicode="&#x0131;" d="M232 508L115 0L-5 0L112 508L232 508Z"  horiz-adv-x="208" vert-adv-y="1000"  />

      
      <glyph glyph-name="uni0132" unicode="&#x0132;" d="M292 706L129 0L0 0L163 706L292 706M692 706L566 160Q543 61 498.50 22.50Q454-16 367-16Q292-16 253 14Q214 44 214 101Q214 130 223 167L236 224L357 224L343 164Q336 133 336 121Q336 88 375 88Q400 88 412.50 103.50Q425 119 435 161L561 706L692 706Z"  horiz-adv-x="624" vert-adv-y="1000"  />

      
      <glyph glyph-name="uni0133" unicode="&#x0133;" d="M278 706L250 586L130 586L158 706L278 706M232 508L115 0L-5 0L112 508L232 508M484 706L456 587L337 587L365 706L484 706M438 508L310-48Q294-117 259-147Q224-177 156-177Q136-177 109-174L132-75Q151-75 163.50-71.50Q176-68 182.50-59.50Q189-51 191-44.50Q193-38 197-23L319 508L438 508Z"  horiz-adv-x="416" vert-adv-y="1000"  />

      
      <glyph glyph-name="uni0134" unicode="&#x0134;" d="M464 706L338 160Q315 61 270.50 22.50Q226-16 139-16Q64-16 25 14Q-14 44-14 101Q-14 130-5 167L8 224L129 224L115 164Q108 132 108 121Q108 88 147 88Q172 88 184.50 103.50Q197 119 207 161L333 706L464 706M553 762L454 762L420 835L362 762L252 762L362 895L491 895L553 762Z"  horiz-adv-x="396" vert-adv-y="1000"  />

      
      <glyph glyph-name="uni0135" unicode="&#x0135;" d="M230 508L102-48Q86-117 51-147Q16-177-52-177Q-72-177-99-174L-76-75Q-57-75-44.50-71.50Q-32-68-25.50-59.50Q-19-51-17-44.50Q-15-38-11-23L111 508L230 508M319 574L219 574L192 647L127 574L17 574L134 706L263 706L319 574Z"  horiz-adv-x="208" vert-adv-y="1000"  />

      
      <glyph glyph-name="uni0136" unicode="&#x0136;" d="M566 706L333 391L411 0L274 0L212 345L132 0L0 0L163 706L295 706L231 431L428 706L566 706M173-179L137-179L169-123L136-123L156-35L247-35L227-123L173-179Z"  horiz-adv-x="458" vert-adv-y="1000"  />

      
      <glyph glyph-name="uni0137" unicode="&#x0137;" d="M454 508L279 296L362 0L233 0L173 261L113 0L-5 0L158 706L276 706L191 337L322 508L454 508M132-179L96-179L128-123L95-123L115-35L206-35L186-123L132-179Z"  horiz-adv-x="396" vert-adv-y="1000"  />

      
      <glyph glyph-name="uni0138" unicode="&#x0138;" d="M454 508L279 296L362 0L233 0L173 261L113 0L-5 0L113 508L231 508L191 337L322 508L454 508Z"  horiz-adv-x="396" vert-adv-y="1000"  />

      
      <glyph glyph-name="uni0139" unicode="&#x0139;" d="M346 107L321 0L0 0L163 706L293 706L155 107L346 107M423 897L279 763L187 763L268 897L423 897Z"  horiz-adv-x="375" vert-adv-y="1000"  />

      
      <glyph glyph-name="uni013A" unicode="&#x013A;" d="M278 706L115 0L-5 0L158 706L278 706M409 897L265 763L173 763L254 897L409 897Z"  horiz-adv-x="208" vert-adv-y="1000"  />

      
      <glyph glyph-name="uni013B" unicode="&#x013B;" d="M346 107L321 0L0 0L163 706L293 706L155 107L346 107M130-179L94-179L126-123L93-123L113-35L204-35L184-123L130-179Z"  horiz-adv-x="375" vert-adv-y="1000"  />

      
      <glyph glyph-name="uni013C" unicode="&#x013C;" d="M278 706L115 0L-5 0L158 706L278 706M20-179L-16-179L16-123L-17-123L3-35L94-35L74-123L20-179Z"  horiz-adv-x="208" vert-adv-y="1000"  />

      
      <glyph glyph-name="uni013D" unicode="&#x013D;" d="M346 107L321 0L0 0L163 706L293 706L155 107L346 107M336 541L296 541L331 603L294 603L318 706L419 706L395 603L336 541Z"  horiz-adv-x="375" vert-adv-y="1000"  />

      
      <glyph glyph-name="uni013E" unicode="&#x013E;" d="M278 706L115 0L-5 0L158 706L278 706M320 541L280 541L315 603L278 603L302 706L403 706L379 603L320 541Z"  horiz-adv-x="208" vert-adv-y="1000"  />

      
      <glyph glyph-name="uni013F" unicode="&#x013F;" d="M346 107L321 0L0 0L163 706L293 706L155 107L346 107M380 313L256 313L287 448L411 448L380 313Z"  horiz-adv-x="375" vert-adv-y="1000"  />

      
      <glyph glyph-name="uni0140" unicode="&#x0140;" d="M278 706L115 0L-5 0L158 706L278 706M328 301L216 301L246 433L358 433L328 301Z"  horiz-adv-x="295" vert-adv-y="1000"  />

      
      <glyph glyph-name="uni0141" unicode="&#x0141;" d="M363 587L332 452L206 330L155 107L346 107L321 0L0 0L47 203L-20 138L10 273L77 336L163 706L293 706L237 466L363 587Z"  horiz-adv-x="375" vert-adv-y="1000"  />

      
      <glyph glyph-name="uni0142" unicode="&#x0142;" d="M288 549L262 437L202 377L115 0L-5 0L56 263L-5 200L21 312L82 374L158 706L278 706L228 490L288 549Z"  horiz-adv-x="208" vert-adv-y="1000"  />

      
      <glyph glyph-name="uni0143" unicode="&#x0143;" d="M563 706L400 0L236 0L233 529L122 0L0 0L163 706L330 706L337 188L444 706L563 706M539 897L395 763L303 763L384 897L539 897Z"  horiz-adv-x="500" vert-adv-y="1000"  />

      
      <glyph glyph-name="uni0144" unicode="&#x0144;" d="M112 508L233 508L223 471Q266 518 327 518Q370 518 394.50 496Q419 474 419 436Q419 413 405 352L324 0L206 0L290 364Q295 387 295 396Q295 433 259 433Q235 433 220.50 417Q206 401 198 365L114 0L-5 0L112 508M454 706L308 574L218 574L308 706L454 706Z"  horiz-adv-x="417" vert-adv-y="1000"  />

      
      <glyph glyph-name="uni0145" unicode="&#x0145;" d="M563 706L400 0L236 0L233 529L122 0L0 0L163 706L330 706L337 188L444 706L563 706M177-179L141-179L173-123L140-123L160-35L251-35L231-123L177-179Z"  horiz-adv-x="500" vert-adv-y="1000"  />

      
      <glyph glyph-name="uni0146" unicode="&#x0146;" d="M112 508L233 508L223 471Q266 518 327 518Q370 518 394.50 496Q419 474 419 436Q419 413 405 352L324 0L206 0L290 364Q295 387 295 396Q295 433 259 433Q235 433 220.50 417Q206 401 198 365L114 0L-5 0L112 508M128-179L92-179L124-123L91-123L111-35L202-35L182-123L128-179Z"  horiz-adv-x="417" vert-adv-y="1000"  />

      
      <glyph glyph-name="uni0147" unicode="&#x0147;" d="M563 706L400 0L236 0L233 529L122 0L0 0L163 706L330 706L337 188L444 706L563 706M542 894L432 761L303 761L241 894L340 894L374 821L432 894L542 894Z"  horiz-adv-x="500" vert-adv-y="1000"  />

      
      <glyph glyph-name="uni0148" unicode="&#x0148;" d="M112 508L233 508L223 471Q266 518 327 518Q370 518 394.50 496Q419 474 419 436Q419 413 405 352L324 0L206 0L290 364Q295 387 295 396Q295 433 259 433Q235 433 220.50 417Q206 401 198 365L114 0L-5 0L112 508M465 707L349 575L220 575L163 707L264 707L291 634L356 707L465 707Z"  horiz-adv-x="417" vert-adv-y="1000"  />

      
      <glyph glyph-name="uni0149" unicode="&#x0149;" d="M112 508L233 508L223 471Q266 518 327 518Q370 518 394.50 496Q419 474 419 436Q419 413 405 352L324 0L206 0L290 364Q295 387 295 396Q295 433 259 433Q235 433 220.50 417Q206 401 198 365L114 0L-5 0L112 508M85 541L45 541L80 603L43 603L67 706L168 706L144 603L85 541Z"  horiz-adv-x="417" vert-adv-y="1000"  />

      
      <glyph glyph-name="uni014A" unicode="&#x014A;" d="M274-31Q274 8 264 148Q254 288 244 408L233 529L122 0L0 0L163 706L330 706Q330 666 336.50 559.50Q343 453 350 366L356 279L444 706L563 706L391-39Q375-107 344.50-137.50Q314-168 239-168Q212-168 190-165L214-64Q222-66 237-66Q265-66 274-31Z"  horiz-adv-x="500" vert-adv-y="1000"  />

      
      <glyph glyph-name="uni014B" unicode="&#x014B;" d="M114 0L-5 0L112 508L233 508L223 471Q266 518 327 518Q370 518 394.50 496Q419 474 419 436Q419 413 405 352L316-36Q309-67 301.50-86Q294-105 278-125.50Q262-146 234.50-155.50Q207-165 166-165Q142-165 121-162L143-66Q150-67 163-67Q179-67 188.50-55.50Q198-44 205-12L290 364Q295 387 295 396Q295 433 259 433Q235 433 220.50 417Q206 401 198 365L114 0Z"  horiz-adv-x="417" vert-adv-y="1000"  />

      
      <glyph glyph-name="uni014C" unicode="&#x014C;" d="M503 516L424 172Q403 81 357.50 33Q312-15 208-15Q29-15 29 123Q29 155 41 207L116 529Q141 635 188 678.50Q235 722 332 722Q419 722 466 686.50Q513 651 513 585Q513 561 503 516M295 180L375 524Q382 553 382 573Q382 623 326 623Q292 623 276 605Q260 587 247 530L169 192Q159 148 159 136Q159 87 218 87Q238 87 251 92.50Q264 98 272.50 113Q281 128 285 141Q289 154 295 180M515 851L496 770L212 770L230 851L515 851Z"  horiz-adv-x="479" vert-adv-y="1000"  />

      
      <glyph glyph-name="uni014D" unicode="&#x014D;" d="M391 362L340 140Q322 60 281 24Q240-12 167-12Q94-12 55 17.50Q16 47 16 103Q16 123 24 158L74 373Q109 521 252 521Q320 521 358.50 492Q397 463 397 412Q397 390 391 362M220 130L274 367Q281 395 281 408Q281 441 246 441Q222 441 212 426.50Q202 412 192 367L138 134Q133 114 133 103Q133 71 169 71Q190 71 201.50 84Q213 97 220 130M437 675L418 594L134 594L152 675L437 675Z"  horiz-adv-x="396" vert-adv-y="1000"  />

      
      <glyph glyph-name="uni014E" unicode="&#x014E;" d="M503 516L424 172Q403 81 357.50 33Q312-15 208-15Q29-15 29 123Q29 155 41 207L116 529Q141 635 188 678.50Q235 722 332 722Q419 722 466 686.50Q513 651 513 585Q513 561 503 516M295 180L375 524Q382 553 382 573Q382 623 326 623Q292 623 276 605Q260 587 247 530L169 192Q159 148 159 136Q159 87 218 87Q238 87 251 92.50Q264 98 272.50 113Q281 128 285 141Q289 154 295 180M483 910L540 881Q481 761 371 761Q312 761 275 797Q238 833 230 892L296 908Q302 884 324.50 867Q347 850 382 850Q450 850 483 910Z"  horiz-adv-x="479" vert-adv-y="1000"  />

      
      <glyph glyph-name="uni014F" unicode="&#x014F;" d="M391 362L340 140Q322 60 281 24Q240-12 167-12Q94-12 55 17.50Q16 47 16 103Q16 123 24 158L74 373Q109 521 252 521Q320 521 358.50 492Q397 463 397 412Q397 390 391 362M220 130L274 367Q281 395 281 408Q281 441 246 441Q222 441 212 426.50Q202 412 192 367L138 134Q133 114 133 103Q133 71 169 71Q190 71 201.50 84Q213 97 220 130M400 737L456 708Q393 575 281 575Q220 575 183 613.50Q146 652 138 723L204 739Q217 668 295 668Q366 668 400 737Z"  horiz-adv-x="396" vert-adv-y="1000"  />

      
      </font>
</defs>
</svg>
