<?xml version="1.0" standalone="no"?>
  <!DOCTYPE svg PUBLIC "-//W3C//DTD SVG 1.1//EN" "http://www.w3.org/Graphics/SVG/1.1/DTD/svg11.dtd" >
  <svg>
  <metadata>
  Created by font-carrier
  </metadata>
  <defs>
  <font id="AkzidenzGroteskPro-LightCn" horiz-adv-x="1000" vert-adv-y="1000" >
    <font-face
      
      font-family="Akzidenz-Grotesk Pro Light Cnd"
      
      font-weight="400"
      
      font-stretch="normal"
      
      units-per-em="1000"
      
      ascent="998"
      
      descent="-251"
      
    />
      <missing-glyph />

      

      
      <glyph glyph-name="uni21" unicode="&#x21;" d="M92 706L140 706L140 323L129 187L101 187L92 330L92 706M137 0L92 0L92 90L137 90L137 0Z"  horiz-adv-x="187" vert-adv-y="1000"  />

      
      <glyph glyph-name="uni22" unicode="&#x22;" d="M233 740L214 452L193 452L175 740L233 740M97 740L79 452L58 452L39 740L97 740Z"  horiz-adv-x="272" vert-adv-y="1000"  />

      
      <glyph glyph-name="uni23" unicode="&#x23;" d="M493 415L353 415L344 303L481 303L481 263L340 263L319 0L276 0L299 263L199 263L177 0L133 0L155 263L20 263L20 303L158 303L168 415L36 415L36 456L172 456L193 706L237 706L216 456L315 456L336 706L378 706L357 456L493 456L493 415M311 415L212 415L203 303L302 303L311 415Z"  horiz-adv-x="514" vert-adv-y="1000"  />

      
      <glyph glyph-name="uni24" unicode="&#x24;" d="M260 526L260 547Q260 611 241 636.50Q222 662 177 662Q134 662 115 638.50Q96 615 96 562Q96 546 98 532Q100 518 102.50 508Q105 498 112.50 485.50Q120 473 123.50 466.50Q127 460 140.50 446Q154 432 159.50 426.50Q165 421 183.50 403.50Q202 386 210 379Q279 313 301.50 272Q324 231 324 168Q324 14 194 1L194-71L163-71L163 1Q96 7 63 49Q30 91 30 180L30 224L74 224L74 186Q74 111 99 77.50Q124 44 179 44Q278 44 278 163Q278 214 261 245Q244 276 189 330Q177 342 149.50 368Q122 394 115 401.50Q108 409 91 428Q74 447 70.50 457Q67 467 59.50 485.50Q52 504 50.50 522Q49 540 49 565Q49 696 162 705L162 755L193 755L193 705Q252 697 278.50 664.50Q305 632 305 547L305 526L260 526Z"  horiz-adv-x="358" vert-adv-y="1000"  />

      
      <glyph glyph-name="uni25" unicode="&#x25;" d="M483 774L116-70L91-59L457 786L483 774M204 606L204 366Q204 260 113 260Q20 260 20 367L20 608Q20 708 115 708Q162 708 183 683Q204 658 204 606M167 366L167 599Q167 637 156 653Q145 669 114 669Q87 669 72.50 655Q58 641 58 606L58 371Q58 297 113 297Q167 297 167 366M558 343L558 101Q558-5 467-5Q374-5 374 102L374 343Q374 443 469 443Q516 443 537 419Q558 395 558 343M521 101L521 339Q521 374 508.50 389Q496 404 468 404Q412 404 412 344L412 106Q412 32 467 32Q521 32 521 101Z"  horiz-adv-x="583" vert-adv-y="1000"  />

      
      <glyph glyph-name="uni26" unicode="&#x26;" d="M419 39L419-2Q367-2 344 4.50Q321 11 296 30Q257-9 180-9Q116-9 78 24Q32 65 32 132Q32 171 47 208.50Q62 246 78.50 269Q95 292 128 331Q93 436 93 492Q93 509 96.50 526Q100 543 109 563.50Q118 584 139 597Q160 610 189 610Q228 610 251 586.50Q274 563 274 524Q274 487 253.50 446Q233 405 177 327Q228 209 301 94Q318 119 326 137Q334 155 341 206Q348 257 348 342L392 342Q392 288 390.50 255Q389 222 379 175Q369 128 349 94Q346 89 328 62Q361 38 398 38L419 39M160 374Q182 406 193.50 423.50Q205 441 218 470.50Q231 500 231 522Q231 543 219.50 557.50Q208 572 187 572Q164 572 149.50 551.50Q135 531 135 492Q135 419 160 374M269 61Q211 144 146 284Q77 199 77 137Q77 85 108 58.50Q139 32 185 32Q236 32 269 61Z"  horiz-adv-x="437" vert-adv-y="1000"  />

      
      <glyph glyph-name="uni27" unicode="&#x27;" d="M97 740L79 452L58 452L39 740L97 740Z"  horiz-adv-x="137" vert-adv-y="1000"  />

      
      <glyph glyph-name="uni28" unicode="&#x28;" d="M192-82L192-140Q149-93 135-72Q86 0 57.50 99.50Q29 199 29 291Q29 382 57.50 476.50Q86 571 138 643Q154 665 190 707L190 651Q168 619 158 603Q119 539 96.50 451Q74 363 74 285Q74 187 104.50 88.50Q135-10 192-82Z"  horiz-adv-x="229" vert-adv-y="1000"  />

      
      <glyph glyph-name="uni29" unicode="&#x29;" d="M37 650L37 708Q113 633 156.50 515Q200 397 200 278Q200 190 173 97.50Q146 5 97-65Q88-78 38-138L38-82Q94-12 124.50 88Q155 188 155 283Q155 383 124 482Q93 581 37 650Z"  horiz-adv-x="229" vert-adv-y="1000"  />

      
      <glyph glyph-name="uni2a" unicode="&#x2a;" d="M278 608L184 573L241 493L210 469L151 548L99 469L67 493L120 574L29 601L41 639L132 614L132 710L172 710L172 612L265 644L278 608Z"  horiz-adv-x="305" vert-adv-y="1000"  />

      
      <glyph glyph-name="uni2b" unicode="&#x2b;" d="M474 276L302 276L302 92L257 92L257 276L84 276L84 317L257 317L257 501L302 501L302 317L474 317L474 276Z"  horiz-adv-x="558" vert-adv-y="1000"  />

      
      <glyph glyph-name="uni2c" unicode="&#x2c;" d="M51 91L96 91L96 0Q96-36 87-57Q78-78 50-90L50-68Q75-54 75-6L75 0L51 0L51 91Z"  horiz-adv-x="146" vert-adv-y="1000"  />

      
      <glyph glyph-name="uni2d" unicode="&#x2d;" d="M213 271L36 271L36 313L213 313L213 271Z"  horiz-adv-x="249" vert-adv-y="1000"  />

      
      <glyph glyph-name="uni2e" unicode="&#x2e;" d="M96 0L52 0L52 90L96 90L96 0Z"  horiz-adv-x="146" vert-adv-y="1000"  />

      
      <glyph glyph-name="uni2f" unicode="&#x2f;" d="M279 706L80 0L34 0L234 706L279 706Z"  horiz-adv-x="313" vert-adv-y="1000"  />

      
      <glyph glyph-name="uni30" unicode="&#x30;" d="M320 559L320 150Q320 77 280.50 38.50Q241 0 177 0Q115 0 75.50 39Q36 78 36 148L36 559Q36 626 70.50 667.50Q105 709 183 709Q245 709 282.50 673Q320 637 320 559M274 150L274 560Q274 664 180 664Q82 664 82 556L82 147Q82 103 107.50 73.50Q133 44 177 44Q189 44 202.50 47.50Q216 51 234 61Q252 71 263 94Q274 117 274 150Z"  horiz-adv-x="354" vert-adv-y="1000"  />

      
      <glyph glyph-name="uni31" unicode="&#x31;" d="M216 0L166 0L166 615Q115 572 50 564L50 603Q80 608 104 620.50Q128 633 141.50 649Q155 665 161.50 678Q168 691 171 702L216 702L216 0Z"  horiz-adv-x="354" vert-adv-y="1000"  />

      
      <glyph glyph-name="uni32" unicode="&#x32;" d="M305 0L41 0L41 53Q54 96 111 180Q120 192 149.50 234.50Q179 277 186.50 289Q194 301 213 334.50Q232 368 237.50 388Q243 408 249 439.50Q255 471 255 504L255 545Q255 665 177 665Q155 665 140 656.50Q125 648 117 636.50Q109 625 104.50 604.50Q100 584 99 567.50Q98 551 98 526L98 478L54 478L54 545Q54 578 57.50 601.50Q61 625 72.50 651.50Q84 678 110.50 692.50Q137 707 177 707Q241 707 270.50 664.50Q300 622 300 564L300 505Q300 417 274 357.50Q248 298 173 192Q170 189 155 168.50Q140 148 136.50 142.50Q133 137 122 120Q111 103 106 94Q101 85 94.50 70.50Q88 56 83 42L305 42L305 0Z"  horiz-adv-x="354" vert-adv-y="1000"  />

      
      <glyph glyph-name="uni33" unicode="&#x33;" d="M118 355L118 401L122 401Q174 401 212 427.50Q250 454 250 504L250 569Q250 615 234 639.50Q218 664 171 664Q98 664 98 575L98 498L54 498L54 577Q54 706 175 706Q295 706 295 575L295 508Q295 487 291 470Q287 453 279 440.50Q271 428 263.50 419Q256 410 244 403Q232 396 225.50 392.50Q219 389 207 384.50Q195 380 194 379Q222 372 235 367Q248 362 270.50 346.50Q293 331 303.50 301Q314 271 314 226L314 150Q314 68 274.50 30Q235-8 174-8Q130-8 100.50 9Q71 26 58 56Q45 86 40 114.50Q35 143 35 180L35 215L79 215L79 192Q79 156 81.50 132.50Q84 109 93 84Q102 59 122.50 46.50Q143 34 176 34Q220 34 245 65.50Q270 97 270 143L270 218Q270 297 234 323.50Q198 350 118 355Z"  horiz-adv-x="354" vert-adv-y="1000"  />

      
      <glyph glyph-name="uni34" unicode="&#x34;" d="M347 225L263 225L263 0L217 0L217 225L19 225L19 271L201 701L263 701L263 267L347 267L347 225M217 267L217 636L64 267L217 267Z"  horiz-adv-x="354" vert-adv-y="1000"  />

      
      <glyph glyph-name="uni35" unicode="&#x35;" d="M46 222L90 222L90 167Q90 142 90.50 128Q91 114 95.50 94.50Q100 75 107.50 65Q115 55 130.50 47Q146 39 169 39Q226 39 241.50 72.50Q257 106 257 186L257 332Q257 380 240.50 407Q224 434 180 434Q148 434 122.50 415Q97 396 97 347L97 337L60 337L60 703L292 703L292 660L105 660L105 450Q144 477 185 477Q302 477 302 318L302 185Q302 158 301 142Q300 126 297 100.50Q294 75 285.50 59.50Q277 44 263.50 27.50Q250 11 227.50 3.50Q205-4 174-4Q135-4 108 8.50Q81 21 68.50 44Q56 67 51 91Q46 115 46 147L46 222Z"  horiz-adv-x="354" vert-adv-y="1000"  />

      
      <glyph glyph-name="uni36" unicode="&#x36;" d="M320 518L275 518L275 528Q275 555 274 571.50Q273 588 268.50 608.50Q264 629 255.50 640Q247 651 230.50 659Q214 667 190 667Q136 667 115 635Q94 603 94 564L94 386Q112 405 142.50 417Q173 429 200 429Q259 429 289 392Q319 355 319 294L319 126Q319 87 305 59.50Q291 32 268 19.50Q245 7 224.50 1.50Q204-4 183-4Q118-4 83 33Q48 70 48 140L48 564Q48 624 79.50 667.50Q111 711 192 711Q264 711 292 672Q320 633 320 558L320 518M274 137L274 294Q274 336 254 360.50Q234 385 197 385Q148 385 120.50 353.50Q93 322 93 274L93 166Q93 147 94 133.50Q95 120 100 101Q105 82 114 70.50Q123 59 140.50 50Q158 41 182 41Q228 41 251 69.50Q274 98 274 137Z"  horiz-adv-x="354" vert-adv-y="1000"  />

      
      <glyph glyph-name="uni37" unicode="&#x37;" d="M47 703L318 703L318 659Q245 495 206.50 355Q168 215 168 61L168 0L119 0L119 42Q119 321 271 659L47 659L47 703Z"  horiz-adv-x="354" vert-adv-y="1000"  />

      
      <glyph glyph-name="uni38" unicode="&#x38;" d="M315 257L315 128Q315 61 278.50 27Q242-7 179-7Q115-7 78 29.50Q41 66 41 131L41 270Q41 313 56.50 341.50Q72 370 85.50 378.50Q99 387 119 395Q51 422 51 492L51 596Q51 713 179 713Q306 713 306 590L306 501Q306 452 288 430Q270 408 233 395Q279 378 297 348Q315 318 315 257M260 505L260 577Q260 624 242.50 647.50Q225 671 175 671Q97 671 97 593L97 496Q97 456 119.50 436.50Q142 417 178 417Q215 417 237.50 439Q260 461 260 505M269 141L269 265Q269 372 180 372Q87 372 87 269L87 149Q87 36 179 36Q269 36 269 141Z"  horiz-adv-x="354" vert-adv-y="1000"  />

      
      <glyph glyph-name="uni39" unicode="&#x39;" d="M309 566L309 147Q309 63 269 28Q229-7 166-7Q33-7 33 133L33 190L79 190L79 135Q79 38 165 38Q214 38 238 64.50Q262 91 262 135L262 323Q221 280 156 280Q99 280 66.50 312.50Q34 345 34 408L34 562Q34 713 173 713Q309 713 309 566M263 447L263 559Q263 609 244 638.50Q225 668 170 668Q133 668 107 646Q81 624 81 580L81 406Q81 369 101 346.50Q121 324 155 324Q205 324 234 354.50Q263 385 263 447Z"  horiz-adv-x="354" vert-adv-y="1000"  />

      
      <glyph glyph-name="uni3a" unicode="&#x3a;" d="M136 364L92 364L92 455L136 455L136 364M136 0L92 0L92 90L136 90L136 0Z"  horiz-adv-x="187" vert-adv-y="1000"  />

      
      <glyph glyph-name="uni3b" unicode="&#x3b;" d="M137 364L91 364L91 455L137 455L137 364M91 91L136 91L136 0Q136-36 127.50-56Q119-76 91-90L91-68Q107-56 111.50-42.50Q116-29 116-6L116 0L91 0L91 91Z"  horiz-adv-x="187" vert-adv-y="1000"  />

      
      <glyph glyph-name="uni3c" unicode="&#x3c;" d="M446 76L89 270L89 315L446 510L446 461L134 295L446 128L446 76Z"  horiz-adv-x="559" vert-adv-y="1000"  />

      
      <glyph glyph-name="uni3d" unicode="&#x3d;" d="M474 347L85 347L85 389L474 389L474 347M474 203L85 203L85 245L474 245L474 203Z"  horiz-adv-x="559" vert-adv-y="1000"  />

      
      <glyph glyph-name="uni3e" unicode="&#x3e;" d="M470 271L113 76L113 124L425 291L113 458L113 509L470 316L470 271Z"  horiz-adv-x="559" vert-adv-y="1000"  />

      
      <glyph glyph-name="uni3f" unicode="&#x3f;" d="M217 174L170 174L170 261Q170 297 192 329L238 396Q271 444 271 508L271 537Q271 676 192 676Q150 676 133.50 640.50Q117 605 117 558L117 482L70 482L70 543Q70 570 72 591Q74 612 81 637Q88 662 101 678.50Q114 695 137.50 706.50Q161 718 194 718Q227 718 251 705Q275 692 287.50 674Q300 656 307.50 628.50Q315 601 316.50 580Q318 559 318 531Q318 473 309.50 439.50Q301 406 275 367Q272 363 256.50 341.50Q241 320 235.50 311.50Q230 303 223.50 285.50Q217 268 217 252L217 174M218 0L170 0L170 90L218 90L218 0Z"  horiz-adv-x="354" vert-adv-y="1000"  />

      
      <glyph glyph-name="uni40" unicode="&#x40;" d="M577 491L623 491L573 264Q561 209 561 172Q561 116 606 116Q632 116 659 140Q713 188 744.50 265.50Q776 343 776 427Q776 542 705.50 609.50Q635 677 516 677Q404 677 307.50 617Q211 557 155 455Q99 353 99 234Q99 91 192.50 2.50Q286-86 437-86Q562-86 675-20Q730 13 780 60L803 34Q647-122 438-122Q269-122 163-23.50Q57 75 57 232Q57 431 192.50 572Q328 713 520 713Q656 713 735.50 635Q815 557 815 425Q815 290 743 181.50Q671 73 588 73Q553 73 531.50 95.50Q510 118 510 154Q510 164 511 171Q447 75 362 75Q303 75 269 117Q235 159 235 231Q235 343 297 428.50Q359 514 440 514Q489 514 518.50 482.50Q548 451 559 413L577 491M541 357Q541 410 514 443.50Q487 477 445 477Q381 477 332 402.50Q283 328 283 230Q283 177 308.50 145Q334 113 377 113Q429 113 468.50 156Q508 199 524.50 253Q541 307 541 357Z"  horiz-adv-x="878" vert-adv-y="1000"  />

      
      <glyph glyph-name="uni41" unicode="&#x41;" d="M349 0L297 0L261 215L113 215L76 0L24 0L153 710L221 710L349 0M252 261L187 645L121 261L252 261Z"  horiz-adv-x="375" vert-adv-y="1000"  />

      
      <glyph glyph-name="uni42" unicode="&#x42;" d="M59 0L59 706L203 706Q258 706 284 676Q308 648 308 595L308 481Q308 458 301.50 440Q295 422 287 412.50Q279 403 266 396Q253 389 245 387Q237 385 225 383Q273 379 300 356Q333 328 333 252L333 127Q333 0 206 0L59 0M108 664L108 402L162 402Q260 402 260 493L260 594Q260 614 254.50 627.50Q249 641 241.50 648Q234 655 220.50 659Q207 663 197 663.50Q187 664 170 664L108 664M109 359L109 43L192 43Q250 43 267 67Q284 91 284 153L284 256Q284 319 250 339Q216 359 159 359L109 359Z"  horiz-adv-x="375" vert-adv-y="1000"  />

      
      <glyph glyph-name="uni43" unicode="&#x43;" d="M334 243L334 134Q334-11 190-11Q148-11 118.50 4Q89 19 75.50 44.50Q62 70 57 93.50Q52 117 52 144L52 572Q52 645 93 679Q134 713 192 713Q252 713 289 679.50Q326 646 326 582L326 478L277 478L277 539Q277 570 275 589Q273 608 265 628.50Q257 649 239 658.50Q221 668 193 668Q163 668 142.50 656Q122 644 114 624.50Q106 605 103 591Q100 577 100 563L100 181Q100 105 121 70Q142 35 198 35Q243 35 263.50 61Q284 87 284 128L284 243L334 243Z"  horiz-adv-x="375" vert-adv-y="1000"  />

      
      <glyph glyph-name="uni44" unicode="&#x44;" d="M60 706L121 706Q180 706 222 695Q264 684 294 648Q322 614 332 562.50Q342 511 342 417L342 218Q342 191 339 167Q336 143 324.50 110.50Q313 78 294 55.50Q275 33 238.50 16.50Q202 0 153 0L60 0L60 706M109 661L109 44L149 44Q227 44 260.50 91.50Q294 139 294 245L294 418Q294 550 269 597Q234 661 146 661L109 661Z"  horiz-adv-x="396" vert-adv-y="1000"  />

      
      <glyph glyph-name="uni45" unicode="&#x45;" d="M309 662L107 662L107 390L273 390L273 347L107 347L107 44L308 44L308 0L59 0L59 706L309 706L309 662Z"  horiz-adv-x="333" vert-adv-y="1000"  />

      
      <glyph glyph-name="uni46" unicode="&#x46;" d="M308 662L107 662L107 390L284 390L284 347L107 347L107 0L59 0L59 706L308 706L308 662Z"  horiz-adv-x="313" vert-adv-y="1000"  />

      
      <glyph glyph-name="uni47" unicode="&#x47;" d="M343 0L306 0L306 56Q291 32 261.50 11Q232-10 188-10Q116-10 82 44Q66 69 60.50 97.50Q55 126 55 182L55 558Q55 634 89 674Q123 714 202 714Q272 714 305 677Q338 640 338 585L338 479L291 479L291 562Q291 612 272 642Q253 672 199 672Q103 672 103 557L103 196Q103 109 117 81Q125 64 144 48.50Q163 33 194 33Q238 33 266 72Q294 111 294 151L294 279L190 279L190 322L343 322L343 0Z"  horiz-adv-x="396" vert-adv-y="1000"  />

      
      <glyph glyph-name="uni48" unicode="&#x48;" d="M338 0L289 0L289 349L107 349L107 0L59 0L59 706L107 706L107 392L289 392L289 706L338 706L338 0Z"  horiz-adv-x="396" vert-adv-y="1000"  />

      
      <glyph glyph-name="uni49" unicode="&#x49;" d="M109 0L58 0L58 706L109 706L109 0Z"  horiz-adv-x="167" vert-adv-y="1000"  />

      
      <glyph glyph-name="uni4a" unicode="&#x4a;" d="M276 706L276 123Q276 52 242 21Q208-10 157-10Q121-10 96 4Q71 18 60.50 41Q50 64 46 81.50Q42 99 42 117L42 223L90 223L90 113Q90 81 107.50 57.50Q125 34 159 34Q197 34 212.50 59Q228 84 228 114L228 706L276 706Z"  horiz-adv-x="333" vert-adv-y="1000"  />

      
      <glyph glyph-name="uni4b" unicode="&#x4b;" d="M340 0L287 0L158 366L106 268L106 0L58 0L58 706L107 706L107 360L283 706L338 706L188 425L340 0Z"  horiz-adv-x="354" vert-adv-y="1000"  />

      
      <glyph glyph-name="uni4c" unicode="&#x4c;" d="M291 0L58 0L58 706L107 706L107 44L291 44L291 0Z"  horiz-adv-x="313" vert-adv-y="1000"  />

      
      <glyph glyph-name="uni4d" unicode="&#x4d;" d="M445 0L398 0Q398 9 397.50 283.50Q397 558 397 653L272 0L227 0L102 653L102 0L54 0L60 706L132 706L248 103L366 706L438 706L445 0Z"  horiz-adv-x="500" vert-adv-y="1000"  />

      
      <glyph glyph-name="uni4e" unicode="&#x4e;" d="M337 0L262 0L98 667Q102 72 102 0L55 0L55 706L127 706L296 27Q289 667 289 706L337 706L337 0Z"  horiz-adv-x="396" vert-adv-y="1000"  />

      
      <glyph glyph-name="uni4f" unicode="&#x4f;" d="M54 146L54 559Q54 628 89.50 671Q125 714 197 714Q235 714 262.50 703Q290 692 305 676Q320 660 328 634.50Q336 609 338 589Q340 569 340 541L340 138Q340 101 329.50 70.50Q319 40 284.50 15.50Q250-9 195-9Q54-9 54 146M293 156L293 526Q293 606 268.50 638Q244 670 197 670Q148 670 125 639Q102 608 102 563L102 148Q102 35 198 35Q293 35 293 156Z"  horiz-adv-x="396" vert-adv-y="1000"  />

      
      <glyph glyph-name="uni50" unicode="&#x50;" d="M58 706L183 706Q261 706 295 678Q313 663 321.50 640.50Q330 618 331.50 600.50Q333 583 333 549L333 469Q333 400 305 367Q267 322 179 322L107 322L107 0L58 0L58 706M106 665L106 363L186 363Q238 363 262 388Q285 411 285 459L285 530Q285 609 268 637Q251 665 186 665L106 665Z"  horiz-adv-x="375" vert-adv-y="1000"  />

      
      <glyph glyph-name="uni51" unicode="&#x51;" d="M370-67L341-98L234-3Q209-8 194-8Q156-8 128.50 5Q101 18 87 36.50Q73 55 65 84.50Q57 114 55.50 135Q54 156 54 187L54 548Q54 716 201 716Q269 716 304.50 676.50Q340 637 340 560L340 172Q340 119 328.50 82.50Q317 46 278 17L370-67M292 168L292 561Q292 613 268 642Q244 671 198 671Q102 671 102 553L102 195Q102 106 124 71Q146 36 195 36Q246 36 269 73Q292 110 292 168Z"  horiz-adv-x="396" vert-adv-y="1000"  />

      
      <glyph glyph-name="uni52" unicode="&#x52;" d="M366 0L314 0L185 344L108 344L108 0L59 0L59 706L200 706Q335 706 335 583L335 465Q335 368 236 348L366 0M108 664L108 386L198 386Q283 386 283 459L283 570Q283 617 266.50 640.50Q250 664 205 664L108 664Z"  horiz-adv-x="375" vert-adv-y="1000"  />

      
      <glyph glyph-name="uni53" unicode="&#x53;" d="M42 231L91 231L91 175Q91 142 92 127.50Q93 113 97.50 96Q102 79 112 66Q139 32 194 32Q285 32 285 148Q285 204 264.50 240Q244 276 182 338Q133 387 112.50 411Q92 435 75.50 474Q59 513 59 560Q59 582 60.50 599.50Q62 617 70 640Q78 663 91.50 678.50Q105 694 131.50 705Q158 716 194 716Q231 716 256.50 704.50Q282 693 295 678.50Q308 664 315 638.50Q322 613 323 596.50Q324 580 324 553L324 502L276 502L276 565Q276 588 274.50 601.50Q273 615 266 634.50Q259 654 240.50 664Q222 674 193 674Q108 674 108 568Q108 515 129 478Q150 441 228 362Q290 298 312 260Q334 222 334 157Q334 132 332 113Q330 94 322 69Q314 44 299.50 28Q285 12 257 0.50Q229-11 190-11Q124-11 83 24.50Q42 60 42 132L42 231Z"  horiz-adv-x="375" vert-adv-y="1000"  />

      
      <glyph glyph-name="uni54" unicode="&#x54;" d="M305 662L180 662L180 0L130 0L130 662L7 662L7 706L305 706L305 662Z"  horiz-adv-x="313" vert-adv-y="1000"  />

      
      <glyph glyph-name="uni55" unicode="&#x55;" d="M57 140L57 706L105 706L105 159Q105 136 106.50 120.50Q108 105 113.50 87.50Q119 70 128.50 59Q138 48 156 41Q174 34 199 34Q251 34 270 64Q289 94 289 152L289 706L338 706L338 140Q338 60 299.50 24Q261-12 196-12Q135-12 96 23.50Q57 59 57 140Z"  horiz-adv-x="396" vert-adv-y="1000"  />

      
      <glyph glyph-name="uni56" unicode="&#x56;" d="M326 706L198 0L147 0L27 706L78 706L173 104L276 706L326 706Z"  horiz-adv-x="354" vert-adv-y="1000"  />

      
      <glyph glyph-name="uni57" unicode="&#x57;" d="M542 706L427 0L374 0L283 607L192 0L141 0L21 706L71 706L166 106L257 706L309 706L401 106L493 706L542 706Z"  horiz-adv-x="562" vert-adv-y="1000"  />

      
      <glyph glyph-name="uni58" unicode="&#x58;" d="M330 0L279 0L177 335L74 0L24 0L152 389L53 706L104 706L180 438L262 706L313 706L206 388L330 0Z"  horiz-adv-x="354" vert-adv-y="1000"  />

      
      <glyph glyph-name="uni59" unicode="&#x59;" d="M345 706L201 312L201 0L153 0L153 312L14 706L66 706L179 374L291 706L345 706Z"  horiz-adv-x="354" vert-adv-y="1000"  />

      
      <glyph glyph-name="uni5a" unicode="&#x5a;" d="M69 706L318 706L318 673L82 44L317 44L317 0L27 0L27 32L261 663L69 663L69 706Z"  horiz-adv-x="354" vert-adv-y="1000"  />

      
      <glyph glyph-name="uni5b" unicode="&#x5b;" d="M195-141L53-141L53 706L195 706L195 670L96 670L96-103L195-103L195-141Z"  horiz-adv-x="229" vert-adv-y="1000"  />

      
      <glyph glyph-name="uni5c" unicode="&#x5c;" d="M281 0L234 0L34 706L78 706L281 0Z"  horiz-adv-x="313" vert-adv-y="1000"  />

      
      <glyph glyph-name="uni5d" unicode="&#x5d;" d="M176-141L35-141L35-103L133-103L133 670L32 670L32 706L176 706L176-141Z"  horiz-adv-x="229" vert-adv-y="1000"  />

      
      <glyph glyph-name="uni5e" unicode="&#x5e;" d="M483 357L432 357L278 661L127 357L75 357L255 706L302 706L483 357Z"  horiz-adv-x="559" vert-adv-y="1000"  />

      
      <glyph glyph-name="uni5f" unicode="&#x5f;" d="M510-198L-10-198L-10-155L510-155L510-198Z"  horiz-adv-x="500" vert-adv-y="1000"  />

      
      <glyph glyph-name="uni60" unicode="&#x60;" d="M206 569L173 569L22 678L119 678L206 569Z"  horiz-adv-x="229" vert-adv-y="1000"  />

      
      <glyph glyph-name="uni61" unicode="&#x61;" d="M296 0L287 0Q257 1 243 10Q229 19 224 39Q175 0 126 0Q77 0 52.50 33.50Q28 67 28 118Q28 168 50.50 203.50Q73 239 101 254.50Q129 270 167 290Q205 310 223 326L223 395Q223 466 161 466Q122 466 107 445.50Q92 425 92 374L92 348L49 348L49 375Q49 446 77 476Q105 506 163 506Q266 506 266 405L266 58Q266 40 296 40L296 0M224 87L224 279Q223 278 141 231Q71 190 71 117Q71 107 72.50 97.50Q74 88 80 73Q86 58 100.50 49Q115 40 137 40Q181 40 224 87Z"  horiz-adv-x="313" vert-adv-y="1000"  />

      
      <glyph glyph-name="uni62" unicode="&#x62;" d="M52 0L52 706L94 706L94 460Q130 509 187 509Q284 509 284 380L284 116Q284 90 275 64.50Q266 39 241 18Q216-3 178-3Q121-3 97 42L97 0L52 0M95 378L95 135Q95 82 122.50 58.50Q150 35 175 35Q209 35 225.50 61.50Q242 88 242 131L242 381Q242 389 241.50 396.50Q241 404 237 418.50Q233 433 226.50 443Q220 453 206.50 461Q193 469 175 469Q139 469 117 444.50Q95 420 95 378Z"  horiz-adv-x="333" vert-adv-y="1000"  />

      
      <glyph glyph-name="uni63" unicode="&#x63;" d="M276 192L276 127Q276 64 247.50 30.50Q219-3 153-3Q93-3 66.50 34Q40 71 40 124L40 376Q40 503 156 503Q271 503 271 370L271 324L229 324L229 364Q229 466 157 466Q83 466 83 373L83 151Q83 127 85 111.50Q87 96 94 76.50Q101 57 118 47Q135 37 162 37Q232 37 232 119L232 192L276 192Z"  horiz-adv-x="313" vert-adv-y="1000"  />

      
      <glyph glyph-name="uni64" unicode="&#x64;" d="M280 0L240 0L240 53Q210-4 148-4Q107-4 77.50 24.50Q48 53 48 115L48 382Q48 443 77.50 473Q107 503 149 503Q160 503 170 501Q180 499 188.50 495.50Q197 492 203 488.50Q209 485 215 479.50Q221 474 224 471Q227 468 232 462.50Q237 457 238 456L238 706L280 706L280 0M238 107L238 374Q226 463 159 463Q126 463 108 439Q90 415 90 384L90 123Q90 34 159 34Q190 34 211 55.50Q232 77 238 107Z"  horiz-adv-x="333" vert-adv-y="1000"  />

      
      <glyph glyph-name="uni65" unicode="&#x65;" d="M273 175L273 112Q273 66 245 32.50Q217-1 157-1Q106-1 74.50 28Q43 57 43 116L43 386Q43 438 70 472Q97 506 157 506Q273 506 273 376L273 247L85 247L85 123Q85 38 157 38Q182 38 198 46.50Q214 55 220.50 71.50Q227 88 229 102.50Q231 117 231 139L231 175L273 175M230 283L230 383Q230 425 210 446.50Q190 468 158 468Q122 468 103.50 444Q85 420 85 379L85 283L230 283Z"  horiz-adv-x="313" vert-adv-y="1000"  />

      
      <glyph glyph-name="uni66" unicode="&#x66;" d="M17 463L17 503L77 503L77 625Q77 657 99 681.50Q121 706 166 706Q175 706 191 704L191 665L186 666Q180 666 176 666Q118 666 118 607L118 503L180 503L180 463L116 463L116 0L74 0L74 463L17 463Z"  horiz-adv-x="187" vert-adv-y="1000"  />

      
      <glyph glyph-name="uni67" unicode="&#x67;" d="M281 503L281-36Q281-96 245.50-127Q210-158 157-158Q126-158 97.50-145.50Q69-133 57-107Q49-90 46-51L89-51Q89-52 89.50-58.50Q90-65 91.50-73Q93-81 96-88Q111-117 158-117Q167-117 177-115Q187-113 202.50-106.50Q218-100 228-83Q238-66 238-42L238 45Q237 44 231 38Q225 32 221 28.50Q217 25 208.50 19Q200 13 192 9.50Q184 6 173 3.50Q162 1 150 1Q99 1 75 33.50Q51 66 51 119L51 394Q51 508 154 508Q205 508 238 462L238 503L281 503M238 117L238 399Q232 429 212 449Q192 469 163 469Q93 469 93 378L93 128Q93 42 160 42Q186 42 208.50 61.50Q231 81 238 117Z"  horiz-adv-x="333" vert-adv-y="1000"  />

      
      <glyph glyph-name="uni68" unicode="&#x68;" d="M286 0L243 0L243 376Q243 418 230 442.50Q217 467 177 467Q143 467 122 446.50Q101 426 97 401L97 0L54 0L54 706L97 706L97 463Q133 509 188 509Q225 509 255.50 485.50Q286 462 286 406L286 0Z"  horiz-adv-x="333" vert-adv-y="1000"  />

      
      <glyph glyph-name="uni69" unicode="&#x69;" d="M94 562L51 562L51 640L94 640L94 562M93 0L51 0L51 503L93 503L93 0Z"  horiz-adv-x="146" vert-adv-y="1000"  />

      
      <glyph glyph-name="uni6a" unicode="&#x6a;" d="M112 561L70 561L70 639L112 639L112 561M112 503L112-42Q112-144 7-163L7-120Q70-105 70-21L70 503L112 503Z"  horiz-adv-x="167" vert-adv-y="1000"  />

      
      <glyph glyph-name="uni6b" unicode="&#x6b;" d="M300 0L253 0L143 265L95 187L95 0L52 0L52 706L94 706L94 267L239 503L288 503L171 311L300 0Z"  horiz-adv-x="313" vert-adv-y="1000"  />

      
      <glyph glyph-name="uni6c" unicode="&#x6c;" d="M94 0L52 0L52 706L94 706L94 0Z"  horiz-adv-x="146" vert-adv-y="1000"  />

      
      <glyph glyph-name="uni6d" unicode="&#x6d;" d="M471 0L428 0L428 381Q428 426 415.50 447.50Q403 469 365 469Q306 469 283 407L283 0L240 0L240 399Q240 432 223 451Q206 470 176 470Q146 470 124.50 452Q103 434 95 415L95 0L53 0L53 503L96 503L96 461Q133 509 190 509Q246 509 276 449Q318 510 377 510Q416 510 443.50 482.50Q471 455 471 399L471 0Z"  horiz-adv-x="521" vert-adv-y="1000"  />

      
      <glyph glyph-name="uni6e" unicode="&#x6e;" d="M285 0L243 0L243 396Q243 472 181 472Q124 472 97 409L97 0L55 0L55 503L97 503L97 455Q130 509 190 509Q227 509 256 485Q285 461 285 408L285 0Z"  horiz-adv-x="333" vert-adv-y="1000"  />

      
      <glyph glyph-name="uni6f" unicode="&#x6f;" d="M274 384L274 132Q274 64 241 31Q208-2 155-2Q102-2 70.50 27Q39 56 39 107L39 385Q39 437 68.50 471.50Q98 506 160 506Q274 506 274 384M231 126L231 378Q231 464 160 464Q114 464 98 438Q82 412 82 368L82 120Q82 81 101 60Q120 39 155 39Q231 39 231 126Z"  horiz-adv-x="313" vert-adv-y="1000"  />

      
      <glyph glyph-name="uni70" unicode="&#x70;" d="M54 503L97 503L97 459Q130 508 190 508Q285 508 285 374L285 113Q285 62 257 29.50Q229-3 183-3Q155-3 131 10.50Q107 24 97 41L97-163L54-163L54 503M242 135L242 393Q242 425 225 447Q208 469 177 469Q145 469 123 448.50Q101 428 97 404L97 94Q104 68 126 52.50Q148 37 175 37Q197 37 211.50 45.50Q226 54 232 70.50Q238 87 240 101Q242 115 242 135Z"  horiz-adv-x="333" vert-adv-y="1000"  />

      
      <glyph glyph-name="uni71" unicode="&#x71;" d="M278-163L236-163L236 46Q206-3 145-3Q99-3 74 28.50Q49 60 49 103L49 387Q49 438 75 473.50Q101 509 153 509Q213 509 237 462L237 503L278 503L278-163M237 125L237 364Q237 412 214 440.50Q191 469 159 469Q125 469 108 443Q91 417 91 377L91 127Q91 35 157 35Q192 35 214.50 63Q237 91 237 125Z"  horiz-adv-x="333" vert-adv-y="1000"  />

      
      <glyph glyph-name="uni72" unicode="&#x72;" d="M53 503L94 503L94 415Q119 476 199 516L199 459Q169 450 160 444Q119 420 95 355L95 0L53 0L53 503Z"  horiz-adv-x="208" vert-adv-y="1000"  />

      
      <glyph glyph-name="uni73" unicode="&#x73;" d="M28 177L70 177L70 133Q70 116 71.50 104.50Q73 93 79.50 75.50Q86 58 103.50 48.50Q121 39 148 39Q222 39 222 123Q222 159 207.50 179.50Q193 200 138 247Q103 276 87.50 292.50Q72 309 59.50 336Q47 363 47 397Q47 505 153 505Q183 505 204 495.50Q225 486 235 474.50Q245 463 250.50 443.50Q256 424 257 413Q258 402 258 385L258 350L215 350L215 385Q215 426 200.50 445.50Q186 465 153 465Q90 465 90 400Q90 362 105 340Q120 318 189 261Q230 227 247.50 199.50Q265 172 265 124Q265-2 148-2Q78-2 53 34Q28 70 28 139L28 177Z"  horiz-adv-x="292" vert-adv-y="1000"  />

      
      <glyph glyph-name="uni74" unicode="&#x74;" d="M9 463L9 503L62 503L62 633L105 633L105 503L181 503L181 463L105 463L105 67Q105 38 143 38Q159 38 181 40L181 0Q147-2 136-2Q95-2 78.50 11.50Q62 25 62 56L62 463L9 463Z"  horiz-adv-x="187" vert-adv-y="1000"  />

      
      <glyph glyph-name="uni75" unicode="&#x75;" d="M279 0L236 0L236 47Q222 25 197 11Q172-3 145-3Q98-3 74 29Q50 61 50 97L50 503L92 503L92 131Q92 34 158 34Q215 34 236 99L236 503L279 503L279 0Z"  horiz-adv-x="333" vert-adv-y="1000"  />

      
      <glyph glyph-name="uni76" unicode="&#x76;" d="M254 503L158 0L109 0L14 503L58 503L134 66L208 503L254 503Z"  horiz-adv-x="271" vert-adv-y="1000"  />

      
      <glyph glyph-name="uni77" unicode="&#x77;" d="M425 503L328 0L285 0L219 411L147 0L103 0L14 503L57 503L126 72L202 503L237 503L305 72L381 503L425 503Z"  horiz-adv-x="437" vert-adv-y="1000"  />

      
      <glyph glyph-name="uni78" unicode="&#x78;" d="M277 0L230 0L145 226L59 0L12 0L121 262L21 503L67 503L145 305L225 503L271 503L170 267L277 0Z"  horiz-adv-x="313" vert-adv-y="1000"  />

      
      <glyph glyph-name="uni79" unicode="&#x79;" d="M235 503L280 503L151-57Q139-108 116-132Q85-164 9-164L9-122Q17-124 30-124Q97-124 112-54L125 4L15 503L58 503L146 85L235 503Z"  horiz-adv-x="292" vert-adv-y="1000"  />

      
      <glyph glyph-name="uni7a" unicode="&#x7a;" d="M50 503L260 503L260 468L85 42L259 42L259 0L36 0L36 38L209 461L50 461L50 503Z"  horiz-adv-x="292" vert-adv-y="1000"  />

      
      <glyph glyph-name="uni7b" unicode="&#x7b;" d="M277 706L277 675Q221 661 203 629Q185 597 185 512L185 473Q185 387 174.50 344Q164 301 124 286L124 282Q161 267 172.50 228.50Q184 190 184 118L184 58Q184-28 203-62Q222-96 277-108L277-140Q233-136 205-119Q177-102 164-71.50Q151-41 147-11.50Q143 18 143 60L143 137Q143 197 130 230Q117 263 77 267L77 300Q102 305 112 313Q142 335 142 433L142 521Q142 603 171 652Q200 701 277 706Z"  horiz-adv-x="354" vert-adv-y="1000"  />

      
      <glyph glyph-name="uni7c" unicode="&#x7c;" d="M136-250L93-250L93 748L136 748L136-250Z"  horiz-adv-x="229" vert-adv-y="1000"  />

      
      <glyph glyph-name="uni7d" unicode="&#x7d;" d="M77 675L77 706Q154 701 182 652Q210 603 210 521L210 433Q210 336 242 313Q252 305 277 300L277 267Q238 263 224 229.50Q210 196 210 137L210 60Q210 17 206-11.50Q202-40 189.50-71Q177-102 149-119Q121-136 77-140L77-108Q132-96 151-62Q170-28 170 58L170 118Q170 190 181.50 228.50Q193 267 230 282L230 286Q191 301 180 344.50Q169 388 169 473L169 512Q169 597 151 629Q133 661 77 675Z"  horiz-adv-x="354" vert-adv-y="1000"  />

      
      <glyph glyph-name="uni7e" unicode="&#x7e;" d="M468 342L501 315Q442 244 379 244Q343 244 286 270L260 282Q212 304 182 304Q144 304 105 257L99 251L66 277Q101 319 125 333.50Q149 348 186 348Q220 348 262 330L320 305Q361 287 381 287Q420 287 468 342Z"  horiz-adv-x="568" vert-adv-y="1000"  />

      
      <glyph glyph-name="unia1" unicode="&#xa1;" d="M92 618L47 618L47 706L92 706L92 618M97 0L48 0L48 385L57 521L83 521L97 375L97 0Z"  horiz-adv-x="187" vert-adv-y="1000"  />

      
      <glyph glyph-name="unia2" unicode="&#xa2;" d="M276 192L276 118Q276 13 173-2L173-71L144-71L144-2Q88 4 64 38Q40 72 40 138L40 376Q40 492 138 502L138 564L167 564L167 503Q227 497 249 461.50Q271 426 271 368L271 324L229 324L229 364Q229 466 157 466Q132 466 115.50 455.50Q99 445 93 427.50Q87 410 85 399Q83 388 83 377L83 149Q83 125 85 109.50Q87 94 94 75Q101 56 118 46.50Q135 37 162 37Q232 37 232 116L232 192L276 192Z"  horiz-adv-x="313" vert-adv-y="1000"  />

      
      <glyph glyph-name="unia3" unicode="&#xa3;" d="M300 356L300 319L203 319Q236 269 236 215Q236 103 135 49Q155 48 209 43.50Q263 39 274 39Q318 39 376 51L376 7Q321-4 288-4Q284-4 204 1Q124 6 103 6Q67 6 30 0L30 49Q110 64 149 103Q188 142 188 212Q188 245 180 266.50Q172 288 149 319L36 319L36 356L125 356Q103 394 97 426.50Q91 459 91 553Q91 713 221 713Q290 713 316.50 670.50Q343 628 343 552L343 486L297 486L297 521Q297 554 296 572Q295 590 291 612.50Q287 635 279 645.50Q271 656 255.50 663.50Q240 671 217 671Q173 671 155 644.50Q137 618 137 556Q137 464 143 432Q149 400 179 356L300 356Z"  horiz-adv-x="399" vert-adv-y="1000"  />

      
      <glyph glyph-name="unia4" unicode="&#xa4;" d="M562 102L527 67L461 141Q391 83 308 83Q226 83 158 140L90 70L56 106L125 177Q70 247 70 340Q70 429 124 502L56 576L92 609L158 538Q226 596 311 596Q392 596 461 539L529 609L562 574L495 502Q549 428 549 338Q549 254 494 177L562 102M499 339Q499 432 445.50 493Q392 554 310 554Q229 554 174 492.50Q119 431 119 340Q119 248 174.50 186.50Q230 125 313 125Q393 125 446 186.50Q499 248 499 339Z"  horiz-adv-x="619" vert-adv-y="1000"  />

      
      <glyph glyph-name="unia5" unicode="&#xa5;" d="M345 706L236 408L322 408L322 365L221 365L205 322L205 305L322 305L322 262L201 262L201 0L153 0L153 262L32 262L32 305L150 305L150 322L135 365L32 365L32 408L119 408L14 706L66 706L180 373L298 706L345 706Z"  horiz-adv-x="354" vert-adv-y="1000"  />

      
      <glyph glyph-name="unia6" unicode="&#xa6;" d="M136 308L93 308L93 747L136 747L136 308M136-250L93-250L93 190L136 190L136-250Z"  horiz-adv-x="229" vert-adv-y="1000"  />

      
      <glyph glyph-name="unia7" unicode="&#xa7;" d="M283 515L283 588Q283 628 265.50 650Q248 672 196 672Q142 672 121 644Q100 616 100 561Q100 516 122 493Q144 470 205 437Q249 413 267.50 401.50Q286 390 307.50 371Q329 352 336 332Q343 312 343 283Q343 227 295 165Q317 142 322.50 118.50Q328 95 328 52Q328-95 187-95Q141-95 111-82.50Q81-70 67.50-45.50Q54-21 49.50 3Q45 27 45 61L45 114L90 114L90 40Q90-55 185-55Q213-55 232.50-46.50Q252-38 261.50-28Q271-18 276.50-0.50Q282 17 282.50 27Q283 37 283 52Q283 104 269.50 121.50Q256 139 191 175Q147 199 127.50 211.50Q108 224 85 243.50Q62 263 53.50 283.50Q45 304 45 331Q45 399 108 444Q92 457 83 467Q74 477 64.50 502Q55 527 55 561Q55 648 93.50 681Q132 714 197 714Q327 714 327 596L327 515L283 515M135 427Q88 396 88 338Q88 310 102.50 290.50Q117 271 156 247Q166 241 271 182Q299 217 299 264Q299 329 246 362Q238 367 190.50 394.50Q143 422 135 427Z"  horiz-adv-x="375" vert-adv-y="1000"  />

      
      <glyph glyph-name="unia8" unicode="&#xa8;" d="M188 585L140 585L140 662L188 662L188 585M89 585L41 585L41 662L89 662L89 585Z"  horiz-adv-x="229" vert-adv-y="1000"  />

      
      <glyph glyph-name="unia9" unicode="&#xa9;" d="M477 286L526 286L526 228Q526 173 499 146Q472 119 412 119Q374 119 349 130Q324 141 313.50 161.50Q303 182 299.50 199.50Q296 217 296 240L296 465Q296 580 412 580Q526 580 526 475L526 417L477 417L477 471Q477 508 459.50 520Q442 532 411 532Q346 532 346 470L346 239Q346 196 361.50 181.50Q377 167 411 167Q455 167 466 185.50Q477 204 477 247L477 286M773 351Q773 202 668.50 99.50Q564-3 416-3Q267-3 164 101Q61 205 61 355Q61 504 164 606.50Q267 709 417 709Q566 709 669.50 605.50Q773 502 773 351M741 351Q741 488 647.50 582.50Q554 677 418 677Q282 677 187.50 582.50Q93 488 93 352Q93 218 188 123.50Q283 29 417 29Q551 29 646 123.50Q741 218 741 351Z"  horiz-adv-x="833" vert-adv-y="1000"  />

      
      <glyph glyph-name="uniaa" unicode="&#xaa;" d="M176 449L176 421Q175 421 170.50 420.50Q166 420 164 420Q137 420 127 438Q100 420 76 420Q47 420 31.50 441Q16 462 16 490Q16 510 20.50 524.50Q25 539 37.50 551Q50 563 59.50 569.50Q69 576 91.50 589Q114 602 127 610L127 636Q127 660 121 671.50Q115 683 94 683Q71 683 65 667.50Q59 652 59 617L28 617L28 634Q28 713 96 713Q160 713 160 648L160 463Q160 458 160.50 456Q161 454 165 451.50Q169 449 176 449M127 474L127 572Q80 549 65 533.50Q50 518 50 492Q50 472 59.50 461.50Q69 451 83 451Q104 451 127 474Z"  horiz-adv-x="187" vert-adv-y="1000"  />

      
      <glyph glyph-name="uniab" unicode="&#xab;" d="M352 393L230 293L347 193L291 193L168 293L293 393L352 393M213 393L87 294L209 193L149 193L27 293L152 393L213 393Z"  horiz-adv-x="375" vert-adv-y="1000"  />

      
      <glyph glyph-name="uniac" unicode="&#xac;" d="M475 89L430 89L430 274L66 274L66 315L475 315L475 89Z"  horiz-adv-x="559" vert-adv-y="1000"  />

      
      <glyph glyph-name="uniad" unicode="&#xad;" d="M212 271L35 271L35 313L212 313L212 271Z"  horiz-adv-x="248" vert-adv-y="1000"  />

      
      <glyph glyph-name="uniae" unicode="&#xae;" d="M773 351Q773 202 668.50 99.50Q564-3 416-3Q267-3 164 101Q61 205 61 355Q61 504 164 606.50Q267 709 417 709Q566 709 669.50 605.50Q773 502 773 351M741 351Q741 488 647.50 582.50Q554 677 418 677Q282 677 187.50 582.50Q93 488 93 352Q93 218 188 123.50Q283 29 417 29Q551 29 646 123.50Q741 218 741 351M554 126L498 126L404 326L368 326L368 126L317 126L317 575L409 575Q471 575 504.50 550.50Q538 526 538 454Q538 350 456 332L554 126M368 529L368 370L408 370Q453 370 469.50 392Q486 414 486 452Q486 529 421 529L368 529Z"  horiz-adv-x="833" vert-adv-y="1000"  />

      
      <glyph glyph-name="uniaf" unicode="&#xaf;" d="M214 585L15 585L15 627L214 627L214 585Z"  horiz-adv-x="229" vert-adv-y="1000"  />

      
      <glyph glyph-name="unib0" unicode="&#xb0;" d="M277.50 702.50Q277.50 702.50 298.25 681.75Q319 661 319 602Q319 543 277.50 501.50Q236 460 177 460Q118 460 76.50 501.50Q35 543 35 602Q35 660 76.50 702Q118 744 177 744Q236 744 277.50 702.50M246.50 533Q246.50 533 260.75 547.50Q275 562 275 602Q275 642 246.50 670.50Q218 699 177 699Q137 699 108.50 670.50Q80 642 80 602Q80 562 108.50 533Q137 504 177 504Q218 504 246.50 533Z"  horiz-adv-x="354" vert-adv-y="1000"  />

      
      <glyph glyph-name="unib1" unicode="&#xb1;" d="M474 274L301 274L301 91L259 91L259 274L85 274L85 316L259 316L259 500L301 500L301 316L474 316L474 274M474 0L85 0L85 42L474 42L474 0Z"  horiz-adv-x="559" vert-adv-y="1000"  />

      
      <glyph glyph-name="unib2" unicode="&#xb2;" d="M196 265L25 265L25 300Q31 323 52 357Q66 379 88.50 410Q111 441 120 455Q129 469 140 493Q151 517 154.50 542.50Q158 568 158 603Q158 673 115 673Q71 673 71 615L71 559L35 559L35 622Q35 709 116 709Q195 709 195 615Q195 531 181.50 494.50Q168 458 109 375Q70 321 64 300L196 300L196 265Z"  horiz-adv-x="229" vert-adv-y="1000"  />

      
      <glyph glyph-name="unib3" unicode="&#xb3;" d="M23 406L60 406Q60 381 60.50 368Q61 355 64 338.50Q67 322 72.50 314Q78 306 88.50 300Q99 294 114 294Q168 294 168 362L168 408Q168 432 161.50 447Q155 462 140.50 469.50Q126 477 113 479.50Q100 482 78 483L78 520Q160 520 160 586L160 628Q160 673 119 673Q77 673 77 623L77 573L40 573L40 623Q40 709 119 709Q198 709 198 623Q198 565 189 542Q180 519 145 503Q178 490 191.50 469Q205 448 205 403L205 376Q205 319 185 289Q165 259 114 259Q85 259 65 270.50Q45 282 37 301.50Q29 321 26 335.50Q23 350 23 366L23 406Z"  horiz-adv-x="229" vert-adv-y="1000"  />

      
      <glyph glyph-name="unib4" unicode="&#xb4;" d="M204 676L61 567L25 567L109 676L204 676Z"  horiz-adv-x="229" vert-adv-y="1000"  />

      
      <glyph glyph-name="unib5" unicode="&#xb5;" d="M310 39L310-1L305-1Q268-1 254.50 8Q241 17 238 44Q205-2 153-2Q115-2 92 25L92-163L50-163L50 503L92 503L92 119Q92 78 109.50 56Q127 34 158 34Q186 34 203.50 48.50Q221 63 236 99L236 503L278 503L278 73Q278 51 282 45Q286 39 301 39L310 39Z"  horiz-adv-x="333" vert-adv-y="1000"  />

      
      <glyph glyph-name="unib6" unicode="&#xb6;" d="M495 664L462 664L462-167L418-167L418 664L283 664L283-167L238-167L238 338Q169 347 131 394Q93 441 93 516Q93 605 147.50 655.50Q202 706 302 706L495 706L495 664Z"  horiz-adv-x="627" vert-adv-y="1000"  />

      
      <glyph glyph-name="unib7" unicode="&#xb7;" d="M94 244L50 244L50 334L94 334L94 244Z"  horiz-adv-x="146" vert-adv-y="1000"  />

      
      <glyph glyph-name="unib8" unicode="&#xb8;" d="M92 26L126 26L122-24Q152-32 173.50-51Q195-70 195-98Q195-119 177.50-139.50Q160-160 124-160Q86-160 33-129L52-107Q86-126 107-126Q126-126 134.50-115Q143-104 143-94Q143-60 88-52L92 26Z"  horiz-adv-x="229" vert-adv-y="1000"  />

      
      <glyph glyph-name="unib9" unicode="&#xb9;" d="M146 265L107 265L107 637Q78 616 43 610L43 645Q77 654 90.50 668Q104 682 112 707L146 707L146 265Z"  horiz-adv-x="229" vert-adv-y="1000"  />

      
      <glyph glyph-name="uniba" unicode="&#xba;" d="M163 638L163 498Q163 419 92 419Q22 419 22 492L22 635Q22 715 93 715Q163 715 163 638M130 495L130 633Q130 683 94 683Q53 683 53 636L53 495Q53 451 92 451Q130 451 130 495Z"  horiz-adv-x="187" vert-adv-y="1000"  />

      
      <glyph glyph-name="unibb" unicode="&#xbb;" d="M348 293L222 191L159 191L288 292L166 391L227 391L348 293M205 293L81 191L20 191L144 293L28 391L83 391L205 293Z"  horiz-adv-x="375" vert-adv-y="1000"  />

      
      <glyph glyph-name="unibc" unicode="&#xbc;" d="M583 132L531 132L531 0L494 0L494 132L371 132L371 175L484 441L531 441L531 167L583 167L583 132M483 774L116-70L91-59L458 786L483 774M146 265L107 265L107 637Q78 616 43 610L43 645Q77 654 90.50 668Q104 682 112 707L146 707L146 265M494 167L494 388L404 167L494 167Z"  horiz-adv-x="583" vert-adv-y="1000"  />

      
      <glyph glyph-name="unibd" unicode="&#xbd;" d="M550 0L379 0L379 35Q385 58 406 92Q420 114 442.50 145Q465 176 474 190Q483 204 494 228Q505 252 508.50 277.50Q512 303 512 338Q512 408 469 408Q425 408 425 350L425 294L389 294L389 357Q389 444 470 444Q549 444 549 350Q549 266 535.50 229.50Q522 193 463 110Q424 56 418 35L550 35L550 0M474 774L107-70L82-59L449 786L474 774M146 265L107 265L107 637Q78 616 43 610L43 645Q77 654 90.50 668Q104 682 112 707L146 707L146 265Z"  horiz-adv-x="583" vert-adv-y="1000"  />

      
      <glyph glyph-name="unibe" unicode="&#xbe;" d="M583 132L531 132L531 0L494 0L494 132L371 132L371 175L484 441L531 441L531 167L583 167L583 132M504 774L136-70L112-59L478 786L504 774M494 167L494 388L404 167L494 167M23 406L60 406Q60 381 60.50 368Q61 355 64 338.50Q67 322 72.50 314Q78 306 88.50 300Q99 294 114 294Q168 294 168 362L168 408Q168 432 161.50 447Q155 462 140.50 469.50Q126 477 113 479.50Q100 482 78 483L78 520Q160 520 160 586L160 628Q160 673 119 673Q77 673 77 623L77 573L40 573L40 623Q40 709 119 709Q198 709 198 623Q198 565 189 542Q180 519 145 503Q178 490 191.50 469Q205 448 205 403L205 376Q205 319 185 289Q165 259 114 259Q85 259 65 270.50Q45 282 37 301.50Q29 321 26 335.50Q23 350 23 366L23 406Z"  horiz-adv-x="583" vert-adv-y="1000"  />

      
      <glyph glyph-name="unibf" unicode="&#xbf;" d="M138 532L185 532L185 445Q185 409 163 377L117 310Q84 262 84 198L84 169Q84 30 163 30Q205 30 221.50 65.50Q238 101 238 148L238 224L285 224L285 163Q285 136 283 115Q281 94 274 69Q267 44 254 27.50Q241 11 217.50-0.50Q194-12 161-12Q128-12 104 1Q80 14 67.50 32Q55 50 47.50 77.50Q40 105 38.50 126Q37 147 37 175Q37 233 45.50 266.50Q54 300 80 339Q83 343 98.50 364.50Q114 386 119.50 394.50Q125 403 131.50 420.50Q138 438 138 454L138 532M137 706L185 706L185 616L137 616L137 706Z"  horiz-adv-x="354" vert-adv-y="1000"  />

      
      <glyph glyph-name="unic0" unicode="&#xc0;" d="M349 0L297 0L261 215L113 215L76 0L24 0L153 710L221 710L349 0M252 261L187 645L121 261L252 261M230 771L197 771L45 880L142 880L230 771Z"  horiz-adv-x="375" vert-adv-y="1000"  />

      
      <glyph glyph-name="unic1" unicode="&#xc1;" d="M349 0L297 0L261 215L113 215L76 0L24 0L153 710L221 710L349 0M252 261L187 645L121 261L252 261M314 878L172 769L135 769L220 878L314 878Z"  horiz-adv-x="375" vert-adv-y="1000"  />

      
      <glyph glyph-name="unic2" unicode="&#xc2;" d="M349 0L297 0L261 215L113 215L76 0L24 0L153 710L221 710L349 0M252 261L187 645L121 261L252 261M285 770L245 770L187 838L126 769L84 769L162 878L212 878L285 770Z"  horiz-adv-x="375" vert-adv-y="1000"  />

      
      <glyph glyph-name="unic3" unicode="&#xc3;" d="M349 0L297 0L261 215L113 215L76 0L24 0L153 710L221 710L349 0M252 261L187 645L121 261L252 261M272 859L301 859Q301 820 290 798.50Q279 777 247 777Q228 777 189 796Q150 815 137 815Q108 815 106 777L77 777Q77 859 139 859Q158 859 195 841Q232 823 245 823Q270 823 272 859Z"  horiz-adv-x="375" vert-adv-y="1000"  />

      
      <glyph glyph-name="unic4" unicode="&#xc4;" d="M349 0L297 0L261 215L113 215L76 0L24 0L153 710L221 710L349 0M252 261L187 645L121 261L252 261M287 789L235 789L235 865L287 865L287 789M139 789L87 789L87 865L139 865L139 789Z"  horiz-adv-x="375" vert-adv-y="1000"  />

      
      <glyph glyph-name="unic5" unicode="&#xc5;" d="M349 0L297 0L261 215L113 215L76 0L24 0L153 710L221 710L349 0M252 261L187 645L121 261L252 261M253 814Q253 786 233.50 767Q214 748 187 748Q166 748 143.50 763.50Q121 779 121 814Q121 842 140.50 861Q160 880 187 880Q215 880 234 860.50Q253 841 253 814M231 814Q231 833 218 845.50Q205 858 187 858Q168 858 155.50 845Q143 832 143 814Q143 792 157 781Q171 770 187 770Q206 770 218.50 783Q231 796 231 814Z"  horiz-adv-x="375" vert-adv-y="1000"  />

      
      <glyph glyph-name="unic6" unicode="&#xc6;" d="M480 0L255 0L255 306L147 306L72 0L21 0L202 706L463 706L463 663L304 663L304 390L450 390L450 346L304 346L304 44L480 44L480 0M255 347L255 663L237 663L157 347L255 347Z"  horiz-adv-x="500" vert-adv-y="1000"  />

      
      <glyph glyph-name="unic7" unicode="&#xc7;" d="M284 243L334 243L334 134Q334 106 329.50 84.50Q325 63 312 41Q299 19 271 5.50Q243-8 201-11L200-25Q272-45 272-98Q272-119 255-139.50Q238-160 201-160Q165-160 111-129L130-107Q164-126 184-126Q199-126 209.50-117.50Q220-109 220-94Q220-61 166-53L168-10Q52 7 52 147L52 572Q52 643 91.50 678Q131 713 192 713Q251 713 288.50 679.50Q326 646 326 585L326 478L277 478L277 558Q277 613 257.50 640.50Q238 668 193 668Q155 668 132.50 647.50Q110 627 105 606.50Q100 586 100 563L100 181Q100 155 101.50 137Q103 119 108.50 98.50Q114 78 124.50 65Q135 52 153.50 43.50Q172 35 198 35Q284 35 284 128L284 243Z"  horiz-adv-x="375" vert-adv-y="1000"  />

      
      <glyph glyph-name="unic8" unicode="&#xc8;" d="M309 662L107 662L107 390L273 390L273 347L107 347L107 44L308 44L308 0L59 0L59 706L309 706L309 662M224 771L191 771L39 880L136 880L224 771Z"  horiz-adv-x="333" vert-adv-y="1000"  />

      
      <glyph glyph-name="unic9" unicode="&#xc9;" d="M309 662L107 662L107 390L273 390L273 347L107 347L107 44L308 44L308 0L59 0L59 706L309 706L309 662M310 878L168 769L131 769L216 878L310 878Z"  horiz-adv-x="333" vert-adv-y="1000"  />

      
      <glyph glyph-name="unica" unicode="&#xca;" d="M309 662L107 662L107 390L273 390L273 347L107 347L107 44L308 44L308 0L59 0L59 706L309 706L309 662M275 770L235 770L177 838L116 769L74 769L152 878L202 878L275 770Z"  horiz-adv-x="333" vert-adv-y="1000"  />

      
      <glyph glyph-name="unicb" unicode="&#xcb;" d="M309 662L107 662L107 390L273 390L273 347L107 347L107 44L308 44L308 0L59 0L59 706L309 706L309 662M278 789L226 789L226 865L278 865L278 789M130 789L78 789L78 865L130 865L130 789Z"  horiz-adv-x="333" vert-adv-y="1000"  />

      
      <glyph glyph-name="unicc" unicode="&#xcc;" d="M109 0L58 0L58 706L109 706L109 0M141 771L108 771L-44 880L53 880L141 771Z"  horiz-adv-x="167" vert-adv-y="1000"  />

      
      <glyph glyph-name="unicd" unicode="&#xcd;" d="M109 0L58 0L58 706L109 706L109 0M201 878L59 769L22 769L107 878L201 878Z"  horiz-adv-x="167" vert-adv-y="1000"  />

      
      <glyph glyph-name="unice" unicode="&#xce;" d="M109 0L58 0L58 706L109 706L109 0M181 770L141 770L83 838L22 769L-20 769L58 878L108 878L181 770Z"  horiz-adv-x="167" vert-adv-y="1000"  />

      
      <glyph glyph-name="unicf" unicode="&#xcf;" d="M109 0L58 0L58 706L109 706L109 0M184 789L132 789L132 865L184 865L184 789M36 789L-16 789L-16 865L36 865L36 789Z"  horiz-adv-x="167" vert-adv-y="1000"  />

      
      <glyph glyph-name="unid0" unicode="&#xd0;" d="M60 706L141 706Q190 706 227 694.50Q264 683 295 645Q322 612 331.50 558.50Q341 505 341 414L341 245Q341 208 339 181.50Q337 155 326 118Q315 81 295 57.50Q275 34 237 17Q199 0 145 0L60 0L60 370L0 370L0 412L60 412L60 706M109 661L109 412L218 412L218 370L109 370L109 45L150 45Q189 45 217 59Q245 73 259.50 92Q274 111 282 140Q290 169 291.50 189.50Q293 210 293 236L293 419Q293 507 283.50 554Q274 601 242 629Q206 661 141 661L109 661Z"  horiz-adv-x="396" vert-adv-y="1000"  />

      
      <glyph glyph-name="unid1" unicode="&#xd1;" d="M337 0L262 0L98 667Q102 72 102 0L55 0L55 706L127 706L296 27Q289 667 289 706L337 706L337 0M283 859L312 859Q312 820 301 798.50Q290 777 258 777Q240 777 200 796Q160 815 148 815Q119 815 117 777L88 777Q88 859 150 859Q169 859 206 841Q243 823 256 823Q281 823 283 859Z"  horiz-adv-x="396" vert-adv-y="1000"  />

      
      <glyph glyph-name="unid2" unicode="&#xd2;" d="M54 146L54 559Q54 628 89.50 671Q125 714 197 714Q235 714 262.50 703Q290 692 305 676Q320 660 328 634.50Q336 609 338 589Q340 569 340 541L340 138Q340 101 329.50 70.50Q319 40 284.50 15.50Q250-9 195-9Q54-9 54 146M293 156L293 526Q293 606 268.50 638Q244 670 197 670Q148 670 125 639Q102 608 102 563L102 148Q102 35 198 35Q293 35 293 156M245 771L212 771L60 880L157 880L245 771Z"  horiz-adv-x="396" vert-adv-y="1000"  />

      
      <glyph glyph-name="unid3" unicode="&#xd3;" d="M54 146L54 559Q54 628 89.50 671Q125 714 197 714Q235 714 262.50 703Q290 692 305 676Q320 660 328 634.50Q336 609 338 589Q340 569 340 541L340 138Q340 101 329.50 70.50Q319 40 284.50 15.50Q250-9 195-9Q54-9 54 146M293 156L293 526Q293 606 268.50 638Q244 670 197 670Q148 670 125 639Q102 608 102 563L102 148Q102 35 198 35Q293 35 293 156M325 878L183 769L146 769L231 878L325 878Z"  horiz-adv-x="396" vert-adv-y="1000"  />

      
      <glyph glyph-name="unid4" unicode="&#xd4;" d="M54 146L54 559Q54 628 89.50 671Q125 714 197 714Q235 714 262.50 703Q290 692 305 676Q320 660 328 634.50Q336 609 338 589Q340 569 340 541L340 138Q340 101 329.50 70.50Q319 40 284.50 15.50Q250-9 195-9Q54-9 54 146M293 156L293 526Q293 606 268.50 638Q244 670 197 670Q148 670 125 639Q102 608 102 563L102 148Q102 35 198 35Q293 35 293 156M296 770L256 770L198 838L137 769L95 769L173 878L223 878L296 770Z"  horiz-adv-x="396" vert-adv-y="1000"  />

      
      <glyph glyph-name="unid5" unicode="&#xd5;" d="M54 146L54 559Q54 628 89.50 671Q125 714 197 714Q235 714 262.50 703Q290 692 305 676Q320 660 328 634.50Q336 609 338 589Q340 569 340 541L340 138Q340 101 329.50 70.50Q319 40 284.50 15.50Q250-9 195-9Q54-9 54 146M293 156L293 526Q293 606 268.50 638Q244 670 197 670Q148 670 125 639Q102 608 102 563L102 148Q102 35 198 35Q293 35 293 156M283 859L312 859Q312 820 301 798.50Q290 777 258 777Q240 777 200 796Q160 815 148 815Q119 815 117 777L88 777Q88 859 150 859Q169 859 206 841Q243 823 256 823Q281 823 283 859Z"  horiz-adv-x="396" vert-adv-y="1000"  />

      
      <glyph glyph-name="unid6" unicode="&#xd6;" d="M54 146L54 559Q54 628 89.50 671Q125 714 197 714Q235 714 262.50 703Q290 692 305 676Q320 660 328 634.50Q336 609 338 589Q340 569 340 541L340 138Q340 101 329.50 70.50Q319 40 284.50 15.50Q250-9 195-9Q54-9 54 146M293 156L293 526Q293 606 268.50 638Q244 670 197 670Q148 670 125 639Q102 608 102 563L102 148Q102 35 198 35Q293 35 293 156M297 789L245 789L245 865L297 865L297 789M149 789L97 789L97 865L149 865L149 789Z"  horiz-adv-x="396" vert-adv-y="1000"  />

      
      <glyph glyph-name="unid7" unicode="&#xd7;" d="M435 172L405 140L278 266L166 140L134 168L249 295L119 427L150 458L279 329L397 460L427 431L308 299L435 172Z"  horiz-adv-x="558" vert-adv-y="1000"  />

      
      <glyph glyph-name="unid8" unicode="&#xd8;" d="M375 704L335 610Q340 583 340 559L340 154Q340 73 301.50 32.50Q263-8 195-8Q166-8 143.50 0Q121 8 111.50 15.50Q102 23 89 38L61-29L35-18L71 67Q54 101 54 147L54 567Q54 635 93.50 677Q133 719 201 719Q249 719 279 697.50Q309 676 320 651L348 717L375 704M290 581Q279 675 197 675Q145 675 123.50 638.50Q102 602 102 557L102 138L290 581M292 162L292 507L112 92Q124 64 141.50 50.50Q159 37 197 37Q227 37 247.50 48Q268 59 277 79Q286 99 289 118Q292 137 292 162Z"  horiz-adv-x="396" vert-adv-y="1000"  />

      
      <glyph glyph-name="unid9" unicode="&#xd9;" d="M57 140L57 706L105 706L105 159Q105 136 106.50 120.50Q108 105 113.50 87.50Q119 70 128.50 59Q138 48 156 41Q174 34 199 34Q251 34 270 64Q289 94 289 152L289 706L338 706L338 140Q338 60 299.50 24Q261-12 196-12Q135-12 96 23.50Q57 59 57 140M245 771L212 771L60 880L157 880L245 771Z"  horiz-adv-x="396" vert-adv-y="1000"  />

      
      <glyph glyph-name="unida" unicode="&#xda;" d="M57 140L57 706L105 706L105 159Q105 136 106.50 120.50Q108 105 113.50 87.50Q119 70 128.50 59Q138 48 156 41Q174 34 199 34Q251 34 270 64Q289 94 289 152L289 706L338 706L338 140Q338 60 299.50 24Q261-12 196-12Q135-12 96 23.50Q57 59 57 140M325 878L183 769L146 769L231 878L325 878Z"  horiz-adv-x="396" vert-adv-y="1000"  />

      
      <glyph glyph-name="unidb" unicode="&#xdb;" d="M57 140L57 706L105 706L105 159Q105 136 106.50 120.50Q108 105 113.50 87.50Q119 70 128.50 59Q138 48 156 41Q174 34 199 34Q251 34 270 64Q289 94 289 152L289 706L338 706L338 140Q338 60 299.50 24Q261-12 196-12Q135-12 96 23.50Q57 59 57 140M296 770L256 770L198 838L137 769L95 769L173 878L223 878L296 770Z"  horiz-adv-x="396" vert-adv-y="1000"  />

      
      <glyph glyph-name="unidc" unicode="&#xdc;" d="M57 140L57 706L105 706L105 159Q105 136 106.50 120.50Q108 105 113.50 87.50Q119 70 128.50 59Q138 48 156 41Q174 34 199 34Q251 34 270 64Q289 94 289 152L289 706L338 706L338 140Q338 60 299.50 24Q261-12 196-12Q135-12 96 23.50Q57 59 57 140M297 789L245 789L245 865L297 865L297 789M149 789L97 789L97 865L149 865L149 789Z"  horiz-adv-x="396" vert-adv-y="1000"  />

      
      <glyph glyph-name="unidd" unicode="&#xdd;" d="M345 706L201 312L201 0L153 0L153 312L14 706L66 706L179 374L291 706L345 706M320 878L178 769L141 769L226 878L320 878Z"  horiz-adv-x="354" vert-adv-y="1000"  />

      
      <glyph glyph-name="unide" unicode="&#xde;" d="M58 706L106 706L106 589L167 589Q216 589 240 585Q271 579 291 565Q311 551 319.50 529Q328 507 330.50 488.50Q333 470 333 443L333 343Q333 307 322.50 280Q312 253 297.50 239Q283 225 260.50 216.50Q238 208 220 206Q202 204 179 204L107 204L107 0L58 0L58 706M106 547L106 245L186 245Q208 245 222.50 248Q237 251 253 261Q269 271 277 294Q285 317 285 352L285 412Q285 462 280 488.50Q275 515 258 530Q238 547 184 547L106 547Z"  horiz-adv-x="375" vert-adv-y="1000"  />

      
      <glyph glyph-name="unidf" unicode="&#xdf;" d="M97 0L54 0L54 581Q54 655 86.50 684.50Q119 714 180 714Q235 714 262 686.50Q289 659 289 615L289 530Q289 504 281.50 485Q274 466 260 456Q246 446 238.50 442.50Q231 439 218 435Q257 422 277 400Q297 378 301.50 358Q306 338 306 306L306 83Q306-8 219-8Q149-8 149 62L149 140L178 140L178 75Q178 32 219 32Q263 32 263 92L263 289Q263 360 232 387Q210 406 158 410L158 453Q201 455 221 472Q233 482 238.50 495Q244 508 245 517.50Q246 527 246 546L246 591Q246 630 232.50 651.50Q219 673 177 673Q129 673 113 648.50Q97 624 97 573L97 0Z"  horiz-adv-x="354" vert-adv-y="1000"  />

      
      <glyph glyph-name="unie0" unicode="&#xe0;" d="M296 0L287 0Q257 1 243 10Q229 19 224 39Q175 0 126 0Q77 0 52.50 33.50Q28 67 28 118Q28 168 50.50 203.50Q73 239 101 254.50Q129 270 167 290Q205 310 223 326L223 395Q223 466 161 466Q122 466 107 445.50Q92 425 92 374L92 348L49 348L49 375Q49 446 77 476Q105 506 163 506Q266 506 266 405L266 58Q266 40 296 40L296 0M224 87L224 279Q223 278 141 231Q71 190 71 117Q71 107 72.50 97.50Q74 88 80 73Q86 58 100.50 49Q115 40 137 40Q181 40 224 87M214 569L181 569L30 678L127 678L214 569Z"  horiz-adv-x="313" vert-adv-y="1000"  />

      
      <glyph glyph-name="unie1" unicode="&#xe1;" d="M296 0L287 0Q257 1 243 10Q229 19 224 39Q175 0 126 0Q77 0 52.50 33.50Q28 67 28 118Q28 168 50.50 203.50Q73 239 101 254.50Q129 270 167 290Q205 310 223 326L223 395Q223 466 161 466Q122 466 107 445.50Q92 425 92 374L92 348L49 348L49 375Q49 446 77 476Q105 506 163 506Q266 506 266 405L266 58Q266 40 296 40L296 0M224 87L224 279Q223 278 141 231Q71 190 71 117Q71 107 72.50 97.50Q74 88 80 73Q86 58 100.50 49Q115 40 137 40Q181 40 224 87M288 676L145 567L109 567L193 676L288 676Z"  horiz-adv-x="313" vert-adv-y="1000"  />

      
      <glyph glyph-name="unie2" unicode="&#xe2;" d="M296 0L287 0Q257 1 243 10Q229 19 224 39Q175 0 126 0Q77 0 52.50 33.50Q28 67 28 118Q28 168 50.50 203.50Q73 239 101 254.50Q129 270 167 290Q205 310 223 326L223 395Q223 466 161 466Q122 466 107 445.50Q92 425 92 374L92 348L49 348L49 375Q49 446 77 476Q105 506 163 506Q266 506 266 405L266 58Q266 40 296 40L296 0M224 87L224 279Q223 278 141 231Q71 190 71 117Q71 107 72.50 97.50Q74 88 80 73Q86 58 100.50 49Q115 40 137 40Q181 40 224 87M265 568L225 568L167 637L106 568L64 568L142 677L192 677L265 568Z"  horiz-adv-x="313" vert-adv-y="1000"  />

      
      <glyph glyph-name="unie3" unicode="&#xe3;" d="M296 0L287 0Q257 1 243 10Q229 19 224 39Q175 0 126 0Q77 0 52.50 33.50Q28 67 28 118Q28 168 50.50 203.50Q73 239 101 254.50Q129 270 167 290Q205 310 223 326L223 395Q223 466 161 466Q122 466 107 445.50Q92 425 92 374L92 348L49 348L49 375Q49 446 77 476Q105 506 163 506Q266 506 266 405L266 58Q266 40 296 40L296 0M224 87L224 279Q223 278 141 231Q71 190 71 117Q71 107 72.50 97.50Q74 88 80 73Q86 58 100.50 49Q115 40 137 40Q181 40 224 87M246 655L276 655Q276 616 266 595.50Q256 575 225 575Q207 575 167.50 592.50Q128 610 117 610Q90 610 88 575L59 575Q59 609 73.50 632Q88 655 120 655Q139 655 174 638Q209 621 221 621Q246 621 246 655Z"  horiz-adv-x="313" vert-adv-y="1000"  />

      
      <glyph glyph-name="unie4" unicode="&#xe4;" d="M296 0L287 0Q257 1 243 10Q229 19 224 39Q175 0 126 0Q77 0 52.50 33.50Q28 67 28 118Q28 168 50.50 203.50Q73 239 101 254.50Q129 270 167 290Q205 310 223 326L223 395Q223 466 161 466Q122 466 107 445.50Q92 425 92 374L92 348L49 348L49 375Q49 446 77 476Q105 506 163 506Q266 506 266 405L266 58Q266 40 296 40L296 0M224 87L224 279Q223 278 141 231Q71 190 71 117Q71 107 72.50 97.50Q74 88 80 73Q86 58 100.50 49Q115 40 137 40Q181 40 224 87M238 585L190 585L190 662L238 662L238 585M139 585L91 585L91 662L139 662L139 585Z"  horiz-adv-x="313" vert-adv-y="1000"  />

      
      <glyph glyph-name="unie5" unicode="&#xe5;" d="M296 0L287 0Q257 1 243 10Q229 19 224 39Q175 0 126 0Q77 0 52.50 33.50Q28 67 28 118Q28 168 50.50 203.50Q73 239 101 254.50Q129 270 167 290Q205 310 223 326L223 395Q223 466 161 466Q122 466 107 445.50Q92 425 92 374L92 348L49 348L49 375Q49 446 77 476Q105 506 163 506Q266 506 266 405L266 58Q266 40 296 40L296 0M224 87L224 279Q223 278 141 231Q71 190 71 117Q71 107 72.50 97.50Q74 88 80 73Q86 58 100.50 49Q115 40 137 40Q181 40 224 87M231 616Q231 588 211.50 569Q192 550 165 550Q144 550 121.50 565.50Q99 581 99 616Q99 644 118.50 663.50Q138 683 165 683Q192 683 211.50 663Q231 643 231 616M209 616Q209 635 196 648Q183 661 165 661Q147 661 134 647.50Q121 634 121 616Q121 596 135 584Q149 572 165 572Q184 572 196.50 585Q209 598 209 616Z"  horiz-adv-x="313" vert-adv-y="1000"  />

      
      <glyph glyph-name="unie6" unicode="&#xe6;" d="M418 172L461 172L461 135Q461 74 433.50 36Q406-2 347-2Q317-2 295 8Q273 18 264 28.50Q255 39 241 59Q230 37 199.50 17.50Q169-2 133-2Q93-2 61.50 25Q30 52 30 117Q30 206 103 253Q120 264 163.50 286.50Q207 309 228 324L228 403Q228 466 165 466Q129 466 112.50 442.50Q96 419 96 383L96 350L54 350L54 386Q54 504 167 504Q201 504 219 494.50Q237 485 256 465Q287 505 347 505Q460 505 460 377L460 257L270 257L270 144Q270 38 345 38Q380 38 399 61Q418 84 418 120L418 172M418 293L418 384Q418 466 346 466Q270 466 270 372L270 293L418 293M228 101L228 281Q213 269 181.50 251.50Q150 234 128.50 221Q107 208 89.50 181Q72 154 72 117Q72 38 143 38Q200 38 228 101Z"  horiz-adv-x="500" vert-adv-y="1000"  />

      
      <glyph glyph-name="unie7" unicode="&#xe7;" d="M276 192L276 127Q276 62 250 33Q224 4 171-2L169-24Q241-44 241-97Q241-119 224.50-139.50Q208-160 170-160Q134-160 80-129L99-107Q133-126 153-126Q172-126 180.50-115Q189-104 189-94Q189-61 135-52L138-2Q106 3 85 17.50Q64 32 55 55Q46 78 43 97.50Q40 117 40 144L40 376Q40 503 156 503Q271 503 271 368L271 324L229 324L229 363Q229 466 157 466Q83 466 83 373L83 150Q83 92 99.50 64.50Q116 37 162 37Q232 37 232 119L232 192L276 192Z"  horiz-adv-x="313" vert-adv-y="1000"  />

      
      <glyph glyph-name="unie8" unicode="&#xe8;" d="M273 175L273 112Q273 66 245 32.50Q217-1 157-1Q106-1 74.50 28Q43 57 43 116L43 386Q43 438 70 472Q97 506 157 506Q273 506 273 376L273 247L85 247L85 123Q85 38 157 38Q182 38 198 46.50Q214 55 220.50 71.50Q227 88 229 102.50Q231 117 231 139L231 175L273 175M230 283L230 383Q230 425 210 446.50Q190 468 158 468Q122 468 103.50 444Q85 420 85 379L85 283L230 283M198 569L165 569L14 678L111 678L198 569Z"  horiz-adv-x="313" vert-adv-y="1000"  />

      
      <glyph glyph-name="unie9" unicode="&#xe9;" d="M273 175L273 112Q273 66 245 32.50Q217-1 157-1Q106-1 74.50 28Q43 57 43 116L43 386Q43 438 70 472Q97 506 157 506Q273 506 273 376L273 247L85 247L85 123Q85 38 157 38Q182 38 198 46.50Q214 55 220.50 71.50Q227 88 229 102.50Q231 117 231 139L231 175L273 175M230 283L230 383Q230 425 210 446.50Q190 468 158 468Q122 468 103.50 444Q85 420 85 379L85 283L230 283M282 676L139 567L103 567L187 676L282 676Z"  horiz-adv-x="313" vert-adv-y="1000"  />

      
      <glyph glyph-name="uniea" unicode="&#xea;" d="M273 175L273 112Q273 66 245 32.50Q217-1 157-1Q106-1 74.50 28Q43 57 43 116L43 386Q43 438 70 472Q97 506 157 506Q273 506 273 376L273 247L85 247L85 123Q85 38 157 38Q182 38 198 46.50Q214 55 220.50 71.50Q227 88 229 102.50Q231 117 231 139L231 175L273 175M230 283L230 383Q230 425 210 446.50Q190 468 158 468Q122 468 103.50 444Q85 420 85 379L85 283L230 283M254 568L214 568L156 637L95 568L53 568L131 677L181 677L254 568Z"  horiz-adv-x="313" vert-adv-y="1000"  />

      
      <glyph glyph-name="unieb" unicode="&#xeb;" d="M273 175L273 112Q273 66 245 32.50Q217-1 157-1Q106-1 74.50 28Q43 57 43 116L43 386Q43 438 70 472Q97 506 157 506Q273 506 273 376L273 247L85 247L85 123Q85 38 157 38Q182 38 198 46.50Q214 55 220.50 71.50Q227 88 229 102.50Q231 117 231 139L231 175L273 175M230 283L230 383Q230 425 210 446.50Q190 468 158 468Q122 468 103.50 444Q85 420 85 379L85 283L230 283M227 585L179 585L179 662L227 662L227 585M128 585L80 585L80 662L128 662L128 585Z"  horiz-adv-x="313" vert-adv-y="1000"  />

      
      <glyph glyph-name="uniec" unicode="&#xec;" d="M95 0L52 0L52 503L95 503L95 0M130 569L97 569L-54 678L43 678L130 569Z"  horiz-adv-x="146" vert-adv-y="1000"  />

      
      <glyph glyph-name="unied" unicode="&#xed;" d="M95 0L52 0L52 503L95 503L95 0M190 676L47 567L11 567L95 676L190 676Z"  horiz-adv-x="146" vert-adv-y="1000"  />

      
      <glyph glyph-name="uniee" unicode="&#xee;" d="M95 0L52 0L52 503L95 503L95 0M171 568L131 568L73 637L12 568L-30 568L48 677L98 677L171 568Z"  horiz-adv-x="146" vert-adv-y="1000"  />

      
      <glyph glyph-name="unief" unicode="&#xef;" d="M95 0L52 0L52 503L95 503L95 0M144 585L96 585L96 662L144 662L144 585M45 585L-3 585L-3 662L45 662L45 585Z"  horiz-adv-x="146" vert-adv-y="1000"  />

      
      <glyph glyph-name="unif0" unicode="&#xf0;" d="M287 634L230 612Q256 567 265 522Q274 477 274 389L274 123Q274 70 244 34Q214-2 155-2Q103-2 71 27Q39 56 39 104L39 385Q39 444 73.50 475Q108 506 155 506Q202 506 233 465Q226 550 194 598L91 560L77 590L173 627Q144 663 104 693L139 711Q185 671 209 641L273 665L287 634M231 121L231 380Q231 464 160 464Q82 464 82 378L82 122Q82 39 154 39Q185 39 204 55.50Q223 72 227 88Q231 104 231 121Z"  horiz-adv-x="313" vert-adv-y="1000"  />

      
      <glyph glyph-name="unif1" unicode="&#xf1;" d="M285 0L243 0L243 396Q243 472 181 472Q124 472 97 409L97 0L55 0L55 503L97 503L97 455Q130 509 190 509Q227 509 256 485Q285 461 285 408L285 0M246 655L276 655Q276 616 266 595.50Q256 575 225 575Q207 575 167.50 592.50Q128 610 117 610Q90 610 88 575L59 575Q59 609 73.50 632Q88 655 120 655Q139 655 174 638Q209 621 221 621Q246 621 246 655Z"  horiz-adv-x="333" vert-adv-y="1000"  />

      
      <glyph glyph-name="unif2" unicode="&#xf2;" d="M274 384L274 132Q274 64 241 31Q208-2 155-2Q102-2 70.50 27Q39 56 39 107L39 385Q39 437 68.50 471.50Q98 506 160 506Q274 506 274 384M231 126L231 378Q231 464 160 464Q114 464 98 438Q82 412 82 368L82 120Q82 81 101 60Q120 39 155 39Q231 39 231 126M203 569L170 569L19 678L116 678L203 569Z"  horiz-adv-x="313" vert-adv-y="1000"  />

      
      <glyph glyph-name="unif3" unicode="&#xf3;" d="M274 384L274 132Q274 64 241 31Q208-2 155-2Q102-2 70.50 27Q39 56 39 107L39 385Q39 437 68.50 471.50Q98 506 160 506Q274 506 274 384M231 126L231 378Q231 464 160 464Q114 464 98 438Q82 412 82 368L82 120Q82 81 101 60Q120 39 155 39Q231 39 231 126M283 676L140 567L104 567L188 676L283 676Z"  horiz-adv-x="313" vert-adv-y="1000"  />

      
      <glyph glyph-name="unif4" unicode="&#xf4;" d="M274 384L274 132Q274 64 241 31Q208-2 155-2Q102-2 70.50 27Q39 56 39 107L39 385Q39 437 68.50 471.50Q98 506 160 506Q274 506 274 384M231 126L231 378Q231 464 160 464Q114 464 98 438Q82 412 82 368L82 120Q82 81 101 60Q120 39 155 39Q231 39 231 126M254 568L214 568L156 637L95 568L53 568L131 677L181 677L254 568Z"  horiz-adv-x="313" vert-adv-y="1000"  />

      
      <glyph glyph-name="unif5" unicode="&#xf5;" d="M274 384L274 132Q274 64 241 31Q208-2 155-2Q102-2 70.50 27Q39 56 39 107L39 385Q39 437 68.50 471.50Q98 506 160 506Q274 506 274 384M231 126L231 378Q231 464 160 464Q114 464 98 438Q82 412 82 368L82 120Q82 81 101 60Q120 39 155 39Q231 39 231 126M236 655L266 655Q266 616 256 595.50Q246 575 215 575Q197 575 157.50 592.50Q118 610 107 610Q80 610 78 575L49 575Q49 609 63.50 632Q78 655 110 655Q129 655 164 638Q199 621 211 621Q236 621 236 655Z"  horiz-adv-x="313" vert-adv-y="1000"  />

      
      <glyph glyph-name="unif6" unicode="&#xf6;" d="M274 384L274 132Q274 64 241 31Q208-2 155-2Q102-2 70.50 27Q39 56 39 107L39 385Q39 437 68.50 471.50Q98 506 160 506Q274 506 274 384M231 126L231 378Q231 464 160 464Q114 464 98 438Q82 412 82 368L82 120Q82 81 101 60Q120 39 155 39Q231 39 231 126M230 585L182 585L182 662L230 662L230 585M131 585L83 585L83 662L131 662L131 585Z"  horiz-adv-x="313" vert-adv-y="1000"  />

      
      <glyph glyph-name="unif7" unicode="&#xf7;" d="M305 378L256 378L256 452L305 452L305 378M475 275L85 275L85 317L475 317L475 275M305 139L256 139L256 213L305 213L305 139Z"  horiz-adv-x="559" vert-adv-y="1000"  />

      
      <glyph glyph-name="unif8" unicode="&#xf8;" d="M294 495L265 439Q273 416 273 386L273 120Q273 57 238.50 28Q204-1 157-1Q85-1 61 38L39-4L22 6L49 59Q38 93 38 117L38 371Q38 506 160 506Q227 506 254 464L276 505L294 495M81 123L227 409Q224 421 221 427.50Q218 434 210.50 444Q203 454 189.50 459Q176 464 157 464Q115 464 98 440Q81 416 81 368L81 123M231 146L231 370L86 86Q90 67 107 52.50Q124 38 155 38Q181 38 198 48Q215 58 221.50 77.50Q228 97 229.50 110.50Q231 124 231 146Z"  horiz-adv-x="313" vert-adv-y="1000"  />

      
      <glyph glyph-name="unif9" unicode="&#xf9;" d="M279 0L236 0L236 47Q222 25 197 11Q172-3 145-3Q98-3 74 29Q50 61 50 97L50 503L92 503L92 131Q92 34 158 34Q215 34 236 99L236 503L279 503L279 0M214 569L181 569L30 678L127 678L214 569Z"  horiz-adv-x="333" vert-adv-y="1000"  />

      
      <glyph glyph-name="unifa" unicode="&#xfa;" d="M279 0L236 0L236 47Q222 25 197 11Q172-3 145-3Q98-3 74 29Q50 61 50 97L50 503L92 503L92 131Q92 34 158 34Q215 34 236 99L236 503L279 503L279 0M294 676L151 567L115 567L199 676L294 676Z"  horiz-adv-x="333" vert-adv-y="1000"  />

      
      <glyph glyph-name="unifb" unicode="&#xfb;" d="M279 0L236 0L236 47Q222 25 197 11Q172-3 145-3Q98-3 74 29Q50 61 50 97L50 503L92 503L92 131Q92 34 158 34Q215 34 236 99L236 503L279 503L279 0M265 568L225 568L167 637L106 568L64 568L142 677L192 677L265 568Z"  horiz-adv-x="333" vert-adv-y="1000"  />

      
      <glyph glyph-name="unifc" unicode="&#xfc;" d="M279 0L236 0L236 47Q222 25 197 11Q172-3 145-3Q98-3 74 29Q50 61 50 97L50 503L92 503L92 131Q92 34 158 34Q215 34 236 99L236 503L279 503L279 0M238 585L190 585L190 662L238 662L238 585M139 585L91 585L91 662L139 662L139 585Z"  horiz-adv-x="333" vert-adv-y="1000"  />

      
      <glyph glyph-name="unifd" unicode="&#xfd;" d="M235 503L280 503L151-57Q139-108 116-132Q85-164 9-164L9-122Q17-124 30-124Q97-124 112-54L125 4L15 503L58 503L146 85L235 503M286 676L143 567L107 567L191 676L286 676Z"  horiz-adv-x="292" vert-adv-y="1000"  />

      
      <glyph glyph-name="unife" unicode="&#xfe;" d="M54 706L94 706L94 456Q138 508 187 508Q285 508 285 372L285 112Q285 54 255 25.50Q225-3 183-3Q131-3 97 41L97-163L54-163L54 706M97 404L97 94Q117 37 175 37Q242 37 242 121L242 391Q242 432 222.50 450.50Q203 469 177 469Q116 469 97 404Z"  horiz-adv-x="333" vert-adv-y="1000"  />

      
      <glyph glyph-name="uniff" unicode="&#xff;" d="M235 503L280 503L151-57Q139-108 116-132Q85-164 9-164L9-122Q17-124 30-124Q97-124 112-54L125 4L15 503L58 503L146 85L235 503M227 585L179 585L179 662L227 662L227 585M128 585L80 585L80 662L128 662L128 585Z"  horiz-adv-x="292" vert-adv-y="1000"  />

      
      <glyph glyph-name="uni0100" unicode="&#x0100;" d="M349 0L297 0L261 215L113 215L76 0L24 0L153 710L221 710L349 0M252 261L187 645L121 261L252 261M296 789L77 789L77 831L296 831L296 789Z"  horiz-adv-x="375" vert-adv-y="1000"  />

      
      <glyph glyph-name="uni0101" unicode="&#x0101;" d="M296 0L287 0Q257 1 243 10Q229 19 224 39Q175 0 126 0Q77 0 52.50 33.50Q28 67 28 118Q28 168 50.50 203.50Q73 239 101 254.50Q129 270 167 290Q205 310 223 326L223 395Q223 466 161 466Q122 466 107 445.50Q92 425 92 374L92 348L49 348L49 375Q49 446 77 476Q105 506 163 506Q266 506 266 405L266 58Q266 40 296 40L296 0M224 87L224 279Q223 278 141 231Q71 190 71 117Q71 107 72.50 97.50Q74 88 80 73Q86 58 100.50 49Q115 40 137 40Q181 40 224 87M270 585L71 585L71 627L270 627L270 585Z"  horiz-adv-x="313" vert-adv-y="1000"  />

      
      <glyph glyph-name="uni0102" unicode="&#x0102;" d="M349 0L297 0L261 215L113 215L76 0L24 0L153 710L221 710L349 0M252 261L187 645L121 261L252 261M258 869L279 869Q279 859 276 846Q273 833 265 813Q257 793 237 779.50Q217 766 188 766Q160 766 139.50 779.50Q119 793 110.50 814Q102 835 99 847Q96 859 95 869L118 869Q134 811 189 811Q239 811 258 869Z"  horiz-adv-x="375" vert-adv-y="1000"  />

      
      <glyph glyph-name="uni0103" unicode="&#x0103;" d="M296 0L287 0Q257 1 243 10Q229 19 224 39Q175 0 126 0Q77 0 52.50 33.50Q28 67 28 118Q28 168 50.50 203.50Q73 239 101 254.50Q129 270 167 290Q205 310 223 326L223 395Q223 466 161 466Q122 466 107 445.50Q92 425 92 374L92 348L49 348L49 375Q49 446 77 476Q105 506 163 506Q266 506 266 405L266 58Q266 40 296 40L296 0M224 87L224 279Q223 278 141 231Q71 190 71 117Q71 107 72.50 97.50Q74 88 80 73Q86 58 100.50 49Q115 40 137 40Q181 40 224 87M73 671L96 671Q110 613 167 613Q184 613 197 618.50Q210 624 218 635.50Q226 647 229 653Q232 659 236 671L257 671Q245 568 165 568Q91 568 73 671Z"  horiz-adv-x="313" vert-adv-y="1000"  />

      
      <glyph glyph-name="uni0104" unicode="&#x0104;" d="M24 0L153 710L221 710L349 0L344 0Q323-13 306.50-37Q290-61 290-79Q290-97 301-102Q312-107 332-107L356-107L356-151L316-151Q241-151 241-91Q241-52 296 5L261 215L113 215L76 0L24 0M252 261L187 645L121 261L252 261Z"  horiz-adv-x="375" vert-adv-y="1000"  />

      
      <glyph glyph-name="uni0105" unicode="&#x0105;" d="M296 0L280 0Q257-9 239.50-34.50Q222-60 222-80Q222-92 229.50-98Q237-104 244-105Q251-106 266-106L287-106L287-151L247-151Q173-151 173-91Q173-81 176-70.50Q179-60 182-53Q185-46 193-35.50Q201-25 205-20Q209-15 221-2.50Q233 10 237 14Q228 23 224 39Q175 0 126 0Q77 0 52.50 33.50Q28 67 28 118Q28 168 50.50 203.50Q73 239 101 254.50Q129 270 167 290Q205 310 223 326L223 395Q223 466 161 466Q122 466 107 445.50Q92 425 92 374L92 348L49 348L49 375Q49 446 77 476Q105 506 163 506Q266 506 266 405L266 58Q266 40 296 40L296 0M224 87L224 279Q223 278 141 231Q71 190 71 117Q71 107 72.50 97.50Q74 88 80 73Q86 58 100.50 49Q115 40 137 40Q181 40 224 87Z"  horiz-adv-x="313" vert-adv-y="1000"  />

      
      <glyph glyph-name="uni0106" unicode="&#x0106;" d="M334 243L334 134Q334-11 190-11Q148-11 118.50 4Q89 19 75.50 44.50Q62 70 57 93.50Q52 117 52 144L52 572Q52 645 93 679Q134 713 192 713Q252 713 289 679.50Q326 646 326 582L326 478L277 478L277 539Q277 570 275 589Q273 608 265 628.50Q257 649 239 658.50Q221 668 193 668Q163 668 142.50 656Q122 644 114 624.50Q106 605 103 591Q100 577 100 563L100 181Q100 105 121 70Q142 35 198 35Q243 35 263.50 61Q284 87 284 128L284 243L334 243M319 878L177 769L140 769L225 878L319 878Z"  horiz-adv-x="375" vert-adv-y="1000"  />

      
      <glyph glyph-name="uni0107" unicode="&#x0107;" d="M276 192L276 127Q276 64 247.50 30.50Q219-3 153-3Q93-3 66.50 34Q40 71 40 124L40 376Q40 503 156 503Q271 503 271 370L271 324L229 324L229 364Q229 466 157 466Q83 466 83 373L83 151Q83 127 85 111.50Q87 96 94 76.50Q101 57 118 47Q135 37 162 37Q232 37 232 119L232 192L276 192M284 676L141 567L105 567L189 676L284 676Z"  horiz-adv-x="313" vert-adv-y="1000"  />

      
      <glyph glyph-name="uni0108" unicode="&#x0108;" d="M334 243L334 134Q334-11 190-11Q148-11 118.50 4Q89 19 75.50 44.50Q62 70 57 93.50Q52 117 52 144L52 572Q52 645 93 679Q134 713 192 713Q252 713 289 679.50Q326 646 326 582L326 478L277 478L277 539Q277 570 275 589Q273 608 265 628.50Q257 649 239 658.50Q221 668 193 668Q163 668 142.50 656Q122 644 114 624.50Q106 605 103 591Q100 577 100 563L100 181Q100 105 121 70Q142 35 198 35Q243 35 263.50 61Q284 87 284 128L284 243L334 243M296 770L256 770L198 838L137 769L95 769L173 878L223 878L296 770Z"  horiz-adv-x="375" vert-adv-y="1000"  />

      
      <glyph glyph-name="uni0109" unicode="&#x0109;" d="M276 192L276 127Q276 64 247.50 30.50Q219-3 153-3Q93-3 66.50 34Q40 71 40 124L40 376Q40 503 156 503Q271 503 271 370L271 324L229 324L229 364Q229 466 157 466Q83 466 83 373L83 151Q83 127 85 111.50Q87 96 94 76.50Q101 57 118 47Q135 37 162 37Q232 37 232 119L232 192L276 192M257 568L217 568L159 637L98 568L56 568L134 677L184 677L257 568Z"  horiz-adv-x="313" vert-adv-y="1000"  />

      
      <glyph glyph-name="uni010A" unicode="&#x010A;" d="M334 243L334 134Q334-11 190-11Q148-11 118.50 4Q89 19 75.50 44.50Q62 70 57 93.50Q52 117 52 144L52 572Q52 645 93 679Q134 713 192 713Q252 713 289 679.50Q326 646 326 582L326 478L277 478L277 539Q277 570 275 589Q273 608 265 628.50Q257 649 239 658.50Q221 668 193 668Q163 668 142.50 656Q122 644 114 624.50Q106 605 103 591Q100 577 100 563L100 181Q100 105 121 70Q142 35 198 35Q243 35 263.50 61Q284 87 284 128L284 243L334 243M218 789L166 789L166 865L218 865L218 789Z"  horiz-adv-x="375" vert-adv-y="1000"  />

      
      <glyph glyph-name="uni010B" unicode="&#x010B;" d="M276 192L276 127Q276 64 247.50 30.50Q219-3 153-3Q93-3 66.50 34Q40 71 40 124L40 376Q40 503 156 503Q271 503 271 370L271 324L229 324L229 364Q229 466 157 466Q83 466 83 373L83 151Q83 127 85 111.50Q87 96 94 76.50Q101 57 118 47Q135 37 162 37Q232 37 232 119L232 192L276 192M184 588L133 588L133 663L184 663L184 588Z"  horiz-adv-x="313" vert-adv-y="1000"  />

      
      <glyph glyph-name="uni010C" unicode="&#x010C;" d="M334 243L334 134Q334-11 190-11Q148-11 118.50 4Q89 19 75.50 44.50Q62 70 57 93.50Q52 117 52 144L52 572Q52 645 93 679Q134 713 192 713Q252 713 289 679.50Q326 646 326 582L326 478L277 478L277 539Q277 570 275 589Q273 608 265 628.50Q257 649 239 658.50Q221 668 193 668Q163 668 142.50 656Q122 644 114 624.50Q106 605 103 591Q100 577 100 563L100 181Q100 105 121 70Q142 35 198 35Q243 35 263.50 61Q284 87 284 128L284 243L334 243M292 877L215 769L164 769L93 877L132 877L190 809L252 877L292 877Z"  horiz-adv-x="375" vert-adv-y="1000"  />

      
      <glyph glyph-name="uni010D" unicode="&#x010D;" d="M276 192L276 127Q276 64 247.50 30.50Q219-3 153-3Q93-3 66.50 34Q40 71 40 124L40 376Q40 503 156 503Q271 503 271 370L271 324L229 324L229 364Q229 466 157 466Q83 466 83 373L83 151Q83 127 85 111.50Q87 96 94 76.50Q101 57 118 47Q135 37 162 37Q232 37 232 119L232 192L276 192M259 680L182 571L132 571L60 679L99 679L157 612L218 680L259 680Z"  horiz-adv-x="313" vert-adv-y="1000"  />

      
      <glyph glyph-name="uni010E" unicode="&#x010E;" d="M60 706L121 706Q180 706 222 695Q264 684 294 648Q322 614 332 562.50Q342 511 342 417L342 218Q342 191 339 167Q336 143 324.50 110.50Q313 78 294 55.50Q275 33 238.50 16.50Q202 0 153 0L60 0L60 706M109 661L109 44L149 44Q227 44 260.50 91.50Q294 139 294 245L294 418Q294 550 269 597Q234 661 146 661L109 661M272 877L195 769L144 769L73 877L112 877L170 809L232 877L272 877Z"  horiz-adv-x="396" vert-adv-y="1000"  />

      
      <glyph glyph-name="uni010F" unicode="&#x010F;" d="M280 0L240 0L240 53Q210-4 148-4Q107-4 77.50 24.50Q48 53 48 115L48 382Q48 443 77.50 473Q107 503 149 503Q160 503 170 501Q180 499 188.50 495.50Q197 492 203 488.50Q209 485 215 479.50Q221 474 224 471Q227 468 232 462.50Q237 457 238 456L238 706L280 706L280 0M238 107L238 374Q226 463 159 463Q126 463 108 439Q90 415 90 384L90 123Q90 34 159 34Q190 34 211 55.50Q232 77 238 107M313 706L355 706L355 615Q355 580 346.50 560Q338 540 313 527L313 549Q323 556 328 567.50Q333 579 333.50 588Q334 597 334 615L334 627L313 627L313 706Z"  horiz-adv-x="333" vert-adv-y="1000"  />

      
      <glyph glyph-name="uni0110" unicode="&#x0110;" d="M60 706L141 706Q190 706 227 694.50Q264 683 295 645Q322 612 331.50 558.50Q341 505 341 414L341 245Q341 208 339 181.50Q337 155 326 118Q315 81 295 57.50Q275 34 237 17Q199 0 145 0L60 0L60 370L0 370L0 412L60 412L60 706M109 661L109 412L218 412L218 370L109 370L109 45L150 45Q189 45 217 59Q245 73 259.50 92Q274 111 282 140Q290 169 291.50 189.50Q293 210 293 236L293 419Q293 507 283.50 554Q274 601 242 629Q206 661 141 661L109 661Z"  horiz-adv-x="396" vert-adv-y="1000"  />

      
      <glyph glyph-name="uni0111" unicode="&#x0111;" d="M280 0L240 0L240 53Q210-4 148-4Q107-4 77.50 24.50Q48 53 48 115L48 382Q48 443 77.50 473Q107 503 149 503Q160 503 170 501Q180 499 188.50 495.50Q197 492 203 488.50Q209 485 215 479.50Q221 474 224 471Q227 468 232 462.50Q237 457 238 456L238 586L119 586L119 626L238 626L238 706L280 706L280 626L333 626L333 586L280 586L280 0M238 107L238 374Q226 463 159 463Q126 463 108 439Q90 415 90 384L90 123Q90 34 159 34Q190 34 211 55.50Q232 77 238 107Z"  horiz-adv-x="333" vert-adv-y="1000"  />

      
      <glyph glyph-name="uni0112" unicode="&#x0112;" d="M309 662L107 662L107 390L273 390L273 347L107 347L107 44L308 44L308 0L59 0L59 706L309 706L309 662M294 789L75 789L75 831L294 831L294 789Z"  horiz-adv-x="333" vert-adv-y="1000"  />

      
      <glyph glyph-name="uni0113" unicode="&#x0113;" d="M273 175L273 112Q273 66 245 32.50Q217-1 157-1Q106-1 74.50 28Q43 57 43 116L43 386Q43 438 70 472Q97 506 157 506Q273 506 273 376L273 247L85 247L85 123Q85 38 157 38Q182 38 198 46.50Q214 55 220.50 71.50Q227 88 229 102.50Q231 117 231 139L231 175L273 175M230 283L230 383Q230 425 210 446.50Q190 468 158 468Q122 468 103.50 444Q85 420 85 379L85 283L230 283M257 585L58 585L58 627L257 627L257 585Z"  horiz-adv-x="313" vert-adv-y="1000"  />

      
      <glyph glyph-name="uni0114" unicode="&#x0114;" d="M309 662L107 662L107 390L273 390L273 347L107 347L107 44L308 44L308 0L59 0L59 706L309 706L309 662M258 869L279 869Q279 859 276 846Q273 833 265 813Q257 793 237 779.50Q217 766 188 766Q160 766 139.50 779.50Q119 793 110.50 814Q102 835 99 847Q96 859 95 869L118 869Q134 811 189 811Q239 811 258 869Z"  horiz-adv-x="333" vert-adv-y="1000"  />

      
      <glyph glyph-name="uni0115" unicode="&#x0115;" d="M273 175L273 112Q273 66 245 32.50Q217-1 157-1Q106-1 74.50 28Q43 57 43 116L43 386Q43 438 70 472Q97 506 157 506Q273 506 273 376L273 247L85 247L85 123Q85 38 157 38Q182 38 198 46.50Q214 55 220.50 71.50Q227 88 229 102.50Q231 117 231 139L231 175L273 175M230 283L230 383Q230 425 210 446.50Q190 468 158 468Q122 468 103.50 444Q85 420 85 379L85 283L230 283M66 671L89 671Q103 613 160 613Q177 613 190 618.50Q203 624 211 635.50Q219 647 222 653Q225 659 229 671L250 671Q238 568 158 568Q84 568 66 671Z"  horiz-adv-x="313" vert-adv-y="1000"  />

      
      <glyph glyph-name="uni0116" unicode="&#x0116;" d="M309 662L107 662L107 390L273 390L273 347L107 347L107 44L308 44L308 0L59 0L59 706L309 706L309 662M210 789L158 789L158 865L210 865L210 789Z"  horiz-adv-x="333" vert-adv-y="1000"  />

      
      <glyph glyph-name="uni0117" unicode="&#x0117;" d="M273 175L273 112Q273 66 245 32.50Q217-1 157-1Q106-1 74.50 28Q43 57 43 116L43 386Q43 438 70 472Q97 506 157 506Q273 506 273 376L273 247L85 247L85 123Q85 38 157 38Q182 38 198 46.50Q214 55 220.50 71.50Q227 88 229 102.50Q231 117 231 139L231 175L273 175M230 283L230 383Q230 425 210 446.50Q190 468 158 468Q122 468 103.50 444Q85 420 85 379L85 283L230 283M184 588L133 588L133 663L184 663L184 588Z"  horiz-adv-x="313" vert-adv-y="1000"  />

      
      <glyph glyph-name="uni0118" unicode="&#x0118;" d="M309 662L107 662L107 390L273 390L273 347L107 347L107 44L308 44L308 0L290 0Q273-9 254.50-33.50Q236-58 236-79Q236-107 280-107L302-107L302-151L261-151Q187-151 187-91Q187-65 199-46.50Q211-28 238 0L59 0L59 706L309 706L309 662Z"  horiz-adv-x="333" vert-adv-y="1000"  />

      
      <glyph glyph-name="uni0119" unicode="&#x0119;" d="M273 175L273 112Q273 53 231 20Q159-36 159-79Q159-107 203-107L225-107L225-151L184-151Q110-151 110-91Q110-65 121.50-47Q133-29 160-1L156-1Q106-1 74.50 28Q43 57 43 116L43 386Q43 438 70 472Q97 506 157 506Q273 506 273 376L273 247L85 247L85 123Q85 38 157 38Q182 38 198 46.50Q214 55 220.50 71.50Q227 88 229 102.50Q231 117 231 139L231 175L273 175M230 283L230 383Q230 425 210 446.50Q190 468 158 468Q122 468 103.50 444Q85 420 85 379L85 283L230 283Z"  horiz-adv-x="313" vert-adv-y="1000"  />

      
      <glyph glyph-name="uni011A" unicode="&#x011A;" d="M309 662L107 662L107 390L273 390L273 347L107 347L107 44L308 44L308 0L59 0L59 706L309 706L309 662M288 877L211 769L160 769L89 877L128 877L186 809L248 877L288 877Z"  horiz-adv-x="333" vert-adv-y="1000"  />

      
      <glyph glyph-name="uni011B" unicode="&#x011B;" d="M273 175L273 112Q273 66 245 32.50Q217-1 157-1Q106-1 74.50 28Q43 57 43 116L43 386Q43 438 70 472Q97 506 157 506Q273 506 273 376L273 247L85 247L85 123Q85 38 157 38Q182 38 198 46.50Q214 55 220.50 71.50Q227 88 229 102.50Q231 117 231 139L231 175L273 175M230 283L230 383Q230 425 210 446.50Q190 468 158 468Q122 468 103.50 444Q85 420 85 379L85 283L230 283M258 680L181 571L131 571L59 679L98 679L156 612L217 680L258 680Z"  horiz-adv-x="313" vert-adv-y="1000"  />

      
      <glyph glyph-name="uni011C" unicode="&#x011C;" d="M343 0L306 0L306 56Q291 32 261.50 11Q232-10 188-10Q116-10 82 44Q66 69 60.50 97.50Q55 126 55 182L55 558Q55 634 89 674Q123 714 202 714Q272 714 305 677Q338 640 338 585L338 479L291 479L291 562Q291 612 272 642Q253 672 199 672Q103 672 103 557L103 196Q103 109 117 81Q125 64 144 48.50Q163 33 194 33Q238 33 266 72Q294 111 294 151L294 279L190 279L190 322L343 322L343 0M299 770L259 770L201 838L140 769L98 769L176 878L226 878L299 770Z"  horiz-adv-x="396" vert-adv-y="1000"  />

      
      <glyph glyph-name="uni011D" unicode="&#x011D;" d="M281 503L281-36Q281-96 245.50-127Q210-158 157-158Q126-158 97.50-145.50Q69-133 57-107Q49-90 46-51L89-51Q89-52 89.50-58.50Q90-65 91.50-73Q93-81 96-88Q111-117 158-117Q167-117 177-115Q187-113 202.50-106.50Q218-100 228-83Q238-66 238-42L238 45Q237 44 231 38Q225 32 221 28.50Q217 25 208.50 19Q200 13 192 9.50Q184 6 173 3.50Q162 1 150 1Q99 1 75 33.50Q51 66 51 119L51 394Q51 508 154 508Q205 508 238 462L238 503L281 503M238 117L238 399Q232 429 212 449Q192 469 163 469Q93 469 93 378L93 128Q93 42 160 42Q186 42 208.50 61.50Q231 81 238 117M267 568L227 568L169 637L108 568L66 568L144 677L194 677L267 568Z"  horiz-adv-x="333" vert-adv-y="1000"  />

      
      <glyph glyph-name="uni011E" unicode="&#x011E;" d="M343 0L306 0L306 56Q291 32 261.50 11Q232-10 188-10Q116-10 82 44Q66 69 60.50 97.50Q55 126 55 182L55 558Q55 634 89 674Q123 714 202 714Q272 714 305 677Q338 640 338 585L338 479L291 479L291 562Q291 612 272 642Q253 672 199 672Q103 672 103 557L103 196Q103 109 117 81Q125 64 144 48.50Q163 33 194 33Q238 33 266 72Q294 111 294 151L294 279L190 279L190 322L343 322L343 0M267 869L288 869Q288 859 285 846Q282 833 274 813Q266 793 246 779.50Q226 766 197 766Q169 766 148.50 779.50Q128 793 119.50 814Q111 835 108 847Q105 859 104 869L127 869Q143 811 198 811Q248 811 267 869Z"  horiz-adv-x="396" vert-adv-y="1000"  />

      
      <glyph glyph-name="uni011F" unicode="&#x011F;" d="M281 503L281-36Q281-96 245.50-127Q210-158 157-158Q126-158 97.50-145.50Q69-133 57-107Q49-90 46-51L89-51Q89-52 89.50-58.50Q90-65 91.50-73Q93-81 96-88Q111-117 158-117Q167-117 177-115Q187-113 202.50-106.50Q218-100 228-83Q238-66 238-42L238 45Q237 44 231 38Q225 32 221 28.50Q217 25 208.50 19Q200 13 192 9.50Q184 6 173 3.50Q162 1 150 1Q99 1 75 33.50Q51 66 51 119L51 394Q51 508 154 508Q205 508 238 462L238 503L281 503M238 117L238 399Q232 429 212 449Q192 469 163 469Q93 469 93 378L93 128Q93 42 160 42Q186 42 208.50 61.50Q231 81 238 117M72 671L95 671Q109 613 166 613Q183 613 196 618.50Q209 624 217 635.50Q225 647 228 653Q231 659 235 671L256 671Q244 568 164 568Q90 568 72 671Z"  horiz-adv-x="333" vert-adv-y="1000"  />

      
      <glyph glyph-name="uni0120" unicode="&#x0120;" d="M343 0L306 0L306 56Q291 32 261.50 11Q232-10 188-10Q116-10 82 44Q66 69 60.50 97.50Q55 126 55 182L55 558Q55 634 89 674Q123 714 202 714Q272 714 305 677Q338 640 338 585L338 479L291 479L291 562Q291 612 272 642Q253 672 199 672Q103 672 103 557L103 196Q103 109 117 81Q125 64 144 48.50Q163 33 194 33Q238 33 266 72Q294 111 294 151L294 279L190 279L190 322L343 322L343 0M225 789L173 789L173 865L225 865L225 789Z"  horiz-adv-x="396" vert-adv-y="1000"  />

      
      <glyph glyph-name="uni0121" unicode="&#x0121;" d="M281 503L281-36Q281-96 245.50-127Q210-158 157-158Q126-158 97.50-145.50Q69-133 57-107Q49-90 46-51L89-51Q89-52 89.50-58.50Q90-65 91.50-73Q93-81 96-88Q111-117 158-117Q167-117 177-115Q187-113 202.50-106.50Q218-100 228-83Q238-66 238-42L238 45Q237 44 231 38Q225 32 221 28.50Q217 25 208.50 19Q200 13 192 9.50Q184 6 173 3.50Q162 1 150 1Q99 1 75 33.50Q51 66 51 119L51 394Q51 508 154 508Q205 508 238 462L238 503L281 503M238 117L238 399Q232 429 212 449Q192 469 163 469Q93 469 93 378L93 128Q93 42 160 42Q186 42 208.50 61.50Q231 81 238 117M192 588L141 588L141 663L192 663L192 588Z"  horiz-adv-x="333" vert-adv-y="1000"  />

      
      <glyph glyph-name="uni0122" unicode="&#x0122;" d="M343 0L306 0L306 56Q291 32 261.50 11Q232-10 188-10Q116-10 82 44Q66 69 60.50 97.50Q55 126 55 182L55 558Q55 634 89 674Q123 714 202 714Q272 714 305 677Q338 640 338 585L338 479L291 479L291 562Q291 612 272 642Q253 672 199 672Q103 672 103 557L103 196Q103 109 117 81Q125 64 144 48.50Q163 33 194 33Q238 33 266 72Q294 111 294 151L294 279L190 279L190 322L343 322L343 0M176-30L220-30L220-80Q220-122 176-139L176-116Q196-108 196-86L176-86L176-30Z"  horiz-adv-x="396" vert-adv-y="1000"  />

      
      <glyph glyph-name="uni0123" unicode="&#x0123;" d="M281 503L281-36Q281-96 245.50-127Q210-158 157-158Q126-158 97.50-145.50Q69-133 57-107Q49-90 46-51L89-51Q89-52 89.50-58.50Q90-65 91.50-73Q93-81 96-88Q111-117 158-117Q167-117 177-115Q187-113 202.50-106.50Q218-100 228-83Q238-66 238-42L238 45Q237 44 231 38Q225 32 221 28.50Q217 25 208.50 19Q200 13 192 9.50Q184 6 173 3.50Q162 1 150 1Q99 1 75 33.50Q51 66 51 119L51 394Q51 508 154 508Q205 508 238 462L238 503L281 503M238 117L238 399Q232 429 212 449Q192 469 163 469Q93 469 93 378L93 128Q93 42 160 42Q186 42 208.50 61.50Q231 81 238 117M188 567L144 567L144 617Q144 660 188 676L188 653Q168 645 168 623L188 623L188 567Z"  horiz-adv-x="333" vert-adv-y="1000"  />

      
      <glyph glyph-name="uni0124" unicode="&#x0124;" d="M338 0L289 0L289 349L107 349L107 0L59 0L59 706L107 706L107 392L289 392L289 706L338 706L338 0M298 770L258 770L200 838L139 769L97 769L175 878L225 878L298 770Z"  horiz-adv-x="396" vert-adv-y="1000"  />

      
      <glyph glyph-name="uni0125" unicode="&#x0125;" d="M286 0L243 0L243 376Q243 418 230 442.50Q217 467 177 467Q143 467 122 446.50Q101 426 97 401L97 0L54 0L54 706L97 706L97 463Q133 509 188 509Q225 509 255.50 485.50Q286 462 286 406L286 0M178 770L138 770L80 838L19 769L-23 769L55 878L105 878L178 770Z"  horiz-adv-x="333" vert-adv-y="1000"  />

      
      <glyph glyph-name="uni0126" unicode="&#x0126;" d="M10 538L10 581L59 581L59 706L107 706L107 581L289 581L289 706L338 706L338 581L387 581L387 538L338 538L338 0L289 0L289 349L107 349L107 0L59 0L59 538L10 538M107 392L289 392L289 538L107 538L107 392Z"  horiz-adv-x="396" vert-adv-y="1000"  />

      
      <glyph glyph-name="uni0127" unicode="&#x0127;" d="M220 586L97 586L97 463Q133 509 188 509Q225 509 255.50 485.50Q286 462 286 406L286 0L243 0L243 376Q243 418 230 442.50Q217 467 177 467Q143 467 122 446.50Q101 426 97 401L97 0L54 0L54 586L0 586L0 626L54 626L54 706L97 706L97 626L220 626L220 586Z"  horiz-adv-x="333" vert-adv-y="1000"  />

      
      <glyph glyph-name="uni0128" unicode="&#x0128;" d="M109 0L58 0L58 706L109 706L109 0M167 859L196 859Q196 820 185 798.50Q174 777 142 777Q124 777 84.50 796Q45 815 32 815Q3 815 1 777L-28 777Q-28 859 34 859Q53 859 90 841Q127 823 140 823Q165 823 167 859Z"  horiz-adv-x="167" vert-adv-y="1000"  />

      
      <glyph glyph-name="uni0129" unicode="&#x0129;" d="M95 0L52 0L52 503L95 503L95 0M152 655L182 655Q182 616 172 595.50Q162 575 131 575Q113 575 73.50 592.50Q34 610 23 610Q-4 610-6 575L-35 575Q-35 609-20.50 632Q-6 655 26 655Q45 655 80 638Q115 621 127 621Q152 621 152 655Z"  horiz-adv-x="146" vert-adv-y="1000"  />

      
      <glyph glyph-name="uni012A" unicode="&#x012A;" d="M109 0L58 0L58 706L109 706L109 0M171 789L-4 789L-4 831L171 831L171 789Z"  horiz-adv-x="167" vert-adv-y="1000"  />

      
      <glyph glyph-name="uni012B" unicode="&#x012B;" d="M95 0L52 0L52 503L95 503L95 0M155 585L-8 585L-8 627L155 627L155 585Z"  horiz-adv-x="146" vert-adv-y="1000"  />

      
      <glyph glyph-name="uni012C" unicode="&#x012C;" d="M109 0L58 0L58 706L109 706L109 0M155 869L176 869Q176 859 173 846Q170 833 162 813Q154 793 134 779.50Q114 766 85 766Q57 766 36.50 779.50Q16 793 7.50 814Q-1 835-4 847Q-7 859-8 869L15 869Q31 811 86 811Q136 811 155 869Z"  horiz-adv-x="167" vert-adv-y="1000"  />

      
      <glyph glyph-name="uni012D" unicode="&#x012D;" d="M95 0L52 0L52 503L95 503L95 0M-19 671L4 671Q18 613 75 613Q92 613 105 618.50Q118 624 126 635.50Q134 647 137 653Q140 659 144 671L165 671Q153 568 73 568Q-1 568-19 671Z"  horiz-adv-x="146" vert-adv-y="1000"  />

      
      <glyph glyph-name="uni012E" unicode="&#x012E;" d="M58 0L58 706L109 706L109 0Q62-48 62-79Q62-107 106-107L128-107L128-151L87-151Q13-151 13-91Q13-65 25-46.50Q37-28 64 0L58 0Z"  horiz-adv-x="167" vert-adv-y="1000"  />

      
      <glyph glyph-name="uni012F" unicode="&#x012F;" d="M93 503L93 0Q47-49 47-79Q47-107 91-107L113-107L113-151L72-151Q-2-151-2-91Q-2-73 6-55.50Q14-38 22.50-28Q31-18 51 2L51 503L93 503M94 562L51 562L51 640L94 640L94 562Z"  horiz-adv-x="146" vert-adv-y="1000"  />

      
      <glyph glyph-name="uni0130" unicode="&#x0130;" d="M109 0L58 0L58 706L109 706L109 0M110 789L58 789L58 865L110 865L110 789Z"  horiz-adv-x="167" vert-adv-y="1000"  />

      
      <glyph glyph-name="uni0131" unicode="&#x0131;" d="M95 0L52 0L52 503L95 503L95 0Z"  horiz-adv-x="146" vert-adv-y="1000"  />

      
      <glyph glyph-name="uni0132" unicode="&#x0132;" d="M109 0L58 0L58 706L109 706L109 0M443 706L443 123Q443 52 409 21Q375-10 324-10Q288-10 263 4Q238 18 227.50 41Q217 64 213 81.50Q209 99 209 117L209 223L257 223L257 113Q257 81 274.50 57.50Q292 34 326 34Q364 34 379.50 59Q395 84 395 114L395 706L443 706Z"  horiz-adv-x="500" vert-adv-y="1000"  />

      
      <glyph glyph-name="uni0133" unicode="&#x0133;" d="M94 562L51 562L51 640L94 640L94 562M93 0L51 0L51 503L93 503L93 0M258 561L216 561L216 639L258 639L258 561M258 503L258-42Q258-144 153-163L153-120Q216-105 216-21L216 503L258 503Z"  horiz-adv-x="313" vert-adv-y="1000"  />

      
      <glyph glyph-name="uni0134" unicode="&#x0134;" d="M276 706L276 123Q276 52 242 21Q208-10 157-10Q121-10 96 4Q71 18 60.50 41Q50 64 46 81.50Q42 99 42 117L42 223L90 223L90 113Q90 81 107.50 57.50Q125 34 159 34Q197 34 212.50 59Q228 84 228 114L228 706L276 706M354 770L314 770L256 838L195 769L153 769L231 878L281 878L354 770Z"  horiz-adv-x="333" vert-adv-y="1000"  />

      
      <glyph glyph-name="uni0135" unicode="&#x0135;" d="M112 503L112-42Q112-144 7-163L7-120Q70-105 70-21L70 503L112 503M190 568L150 568L92 637L31 568L-11 568L67 677L117 677L190 568Z"  horiz-adv-x="167" vert-adv-y="1000"  />

      
      <glyph glyph-name="uni0136" unicode="&#x0136;" d="M340 0L287 0L158 366L106 268L106 0L58 0L58 706L107 706L107 360L283 706L338 706L188 425L340 0M169-30L213-30L213-80Q213-122 169-139L169-116Q189-108 189-86L169-86L169-30Z"  horiz-adv-x="354" vert-adv-y="1000"  />

      
      <glyph glyph-name="uni0137" unicode="&#x0137;" d="M300 0L253 0L143 265L95 187L95 0L52 0L52 706L94 706L94 267L239 503L288 503L171 311L300 0M148-30L192-30L192-80Q192-122 148-139L148-116Q168-108 168-86L148-86L148-30Z"  horiz-adv-x="313" vert-adv-y="1000"  />

      
      <glyph glyph-name="uni0138" unicode="&#x0138;" d="M300 0L253 0L143 265L95 187L95 0L52 0L52 503L94 503L94 267L239 503L288 503L171 311L300 0Z"  horiz-adv-x="313" vert-adv-y="1000"  />

      
      <glyph glyph-name="uni0139" unicode="&#x0139;" d="M291 0L58 0L58 706L107 706L107 44L291 44L291 0M236 878L94 769L57 769L142 878L236 878Z"  horiz-adv-x="313" vert-adv-y="1000"  />

      
      <glyph glyph-name="uni013A" unicode="&#x013A;" d="M94 0L52 0L52 706L94 706L94 0M221 878L79 769L42 769L127 878L221 878Z"  horiz-adv-x="146" vert-adv-y="1000"  />

      
      <glyph glyph-name="uni013B" unicode="&#x013B;" d="M291 0L58 0L58 706L107 706L107 44L291 44L291 0M156-30L200-30L200-80Q200-122 156-139L156-116Q176-108 176-86L156-86L156-30Z"  horiz-adv-x="313" vert-adv-y="1000"  />

      
      <glyph glyph-name="uni013C" unicode="&#x013C;" d="M94 0L52 0L52 706L94 706L94 0M51-30L95-30L95-80Q95-122 51-139L51-116Q71-108 71-86L51-86L51-30Z"  horiz-adv-x="146" vert-adv-y="1000"  />

      
      <glyph glyph-name="uni013D" unicode="&#x013D;" d="M291 0L58 0L58 706L107 706L107 44L291 44L291 0M139 706L181 706L181 615Q181 580 172.50 560Q164 540 139 527L139 549Q149 556 154 567.50Q159 579 159.50 588Q160 597 160 615L160 627L139 627L139 706Z"  horiz-adv-x="313" vert-adv-y="1000"  />

      
      <glyph glyph-name="uni013E" unicode="&#x013E;" d="M94 0L52 0L52 706L94 706L94 0M126 706L168 706L168 615Q168 580 159.50 560Q151 540 126 527L126 549Q136 556 141 567.50Q146 579 146.50 588Q147 597 147 615L147 627L126 627L126 706Z"  horiz-adv-x="146" vert-adv-y="1000"  />

      
      <glyph glyph-name="uni013F" unicode="&#x013F;" d="M291 0L58 0L58 706L107 706L107 44L291 44L291 0M258 334L202 334L202 410L258 410L258 334Z"  horiz-adv-x="313" vert-adv-y="1000"  />

      
      <glyph glyph-name="uni0140" unicode="&#x0140;" d="M94 0L52 0L52 706L94 706L94 0M180 331L135 331L135 403L180 403L180 331Z"  horiz-adv-x="168" vert-adv-y="1000"  />

      
      <glyph glyph-name="uni0141" unicode="&#x0141;" d="M291 0L58 0L58 266L0 181L0 250L59 335L59 706L108 706L108 406L236 596L236 527L107 337L107 45L291 45L291 0Z"  horiz-adv-x="313" vert-adv-y="1000"  />

      
      <glyph glyph-name="uni0142" unicode="&#x0142;" d="M146 473L94 389L94 0L52 0L52 323L0 239L0 304L52 389L52 706L94 706L94 456L146 540L146 473Z"  horiz-adv-x="146" vert-adv-y="1000"  />

      
      <glyph glyph-name="uni0143" unicode="&#x0143;" d="M337 0L262 0L98 667Q102 72 102 0L55 0L55 706L127 706L296 27Q289 667 289 706L337 706L337 0M328 878L186 769L149 769L234 878L328 878Z"  horiz-adv-x="396" vert-adv-y="1000"  />

      
      <glyph glyph-name="uni0144" unicode="&#x0144;" d="M285 0L243 0L243 396Q243 472 181 472Q124 472 97 409L97 0L55 0L55 503L97 503L97 455Q130 509 190 509Q227 509 256 485Q285 461 285 408L285 0M300 676L157 567L121 567L205 676L300 676Z"  horiz-adv-x="333" vert-adv-y="1000"  />

      
      <glyph glyph-name="uni0145" unicode="&#x0145;" d="M337 0L262 0L98 667Q102 72 102 0L55 0L55 706L127 706L296 27Q289 667 289 706L337 706L337 0M174-30L218-30L218-80Q218-122 174-139L174-116Q194-108 194-86L174-86L174-30Z"  horiz-adv-x="396" vert-adv-y="1000"  />

      
      <glyph glyph-name="uni0146" unicode="&#x0146;" d="M285 0L243 0L243 396Q243 472 181 472Q124 472 97 409L97 0L55 0L55 503L97 503L97 455Q130 509 190 509Q227 509 256 485Q285 461 285 408L285 0M148-30L192-30L192-80Q192-122 148-139L148-116Q168-108 168-86L148-86L148-30Z"  horiz-adv-x="333" vert-adv-y="1000"  />

      
      <glyph glyph-name="uni0147" unicode="&#x0147;" d="M337 0L262 0L98 667Q102 72 102 0L55 0L55 706L127 706L296 27Q289 667 289 706L337 706L337 0M296 877L219 769L168 769L97 877L136 877L194 809L256 877L296 877Z"  horiz-adv-x="396" vert-adv-y="1000"  />

      
      <glyph glyph-name="uni0148" unicode="&#x0148;" d="M285 0L243 0L243 396Q243 472 181 472Q124 472 97 409L97 0L55 0L55 503L97 503L97 455Q130 509 190 509Q227 509 256 485Q285 461 285 408L285 0M272 680L195 571L145 571L73 679L112 679L170 612L231 680L272 680Z"  horiz-adv-x="333" vert-adv-y="1000"  />

      
      <glyph glyph-name="uni0149" unicode="&#x0149;" d="M285 0L243 0L243 396Q243 472 181 472Q124 472 97 409L97 0L55 0L55 503L97 503L97 455Q130 509 190 509Q227 509 256 485Q285 461 285 408L285 0M24 706L66 706L66 615Q66 580 57.50 560Q49 540 24 527L24 549Q34 556 39 567.50Q44 579 44.50 588Q45 597 45 615L45 627L24 627L24 706Z"  horiz-adv-x="333" vert-adv-y="1000"  />

      
      <glyph glyph-name="uni014A" unicode="&#x014A;" d="M293-28L98 667Q102 72 102 0L55 0L55 706L127 706L296 105Q289 667 289 706L337 706L337-80Q337-168 254-168Q240-168 222-165L222-121Q239-124 248-124Q272-124 282.50-114.50Q293-105 293-75L293-28Z"  horiz-adv-x="396" vert-adv-y="1000"  />

      
      <glyph glyph-name="uni014B" unicode="&#x014B;" d="M97 0L55 0L55 503L97 503L97 455Q130 509 190 509Q227 509 256 485Q285 461 285 408L285-87Q285-165 208-165Q195-165 183-162L183-123Q192-126 204-126Q225-126 234-116Q243-106 243-76L243 396Q243 472 181 472Q124 472 97 409L97 0Z"  horiz-adv-x="333" vert-adv-y="1000"  />

      
      <glyph glyph-name="uni014C" unicode="&#x014C;" d="M54 146L54 559Q54 628 89.50 671Q125 714 197 714Q235 714 262.50 703Q290 692 305 676Q320 660 328 634.50Q336 609 338 589Q340 569 340 541L340 138Q340 101 329.50 70.50Q319 40 284.50 15.50Q250-9 195-9Q54-9 54 146M293 156L293 526Q293 606 268.50 638Q244 670 197 670Q148 670 125 639Q102 608 102 563L102 148Q102 35 198 35Q293 35 293 156M306 789L87 789L87 831L306 831L306 789Z"  horiz-adv-x="396" vert-adv-y="1000"  />

      
      <glyph glyph-name="uni014D" unicode="&#x014D;" d="M274 384L274 132Q274 64 241 31Q208-2 155-2Q102-2 70.50 27Q39 56 39 107L39 385Q39 437 68.50 471.50Q98 506 160 506Q274 506 274 384M231 126L231 378Q231 464 160 464Q114 464 98 438Q82 412 82 368L82 120Q82 81 101 60Q120 39 155 39Q231 39 231 126M257 585L58 585L58 627L257 627L257 585Z"  horiz-adv-x="313" vert-adv-y="1000"  />

      
      <glyph glyph-name="uni014E" unicode="&#x014E;" d="M54 146L54 559Q54 628 89.50 671Q125 714 197 714Q235 714 262.50 703Q290 692 305 676Q320 660 328 634.50Q336 609 338 589Q340 569 340 541L340 138Q340 101 329.50 70.50Q319 40 284.50 15.50Q250-9 195-9Q54-9 54 146M293 156L293 526Q293 606 268.50 638Q244 670 197 670Q148 670 125 639Q102 608 102 563L102 148Q102 35 198 35Q293 35 293 156M269 869L290 869Q290 859 287 846Q284 833 276 813Q268 793 248 779.50Q228 766 199 766Q171 766 150.50 779.50Q130 793 121.50 814Q113 835 110 847Q107 859 106 869L129 869Q145 811 200 811Q250 811 269 869Z"  horiz-adv-x="396" vert-adv-y="1000"  />

      
      <glyph glyph-name="uni014F" unicode="&#x014F;" d="M274 384L274 132Q274 64 241 31Q208-2 155-2Q102-2 70.50 27Q39 56 39 107L39 385Q39 437 68.50 471.50Q98 506 160 506Q274 506 274 384M231 126L231 378Q231 464 160 464Q114 464 98 438Q82 412 82 368L82 120Q82 81 101 60Q120 39 155 39Q231 39 231 126M65 671L88 671Q102 613 159 613Q176 613 189 618.50Q202 624 210 635.50Q218 647 221 653Q224 659 228 671L249 671Q237 568 157 568Q83 568 65 671Z"  horiz-adv-x="313" vert-adv-y="1000"  />

      
      <glyph glyph-name="uni0150" unicode="&#x0150;" d="M54 146L54 559Q54 628 89.50 671Q125 714 197 714Q235 714 262.50 703Q290 692 305 676Q320 660 328 634.50Q336 609 338 589Q340 569 340 541L340 138Q340 101 329.50 70.50Q319 40 284.50 15.50Q250-9 195-9Q54-9 54 146M293 156L293 526Q293 606 268.50 638Q244 670 197 670Q148 670 125 639Q102 608 102 563L102 148Q102 35 198 35Q293 35 293 156M369 878L256 769L218 769L287 878L369 878M260 878L147 769L110 769L178 878L260 878Z"  horiz-adv-x="396" vert-adv-y="1000"  />

      
      <glyph glyph-name="uni0151" unicode="&#x0151;" d="M274 384L274 132Q274 64 241 31Q208-2 155-2Q102-2 70.50 27Q39 56 39 107L39 385Q39 437 68.50 471.50Q98 506 160 506Q274 506 274 384M231 126L231 378Q231 464 160 464Q114 464 98 438Q82 412 82 368L82 120Q82 81 101 60Q120 39 155 39Q231 39 231 126M223 676L108 567L75 567L146 676L223 676M333 676L218 567L185 567L256 676L333 676Z"  horiz-adv-x="313" vert-adv-y="1000"  />

      
      <glyph glyph-name="uni0152" unicode="&#x0152;" d="M523 0L292 0L292 40Q282 24 253 7Q224-10 182-10Q113-10 81.50 32Q50 74 50 122L50 554Q50 714 191 714Q249 714 291 674L291 706L522 706L522 663L338 663L338 387L501 387L501 345L339 345L339 43L523 43L523 0M292 141L292 523Q292 554 288.50 576.50Q285 599 275 623Q265 647 243.50 659.50Q222 672 189 672Q143 672 120 644Q97 616 97 569L97 137Q97 92 121 62Q145 32 190 32Q226 32 259 57.50Q292 83 292 141Z"  horiz-adv-x="542" vert-adv-y="1000"  />

      
      </font>
</defs>
</svg>
