<svg xmlns="http://www.w3.org/2000/svg" width="16" height="16" viewBox="0 0 8 8"><g><g><path fill="#fabf3f" d="M5.594 1.297c.424 0 .81.174 1.09.453.28.28.452.665.452 1.088v3.065c0 .422-.173.808-.453 1.088a1.534 1.534 0 0 1-1.089.452H2.53a1.54 1.54 0 0 1-1.54-1.54V2.838c0-.424.172-.81.452-1.088a1.538 1.538 0 0 1 1.088-.453zM2.53.72c-.583 0-1.113.238-1.496.623A2.107 2.107 0 0 0 .41 2.838v3.065c0 .581.238 1.111.623 1.496a2.12 2.12 0 0 0 1.496.622h3.065c.582 0 1.114-.239 1.498-.622.383-.384.623-.913.623-1.496V2.838c0-.583-.24-1.113-.623-1.496A2.113 2.113 0 0 0 5.594.72z"/></g><g><path fill="#fabf3f" d="M4.866 3.54a1.172 1.172 0 0 1-.83 2.002 1.17 1.17 0 0 1-.829-2.001 1.17 1.17 0 0 1 1.66 0zm-.83-.92c-.484 0-.922.196-1.237.513a1.747 1.747 0 0 0-.001 2.474A1.748 1.748 0 0 0 5.787 4.37c0-.484-.196-.922-.514-1.237a1.74 1.74 0 0 0-1.237-.513z"/></g><g><path fill="#fabf3f" d="M6.256 2.102a.439.439 0 1 1 0 .877.439.439 0 0 1 0-.877z"/></g></g></svg>