<svg width="116" height="30" viewBox="0 0 116 30" fill="none" xmlns="http://www.w3.org/2000/svg">
<g clip-path="url(#clip0_972_6)">
<path d="M57 0H58.26V6.54C58.5142 6.02977 58.9055 5.6004 59.39 5.3C59.8763 5.011 60.4345 4.8654 61 4.88C61.4799 4.86684 61.9567 4.9605 62.396 5.1542C62.8353 5.34789 63.226 5.63679 63.54 6C64.2029 6.82063 64.541 7.85631 64.49 8.91C64.5338 9.97114 64.1768 11.0099 63.49 11.82C63.1671 12.1809 62.7683 12.4658 62.3222 12.6542C61.8761 12.8427 61.3938 12.93 60.91 12.91C60.3598 12.917 59.8189 12.7679 59.35 12.48C58.8687 12.1814 58.4753 11.7604 58.21 11.26V12.6H57V0ZM58.22 8.89C58.1835 9.61556 58.4189 10.3286 58.88 10.89C59.1133 11.135 59.3966 11.327 59.7106 11.453C60.0246 11.5789 60.362 11.6359 60.7 11.62C61.0368 11.6365 61.3729 11.5747 61.6817 11.4393C61.9906 11.304 62.2638 11.0988 62.48 10.84C62.9438 10.2264 63.1742 9.46787 63.13 8.7C63.1716 8.00758 62.942 7.32615 62.49 6.8C62.2669 6.56631 61.9959 6.38364 61.6955 6.26454C61.3952 6.14544 61.0726 6.09272 60.75 6.11C60.4066 6.09633 60.0643 6.15718 59.7467 6.28837C59.4291 6.41957 59.1436 6.61799 58.91 6.87C58.4323 7.43051 58.192 8.15514 58.24 8.89H58.22Z" fill="#292929"/>
<path fill-rule="evenodd" clip-rule="evenodd" d="M4.66 2.58008H0V29.1801H26.65V2.58008H21.99V24.5301H17.11V3.28008H16.17V24.5301H15.46V3.28008H14.51V24.5301H13.8V3.28008H12.85V24.5301H12.14V3.28008H11.19V24.5301H10.48V3.28008H9.54V24.5301H4.66V2.58008Z" fill="#292929"/>
<path d="M102.32 12.8799L98.6101 4.87988H100.03L103 11.6599L106 4.87988H107.43L103.7 12.8799H102.32Z" fill="#292929"/>
<path d="M49.9999 5.13965V8.78965C49.9318 9.55326 50.0845 10.3204 50.4399 10.9996C50.6373 11.2244 50.8854 11.3987 51.1637 11.5083C51.4419 11.6179 51.7423 11.6595 52.0399 11.6296C52.3365 11.6583 52.6356 11.6171 52.9135 11.5094C53.1913 11.4018 53.4401 11.2306 53.6399 11.0096C54.0099 10.3207 54.1698 9.53849 54.0999 8.75965V5.13965H55.3899V9.46965C55.4234 9.92668 55.3654 10.3858 55.2195 10.8202C55.0735 11.2546 54.8425 11.6555 54.5399 11.9996C54.1975 12.3055 53.797 12.5392 53.3624 12.687C52.9277 12.8347 52.4678 12.8934 52.0099 12.8596C51.5551 12.8936 51.0982 12.8349 50.6667 12.6871C50.2353 12.5392 49.8383 12.3054 49.4999 11.9996C49.1952 11.6545 48.9623 11.2522 48.8146 10.8161C48.667 10.38 48.6076 9.91891 48.6399 9.45965V5.13965H49.9999Z" fill="#292929"/>
<path d="M72.9999 5.14038V12.5604H71.7599V11.2204C71.4949 11.7236 71.1016 12.1479 70.6199 12.4504C70.1525 12.732 69.6156 12.8775 69.0699 12.8704C68.5878 12.8889 68.1074 12.8008 67.6632 12.6124C67.219 12.424 66.8218 12.1399 66.4999 11.7804C65.8131 10.9703 65.4561 9.93152 65.4999 8.87038C65.46 7.80981 65.8165 6.77239 66.4999 5.96038C66.812 5.6081 67.1977 5.32876 67.6297 5.14212C68.0618 4.95549 68.5295 4.86613 68.9999 4.88038C69.5655 4.86578 70.1236 5.01138 70.6099 5.30038C71.092 5.59773 71.4776 6.02844 71.7199 6.54038V5.14038H72.9999ZM71.7599 8.93038C71.7832 8.20332 71.5416 7.49255 71.0799 6.93038C70.8552 6.68065 70.5785 6.48319 70.2692 6.35189C69.96 6.22059 69.6257 6.15863 69.2899 6.17038C68.9602 6.1505 68.6301 6.20285 68.3226 6.32375C68.0152 6.44465 67.7378 6.6312 67.5099 6.87038C67.0471 7.42979 66.8178 8.14618 66.8699 8.87038C66.818 9.61601 67.0462 10.3542 67.5099 10.9404C67.9992 11.3988 68.6445 11.6538 69.3149 11.6538C69.9854 11.6538 70.6307 11.3988 71.1199 10.9404C71.5816 10.3764 71.8105 9.65745 71.7599 8.93038Z" fill="#292929"/>
<path d="M74.7 12.56V0H75.98V8.51V7.79L78.93 5.14H80.62L77.12 8.54L81.57 12.56H79.8L75.98 9.38V8.64V12.56H74.7Z" fill="#292929"/>
<path d="M82.6599 12.5604V5.14043H83.9399V12.5604H82.6599ZM82.3599 1.56043C82.3584 1.43942 82.3815 1.31937 82.428 1.20761C82.4744 1.09585 82.5431 0.994728 82.6299 0.910432C82.81 0.738442 83.051 0.644933 83.2999 0.650432C83.4292 0.641761 83.5589 0.66143 83.6798 0.708066C83.8007 0.754702 83.91 0.827179 83.9999 0.920432C84.0869 1.00879 84.1555 1.11347 84.2019 1.22846C84.2482 1.34345 84.2713 1.46647 84.2699 1.59043C84.2715 1.71144 84.2483 1.8315 84.2019 1.94326C84.1555 2.05502 84.0868 2.15614 83.9999 2.24043C83.916 2.32774 83.815 2.39679 83.7031 2.44325C83.5913 2.48971 83.471 2.51258 83.3499 2.51043C83.226 2.51183 83.103 2.4887 82.988 2.44236C82.873 2.39602 82.7683 2.3274 82.6799 2.24043C82.582 2.15794 82.5028 2.05551 82.4476 1.93997C82.3924 1.82443 82.3625 1.69845 82.3599 1.57043V1.56043Z" fill="#292929"/>
<path d="M86 12.5596V5.13958H87.1V6.68958C87.3517 6.15145 87.7248 5.67907 88.19 5.30958C88.5986 5.02107 89.0901 4.87363 89.59 4.88958C89.7365 4.87926 89.8835 4.87926 90.03 4.88958C90.1723 4.91684 90.3126 4.95359 90.45 4.99958L90 6.18958C89.8633 6.14135 89.7228 6.10456 89.58 6.07958C89.4571 6.06536 89.3329 6.06536 89.21 6.07958C88.9168 6.0613 88.6238 6.11887 88.3594 6.24674C88.0949 6.3746 87.8678 6.56844 87.7 6.80958C87.3314 7.4775 87.168 8.23925 87.23 8.99958V12.6096L86 12.5596Z" fill="#292929"/>
<path d="M90.7401 8.8699C90.7298 8.33712 90.8283 7.80782 91.0294 7.31436C91.2306 6.8209 91.5303 6.37364 91.9101 5.9999C92.2858 5.6271 92.7308 5.33153 93.2201 5.1299C93.7172 4.93593 94.2465 4.83754 94.7801 4.8399C95.305 4.83699 95.8252 4.93899 96.3101 5.1399C96.7999 5.34624 97.2474 5.64118 97.6301 6.0099C98.0045 6.37657 98.3004 6.81544 98.5001 7.2999C98.9003 8.28066 98.9003 9.37915 98.5001 10.3599C98.3001 10.8383 98.0039 11.2705 97.6301 11.6299C97.2465 12.0098 96.7955 12.315 96.3001 12.5299C95.8178 12.728 95.3015 12.8299 94.7801 12.8299C93.9792 12.85 93.1906 12.6291 92.5166 12.1959C91.8427 11.7626 91.3143 11.1369 91.0001 10.3999C90.7974 9.91554 90.6953 9.39498 90.7001 8.8699M92.0401 8.8699C92.0313 9.23917 92.0966 9.60646 92.2323 9.95001C92.368 10.2936 92.5713 10.6064 92.8301 10.8699C93.0733 11.1287 93.3668 11.335 93.6927 11.476C94.0187 11.617 94.37 11.6897 94.7251 11.6897C95.0802 11.6897 95.4316 11.617 95.7575 11.476C96.0834 11.335 96.377 11.1287 96.6201 10.8699C96.8776 10.6059 97.0793 10.2927 97.2133 9.94916C97.3473 9.60557 97.4109 9.23854 97.4001 8.8699C97.4109 8.50127 97.3473 8.13424 97.2133 7.79065C97.0793 7.44706 96.8776 7.13394 96.6201 6.8699C96.377 6.61108 96.0834 6.40481 95.7575 6.26381C95.4316 6.12281 95.0802 6.05007 94.7251 6.05007C94.37 6.05007 94.0187 6.12281 93.6927 6.26381C93.3668 6.40481 93.0733 6.61108 92.8301 6.8699C92.5754 7.13659 92.3775 7.4523 92.2486 7.79784C92.1196 8.14338 92.0623 8.51152 92.0801 8.8799L92.0401 8.8699Z" fill="#292929"/>
<path d="M115 5.13991V12.5599H113.77V11.2199C113.502 11.721 113.109 12.1446 112.63 12.4499C112.162 12.7315 111.626 12.877 111.08 12.8699C110.598 12.8884 110.117 12.8004 109.673 12.612C109.229 12.4236 108.832 12.1394 108.51 11.7799C107.823 10.9698 107.466 9.93105 107.51 8.86991C107.474 7.82555 107.823 6.80443 108.49 5.99991C108.799 5.63903 109.185 5.35136 109.619 5.15767C110.053 4.96398 110.525 4.86911 111 4.87991C111.565 4.8653 112.124 5.0109 112.61 5.29991C113.092 5.59726 113.478 6.02797 113.72 6.53991V5.13991H115ZM113.77 8.92991C113.798 8.20043 113.552 7.48688 113.08 6.92991C112.613 6.45522 111.978 6.18294 111.312 6.17172C110.646 6.1605 110.003 6.41122 109.52 6.86991C109.057 7.42932 108.828 8.14571 108.88 8.86991C108.828 9.61554 109.056 10.3537 109.52 10.9399C110.009 11.3983 110.655 11.6534 111.325 11.6534C111.995 11.6534 112.641 11.3983 113.13 10.9399C113.591 10.375 113.823 9.65767 113.78 8.92991H113.77Z" fill="#292929"/>
<path d="M43.2899 22.2804C43.967 22.556 44.5575 23.0085 44.9999 23.5904C45.3965 24.1585 45.6031 24.8377 45.5899 25.5304C45.6109 26.0181 45.5282 26.5048 45.3472 26.9581C45.1662 27.4115 44.891 27.8213 44.5399 28.1604C43.8361 28.7589 42.956 29.1111 42.0336 29.1634C41.1112 29.2158 40.1969 28.9654 39.4299 28.4504C38.7893 27.9477 38.3381 27.2427 38.1499 26.4504L39.4299 25.8204C39.5536 26.4382 39.8521 27.0074 40.2899 27.4604C40.6954 27.8317 41.2304 28.0292 41.7799 28.0104C42.411 28.0404 43.0287 27.8214 43.4999 27.4004C43.7176 27.1983 43.8892 26.9516 44.003 26.6773C44.1169 26.4029 44.1704 26.1073 44.1599 25.8104C44.1706 25.308 44.0082 24.8173 43.6999 24.4204C43.3317 23.976 42.8569 23.632 42.3199 23.4204L40.8799 22.8104C40.1862 22.5495 39.575 22.1075 39.1099 21.5304C38.7184 20.9905 38.5147 20.3372 38.5299 19.6704C38.523 19.2743 38.6037 18.8816 38.7662 18.5203C38.9287 18.159 39.169 17.8381 39.4699 17.5804C40.0664 17.1138 40.7855 16.8304 41.54 16.7647C42.2945 16.6991 43.0518 16.8539 43.7199 17.2104C44.2727 17.503 44.7202 17.961 44.9999 18.5204L43.8399 19.2604C43.6223 18.8643 43.3181 18.5225 42.9499 18.2604C42.6211 18.0333 42.2295 17.9144 41.8299 17.9204C41.5913 17.9096 41.353 17.9475 41.1295 18.0317C40.906 18.116 40.702 18.2448 40.5299 18.4104C40.3602 18.5647 40.2253 18.7532 40.1339 18.9635C40.0425 19.1738 39.9969 19.4011 39.9999 19.6304C39.9931 20.0291 40.1317 20.4166 40.3899 20.7204C40.7255 21.0824 41.1394 21.3628 41.5999 21.5404L43.2899 22.2804Z" fill="#292929"/>
<path d="M53.0601 27.0805V28.5605C52.709 28.7682 52.3278 28.92 51.9301 29.0105C51.483 29.1052 51.0271 29.1521 50.5701 29.1505C50.0603 29.1716 49.5517 29.0865 49.0765 28.9006C48.6014 28.7147 48.1701 28.432 47.8101 28.0705C47.094 27.2905 46.7164 26.2584 46.7601 25.2005C46.7371 24.6679 46.8208 24.1362 47.0063 23.6364C47.1918 23.1367 47.4752 22.6791 47.8401 22.2905C48.1977 21.9169 48.6302 21.6231 49.1093 21.4283C49.5884 21.2336 50.1032 21.1423 50.6201 21.1605C51.0237 21.1581 51.4263 21.2017 51.8201 21.2905C52.2049 21.3687 52.578 21.4964 52.9301 21.6705V23.0005C52.6196 22.7966 52.2833 22.6352 51.9301 22.5205C51.5871 22.4129 51.2295 22.3589 50.8701 22.3605C50.5007 22.3438 50.132 22.4045 49.7875 22.5389C49.4431 22.6732 49.1306 22.8781 48.8701 23.1405C48.6145 23.4188 48.4166 23.7451 48.2879 24.1004C48.1592 24.4557 48.1021 24.833 48.1201 25.2105C48.1105 25.5644 48.1719 25.9166 48.3007 26.2464C48.4295 26.5761 48.6231 26.8768 48.8701 27.1305C49.1173 27.3818 49.4135 27.5798 49.7403 27.7123C50.0671 27.8447 50.4176 27.9088 50.7701 27.9005C51.1564 27.9006 51.5395 27.8294 51.9001 27.6905C52.3142 27.5312 52.7045 27.3159 53.0601 27.0505" fill="#292929"/>
<path d="M54.52 28.8696V16.3096H55.76V22.5996C56.0472 22.1518 56.4427 21.7838 56.91 21.5296C57.3954 21.2933 57.9303 21.1767 58.47 21.1896C59.2169 21.1455 59.9518 21.3929 60.52 21.8796C60.7707 22.1338 60.9653 22.4379 61.091 22.7721C61.2168 23.1062 61.2709 23.4631 61.25 23.8196V28.8696H60V24.4996C60.0459 23.9048 59.8794 23.3131 59.53 22.8296C59.3342 22.6268 59.0943 22.4718 58.8291 22.3764C58.5638 22.2811 58.2801 22.2479 58 22.2796C57.6558 22.28 57.3153 22.3515 57 22.4896C56.6999 22.6172 56.4356 22.8163 56.23 23.0696C56.0721 23.2673 55.9563 23.4953 55.89 23.7396C55.806 24.1641 55.7725 24.5971 55.79 25.0296V28.8696H54.52Z" fill="#292929"/>
<path d="M62.5599 25.1797C62.5573 24.6516 62.6592 24.1282 62.8599 23.6397C63.0593 23.1497 63.3591 22.7069 63.7399 22.3397C64.1127 21.9706 64.5544 21.6784 65.0399 21.4797C65.5359 21.2819 66.066 21.1834 66.5999 21.1897C67.1242 21.1834 67.6444 21.282 68.1299 21.4797C68.6194 21.6911 69.0666 21.9892 69.4499 22.3597C69.8241 22.7248 70.1231 23.1597 70.3299 23.6397C70.5221 24.1304 70.6205 24.6528 70.6199 25.1797C70.6214 25.7035 70.523 26.2228 70.3299 26.7097C70.1242 27.1934 69.8252 27.6317 69.4499 27.9997C69.0663 28.3797 68.6153 28.6849 68.1199 28.8997C67.6383 29.0999 67.1215 29.2019 66.5999 29.1997C66.0653 29.2027 65.5353 29.1007 65.0399 28.8997C64.5524 28.7003 64.1102 28.4043 63.7399 28.0297C63.3636 27.6588 63.0645 27.2169 62.8599 26.7297C62.658 26.2451 62.5559 25.7247 62.5599 25.1997M63.8999 25.1997C63.8911 25.569 63.9564 25.9363 64.0921 26.2798C64.2278 26.6234 64.4311 26.9362 64.6899 27.1997C64.9342 27.4598 65.2306 27.6654 65.5597 27.8032C65.8888 27.9411 66.2432 28.008 66.5999 27.9997C66.9551 28.0052 67.3074 27.9349 67.6333 27.7935C67.9592 27.6521 68.2512 27.4429 68.4899 27.1797C68.9946 26.636 69.275 25.9216 69.275 25.1797C69.275 24.4379 68.9946 23.7235 68.4899 23.1797C68.2512 22.9166 67.9592 22.7074 67.6333 22.566C67.3074 22.4246 66.9551 22.3543 66.5999 22.3597C66.2416 22.3534 65.8861 22.4232 65.5568 22.5645C65.2276 22.7059 64.9321 22.9156 64.6899 23.1797C64.4292 23.4419 64.2247 23.7545 64.0889 24.0984C63.9531 24.4422 63.8888 24.8102 63.8999 25.1797V25.1997Z" fill="#292929"/>
<path d="M71.5399 25.1805C71.5373 24.6524 71.6392 24.129 71.8399 23.6405C72.0394 23.153 72.3353 22.7108 72.7099 22.3405C73.0827 21.9761 73.5202 21.6844 73.9999 21.4805C74.9936 21.0937 76.0962 21.0937 77.0899 21.4805C77.578 21.6942 78.0248 21.9921 78.4099 22.3605C78.784 22.7235 79.08 23.159 79.2799 23.6405C79.4806 24.129 79.5826 24.6524 79.5799 25.1805C79.5828 25.7054 79.4808 26.2255 79.2799 26.7105C79.0881 27.1943 78.7988 27.6334 78.4299 28.0005C78.0463 28.3804 77.5953 28.6856 77.0999 28.9005C76.6145 29.0999 76.0946 29.2018 75.5699 29.2005C75.0373 29.2009 74.51 29.095 74.0189 28.889C73.5277 28.6829 73.0827 28.3808 72.7099 28.0005C72.3395 27.6267 72.0442 27.1854 71.8399 26.7005C71.6379 26.2159 71.5359 25.6955 71.5399 25.1705M72.8799 25.1705C72.8687 25.54 72.933 25.908 73.0689 26.2519C73.2047 26.5957 73.4092 26.9083 73.6699 27.1705C73.913 27.4293 74.2066 27.6356 74.5325 27.7766C74.8585 27.9176 75.2098 27.9903 75.5649 27.9903C75.92 27.9903 76.2714 27.9176 76.5973 27.7766C76.9232 27.6356 77.2168 27.4293 77.4599 27.1705C77.969 26.629 78.2524 25.9137 78.2524 25.1705C78.2524 24.4272 77.969 23.712 77.4599 23.1705C77.2212 22.9074 76.9292 22.6981 76.6033 22.5567C76.2774 22.4153 75.9251 22.345 75.5699 22.3505C75.2117 22.3447 74.8564 22.4148 74.5272 22.5561C74.198 22.6975 73.9024 22.9068 73.6599 23.1705C73.4012 23.4357 73.1987 23.7504 73.0647 24.0958C72.9307 24.4412 72.8678 24.8102 72.8799 25.1805V25.1705Z" fill="#292929"/>
<path d="M82.1301 16.3096H80.8401V28.8696H82.1301V16.3096Z" fill="#292929"/>
<path d="M43.5501 2.13965L48.1101 12.5596H46.5801L45.0001 8.92965H40.4101L38.8701 12.5596H37.3501L41.8901 2.13965H43.5501ZM42.7201 3.34965L40.8301 7.70965H44.6101L42.7201 3.34965Z" fill="#292929"/>
</g>
<defs>
<clipPath id="clip0_972_6">
<rect width="115.01" height="29.18" fill="white"/>
</clipPath>
</defs>
</svg>
