<?xml version="1.0" standalone="no"?>
  <!DOCTYPE svg PUBLIC "-//W3C//DTD SVG 1.1//EN" "http://www.w3.org/Graphics/SVG/1.1/DTD/svg11.dtd" >
  <svg>
  <metadata>
  Created by font-carrier
  </metadata>
  <defs>
  <font id="AkzidenzGroteskPro-XBdIt" horiz-adv-x="1194" vert-adv-y="1194" >
    <font-face
      
      font-family="Akzidenz-Grotesk Pro ExtraBold"
      
      font-weight="400"
      
      font-stretch="normal"
      
      units-per-em="1000"
      
      ascent="994"
      
      descent="-251"
      
    />
      <missing-glyph />

      

      
      <glyph glyph-name="uni21" unicode="&#x21;" d="M380 706L340 532L242 227L119 227L164 532L204 706L380 706M252 153L217 0L41 0L76 153L252 153Z"  horiz-adv-x="292" vert-adv-y="1000"  />

      
      <glyph glyph-name="uni22" unicode="&#x22;" d="M448 741L336 453L293 453L308 741L448 741M278 741L166 453L123 453L138 741L278 741Z"  horiz-adv-x="323" vert-adv-y="1000"  />

      
      <glyph glyph-name="uni23" unicode="&#x23;" d="M663 530L636 406L529 406L500 310L601 310L573 186L460 186L401 0L275 0L335 186L236 186L176 0L53 0L111 186L14 186L42 310L151 310L180 406L78 406L106 530L219 530L275 706L399 706L344 530L443 530L498 706L623 706L568 530L663 530M403 406L305 406L275 310L374 310L403 406Z"  horiz-adv-x="583" vert-adv-y="1000"  />

      
      <glyph glyph-name="uni24" unicode="&#x24;" d="M384 483L392 517Q397 539 397 550Q397 582 356 582Q332 582 318 565.50Q304 549 304 520Q304 494 338 465L427 389Q515 314 515 238Q515 203 505 165Q483 78 429 38.50Q375-1 277-8L244-153L136-153L168-8Q86 0 48.50 31.50Q11 63 11 124Q11 159 21 199L28 228L226 228L217 193Q212 172 212 158Q212 123 254 123Q283 123 297.50 148Q312 173 312 203Q312 231 286 254L165 360Q110 409 110 484Q110 530 127.50 575.50Q145 621 175 653Q204 684 239.50 697.50Q275 711 336 715L364 836L472 836L445 712Q587 694 587 584Q587 554 578 519L569 483L384 483Z"  horiz-adv-x="521" vert-adv-y="1000"  />

      
      <glyph glyph-name="uni25" unicode="&#x25;" d="M691 706L325 0L238 0L604 706L691 706M90 416L133 602Q147 662 186 690Q225 718 299 718Q439 718 439 628Q439 612 429 565L391 397Q375 328 345 299Q305 262 220 262Q81 262 81 352Q81 374 90 416M266 372L319 605Q319 607 320.50 613Q322 619 322 621Q322 644 291 644Q261 644 253 609L200 375Q198 365 198 359Q198 336 229 336Q257 336 266 372M501 147L544 333Q558 393 597 421Q636 449 710 449Q850 449 850 359Q850 343 840 296L802 128Q786 59 756 30Q716-7 631-7Q492-7 492 83Q492 105 501 147M677 103L730 336Q730 338 731.50 344Q733 350 733 352Q733 375 702 375Q672 375 664 340L611 106Q609 96 609 90Q609 67 640 67Q668 67 677 103Z"  horiz-adv-x="833" vert-adv-y="1000"  />

      
      <glyph glyph-name="uni26" unicode="&#x26;" d="M485 355L623 355Q600 268 576 220.50Q552 173 506 123Q519 100 540 100L591 100L568 0L475 0Q405 0 372 19Q306-12 214-12Q9-12 9 157Q9 226 46.50 275.50Q84 325 189 377L227 396Q194 486 194 535Q194 610 250.50 656.50Q307 703 398 703Q488 703 539.50 665Q591 627 591 562Q591 501 548 453Q505 405 416 355L452 271Q470 307 485 355M374 473Q421 501 438 520Q455 539 455 560Q455 576 443 586.50Q431 597 411 597Q387 597 373 582Q359 567 359 542Q359 528 366 503L374 473M320 135L270 265Q229 242 211.50 221.50Q194 201 194 176Q194 147 210.50 129.50Q227 112 255 112Q281 112 320 135Z"  horiz-adv-x="604" vert-adv-y="1000"  />

      
      <glyph glyph-name="uni27" unicode="&#x27;" d="M278 741L166 453L123 453L138 741L278 741Z"  horiz-adv-x="152" vert-adv-y="1000"  />

      
      <glyph glyph-name="uni28" unicode="&#x28;" d="M454 713L438 645L413 645Q380 645 361 640Q342 635 328 617Q314 599 307 577Q300 555 289 508L164-32Q154-76 154-97Q154-130 174.50-142.50Q195-155 253-156L239-218L194-218Q90-218 42.50-185.50Q-5-153-5-82Q-5-52 6-5L125 508Q141 577 163 617.50Q185 658 222 679.50Q259 701 300.50 707Q342 713 414 713L454 713Z"  horiz-adv-x="313" vert-adv-y="1000"  />

      
      <glyph glyph-name="uni29" unicode="&#x29;" d="M99 650L113 712L158 712Q262 712 309.50 679.50Q357 647 357 576Q357 546 346 499L228-6Q211-77 190.50-118.50Q170-160 133.50-182.50Q97-205 54-212Q11-219-62-219L-102-219L-86-151L-61-151Q0-151 21.50-125.50Q43-100 63-14L187 526Q198 574 198 591Q198 624 177 636.50Q156 649 99 650Z"  horiz-adv-x="313" vert-adv-y="1000"  />

      
      <glyph glyph-name="uni2a" unicode="&#x2a;" d="M504 473L399 463L440 373L328 320L281 420L199 351L119 446L194 510L104 561L166 669L260 616L285 720L406 691L381 586L493 597L504 473Z"  horiz-adv-x="437" vert-adv-y="1000"  />

      
      <glyph glyph-name="uni2b" unicode="&#x2b;" d="M528 374L494 227L388 227L357 91L174 91L205 227L97 227L130 374L238 374L271 511L454 511L422 374L528 374Z"  horiz-adv-x="558" vert-adv-y="1000"  />

      
      <glyph glyph-name="uni2c" unicode="&#x2c;" d="M213 164L175 0L50-152L-17-152L68 0L3 0L41 164L213 164Z"  horiz-adv-x="250" vert-adv-y="1000"  />

      
      <glyph glyph-name="uni2d" unicode="&#x2d;" d="M381 369L350 232L48 232L79 369L381 369Z"  horiz-adv-x="361" vert-adv-y="1000"  />

      
      <glyph glyph-name="uni2e" unicode="&#x2e;" d="M216 164L178 0L4 0L42 164L216 164Z"  horiz-adv-x="250" vert-adv-y="1000"  />

      
      <glyph glyph-name="uni2f" unicode="&#x2f;" d="M458 706L118 0L-34 0L309 706L458 706Z"  horiz-adv-x="333" vert-adv-y="1000"  />

      
      <glyph glyph-name="uni30" unicode="&#x30;" d="M571 497L500 187Q475 75 420.50 32Q366-11 253-11Q148-11 90.50 26Q33 63 33 131Q33 161 48 228L117 530Q141 633 199 676Q257 719 367 719Q469 719 525.50 681.50Q582 644 582 576Q582 544 571 497M313 158L401 539Q406 559 406 572Q406 588 393.50 597Q381 606 360 606Q334 606 321.50 593.50Q309 581 302 547L214 165Q209 145 209 133Q209 99 254 99Q280 99 293 111.50Q306 124 313 158Z"  horiz-adv-x="521" vert-adv-y="1000"  />

      
      <glyph glyph-name="uni31" unicode="&#x31;" d="M495 706L332 0L153 0L273 520Q231 491 158 475L188 602Q234 617 262.50 640.50Q291 664 316 706L495 706Z"  horiz-adv-x="521" vert-adv-y="1000"  />

      
      <glyph glyph-name="uni32" unicode="&#x32;" d="M498 137L467 0L2 0L7 27Q21 105 48 156.50Q75 208 130 252Q180 292 232.50 332Q285 372 305.50 387.50Q326 403 347 422.50Q368 442 375 456Q382 470 387 492L398 538Q402 553 402 568Q402 603 359 603Q351 603 344.50 602Q338 601 333 597.50Q328 594 324 591Q320 588 317 581.50Q314 575 311.50 570.50Q309 566 306.50 555.50Q304 545 302.50 539.50Q301 534 298.50 520Q296 506 294 499L280 437L103 437L125 533Q148 632 206 675.50Q264 719 372 719Q584 719 584 579Q584 544 571.50 498Q559 452 541 420Q515 374 387 276L329 232Q286 199 269 181Q252 163 243 137L498 137Z"  horiz-adv-x="521" vert-adv-y="1000"  />

      
      <glyph glyph-name="uni33" unicode="&#x33;" d="M289 495L116 495L127 539Q151 637 203.50 677.50Q256 718 360 718Q474 718 528 683Q582 648 582 575Q582 523 561 469Q546 430 523 408Q500 386 459 369Q517 345 517 289Q517 226 479 119Q434-12 243-12Q133-12 81 20Q29 52 29 119Q29 154 38 188L49 233L229 233L215 174Q210 154 210 144Q210 109 254 109Q297 109 311 156Q332 225 332 265Q332 284 322 290.50Q312 297 282 297L220 297L251 433L316 433Q355 433 367.50 444Q380 455 388 494L395 527Q400 550 400 561Q400 596 356 596Q327 596 317 582.50Q307 569 298 532L289 495Z"  horiz-adv-x="521" vert-adv-y="1000"  />

      
      <glyph glyph-name="uni34" unicode="&#x34;" d="M556 706L459 284L537 284L506 150L428 150L393 0L211 0L246 150L20 150L51 284L352 706L556 706M346 546L174 284L286 284L346 546Z"  horiz-adv-x="521" vert-adv-y="1000"  />

      
      <glyph glyph-name="uni35" unicode="&#x35;" d="M594 706L563 571L307 571L266 412Q316 475 401 475Q464 475 498 445.50Q532 416 532 362Q532 327 514 251L502 200Q475 85 420.50 37.50Q366-10 242-10Q134-10 82.50 20.50Q31 51 31 116Q31 146 39 181L49 224L227 224L211 156Q208 142 208 135Q208 99 254 99Q281 99 294 115Q307 131 318 181L340 283Q347 318 347 324Q347 360 302 360Q280 360 268.50 350.50Q257 341 248 315L79 315L178 706L594 706Z"  horiz-adv-x="521" vert-adv-y="1000"  />

      
      <glyph glyph-name="uni36" unicode="&#x36;" d="M572 495L395 495L406 544Q408 556 408 563Q408 596 366 596Q321 596 310 547L272 385Q316 441 406 441Q468 441 500.50 412.50Q533 384 533 330Q533 296 525 264L509 196Q484 89 427.50 42Q371-5 254-5Q149-5 94.50 32.50Q40 70 40 143Q40 174 54 236L118 511Q145 628 203.50 673.50Q262 719 379 719Q479 719 533.50 684Q588 649 588 585Q588 568 580 533L572 495M317 160L344 275Q347 288 347 300Q347 334 308 334Q282 334 268.50 321.50Q255 309 248 281L222 168Q218 151 218 139Q218 104 260 104Q284 104 296.50 116.50Q309 129 317 160Z"  horiz-adv-x="521" vert-adv-y="1000"  />

      
      <glyph glyph-name="uni37" unicode="&#x37;" d="M624 706L591 568L581 558Q539 516 480 432Q423 351 365 246Q299 127 264 0L75 0Q88 57 107 105Q141 192 208 293Q277 398 404 552L418 569L270 569L250 482L103 482L155 706L624 706Z"  horiz-adv-x="521" vert-adv-y="1000"  />

      
      <glyph glyph-name="uni38" unicode="&#x38;" d="M31 177L52 265Q62 309 91.50 336.50Q121 364 173 380Q114 405 114 467Q114 514 131.50 567Q149 620 175 650Q232 718 368 718Q580 718 580 591Q580 561 574 531.50Q568 502 554.50 469.50Q541 437 512.50 412.50Q484 388 444 380Q520 357 520 284Q520 260 512 227L501 179Q478 77 420.50 33Q363-11 237-11Q24-11 24 121Q24 148 31 177M304 558L288 492Q285 477 285 468Q285 435 331 435Q358 435 369 446Q380 457 388 489L402 549Q406 569 406 575Q406 606 359 606Q315 606 304 558M238 273L211 157Q208 142 208 133Q208 101 254 101Q281 101 292.50 111.50Q304 122 311 154L336 264Q340 279 340 290Q340 320 293 320Q249 320 238 273Z"  horiz-adv-x="521" vert-adv-y="1000"  />

      
      <glyph glyph-name="uni39" unicode="&#x39;" d="M49 222L226 222L213 171Q211 164 211 151Q211 118 254 118Q278 118 291 129.50Q304 141 310 168L348 332Q304 276 215 276Q153 276 120 304.50Q87 333 87 387Q87 410 96 453L111 518Q136 626 192 673Q248 720 365 720Q470 720 524.50 682.50Q579 645 579 572Q579 540 565 478L502 204Q475 86 415 40.50Q355-5 240-5Q141-5 86.50 30Q32 65 32 129Q32 153 39 182L49 222M372 436L397 546Q402 569 402 576Q402 610 360 610Q335 610 322 598Q309 586 302 554L276 442Q273 429 273 417Q273 383 313 383Q338 383 351.50 395Q365 407 372 436Z"  horiz-adv-x="521" vert-adv-y="1000"  />

      
      <glyph glyph-name="uni3a" unicode="&#x3a;" d="M342 547L304 383L130 383L168 547L342 547M257 164L219 0L45 0L83 164L257 164Z"  horiz-adv-x="292" vert-adv-y="1000"  />

      
      <glyph glyph-name="uni3b" unicode="&#x3b;" d="M342 547L304 383L130 383L168 547L342 547M255 164L217 0L92-152L25-152L110 0L46 0L83 164L255 164Z"  horiz-adv-x="292" vert-adv-y="1000"  />

      
      <glyph glyph-name="uni3c" unicode="&#x3c;" d="M551 619L509 440L287 337L469 242L429 75L112 269L149 424L551 619Z"  horiz-adv-x="559" vert-adv-y="1000"  />

      
      <glyph glyph-name="uni3d" unicode="&#x3d;" d="M556 501L524 359L134 359L166 501L556 501M503 272L471 130L81 130L113 272L503 272Z"  horiz-adv-x="559" vert-adv-y="1000"  />

      
      <glyph glyph-name="uni3e" unicode="&#x3e;" d="M539 426L502 271L100 76L142 255L364 358L182 453L223 619L539 426Z"  horiz-adv-x="559" vert-adv-y="1000"  />

      
      <glyph glyph-name="uni3f" unicode="&#x3f;" d="M303 226L129 226Q144 304 167 346Q190 388 248 425L319 471Q363 499 380 521.50Q397 544 397 570Q397 604 363 604Q339 604 328 587Q317 570 308 524L153 524Q168 624 222.50 668Q277 712 385 712Q558 712 558 586Q558 481 461 411L378 352Q338 324 325.50 303Q313 282 303 226M291 150L256 0L82 0L117 150L291 150Z"  horiz-adv-x="479" vert-adv-y="1000"  />

      
      <glyph glyph-name="uni40" unicode="&#x40;" d="M581 501L680 501L633 305Q614 226 614 192Q614 170 630 170Q661 170 699.50 255Q738 340 738 417Q738 517 682 573Q626 629 528 629Q389 629 288 513Q187 397 187 237Q187 108 263 34Q339-40 460-40Q618-40 769 108L820 37Q754-23 697-57Q581-126 452-126Q333-126 238-68Q84 25 84 234Q84 435 215 573Q346 711 538 711Q674 711 754 633.50Q834 556 834 425Q834 282 759 173Q684 64 586 64Q553 64 530.50 82Q508 100 502 132Q448 65 382 65Q321 65 284 109.50Q247 154 247 227Q247 341 315.50 431Q384 521 470 521Q503 521 526 507.50Q549 494 570 461L581 501M533 354Q533 387 518 406Q503 425 477 425Q433 425 397 363.50Q361 302 361 236Q361 202 375.50 182Q390 162 415 162Q460 162 496.50 221.50Q533 281 533 354Z"  horiz-adv-x="870" vert-adv-y="1000"  />

      
      <glyph glyph-name="uni41" unicode="&#x41;" d="M-37 0L284 706L522 706L525 0L333 0L346 159L225 159L166 0L-37 0M271 285L356 285L377 568L271 285Z"  horiz-adv-x="562" vert-adv-y="1000"  />

      
      <glyph glyph-name="uni42" unicode="&#x42;" d="M163 706L412 706Q452 706 483 701Q514 696 544.50 682Q575 668 591.50 639Q608 610 608 566Q608 486 567 434Q526 382 447 369Q546 350 546 249Q546 204 531 154.50Q516 105 493 74Q459 28 409.50 14Q360 0 248 0L0 0L163 706M327 570L293 424L328 424Q363 424 378 435Q393 446 401 477L410 514Q412 522 412 536Q412 555 401.50 562.50Q391 570 363 570L327 570M226 135L281 135Q304 135 318.50 146Q333 157 340 189L349 230Q352 242 352 253Q352 274 339.50 282.50Q327 291 296 291L262 291L226 135Z"  horiz-adv-x="542" vert-adv-y="1000"  />

      
      <glyph glyph-name="uni43" unicode="&#x43;" d="M352 261L549 261L541 223Q515 100 468 53Q403-13 258-13Q143-13 88 25Q33 63 33 143Q33 181 52 262L107 498Q136 624 196 672Q256 720 381 720Q612 720 612 572Q612 541 605 513L590 446L395 446L410 511Q414 530 414 544Q414 579 369 579Q339 579 328 564Q317 549 306 501L235 197Q230 176 230 162Q230 126 277 126Q303 126 315.50 140Q328 154 336 191L352 261Z"  horiz-adv-x="542" vert-adv-y="1000"  />

      
      <glyph glyph-name="uni44" unicode="&#x44;" d="M163 706L414 706Q619 706 619 552Q619 520 604 455L559 261Q542 189 525.50 145.50Q509 102 488 71Q467 40 433.50 25.50Q400 11 359.50 5.50Q319 0 252 0L0 0L163 706M331 570L230 132L260 132Q309 132 322 143Q335 154 346 200L415 499Q419 517 419 527Q419 570 361 570L331 570Z"  horiz-adv-x="562" vert-adv-y="1000"  />

      
      <glyph glyph-name="uni45" unicode="&#x45;" d="M549 706L517 569L330 569L297 426L470 426L439 291L266 291L230 136L417 136L386 0L0 0L163 706L549 706Z"  horiz-adv-x="437" vert-adv-y="1000"  />

      
      <glyph glyph-name="uni46" unicode="&#x46;" d="M544 706L512 570L330 570L297 427L465 427L434 292L266 292L199 0L1 0L164 706L544 706Z"  horiz-adv-x="417" vert-adv-y="1000"  />

      
      <glyph glyph-name="uni47" unicode="&#x47;" d="M330 369L582 369L497 0L306 0L322 71Q264-11 170-11Q103-11 64.50 23Q26 57 26 116Q26 148 36 192L107 498Q137 625 197 672Q257 719 383 719Q501 719 562 683Q623 647 623 579Q623 555 612 500L604 462L413 462L423 507Q427 525 427 537Q427 578 375 578Q349 578 335 565Q321 552 311 511L238 194Q232 166 232 154Q232 113 278 113Q306 113 323.50 129.50Q341 146 351 193L362 244L301 244L330 369Z"  horiz-adv-x="562" vert-adv-y="1000"  />

      
      <glyph glyph-name="uni48" unicode="&#x48;" d="M654 706L491 0L293 0L358 282L265 282L200 0L0 0L163 706L363 706L299 428L392 428L456 706L654 706Z"  horiz-adv-x="562" vert-adv-y="1000"  />

      
      <glyph glyph-name="uni49" unicode="&#x49;" d="M363 706L200 0L0 0L163 706L363 706Z"  horiz-adv-x="271" vert-adv-y="1000"  />

      
      <glyph glyph-name="uni4a" unicode="&#x4a;" d="M448 706L328 186Q318 141 308 112Q298 83 282.50 61.50Q267 40 251.50 28.50Q236 17 207.50 10Q179 3 150 1.50Q121 0 72 0L-22 0L9 135L71 135Q98 135 110.50 146Q123 157 132 195L250 706L448 706Z"  horiz-adv-x="354" vert-adv-y="1000"  />

      
      <glyph glyph-name="uni4b" unicode="&#x4b;" d="M675 706L453 361L536 0L333 0L271 327L196 0L0 0L163 706L359 706L284 382L472 706L675 706Z"  horiz-adv-x="562" vert-adv-y="1000"  />

      
      <glyph glyph-name="uni4c" unicode="&#x4c;" d="M411 134L380 0L0 0L163 706L360 706L228 134L411 134Z"  horiz-adv-x="417" vert-adv-y="1000"  />

      
      <glyph glyph-name="uni4d" unicode="&#x4d;" d="M837 706L678 0L511 0L622 485L402 0L275 0L275 475L165 0L0 0L163 706L410 706L395 240L588 706L837 706Z"  horiz-adv-x="750" vert-adv-y="1000"  />

      
      <glyph glyph-name="uni4e" unicode="&#x4e;" d="M652 706L489 0L302 0L266 448L166 0L0 0L163 706L346 706L384 253L486 706L652 706Z"  horiz-adv-x="562" vert-adv-y="1000"  />

      
      <glyph glyph-name="uni4f" unicode="&#x4f;" d="M601 453L547 220Q537 178 529.50 153Q522 128 502 93Q482 58 455.50 38.50Q429 19 382.50 4.50Q336-10 274-10Q229-10 189.50-2.50Q150 5 114 22Q78 39 57 71.50Q36 104 36 149Q36 190 51 254L110 509Q136 622 197.50 669.50Q259 717 378 717Q616 717 616 555Q616 520 601 453M339 187L415 518Q419 534 419 544Q419 583 373 583Q344 583 331.50 566.50Q319 550 308 503L236 190Q232 174 232 163Q232 145 244.50 134.50Q257 124 279 124Q303 124 316.50 135.50Q330 147 339 187Z"  horiz-adv-x="562" vert-adv-y="1000"  />

      
      <glyph glyph-name="uni50" unicode="&#x50;" d="M163 706L416 706Q452 706 477 704Q502 702 530 694.50Q558 687 575 673Q592 659 603 633.50Q614 608 614 572Q614 540 602 484Q571 346 515 300.50Q459 255 334 255L257 255L198 0L0 0L163 706M330 571L288 390L326 390Q364 390 378.50 401Q393 412 401 447L416 510Q419 524 419 535Q419 555 408 563Q397 571 370 571L330 571Z"  horiz-adv-x="542" vert-adv-y="1000"  />

      
      <glyph glyph-name="uni51" unicode="&#x51;" d="M420-72L395-183L276-183Q201-183 174-166Q147-149 147-105Q147-86 155-52L168 3Q36 39 36 154Q36 189 51 254L105 487Q136 621 195 669Q254 717 378 717Q493 717 555 676.50Q617 636 617 560Q617 524 601 453L547 220Q522 110 473.50 59Q425 8 335-4Q328-38 328-43Q328-72 367-72L420-72M339 187L415 518Q419 534 419 544Q419 583 373 583Q327 583 312 521L236 190Q232 174 232 163Q232 145 244.50 134.50Q257 124 279 124Q303 124 316.50 135.50Q330 147 339 187Z"  horiz-adv-x="562" vert-adv-y="1000"  />

      
      <glyph glyph-name="uni52" unicode="&#x52;" d="M163 706L444 706Q476 706 500.50 702Q525 698 554.50 685.50Q584 673 600.50 643.50Q617 614 617 568Q617 402 459 368Q508 359 529.50 335Q551 311 551 267Q551 244 541 198L517 90Q512 65 512 47Q512 22 525 0L322 0Q314 27 314 43Q314 65 322 103L353 237Q356 249 356 260Q356 279 345 286Q334 293 306 293L269 293L201 0L0 0L163 706M332 566L299 427L340 427Q370 427 381 431Q392 435 398 446Q405 459 412 490Q419 521 419 532Q419 551 407.50 558.50Q396 566 368 566L332 566Z"  horiz-adv-x="562" vert-adv-y="1000"  />

      
      <glyph glyph-name="uni53" unicode="&#x53;" d="M564 468L376 468L388 520Q391 532 391 541Q391 578 347 578Q324 578 311 564.50Q298 551 298 528Q298 505 324 478L443 355Q510 287 510 217Q510-9 251-9Q134-9 72.50 31.50Q11 72 11 149Q11 192 26 247L223 247L211 198Q207 181 207 168Q207 149 219.50 138.50Q232 128 253 128Q308 128 308 203Q308 221 300.50 232.50Q293 244 266 271L169 370Q104 437 104 505Q104 593 155 651Q185 685 230 699.50Q275 714 348 714Q459 714 519 673.50Q579 633 579 558Q579 525 564 468Z"  horiz-adv-x="521" vert-adv-y="1000"  />

      
      <glyph glyph-name="uni54" unicode="&#x54;" d="M626 706L595 571L445 571L313 0L114 0L246 571L96 571L127 706L626 706Z"  horiz-adv-x="500" vert-adv-y="1000"  />

      
      <glyph glyph-name="uni55" unicode="&#x55;" d="M656 706L532 165Q510 70 445 30.50Q380-9 262-9Q153-9 94.50 31Q36 71 36 146Q36 174 49 231L159 706L357 706L239 196Q234 176 234 167Q234 131 281 131Q306 131 319 144Q332 157 339 191L458 706L656 706Z"  horiz-adv-x="562" vert-adv-y="1000"  />

      
      <glyph glyph-name="uni56" unicode="&#x56;" d="M667 706L367 0L96 0L126 706L317 706L267 162L466 706L667 706Z"  horiz-adv-x="542" vert-adv-y="1000"  />

      
      <glyph glyph-name="uni57" unicode="&#x57;" d="M956 706L705 0L468 0L506 543L300 0L57 0L130 706L305 706L243 196L431 706L647 706L612 200L782 706L956 706Z"  horiz-adv-x="833" vert-adv-y="1000"  />

      
      <glyph glyph-name="uni58" unicode="&#x58;" d="M648 706L453 369L485 0L292 0L292 258L169 0L-32 0L175 369L131 706L326 706L326 445L446 706L648 706Z"  horiz-adv-x="521" vert-adv-y="1000"  />

      
      <glyph glyph-name="uni59" unicode="&#x59;" d="M687 706L401 227L348 0L151 0L204 227L129 706L322 706L336 400L490 706L687 706Z"  horiz-adv-x="562" vert-adv-y="1000"  />

      
      <glyph glyph-name="uni5a" unicode="&#x5a;" d="M583 706L551 567L241 137L457 137L425 0L-19 0L13 137L327 572L134 572L165 706L583 706Z"  horiz-adv-x="479" vert-adv-y="1000"  />

      
      <glyph glyph-name="uni5b" unicode="&#x5b;" d="M424 709L407 637L327 637L148-143L226-143L210-214L-29-214L184 709L424 709Z"  horiz-adv-x="297" vert-adv-y="1000"  />

      
      <glyph glyph-name="uni5c" unicode="&#x5c;" d="M323-18L188-18L127 706L263 706L323-18Z"  horiz-adv-x="350" vert-adv-y="1000"  />

      
      <glyph glyph-name="uni5d" unicode="&#x5d;" d="M365 710L152-212L-87-212L-71-141L9-141L189 640L110 640L126 710L365 710Z"  horiz-adv-x="298" vert-adv-y="1000"  />

      
      <glyph glyph-name="uni5e" unicode="&#x5e;" d="M575 359L404 359L381 551L265 359L79 359L329 706L488 706L575 359Z"  horiz-adv-x="559" vert-adv-y="1000"  />

      
      <glyph glyph-name="uni5f" unicode="&#x5f;" d="M420-239L-100-239L-70-112L449-112L420-239Z"  horiz-adv-x="500" vert-adv-y="1000"  />

      
      <glyph glyph-name="uni60" unicode="&#x60;" d="M276 572L125 572L16 696L217 696L276 572Z"  horiz-adv-x="292" vert-adv-y="1000"  />

      
      <glyph glyph-name="uni61" unicode="&#x61;" d="M259 345L84 345L93 384Q113 470 166.50 506.50Q220 543 327 543Q437 543 488.50 511.50Q540 480 540 412Q540 385 527 329L466 68Q462 48 462 34Q462 16 475 0L262 0L272 43Q242 12 210.50-1Q179-14 134-14Q75-14 43.50 12Q12 38 12 85Q12 121 22 161.50Q32 202 47 225Q60 245 70 255Q80 265 118.50 280Q157 295 228 310Q311 327 340 340L347 369Q350 384 350 391Q350 420 314 420Q277 420 266 373L259 345M320 253L256 230Q226 219 215 187.50Q204 156 204 129Q204 92 239 92Q261 92 275.50 105Q290 118 298 156L320 253Z"  horiz-adv-x="518" vert-adv-y="1000"  />

      
      <glyph glyph-name="uni62" unicode="&#x62;" d="M160 706L348 706L293 466Q343 542 433 542Q491 542 523.50 512Q556 482 556 429Q556 405 545 356L501 167Q478 71 439.50 30Q401-11 324-11Q232-11 200 63L185 0L-3 0L160 706M310 157L358 367Q361 380 361 390Q361 426 321 426Q284 426 273 378L221 156Q217 141 217 131Q217 98 256 98Q278 98 290 109Q302 120 310 157Z"  horiz-adv-x="521" vert-adv-y="1000"  />

      
      <glyph glyph-name="uni63" unicode="&#x63;" d="M514 324L334 324L344 366Q347 379 347 390Q347 421 313 421Q291 421 281.50 411Q272 401 263 364L217 170Q212 147 212 139Q212 109 247 109Q286 109 297 162L303 191L490 191L475 129Q440-13 236-13Q25-13 25 129Q25 152 32 183L77 376Q98 468 157 504.50Q216 541 330 541Q530 541 530 420Q530 392 521 354L514 324Z"  horiz-adv-x="500" vert-adv-y="1000"  />

      
      <glyph glyph-name="uni64" unicode="&#x64;" d="M618 706L455 0L266 0L280 61Q225-11 136-11Q79-11 47.50 14.50Q16 40 16 86Q16 113 30 174L77 377Q97 461 137.50 499.50Q178 538 249 538Q341 538 375 470L429 706L618 706M301 155L351 372Q355 392 355 397Q355 429 317 429Q295 429 284 417.50Q273 406 266 377L215 159Q211 139 211 135Q211 104 248 104Q273 104 284 115Q295 126 301 155Z"  horiz-adv-x="521" vert-adv-y="1000"  />

      
      <glyph glyph-name="uni65" unicode="&#x65;" d="M496 236L231 236L214 167Q209 146 209 138Q209 107 248 107Q269 107 280 118Q291 129 298 158L304 184L484 184L477 155Q454 62 401 24.50Q348-13 236-13Q23-13 23 120Q23 158 34 205L69 352Q94 457 148.50 499.50Q203 542 314 542Q529 542 529 405Q529 372 521 341L496 236M250 321L339 321L353 381Q355 389 355 399Q355 431 315 431Q276 431 266 389L250 321Z"  horiz-adv-x="496" vert-adv-y="1000"  />

      
      <glyph glyph-name="uni66" unicode="&#x66;" d="M472 706L448 605L415 605Q383 605 370.50 595.50Q358 586 351 556L345 528L421 528L398 426L321 426L223 0L35 0L133 426L61 426L84 528L157 528L168 575Q187 657 217 681.50Q247 706 335 706L472 706Z"  horiz-adv-x="345" vert-adv-y="1000"  />

      
      <glyph glyph-name="uni67" unicode="&#x67;" d="M577 528L451-22Q435-91 417.50-128Q400-165 372-188Q307-241 185-241Q77-241 26.50-210.50Q-24-180-24-115Q-24-89-16-57L164-57Q158-81 158-91Q158-121 197-121Q222-121 234.50-107.50Q247-94 255-58L281 54Q228-11 149-11Q21-11 21 103Q21 136 34 191L75 365Q97 455 130.50 497Q164 539 241 539Q345 539 376 465L390 528L577 528M305 157L354 371Q357 383 357 391Q357 426 316 426Q277 426 265 377L215 164Q212 152 212 143Q212 110 252 110Q275 110 287 121Q299 132 305 157Z"  horiz-adv-x="521" vert-adv-y="1000"  />

      
      <glyph glyph-name="uni68" unicode="&#x68;" d="M160 706L348 706L295 475Q349 539 426 539Q483 539 516.50 511Q550 483 550 436Q550 408 539 359L456 0L266 0L351 370Q354 382 354 392Q354 422 323 422Q284 422 272 372L186 0L-3 0L160 706Z"  horiz-adv-x="521" vert-adv-y="1000"  />

      
      <glyph glyph-name="uni69" unicode="&#x69;" d="M349 706L320 580L131 580L160 706L349 706M307 528L186 0L-3 0L118 528L307 528Z"  horiz-adv-x="250" vert-adv-y="1000"  />

      
      <glyph glyph-name="uni6a" unicode="&#x6a;" d="M348 706L318 580L131 580L160 706L348 706M307 528L175-44Q155-133 123-161Q91-189-6-189L-105-189L-83-92L-78-92Q-43-92-32-83.50Q-21-75-12-37L118 528L307 528Z"  horiz-adv-x="250" vert-adv-y="1000"  />

      
      <glyph glyph-name="uni6b" unicode="&#x6b;" d="M588 528L403 288L489 0L295 0L238 254L179 0L-3 0L160 706L342 706L251 313L398 528L588 528Z"  horiz-adv-x="521" vert-adv-y="1000"  />

      
      <glyph glyph-name="uni6c" unicode="&#x6c;" d="M348 706L185 0L-3 0L160 706L348 706Z"  horiz-adv-x="250" vert-adv-y="1000"  />

      
      <glyph glyph-name="uni6d" unicode="&#x6d;" d="M119 528L308 528L295 475Q347 539 426 539Q511 539 547 471Q611 539 696 539Q754 539 787.50 511Q821 483 821 436Q821 413 809 359L726 0L537 0L622 370Q625 382 625 392Q625 422 593 422Q571 422 559 408Q547 394 539 359L456 0L266 0L351 370Q354 382 354 392Q354 422 323 422Q284 422 272 372L186 0L-3 0L119 528Z"  horiz-adv-x="791" vert-adv-y="1000"  />

      
      <glyph glyph-name="uni6e" unicode="&#x6e;" d="M119 528L308 528L295 475Q347 539 426 539Q483 539 516.50 511Q550 483 550 436Q550 408 539 359L456 0L266 0L351 370Q354 382 354 392Q354 422 323 422Q284 422 272 372L186 0L-3 0L119 528Z"  horiz-adv-x="521" vert-adv-y="1000"  />

      
      <glyph glyph-name="uni6f" unicode="&#x6f;" d="M532 313L501 173Q480 76 423 31Q366-14 249-14Q29-14 29 133Q29 163 41 217L72 356Q94 454 150 498.50Q206 543 324 543Q544 543 544 397Q544 367 532 313M311 160L357 364Q359 373 359 382Q359 419 317 419Q274 419 262 370L216 165Q214 158 214 147Q214 110 256 110Q300 110 311 160Z"  horiz-adv-x="521" vert-adv-y="1000"  />

      
      <glyph glyph-name="uni70" unicode="&#x70;" d="M118 528L306 528L292 467Q347 539 437 539Q494 539 525 513.50Q556 488 556 442Q556 415 542 354L495 150Q476 66 435.50 27.50Q395-11 324-11Q232-11 198 57L146-168L-43-168L118 528M308 153L358 372Q362 392 362 396Q362 427 325 427Q284 427 272 376L222 158Q219 143 219 134Q219 101 257 101Q278 101 289.50 113Q301 125 308 153Z"  horiz-adv-x="521" vert-adv-y="1000"  />

      
      <glyph glyph-name="uni71" unicode="&#x71;" d="M578 528L417-168L229-168L283 62Q233-14 143-14Q85-14 52 16Q19 46 19 99Q19 122 30 172L74 360Q96 456 135 497Q174 538 251 538Q343 538 376 464L390 528L578 528M303 150L354 371Q358 386 358 397Q358 430 319 430Q297 430 286 418.50Q275 407 266 371L217 160Q214 146 214 137Q214 120 224.50 110.50Q235 101 254 101Q274 101 285.50 112.50Q297 124 303 150Z"  horiz-adv-x="521" vert-adv-y="1000"  />

      
      <glyph glyph-name="uni72" unicode="&#x72;" d="M110 528L299 528L280 444Q301 485 331.50 506.50Q362 528 415 534L375 360Q361 361 345 361Q298 361 276 345Q254 329 243 282L178 0L-11 0L110 528Z"  horiz-adv-x="333" vert-adv-y="1000"  />

      
      <glyph glyph-name="uni73" unicode="&#x73;" d="M506 367L328 367Q336 396 336 412Q336 442 301 442Q279 442 267 428.50Q255 415 255 396Q255 388 257 381.50Q259 375 265 369Q271 363 274.50 360Q278 357 289 350.50Q300 344 304 341L350 311Q418 266 441 238.50Q464 211 464 166Q464 75 400.50 31Q337-13 206-13Q1-13 1 96Q1 115 12 163L200 163Q191 124 191 118Q191 86 229 86Q249 86 261 99Q273 112 273 133Q273 158 243 177L202 203Q131 249 100.50 282Q70 315 70 356Q70 444 128.50 493Q187 542 305 542Q519 542 519 435Q519 412 506 367Z"  horiz-adv-x="476" vert-adv-y="1000"  />

      
      <glyph glyph-name="uni74" unicode="&#x74;" d="M427 528L404 426L326 426L267 165Q262 145 262 137Q262 122 272.50 115.50Q283 109 308 109L342 109L318 0L193 0Q126 0 97.50 20.50Q69 41 69 88Q69 104 78 144L142 426L62 426L86 528L166 528L208 706L392 706L350 528L427 528Z"  horiz-adv-x="351" vert-adv-y="1000"  />

      
      <glyph glyph-name="uni75" unicode="&#x75;" d="M574 528L453 0L264 0L276 52Q222-12 145-12Q88-12 54.50 16Q21 44 21 91Q21 116 33 168L115 528L305 528L220 158Q217 145 217 135Q217 105 249 105Q287 105 299 155L385 528L574 528Z"  horiz-adv-x="521" vert-adv-y="1000"  />

      
      <glyph glyph-name="uni76" unicode="&#x76;" d="M566 528L320 0L94 0Q86 485 86 528L269 528L236 151L377 528L566 528Z"  horiz-adv-x="479" vert-adv-y="1000"  />

      
      <glyph glyph-name="uni77" unicode="&#x77;" d="M835 528L608 0L398 0L417 346L272 0L62 0L84 528L268 528L222 162L365 528L548 528L520 161L646 528L835 528Z"  horiz-adv-x="750" vert-adv-y="1000"  />

      
      <glyph glyph-name="uni78" unicode="&#x78;" d="M577 528L397 269L460 0L271 0L251 183L153 0L-33 0L150 269L95 528L278 528L289 356L389 528L577 528Z"  horiz-adv-x="500" vert-adv-y="1000"  />

      
      <glyph glyph-name="uni79" unicode="&#x79;" d="M396 528L586 528L285-55Q235-152 183.50-178Q132-204 15-204L-48-204L-16-87L8-87Q56-87 77.50-76Q99-65 119-31L87 528L269 528L261 208L396 528Z"  horiz-adv-x="500" vert-adv-y="1000"  />

      
      <glyph glyph-name="uni7a" unicode="&#x7a;" d="M508 528L483 421L225 109L428 109L403 0L-16 0L9 109L260 421L108 421L133 528L508 528Z"  horiz-adv-x="458" vert-adv-y="1000"  />

      
      <glyph glyph-name="uni7b" unicode="&#x7b;" d="M427 712L410 641L400 641Q375 641 359.50 626Q344 611 335 570L291 374Q276 309 251 284Q226 259 171 248Q239 229 239 170Q239 149 233 122L193-53Q183-99 183-113Q183-131 194-138.50Q205-146 230-148L214-217L162-217Q21-217 21-126Q21-104 29-69L71 110Q78 140 78 150Q78 177 66 190Q54 203 21 207L38 282Q83 288 102 307Q121 326 132 376L175 568Q193 647 237 679.50Q281 712 375 712L427 712Z"  horiz-adv-x="304" vert-adv-y="1000"  />

      
      <glyph glyph-name="uni7c" unicode="&#x7c;" d="M337 709L124-214L-40-214L173 709L337 709Z"  horiz-adv-x="247" vert-adv-y="1000"  />

      
      <glyph glyph-name="uni7d" unicode="&#x7d;" d="M-83-217L-66-146L-56-146Q-31-146-15.50-131Q0-116 9-75L53 121Q68 186 93 211Q118 236 173 247Q105 266 105 325Q105 346 111 373L151 548Q161 589 161 606Q161 624 151 633Q141 642 114 643L130 712L182 712Q323 712 323 621Q323 599 315 564L273 385Q266 355 266 345Q266 318 278 305Q290 292 323 288L306 212Q261 206 242 187.50Q223 169 212 119L169-73Q151-153 108-185Q65-217-31-217L-83-217Z"  horiz-adv-x="304" vert-adv-y="1000"  />

      
      <glyph glyph-name="uni7e" unicode="&#x7e;" d="M506 413L527 265Q451 196 392 196Q359 196 308 222L285 234Q242 256 215 256Q195 256 178.50 246.50Q162 237 129 208L120 200L99 349Q138 388 166.50 403.50Q195 419 231 419Q258 419 309 395L351 375Q386 358 405 358Q428 358 450 370Q472 382 506 413Z"  horiz-adv-x="559" vert-adv-y="1000"  />

      
      <glyph glyph-name="unia1" unicode="&#xa1;" d="M345 706L310 553L134 553L169 706L345 706M144 479L266 479L222 174L182 0L6 0L46 174L144 479Z"  horiz-adv-x="292" vert-adv-y="1000"  />

      
      <glyph glyph-name="unia2" unicode="&#xa2;" d="M523 324L343 324L353 366Q356 379 356 390Q356 421 322 421Q300 421 290 411Q280 401 272 364L227 170Q221 146 221 139Q221 109 256 109Q277 109 288.50 122Q300 135 306 162L313 191L500 191L484 125Q454 0 279-12L246-153L138-153L171-9Q34 13 34 129Q34 152 41 183L86 376Q105 459 153 496Q201 533 298 540L326 660L434 660L407 537Q539 516 539 420Q539 392 530 354L523 324Z"  horiz-adv-x="513" vert-adv-y="1000"  />

      
      <glyph glyph-name="unia3" unicode="&#xa3;" d="M632 236L619 179Q596 81 554 34.50Q512-12 445-12Q410-12 379-1Q348 10 294 41Q216-15 130-15Q73-15 39 14Q5 43 5 91Q5 144 44 178Q83 212 145 212Q178 212 216 198Q217 203 217 211Q217 240 199 298L69 298L93 406L169 406Q156 457 156 493Q156 601 221 660Q286 719 406 719Q626 719 626 581Q626 551 618 517L607 469L429 469L441 521Q446 544 446 555Q446 597 399 597Q335 597 335 508Q335 463 353 406L547 406L522 298L380 298Q387 258 387 232Q387 186 362 125Q382 120 394 120Q419 120 432.50 139Q446 158 457 205L464 236L632 236M188 108Q161 125 145 125Q128 125 117 116Q106 107 106 94Q106 72 135 72Q166 72 188 108Z"  horiz-adv-x="625" vert-adv-y="1000"  />

      
      <glyph glyph-name="unia4" unicode="&#xa4;" d="M760 555L669 473Q692 419 692 371Q692 273 639 194L714 110L585-4L510 81Q445 50 378 50Q299 50 235 91L144 9L42 126L133 207Q109 265 109 314Q109 399 161 481L88 565L216 678L289 596Q358 630 426 630Q497 630 566 588L658 671L760 555M514 351Q514 399 484.50 430.50Q455 462 410 462Q358 462 322.50 423Q287 384 287 328Q287 280 316.50 248.50Q346 217 391 217Q442 217 478 256Q514 295 514 351Z"  horiz-adv-x="720" vert-adv-y="1000"  />

      
      <glyph glyph-name="unia5" unicode="&#xa5;" d="M692 706L520 421L604 421L581 321L461 321L426 262L567 262L544 162L391 162L353 0L156 0L194 162L39 162L63 262L203 262L195 321L76 321L99 421L180 421L134 706L327 706L342 397L495 706L692 706Z"  horiz-adv-x="562" vert-adv-y="1000"  />

      
      <glyph glyph-name="unia6" unicode="&#xa6;" d="M353 779L259 378L96 378L189 779L353 779M233 257L140-144L-24-144L70 257L233 257Z"  horiz-adv-x="247" vert-adv-y="1000"  />

      
      <glyph glyph-name="unia7" unicode="&#xa7;" d="M525 637L442 539Q361 604 323 604Q309 604 300.50 596.50Q292 589 292 577Q292 560 332 530L400 480Q452 441 472 418Q492 395 492 361Q492 314 460.50 279.50Q429 245 376 235Q408 210 421.50 185.50Q435 161 435 129Q435 66 386.50 25.50Q338-15 254-15Q131-15 18 76L103 176Q161 130 188.50 114.50Q216 99 236 99Q270 99 270 130Q270 142 262 151Q254 160 228 180L160 230Q128 254 113 266.50Q98 279 83 302Q68 325 68 350Q68 446 185 475Q151 501 138 524Q125 547 125 579Q125 640 174 677.50Q223 715 303 715Q419 715 525 637M320 375L239 436Q193 422 193 389Q193 375 216 355Q265 313 322 274Q367 287 367 323Q367 334 358 343.50Q349 353 320 375Z"  horiz-adv-x="458" vert-adv-y="1000"  />

      
      <glyph glyph-name="unia8" unicode="&#xa8;" d="M366 695L338 573L164 573L192 695L366 695M125 695L98 573L-74 573L-46 695L125 695Z"  horiz-adv-x="292" vert-adv-y="1000"  />

      
      <glyph glyph-name="unia9" unicode="&#xa9;" d="M633 410L512 410L521 450Q524 462 524 467Q524 491 493 491Q474 491 466.50 483Q459 475 453 451L407 259Q404 244 404 239Q404 216 436 216Q453 216 461.50 224.50Q470 233 475 255L485 298L608 298L603 275Q584 189 545 157.50Q506 126 425 126Q282 126 282 229Q282 249 293 298L327 442Q346 522 385.50 553Q425 584 498 584Q570 584 608.50 558.50Q647 533 647 486Q647 467 643 451L633 410M819 354Q819 203 716 100Q613-3 462-3Q314-3 210.50 101Q107 205 107 353Q107 502 210.50 605.50Q314 709 463 709Q612 709 715.50 606Q819 503 819 354M763 352Q763 482 676 571.50Q589 661 462 661Q338 661 250.50 570.50Q163 480 163 352Q163 224 250 134.50Q337 45 462 45Q587 45 675 134.50Q763 224 763 352Z"  horiz-adv-x="833" vert-adv-y="1000"  />

      
      <glyph glyph-name="uniaa" unicode="&#xaa;" d="M246 591L133 591L139 617Q153 675 187 699Q221 723 290 723Q361 723 394.50 702Q428 681 428 636Q428 615 420 580L380 406Q377 396 377 383Q377 372 386 360L248 360L254 389Q219 351 165 351Q86 351 86 417Q86 470 108 510Q130 549 226 567Q280 577 299 587L303 607Q305 617 305 621Q305 641 281 641Q257 641 250 610L246 591M285 525L242 510Q225 504 218 484Q211 464 211 449Q211 426 233 426Q249 426 257.50 434.50Q266 443 271 465L285 525Z"  horiz-adv-x="355" vert-adv-y="1000"  />

      
      <glyph glyph-name="uniab" unicode="&#xab;" d="M436 502L400 342L326 292L376 242L342 93L212 225L245 365L436 502M253 500L216 340L144 292L193 242L159 95L31 224L65 371L253 500Z"  horiz-adv-x="375" vert-adv-y="1000"  />

      
      <glyph glyph-name="uniac" unicode="&#xac;" d="M529 374L455 43L268 43L310 229L71 229L104 374L529 374Z"  horiz-adv-x="559" vert-adv-y="1000"  />

      
      <glyph glyph-name="uniad" unicode="&#xad;" d="M381 369L350 232L48 232L79 369L381 369Z"  horiz-adv-x="361" vert-adv-y="1000"  />

      
      <glyph glyph-name="uniae" unicode="&#xae;" d="M107 355Q107 503 210.50 606Q314 709 463 709Q613 709 716 605.50Q819 502 819 351Q819 202 715 99.50Q611-3 462-3Q313-3 210 101Q107 205 107 355M139 353Q139 218 234 123.50Q329 29 463 29Q597 29 692 123.50Q787 218 787 351Q787 488 693.50 582.50Q600 677 464 677Q328 677 234 582.50Q140 488 139 353M388 127L257 127L363 585L563 585Q612 585 638 562Q664 539 664 496Q664 386 560 363Q592 357 606 341.50Q620 326 620 297Q620 277 614 252L599 186Q595 166 595 158Q595 142 604 127L472 127Q467 143 467 155Q467 174 472 194L491 278Q493 288 493 293Q493 305 486 309.50Q479 314 460 314L431 314L388 127M473 495L451 401L483 401Q508 401 515.50 407.50Q523 414 528 435Q535 461 535 473Q535 495 502 495L473 495Z"  horiz-adv-x="833" vert-adv-y="1000"  />

      
      <glyph glyph-name="uniaf" unicode="&#xaf;" d="M325 692L304 598L-33 598L-12 692L325 692Z"  horiz-adv-x="292" vert-adv-y="1000"  />

      
      <glyph glyph-name="unib0" unicode="&#xb0;" d="M443 572Q443 501 393 450.50Q343 400 272 400Q200 400 149.50 450.50Q99 501 99 573Q99 644 149 694.50Q199 745 269 745Q343 745 393 695.50Q443 646 443 572M311 535.50Q311 535.50 319 543.75Q327 552 327 575Q327 598 310.50 614Q294 630 272 630Q249 630 232.50 614Q216 598 216 575Q216 552 232.50 535.50Q249 519 272 519Q295 519 311 535.50Z"  horiz-adv-x="356" vert-adv-y="1000"  />

      
      <glyph glyph-name="unib1" unicode="&#xb1;" d="M556 494L523 347L417 347L385 210L202 210L233 347L125 347L159 494L267 494L299 630L482 630L451 494L556 494M476 147L443 0L44 0L78 147L476 147Z"  horiz-adv-x="559" vert-adv-y="1000"  />

      
      <glyph glyph-name="unib2" unicode="&#xb2;" d="M111 532L126 596Q140 657 176.50 684.50Q213 712 292 712Q365 712 397 689Q429 666 429 614Q429 559 399 519Q369 479 276 416Q227 382 213 355L377 355L356 265L50 265L59 302Q71 354 96 386.50Q121 419 198 475L258 518Q309 555 309 610Q309 636 280 636Q260 636 251 624.50Q242 613 235 578L225 532L111 532Z"  horiz-adv-x="354" vert-adv-y="1000"  />

      
      <glyph glyph-name="unib3" unicode="&#xb3;" d="M186 449L207 539L256 539Q281 539 290 545.50Q299 552 304 573Q310 600 310 608Q310 632 277 632Q255 632 247.50 619.50Q240 607 234 570L123 570L131 604Q145 661 182.50 686.50Q220 712 290 712Q430 712 430 620Q430 577 412 542.50Q394 508 358 498Q390 483 390 448Q390 433 385 410L378 379Q362 310 326.50 283.50Q291 257 213 257Q72 257 72 346Q72 377 82 415L198 415L193 395Q187 374 187 359Q187 337 217 337Q237 337 245 345Q253 353 258 375L264 401Q267 416 267 424Q267 439 258 444Q249 449 226 449L186 449Z"  horiz-adv-x="354" vert-adv-y="1000"  />

      
      <glyph glyph-name="unib4" unicode="&#xb4;" d="M297 696L145 572L-5 572L93 696L297 696Z"  horiz-adv-x="292" vert-adv-y="1000"  />

      
      <glyph glyph-name="unib5" unicode="&#xb5;" d="M584 528L479 68Q475 48 475 34Q475 16 487 0L295 0L302 62Q287 24 271 8Q255-8 233-8Q204-8 194 16L154-167L-35-167L126 528L316 528L230 162Q227 148 227 139Q227 109 259 109Q299 109 310 159L395 528L584 528Z"  horiz-adv-x="536" vert-adv-y="1000"  />

      
      <glyph glyph-name="unib6" unicode="&#xb6;" d="M639 706L616 612L581 612L402-167L299-167L478 612L402 612L223-167L118-167L227 301Q114 355 114 478Q114 535 139 584Q164 633 209 663Q274 706 407 706L639 706Z"  horiz-adv-x="580" vert-adv-y="1000"  />

      
      <glyph glyph-name="unib7" unicode="&#xb7;" d="M266 387L228 223L54 223L92 387L266 387Z"  horiz-adv-x="250" vert-adv-y="1000"  />

      
      <glyph glyph-name="unib8" unicode="&#xb8;" d="M142 20L229 20L178-40Q257-41 257-101Q257-148 212.50-179Q168-210 101-210Q72-210 42-204L35-151Q55-161 76-161Q98-161 112-149.50Q126-138 126-120Q126-91 92-91Q74-91 54-103L41-59L142 20Z"  horiz-adv-x="292" vert-adv-y="1000"  />

      
      <glyph glyph-name="unib9" unicode="&#xb9;" d="M377 706L275 265L156 265L229 582Q200 566 155 559L175 645Q229 658 258 706L377 706Z"  horiz-adv-x="354" vert-adv-y="1000"  />

      
      <glyph glyph-name="uniba" unicode="&#xba;" d="M429 569L407 476Q392 412 354.50 382.50Q317 353 239 353Q172 353 135.50 379.50Q99 406 99 455Q99 473 107 508L129 601Q144 665 181.50 694.50Q219 724 300 724Q366 724 401.50 697.50Q437 671 437 621Q437 603 429 569M280 471L312 603Q314 611 314 614Q314 637 289 637Q262 637 255 605L224 474Q222 466 222 462Q222 440 247 440Q273 440 280 471Z"  horiz-adv-x="355" vert-adv-y="1000"  />

      
      <glyph glyph-name="unibb" unicode="&#xbb;" d="M412 370L378 223L191 94L227 254L299 302L250 352L284 499L412 370M231 369L199 229L7 92L44 252L117 302L67 352L102 501L231 369Z"  horiz-adv-x="375" vert-adv-y="1000"  />

      
      <glyph glyph-name="unibc" unicode="&#xbc;" d="M676 706L312 0L216 0L580 706L676 706M377 706L275 265L156 265L229 582Q200 566 155 559L175 645Q229 658 258 706L377 706M802 442L741 179L792 179L771 88L720 88L700 0L584 0L604 88L453 88L474 179L671 442L802 442M656 312L558 179L625 179L656 312Z"  horiz-adv-x="833" vert-adv-y="1000"  />

      
      <glyph glyph-name="unibd" unicode="&#xbd;" d="M657 706L294 0L198 0L561 706L657 706M367 706L265 265L146 265L219 582Q190 566 145 559L165 645Q219 658 248 706L367 706M513 267L528 331Q542 392 578.50 419.50Q615 447 694 447Q767 447 799 424Q831 401 831 349Q831 294 801 254Q771 214 678 151Q629 117 615 90L779 90L758 0L452 0L461 37Q473 89 498 121.50Q523 154 600 210L660 253Q711 290 711 345Q711 371 682 371Q662 371 653 359.50Q644 348 637 313L627 267L513 267Z"  horiz-adv-x="833" vert-adv-y="1000"  />

      
      <glyph glyph-name="unibe" unicode="&#xbe;" d="M827 442L766 179L817 179L796 88L745 88L725 0L609 0L629 88L478 88L499 179L696 442L827 442M711 706L347 0L251 0L615 706L711 706M681 312L583 179L650 179L681 312M189 449L210 539L259 539Q284 539 293 545.50Q302 552 307 573Q313 600 313 608Q313 632 280 632Q258 632 250.50 619.50Q243 607 237 570L126 570L134 604Q148 661 185.50 686.50Q223 712 293 712Q433 712 433 620Q433 577 415 542.50Q397 508 361 498Q393 483 393 448Q393 433 388 410L381 379Q365 310 329.50 283.50Q294 257 216 257Q75 257 75 346Q75 377 85 415L201 415L196 395Q190 374 190 359Q190 337 220 337Q240 337 248 345Q256 353 261 375L267 401Q270 416 270 424Q270 439 261 444Q252 449 229 449L189 449Z"  horiz-adv-x="833" vert-adv-y="1000"  />

      
      <glyph glyph-name="unibf" unicode="&#xbf;" d="M270 480L444 480Q429 402 406 360Q383 318 325 281L254 235Q210 207 193 184.50Q176 162 176 136Q176 102 210 102Q234 102 245 119Q256 136 265 182L420 182Q405 82 350.50 38Q296-6 188-6Q15-6 15 120Q15 225 112 295L195 354Q235 382 247.50 403Q260 424 270 480M282 556L317 706L491 706L456 556L282 556Z"  horiz-adv-x="479" vert-adv-y="1000"  />

      
      <glyph glyph-name="unic0" unicode="&#xc0;" d="M-37 0L284 706L522 706L525 0L333 0L346 159L225 159L166 0L-37 0M271 285L356 285L377 568L271 285M496 765L346 765L232 876L423 876L496 765Z"  horiz-adv-x="562" vert-adv-y="1000"  />

      
      <glyph glyph-name="unic1" unicode="&#xc1;" d="M-37 0L284 706L522 706L525 0L333 0L346 159L225 159L166 0L-37 0M271 285L356 285L377 568L271 285M585 876L462 764L313 764L394 876L585 876Z"  horiz-adv-x="562" vert-adv-y="1000"  />

      
      <glyph glyph-name="unic2" unicode="&#xc2;" d="M-37 0L284 706L522 706L525 0L333 0L346 159L225 159L166 0L-37 0M271 285L356 285L377 568L271 285M577 758L433 758L412 803L376 758L223 758L322 867L524 867L577 758Z"  horiz-adv-x="562" vert-adv-y="1000"  />

      
      <glyph glyph-name="unic3" unicode="&#xc3;" d="M-37 0L284 706L522 706L525 0L333 0L346 159L225 159L166 0L-37 0M271 285L356 285L377 568L271 285M533 861L588 861Q576 810 559 788Q525 741 461 741Q438 741 393 758Q348 775 330 775Q310 775 296 746L238 746Q248 802 281 833Q314 864 363 864Q388 864 436 848Q484 832 498 832Q522 832 533 861Z"  horiz-adv-x="562" vert-adv-y="1000"  />

      
      <glyph glyph-name="unic4" unicode="&#xc4;" d="M-37 0L284 706L522 706L525 0L333 0L346 159L225 159L166 0L-37 0M271 285L356 285L377 568L271 285M624 870L605 760L440 760L459 870L624 870M389 870L370 760L204 760L223 870L389 870Z"  horiz-adv-x="562" vert-adv-y="1000"  />

      
      <glyph glyph-name="unic5" unicode="&#xc5;" d="M-37 0L284 706L522 706L525 0L333 0L346 159L225 159L166 0L-37 0M271 285L356 285L377 568L271 285M506 827Q506 786 476 755.50Q446 725 405 725Q362 725 331.50 755Q301 785 301 828Q301 870 331 900Q361 930 404 930Q446 930 476 900Q506 870 506 827M426.50 805Q426.50 805 431.25 810Q436 815 436 828Q436 841 426.50 850.50Q417 860 404 860Q390 860 381 851Q372 842 372 828Q372 814 381 804.50Q390 795 404 795Q417 795 426.50 805Z"  horiz-adv-x="562" vert-adv-y="1000"  />

      
      <glyph glyph-name="unic6" unicode="&#xc6;" d="M890 706L859 571L684 571L650 424L818 424L788 290L619 290L583 133L781 133L750 0L360 0L404 189L266 189L161 0L-39 0L381 706L890 706M499 600L338 315L433 315L499 600Z"  horiz-adv-x="797" vert-adv-y="1000"  />

      
      <glyph glyph-name="unic7" unicode="&#xc7;" d="M590 446L395 446L410 511Q414 530 414 544Q414 579 369 579Q339 579 328 564Q317 549 306 501L235 197Q230 176 230 162Q230 126 277 126Q303 126 315.50 140Q328 154 336 191L352 261L549 261L541 223Q515 100 468 53Q412-4 296-12L272-40Q351-41 351-101Q351-148 306.50-179Q262-210 195-210Q166-210 136-204L129-151Q149-161 170-161Q192-161 206-149.50Q220-138 220-120Q220-91 186-91Q167-91 147-103L134-59L198-10Q33 8 33 143Q33 181 52 262L107 498Q136 624 196 672Q256 720 381 720Q612 720 612 572Q612 541 605 513L590 446Z"  horiz-adv-x="542" vert-adv-y="1000"  />

      
      <glyph glyph-name="unic8" unicode="&#xc8;" d="M549 706L517 569L330 569L297 426L470 426L439 291L266 291L230 136L417 136L386 0L0 0L163 706L549 706M446 765L296 765L182 876L373 876L446 765Z"  horiz-adv-x="437" vert-adv-y="1000"  />

      
      <glyph glyph-name="unic9" unicode="&#xc9;" d="M549 706L517 569L330 569L297 426L470 426L439 291L266 291L230 136L417 136L386 0L0 0L163 706L549 706M535 876L412 764L263 764L344 876L535 876Z"  horiz-adv-x="437" vert-adv-y="1000"  />

      
      <glyph glyph-name="unica" unicode="&#xca;" d="M549 706L517 569L330 569L297 426L470 426L439 291L266 291L230 136L417 136L386 0L0 0L163 706L549 706M535 758L391 758L370 803L334 758L181 758L280 867L482 867L535 758Z"  horiz-adv-x="437" vert-adv-y="1000"  />

      
      <glyph glyph-name="unicb" unicode="&#xcb;" d="M549 706L517 569L330 569L297 426L470 426L439 291L266 291L230 136L417 136L386 0L0 0L163 706L549 706M584 870L565 760L400 760L419 870L584 870M349 870L330 760L164 760L183 870L349 870Z"  horiz-adv-x="437" vert-adv-y="1000"  />

      
      <glyph glyph-name="unicc" unicode="&#xcc;" d="M363 706L200 0L0 0L163 706L363 706M360 765L210 765L96 876L287 876L360 765Z"  horiz-adv-x="271" vert-adv-y="1000"  />

      
      <glyph glyph-name="unicd" unicode="&#xcd;" d="M363 706L200 0L0 0L163 706L363 706M445 876L322 764L173 764L254 876L445 876Z"  horiz-adv-x="271" vert-adv-y="1000"  />

      
      <glyph glyph-name="unice" unicode="&#xce;" d="M363 706L200 0L0 0L163 706L363 706M441 758L297 758L276 803L240 758L87 758L186 867L388 867L441 758Z"  horiz-adv-x="271" vert-adv-y="1000"  />

      
      <glyph glyph-name="unicf" unicode="&#xcf;" d="M363 706L200 0L0 0L163 706L363 706M489 870L470 760L305 760L324 870L489 870M254 870L235 760L69 760L88 870L254 870Z"  horiz-adv-x="271" vert-adv-y="1000"  />

      
      <glyph glyph-name="unid0" unicode="&#xd0;" d="M163 706L418 706Q511 706 565 668.50Q619 631 619 552Q619 520 604 455L551 227Q519 89 462.50 44.50Q406 0 268 0L0 0L77 334L43 334L67 435L101 435L163 706M331 570L300 435L361 435L338 334L277 334L230 132L258 132Q306 132 320.50 142.50Q335 153 346 200L415 499Q419 517 419 527Q419 570 361 570L331 570Z"  horiz-adv-x="562" vert-adv-y="1000"  />

      
      <glyph glyph-name="unid1" unicode="&#xd1;" d="M652 706L489 0L302 0L266 448L166 0L0 0L163 706L346 706L384 253L486 706L652 706M549 861L604 861Q592 810 575 788Q541 741 477 741Q454 741 409 758Q364 775 346 775Q326 775 312 746L254 746Q264 802 297 833Q330 864 379 864Q404 864 452 848Q500 832 514 832Q538 832 549 861Z"  horiz-adv-x="562" vert-adv-y="1000"  />

      
      <glyph glyph-name="unid2" unicode="&#xd2;" d="M601 453L547 220Q537 178 529.50 153Q522 128 502 93Q482 58 455.50 38.50Q429 19 382.50 4.50Q336-10 274-10Q229-10 189.50-2.50Q150 5 114 22Q78 39 57 71.50Q36 104 36 149Q36 190 51 254L110 509Q136 622 197.50 669.50Q259 717 378 717Q616 717 616 555Q616 520 601 453M339 187L415 518Q419 534 419 544Q419 583 373 583Q344 583 331.50 566.50Q319 550 308 503L236 190Q232 174 232 163Q232 145 244.50 134.50Q257 124 279 124Q303 124 316.50 135.50Q330 147 339 187M486 765L336 765L222 876L413 876L486 765Z"  horiz-adv-x="562" vert-adv-y="1000"  />

      
      <glyph glyph-name="unid3" unicode="&#xd3;" d="M601 453L547 220Q537 178 529.50 153Q522 128 502 93Q482 58 455.50 38.50Q429 19 382.50 4.50Q336-10 274-10Q229-10 189.50-2.50Q150 5 114 22Q78 39 57 71.50Q36 104 36 149Q36 190 51 254L110 509Q136 622 197.50 669.50Q259 717 378 717Q616 717 616 555Q616 520 601 453M339 187L415 518Q419 534 419 544Q419 583 373 583Q344 583 331.50 566.50Q319 550 308 503L236 190Q232 174 232 163Q232 145 244.50 134.50Q257 124 279 124Q303 124 316.50 135.50Q330 147 339 187M573 876L450 764L301 764L382 876L573 876Z"  horiz-adv-x="562" vert-adv-y="1000"  />

      
      <glyph glyph-name="unid4" unicode="&#xd4;" d="M601 453L547 220Q537 178 529.50 153Q522 128 502 93Q482 58 455.50 38.50Q429 19 382.50 4.50Q336-10 274-10Q229-10 189.50-2.50Q150 5 114 22Q78 39 57 71.50Q36 104 36 149Q36 190 51 254L110 509Q136 622 197.50 669.50Q259 717 378 717Q616 717 616 555Q616 520 601 453M339 187L415 518Q419 534 419 544Q419 583 373 583Q344 583 331.50 566.50Q319 550 308 503L236 190Q232 174 232 163Q232 145 244.50 134.50Q257 124 279 124Q303 124 316.50 135.50Q330 147 339 187M571 758L427 758L406 803L370 758L217 758L316 867L518 867L571 758Z"  horiz-adv-x="562" vert-adv-y="1000"  />

      
      <glyph glyph-name="unid5" unicode="&#xd5;" d="M601 453L547 220Q537 178 529.50 153Q522 128 502 93Q482 58 455.50 38.50Q429 19 382.50 4.50Q336-10 274-10Q229-10 189.50-2.50Q150 5 114 22Q78 39 57 71.50Q36 104 36 149Q36 190 51 254L110 509Q136 622 197.50 669.50Q259 717 378 717Q616 717 616 555Q616 520 601 453M339 187L415 518Q419 534 419 544Q419 583 373 583Q344 583 331.50 566.50Q319 550 308 503L236 190Q232 174 232 163Q232 145 244.50 134.50Q257 124 279 124Q303 124 316.50 135.50Q330 147 339 187M536 861L591 861Q579 810 562 788Q528 741 464 741Q441 741 396 758Q351 775 333 775Q313 775 299 746L241 746Q251 802 284 833Q317 864 366 864Q391 864 439 848Q487 832 501 832Q525 832 536 861Z"  horiz-adv-x="562" vert-adv-y="1000"  />

      
      <glyph glyph-name="unid6" unicode="&#xd6;" d="M601 453L547 220Q537 178 529.50 153Q522 128 502 93Q482 58 455.50 38.50Q429 19 382.50 4.50Q336-10 274-10Q229-10 189.50-2.50Q150 5 114 22Q78 39 57 71.50Q36 104 36 149Q36 190 51 254L110 509Q136 622 197.50 669.50Q259 717 378 717Q616 717 616 555Q616 520 601 453M339 187L415 518Q419 534 419 544Q419 583 373 583Q344 583 331.50 566.50Q319 550 308 503L236 190Q232 174 232 163Q232 145 244.50 134.50Q257 124 279 124Q303 124 316.50 135.50Q330 147 339 187M614 870L595 760L430 760L449 870L614 870M379 870L360 760L194 760L213 870L379 870Z"  horiz-adv-x="562" vert-adv-y="1000"  />

      
      <glyph glyph-name="unid7" unicode="&#xd7;" d="M505 196L387 97L307 193L204 97L104 213L210 310L129 410L250 508L324 415L427 509L529 395L423 297L505 196Z"  horiz-adv-x="558" vert-adv-y="1000"  />

      
      <glyph glyph-name="unid8" unicode="&#xd8;" d="M659 655L609 604Q616 577 616 553Q616 518 601 453L547 220Q517 87 450 39Q383-9 264-9Q136-9 68 60L26 19L-22 67L38 128Q36 137 36 155Q36 190 51 254L105 487Q135 616 199 666.50Q263 717 388 717Q496 717 569 662L609 703L659 655M275 365L415 506Q421 535 421 546Q421 586 373 586Q347 586 331.50 573.50Q316 561 308 522L275 365M387 381L247 240Q231 170 231 160Q231 121 280 121Q308 121 322.50 134Q337 147 345 185L387 381Z"  horiz-adv-x="562" vert-adv-y="1000"  />

      
      <glyph glyph-name="unid9" unicode="&#xd9;" d="M656 706L532 165Q510 70 445 30.50Q380-9 262-9Q153-9 94.50 31Q36 71 36 146Q36 174 49 231L159 706L357 706L239 196Q234 176 234 167Q234 131 281 131Q306 131 319 144Q332 157 339 191L458 706L656 706M505 765L355 765L241 876L432 876L505 765Z"  horiz-adv-x="562" vert-adv-y="1000"  />

      
      <glyph glyph-name="unida" unicode="&#xda;" d="M656 706L532 165Q510 70 445 30.50Q380-9 262-9Q153-9 94.50 31Q36 71 36 146Q36 174 49 231L159 706L357 706L239 196Q234 176 234 167Q234 131 281 131Q306 131 319 144Q332 157 339 191L458 706L656 706M589 876L466 764L317 764L398 876L589 876Z"  horiz-adv-x="562" vert-adv-y="1000"  />

      
      <glyph glyph-name="unidb" unicode="&#xdb;" d="M656 706L532 165Q510 70 445 30.50Q380-9 262-9Q153-9 94.50 31Q36 71 36 146Q36 174 49 231L159 706L357 706L239 196Q234 176 234 167Q234 131 281 131Q306 131 319 144Q332 157 339 191L458 706L656 706M585 758L441 758L420 803L384 758L231 758L330 867L532 867L585 758Z"  horiz-adv-x="562" vert-adv-y="1000"  />

      
      <glyph glyph-name="unidc" unicode="&#xdc;" d="M656 706L532 165Q510 70 445 30.50Q380-9 262-9Q153-9 94.50 31Q36 71 36 146Q36 174 49 231L159 706L357 706L239 196Q234 176 234 167Q234 131 281 131Q306 131 319 144Q332 157 339 191L458 706L656 706M634 870L615 760L450 760L469 870L634 870M399 870L380 760L214 760L233 870L399 870Z"  horiz-adv-x="562" vert-adv-y="1000"  />

      
      <glyph glyph-name="unidd" unicode="&#xdd;" d="M687 706L401 227L348 0L151 0L204 227L129 706L322 706L336 400L490 706L687 706M598 876L475 764L326 764L407 876L598 876Z"  horiz-adv-x="562" vert-adv-y="1000"  />

      
      <glyph glyph-name="unide" unicode="&#xde;" d="M163 706L360 706L333 586L410 586Q494 586 540 557.50Q586 529 586 452Q586 420 574 364Q543 226 487 180.50Q431 135 306 135L229 135L198 0L0 0L163 706M302 451L260 270L298 270Q336 270 350.50 281Q365 292 373 327L388 390Q391 403 391 415Q391 435 380 443Q369 451 342 451L302 451Z"  horiz-adv-x="542" vert-adv-y="1000"  />

      
      <glyph glyph-name="unidf" unicode="&#xdf;" d="M185 0L-3 0L125 554Q145 641 200.50 679.50Q256 718 372 718Q583 718 583 589Q583 532 556 460Q545 431 526 415Q507 399 473 392Q508 379 523 361.50Q538 344 538 315Q538 290 529 254L497 120Q481 53 437 24.50Q393-4 304-4Q266-4 221 1L239 77L257 77Q289 77 300.50 90.50Q312 104 325 156L352 269Q358 291 358 308Q358 325 346.50 332.50Q335 340 307 340L299 340L325 449Q357 449 368.50 457.50Q380 466 386 492Q402 561 402 577Q402 607 364 607Q341 607 330.50 595.50Q320 584 312 548L185 0Z"  horiz-adv-x="521" vert-adv-y="1000"  />

      
      <glyph glyph-name="unie0" unicode="&#xe0;" d="M259 345L84 345L93 384Q113 470 166.50 506.50Q220 543 327 543Q437 543 488.50 511.50Q540 480 540 412Q540 385 527 329L466 68Q462 48 462 34Q462 16 475 0L262 0L272 43Q242 12 210.50-1Q179-14 134-14Q75-14 43.50 12Q12 38 12 85Q12 121 22 161.50Q32 202 47 225Q60 245 70 255Q80 265 118.50 280Q157 295 228 310Q311 327 340 340L347 369Q350 384 350 391Q350 420 314 420Q277 420 266 373L259 345M320 253L256 230Q226 219 215 187.50Q204 156 204 129Q204 92 239 92Q261 92 275.50 105Q290 118 298 156L320 253M447 572L296 572L187 696L388 696L447 572Z"  horiz-adv-x="518" vert-adv-y="1000"  />

      
      <glyph glyph-name="unie1" unicode="&#xe1;" d="M259 345L84 345L93 384Q113 470 166.50 506.50Q220 543 327 543Q437 543 488.50 511.50Q540 480 540 412Q540 385 527 329L466 68Q462 48 462 34Q462 16 475 0L262 0L272 43Q242 12 210.50-1Q179-14 134-14Q75-14 43.50 12Q12 38 12 85Q12 121 22 161.50Q32 202 47 225Q60 245 70 255Q80 265 118.50 280Q157 295 228 310Q311 327 340 340L347 369Q350 384 350 391Q350 420 314 420Q277 420 266 373L259 345M320 253L256 230Q226 219 215 187.50Q204 156 204 129Q204 92 239 92Q261 92 275.50 105Q290 118 298 156L320 253M554 696L402 572L252 572L350 696L554 696Z"  horiz-adv-x="518" vert-adv-y="1000"  />

      
      <glyph glyph-name="unie2" unicode="&#xe2;" d="M259 345L84 345L93 384Q113 470 166.50 506.50Q220 543 327 543Q437 543 488.50 511.50Q540 480 540 412Q540 385 527 329L466 68Q462 48 462 34Q462 16 475 0L262 0L272 43Q242 12 210.50-1Q179-14 134-14Q75-14 43.50 12Q12 38 12 85Q12 121 22 161.50Q32 202 47 225Q60 245 70 255Q80 265 118.50 280Q157 295 228 310Q311 327 340 340L347 369Q350 384 350 391Q350 420 314 420Q277 420 266 373L259 345M320 253L256 230Q226 219 215 187.50Q204 156 204 129Q204 92 239 92Q261 92 275.50 105Q290 118 298 156L320 253M526 574L385 574L360 631L308 574L158 574L277 696L465 696L526 574Z"  horiz-adv-x="518" vert-adv-y="1000"  />

      
      <glyph glyph-name="unie3" unicode="&#xe3;" d="M259 345L84 345L93 384Q113 470 166.50 506.50Q220 543 327 543Q437 543 488.50 511.50Q540 480 540 412Q540 385 527 329L466 68Q462 48 462 34Q462 16 475 0L262 0L272 43Q242 12 210.50-1Q179-14 134-14Q75-14 43.50 12Q12 38 12 85Q12 121 22 161.50Q32 202 47 225Q60 245 70 255Q80 265 118.50 280Q157 295 228 310Q311 327 340 340L347 369Q350 384 350 391Q350 420 314 420Q277 420 266 373L259 345M320 253L256 230Q226 219 215 187.50Q204 156 204 129Q204 92 239 92Q261 92 275.50 105Q290 118 298 156L320 253M470 694L530 694Q520 637 488.50 605Q457 573 410 573Q390 573 375.50 577Q361 581 316 599Q290 609 277 609Q249 609 242 578L180 578Q211 695 303 695Q329 695 375 677Q416 662 432 662Q462 662 470 694Z"  horiz-adv-x="518" vert-adv-y="1000"  />

      
      <glyph glyph-name="unie4" unicode="&#xe4;" d="M259 345L84 345L93 384Q113 470 166.50 506.50Q220 543 327 543Q437 543 488.50 511.50Q540 480 540 412Q540 385 527 329L466 68Q462 48 462 34Q462 16 475 0L262 0L272 43Q242 12 210.50-1Q179-14 134-14Q75-14 43.50 12Q12 38 12 85Q12 121 22 161.50Q32 202 47 225Q60 245 70 255Q80 265 118.50 280Q157 295 228 310Q311 327 340 340L347 369Q350 384 350 391Q350 420 314 420Q277 420 266 373L259 345M320 253L256 230Q226 219 215 187.50Q204 156 204 129Q204 92 239 92Q261 92 275.50 105Q290 118 298 156L320 253M577 695L549 573L375 573L403 695L577 695M336 695L309 573L137 573L165 695L336 695Z"  horiz-adv-x="518" vert-adv-y="1000"  />

      
      <glyph glyph-name="unie5" unicode="&#xe5;" d="M259 345L84 345L93 384Q113 470 166.50 506.50Q220 543 327 543Q437 543 488.50 511.50Q540 480 540 412Q540 385 527 329L466 68Q462 48 462 34Q462 16 475 0L262 0L272 43Q242 12 210.50-1Q179-14 134-14Q75-14 43.50 12Q12 38 12 85Q12 121 22 161.50Q32 202 47 225Q60 245 70 255Q80 265 118.50 280Q157 295 228 310Q311 327 340 340L347 369Q350 384 350 391Q350 420 314 420Q277 420 266 373L259 345M320 253L256 230Q226 219 215 187.50Q204 156 204 129Q204 92 239 92Q261 92 275.50 105Q290 118 298 156L320 253M431 742.50Q431 742.50 445.50 727.75Q460 713 460 670Q460 627 430.50 597Q401 567 360 567Q316 567 286.50 596.50Q257 626 257 670Q257 712 286.50 742Q316 772 359 772Q402 772 431 742.50M381 646.50Q381 646.50 385.50 651.25Q390 656 390 670Q390 684 381 693Q372 702 359 702Q346 702 336 692Q326 682 326 669Q326 655 335 646Q344 637 358 637Q372 637 381 646.50Z"  horiz-adv-x="518" vert-adv-y="1000"  />

      
      <glyph glyph-name="unie6" unicode="&#xe6;" d="M500 236L483 167Q478 146 478 138Q478 107 517 107Q538 107 549 118Q560 129 567 158L573 184L753 184L746 155Q723 62 669 24Q615-14 504-14Q433-14 390.50 0.50Q348 15 314 51Q250-12 158-12Q14-12 14 103Q14 184 43 228Q63 258 104 275Q145 292 228 309Q298 323 340 340L347 369Q350 384 350 391Q350 420 314 420Q277 420 266 373L259 345L84 345L93 384Q112 469 166 506Q220 543 324 543Q399 543 458 517Q517 542 585 542Q688 542 743 506.50Q798 471 798 405Q798 372 790 341L765 236L500 236M519 321L608 321L622 381Q624 388 624 399Q624 431 584 431Q545 431 535 389L519 321M320 253L257 230Q205 212 205 132Q205 92 241 92Q262 92 276 105.50Q290 119 298 156L320 253Z"  horiz-adv-x="761" vert-adv-y="1000"  />

      
      <glyph glyph-name="unie7" unicode="&#xe7;" d="M334 324L344 366Q347 379 347 390Q347 421 313 421Q291 421 281.50 411Q272 401 263 364L217 170Q212 147 212 139Q212 109 247 109Q286 109 297 162L303 191L490 191L475 129Q444 3 280-11L255-40Q334-41 334-101Q334-148 289.50-179Q245-210 178-210Q149-210 119-204L112-151Q132-161 153-161Q175-161 189-149.50Q203-138 203-120Q203-91 169-91Q151-91 131-103L118-59L180-10Q105-7 65 31.50Q25 70 25 129Q25 152 32 183L77 376Q98 468 157 504.50Q216 541 330 541Q530 541 530 420Q530 392 521 354L514 324L334 324Z"  horiz-adv-x="500" vert-adv-y="1000"  />

      
      <glyph glyph-name="unie8" unicode="&#xe8;" d="M496 236L231 236L214 167Q209 146 209 138Q209 107 248 107Q269 107 280 118Q291 129 298 158L304 184L484 184L477 155Q454 62 401 24.50Q348-13 236-13Q23-13 23 120Q23 158 34 205L69 352Q94 457 148.50 499.50Q203 542 314 542Q529 542 529 405Q529 372 521 341L496 236M250 321L339 321L353 381Q355 389 355 399Q355 431 315 431Q276 431 266 389L250 321M440 572L289 572L180 696L381 696L440 572Z"  horiz-adv-x="496" vert-adv-y="1000"  />

      
      <glyph glyph-name="unie9" unicode="&#xe9;" d="M496 236L231 236L214 167Q209 146 209 138Q209 107 248 107Q269 107 280 118Q291 129 298 158L304 184L484 184L477 155Q454 62 401 24.50Q348-13 236-13Q23-13 23 120Q23 158 34 205L69 352Q94 457 148.50 499.50Q203 542 314 542Q529 542 529 405Q529 372 521 341L496 236M250 321L339 321L353 381Q355 389 355 399Q355 431 315 431Q276 431 266 389L250 321M525 696L373 572L223 572L321 696L525 696Z"  horiz-adv-x="496" vert-adv-y="1000"  />

      
      <glyph glyph-name="uniea" unicode="&#xea;" d="M496 236L231 236L214 167Q209 146 209 138Q209 107 248 107Q269 107 280 118Q291 129 298 158L304 184L484 184L477 155Q454 62 401 24.50Q348-13 236-13Q23-13 23 120Q23 158 34 205L69 352Q94 457 148.50 499.50Q203 542 314 542Q529 542 529 405Q529 372 521 341L496 236M250 321L339 321L353 381Q355 389 355 399Q355 431 315 431Q276 431 266 389L250 321M519 574L378 574L353 631L301 574L151 574L270 696L458 696L519 574Z"  horiz-adv-x="496" vert-adv-y="1000"  />

      
      <glyph glyph-name="unieb" unicode="&#xeb;" d="M496 236L231 236L214 167Q209 146 209 138Q209 107 248 107Q269 107 280 118Q291 129 298 158L304 184L484 184L477 155Q454 62 401 24.50Q348-13 236-13Q23-13 23 120Q23 158 34 205L69 352Q94 457 148.50 499.50Q203 542 314 542Q529 542 529 405Q529 372 521 341L496 236M250 321L339 321L353 381Q355 389 355 399Q355 431 315 431Q276 431 266 389L250 321M577 695L549 573L375 573L403 695L577 695M336 695L309 573L137 573L165 695L336 695Z"  horiz-adv-x="496" vert-adv-y="1000"  />

      
      <glyph glyph-name="uniec" unicode="&#xec;" d="M307 528L186 0L-3 0L118 528L307 528M311 572L160 572L51 696L252 696L311 572Z"  horiz-adv-x="250" vert-adv-y="1000"  />

      
      <glyph glyph-name="unied" unicode="&#xed;" d="M307 528L186 0L-3 0L118 528L307 528M425 696L273 572L123 572L221 696L425 696Z"  horiz-adv-x="250" vert-adv-y="1000"  />

      
      <glyph glyph-name="uniee" unicode="&#xee;" d="M307 528L186 0L-3 0L118 528L307 528M399 574L258 574L233 631L181 574L31 574L150 696L338 696L399 574Z"  horiz-adv-x="250" vert-adv-y="1000"  />

      
      <glyph glyph-name="unief" unicode="&#xef;" d="M307 528L186 0L-3 0L118 528L307 528M454 695L426 573L252 573L280 695L454 695M213 695L186 573L14 573L42 695L213 695Z"  horiz-adv-x="250" vert-adv-y="1000"  />

      
      <glyph glyph-name="unif0" unicode="&#xf0;" d="M567 630L499 619Q546 540 546 436Q546 375 532 313L499 164Q477 65 415 25.50Q353-14 249-14Q29-14 29 133Q29 163 41 217L72 356Q93 450 139.50 493.50Q186 537 271 537Q334 537 372 507Q368 558 345 595L206 574L190 639L305 657Q300 664 293.50 672Q287 680 278 689Q269 698 265 703L424 732Q453 699 464 682L553 695L567 630M311 160L357 364Q359 372 359 382Q359 419 317 419Q274 419 262 370L216 165Q214 153 214 147Q214 110 256 110Q300 110 311 160Z"  horiz-adv-x="521" vert-adv-y="1000"  />

      
      <glyph glyph-name="unif1" unicode="&#xf1;" d="M119 528L308 528L295 475Q347 539 426 539Q483 539 516.50 511Q550 483 550 436Q550 408 539 359L456 0L266 0L351 370Q354 382 354 392Q354 422 323 422Q284 422 272 372L186 0L-3 0L119 528M466 694L526 694Q516 637 484.50 605Q453 573 406 573Q386 573 371.50 577Q357 581 312 599Q286 609 273 609Q245 609 238 578L176 578Q207 695 299 695Q325 695 371 677Q412 662 428 662Q458 662 466 694Z"  horiz-adv-x="521" vert-adv-y="1000"  />

      
      <glyph glyph-name="unif2" unicode="&#xf2;" d="M532 313L501 173Q480 76 423 31Q366-14 249-14Q29-14 29 133Q29 163 41 217L72 356Q94 454 150 498.50Q206 543 324 543Q544 543 544 397Q544 367 532 313M311 160L357 364Q359 373 359 382Q359 419 317 419Q274 419 262 370L216 165Q214 158 214 147Q214 110 256 110Q300 110 311 160M432 572L281 572L172 696L373 696L432 572Z"  horiz-adv-x="521" vert-adv-y="1000"  />

      
      <glyph glyph-name="unif3" unicode="&#xf3;" d="M532 313L501 173Q480 76 423 31Q366-14 249-14Q29-14 29 133Q29 163 41 217L72 356Q94 454 150 498.50Q206 543 324 543Q544 543 544 397Q544 367 532 313M311 160L357 364Q359 373 359 382Q359 419 317 419Q274 419 262 370L216 165Q214 158 214 147Q214 110 256 110Q300 110 311 160M531 696L379 572L229 572L327 696L531 696Z"  horiz-adv-x="521" vert-adv-y="1000"  />

      
      <glyph glyph-name="unif4" unicode="&#xf4;" d="M532 313L501 173Q480 76 423 31Q366-14 249-14Q29-14 29 133Q29 163 41 217L72 356Q94 454 150 498.50Q206 543 324 543Q544 543 544 397Q544 367 532 313M311 160L357 364Q359 373 359 382Q359 419 317 419Q274 419 262 370L216 165Q214 158 214 147Q214 110 256 110Q300 110 311 160M518 574L377 574L352 631L300 574L150 574L269 696L457 696L518 574Z"  horiz-adv-x="521" vert-adv-y="1000"  />

      
      <glyph glyph-name="unif5" unicode="&#xf5;" d="M532 313L501 173Q480 76 423 31Q366-14 249-14Q29-14 29 133Q29 163 41 217L72 356Q94 454 150 498.50Q206 543 324 543Q544 543 544 397Q544 367 532 313M311 160L357 364Q359 373 359 382Q359 419 317 419Q274 419 262 370L216 165Q214 158 214 147Q214 110 256 110Q300 110 311 160M465 694L525 694Q515 637 483.50 605Q452 573 405 573Q385 573 370.50 577Q356 581 311 599Q285 609 272 609Q244 609 237 578L175 578Q206 695 298 695Q324 695 370 677Q411 662 427 662Q457 662 465 694Z"  horiz-adv-x="521" vert-adv-y="1000"  />

      
      <glyph glyph-name="unif6" unicode="&#xf6;" d="M532 313L501 173Q480 76 423 31Q366-14 249-14Q29-14 29 133Q29 163 41 217L72 356Q94 454 150 498.50Q206 543 324 543Q544 543 544 397Q544 367 532 313M311 160L357 364Q359 373 359 382Q359 419 317 419Q274 419 262 370L216 165Q214 158 214 147Q214 110 256 110Q300 110 311 160M575 695L547 573L373 573L401 695L575 695M334 695L307 573L135 573L163 695L334 695Z"  horiz-adv-x="521" vert-adv-y="1000"  />

      
      <glyph glyph-name="unif7" unicode="&#xf7;" d="M464 596L425 426L263 426L302 596L464 596M544 374L510 227L85 227L119 374L544 374M368 176L330 6L168 6L207 176L368 176Z"  horiz-adv-x="559" vert-adv-y="1000"  />

      
      <glyph glyph-name="unif8" unicode="&#xf8;" d="M582 490L537 449Q546 427 546 402Q546 364 534 313L500 164Q478 68 420 27Q362-14 251-14Q124-14 70 36L30 0L-11 45L37 89Q30 110 30 132Q30 162 42 217L75 363Q97 458 152.50 500.50Q208 543 325 543Q445 543 501 499L541 536L582 490M237 265L364 378Q365 381 365 386Q365 423 319 423Q272 423 260 371L237 265M342 276L214 160Q212 152 212 144Q212 106 257 106Q304 106 316 158L342 276Z"  horiz-adv-x="521" vert-adv-y="1000"  />

      
      <glyph glyph-name="unif9" unicode="&#xf9;" d="M574 528L453 0L264 0L276 52Q222-12 145-12Q88-12 54.50 16Q21 44 21 91Q21 116 33 168L115 528L305 528L220 158Q217 145 217 135Q217 105 249 105Q287 105 299 155L385 528L574 528M459 572L308 572L199 696L400 696L459 572Z"  horiz-adv-x="521" vert-adv-y="1000"  />

      
      <glyph glyph-name="unifa" unicode="&#xfa;" d="M574 528L453 0L264 0L276 52Q222-12 145-12Q88-12 54.50 16Q21 44 21 91Q21 116 33 168L115 528L305 528L220 158Q217 145 217 135Q217 105 249 105Q287 105 299 155L385 528L574 528M549 696L397 572L247 572L345 696L549 696Z"  horiz-adv-x="521" vert-adv-y="1000"  />

      
      <glyph glyph-name="unifb" unicode="&#xfb;" d="M574 528L453 0L264 0L276 52Q222-12 145-12Q88-12 54.50 16Q21 44 21 91Q21 116 33 168L115 528L305 528L220 158Q217 145 217 135Q217 105 249 105Q287 105 299 155L385 528L574 528M533 574L392 574L367 631L315 574L165 574L284 696L472 696L533 574Z"  horiz-adv-x="521" vert-adv-y="1000"  />

      
      <glyph glyph-name="unifc" unicode="&#xfc;" d="M574 528L453 0L264 0L276 52Q222-12 145-12Q88-12 54.50 16Q21 44 21 91Q21 116 33 168L115 528L305 528L220 158Q217 145 217 135Q217 105 249 105Q287 105 299 155L385 528L574 528M588 695L560 573L386 573L414 695L588 695M347 695L320 573L148 573L176 695L347 695Z"  horiz-adv-x="521" vert-adv-y="1000"  />

      
      <glyph glyph-name="unifd" unicode="&#xfd;" d="M396 528L586 528L285-55Q235-152 183.50-178Q132-204 15-204L-48-204L-16-87L8-87Q56-87 77.50-76Q99-65 119-31L87 528L269 528L261 208L396 528M539 696L387 572L237 572L335 696L539 696Z"  horiz-adv-x="500" vert-adv-y="1000"  />

      
      <glyph glyph-name="unife" unicode="&#xfe;" d="M159 706L347 706L292 467Q350 539 437 539Q494 539 525 513.50Q556 488 556 442Q556 415 542 354L495 150Q476 66 436.50 27.50Q397-11 324-11Q232-11 198 57L146-168L-43-168L159 706M272 376L222 158Q219 143 219 134Q219 101 257 101Q278 101 289.50 113Q301 125 308 153L358 372Q362 392 362 396Q362 427 325 427Q284 427 272 376Z"  horiz-adv-x="521" vert-adv-y="1000"  />

      
      <glyph glyph-name="uniff" unicode="&#xff;" d="M396 528L586 528L285-55Q235-152 183.50-178Q132-204 15-204L-48-204L-16-87L8-87Q56-87 77.50-76Q99-65 119-31L87 528L269 528L261 208L396 528M575 695L547 573L373 573L401 695L575 695M334 695L307 573L135 573L163 695L334 695Z"  horiz-adv-x="500" vert-adv-y="1000"  />

      
      <glyph glyph-name="uni0100" unicode="&#x0100;" d="M-37 0L284 706L522 706L525 0L333 0L346 159L225 159L166 0L-37 0M271 285L356 285L377 568L271 285M601 854L580 760L237 760L258 854L601 854Z"  horiz-adv-x="562" vert-adv-y="1000"  />

      
      <glyph glyph-name="uni0101" unicode="&#x0101;" d="M259 345L84 345L93 384Q113 470 166.50 506.50Q220 543 327 543Q437 543 488.50 511.50Q540 480 540 412Q540 385 527 329L466 68Q462 48 462 34Q462 16 475 0L262 0L272 43Q242 12 210.50-1Q179-14 134-14Q75-14 43.50 12Q12 38 12 85Q12 121 22 161.50Q32 202 47 225Q60 245 70 255Q80 265 118.50 280Q157 295 228 310Q311 327 340 340L347 369Q350 384 350 391Q350 420 314 420Q277 420 266 373L259 345M320 253L256 230Q226 219 215 187.50Q204 156 204 129Q204 92 239 92Q261 92 275.50 105Q290 118 298 156L320 253M548 692L527 598L190 598L211 692L548 692Z"  horiz-adv-x="518" vert-adv-y="1000"  />

      
      <glyph glyph-name="uni0102" unicode="&#x0102;" d="M-37 0L284 706L522 706L525 0L333 0L346 159L225 159L166 0L-37 0M271 285L356 285L377 568L271 285M519 899L593 899Q565 755 407 755Q340 755 303.50 785Q267 815 267 872Q267 883 269 899L344 899Q344 875 364.50 860Q385 845 421 845Q462 845 483.50 858.50Q505 872 519 899Z"  horiz-adv-x="562" vert-adv-y="1000"  />

      
      <glyph glyph-name="uni0103" unicode="&#x0103;" d="M259 345L84 345L93 384Q113 470 166.50 506.50Q220 543 327 543Q437 543 488.50 511.50Q540 480 540 412Q540 385 527 329L466 68Q462 48 462 34Q462 16 475 0L262 0L272 43Q242 12 210.50-1Q179-14 134-14Q75-14 43.50 12Q12 38 12 85Q12 121 22 161.50Q32 202 47 225Q60 245 70 255Q80 265 118.50 280Q157 295 228 310Q311 327 340 340L347 369Q350 384 350 391Q350 420 314 420Q277 420 266 373L259 345M320 253L256 230Q226 219 215 187.50Q204 156 204 129Q204 92 239 92Q261 92 275.50 105Q290 118 298 156L320 253M471 721L542 721Q516 577 362 577Q298 577 263 607Q228 637 228 694Q228 705 230 721L302 721Q302 697 321.50 682Q341 667 376 667Q446 667 471 721Z"  horiz-adv-x="518" vert-adv-y="1000"  />

      
      <glyph glyph-name="uni0104" unicode="&#x0104;" d="M353 0L333 0L346 159L225 159L166 0L-37 0L284 706L522 706L525 0L485 0Q456-3 434-24.50Q412-46 412-62Q412-73 424.50-79.50Q437-86 456-86Q459-86 475-84L457-188Q429-191 408-191Q287-191 287-116Q287-59 353 0M271 285L356 285L377 568L271 285Z"  horiz-adv-x="562" vert-adv-y="1000"  />

      
      <glyph glyph-name="uni0105" unicode="&#x0105;" d="M287 0L262 0L272 43Q242 12 210.50-1Q179-14 134-14Q75-14 43.50 12Q12 38 12 85Q12 121 22 161.50Q32 202 47 225Q60 245 70 255Q80 265 118.50 280Q157 295 228 310Q311 327 340 340L347 369Q350 384 350 391Q350 420 314 420Q277 420 266 373L259 345L84 345L93 384Q113 470 166.50 506.50Q220 543 327 543Q437 543 488.50 511.50Q540 480 540 412Q540 385 527 329L466 68Q462 48 462 34Q462 16 475 0L419 0Q389-3 367.50-24.50Q346-46 346-62Q346-73 358.50-79.50Q371-86 390-86Q393-86 409-84L391-188Q363-191 342-191Q221-191 221-116Q221-59 287 0M320 253L256 230Q226 219 215 187.50Q204 156 204 129Q204 92 239 92Q261 92 275.50 105Q290 118 298 156L320 253Z"  horiz-adv-x="518" vert-adv-y="1000"  />

      
      <glyph glyph-name="uni0106" unicode="&#x0106;" d="M352 261L549 261L541 223Q515 100 468 53Q403-13 258-13Q143-13 88 25Q33 63 33 143Q33 181 52 262L107 498Q136 624 196 672Q256 720 381 720Q612 720 612 572Q612 541 605 513L590 446L395 446L410 511Q414 530 414 544Q414 579 369 579Q339 579 328 564Q317 549 306 501L235 197Q230 176 230 162Q230 126 277 126Q303 126 315.50 140Q328 154 336 191L352 261M578 876L455 764L306 764L387 876L578 876Z"  horiz-adv-x="542" vert-adv-y="1000"  />

      
      <glyph glyph-name="uni0107" unicode="&#x0107;" d="M514 324L334 324L344 366Q347 379 347 390Q347 421 313 421Q291 421 281.50 411Q272 401 263 364L217 170Q212 147 212 139Q212 109 247 109Q286 109 297 162L303 191L490 191L475 129Q440-13 236-13Q25-13 25 129Q25 152 32 183L77 376Q98 468 157 504.50Q216 541 330 541Q530 541 530 420Q530 392 521 354L514 324M538 696L386 572L236 572L334 696L538 696Z"  horiz-adv-x="500" vert-adv-y="1000"  />

      
      <glyph glyph-name="uni0108" unicode="&#x0108;" d="M352 261L549 261L541 223Q515 100 468 53Q403-13 258-13Q143-13 88 25Q33 63 33 143Q33 181 52 262L107 498Q136 624 196 672Q256 720 381 720Q612 720 612 572Q612 541 605 513L590 446L395 446L410 511Q414 530 414 544Q414 579 369 579Q339 579 328 564Q317 549 306 501L235 197Q230 176 230 162Q230 126 277 126Q303 126 315.50 140Q328 154 336 191L352 261M586 758L442 758L421 803L385 758L232 758L331 867L533 867L586 758Z"  horiz-adv-x="542" vert-adv-y="1000"  />

      
      <glyph glyph-name="uni0109" unicode="&#x0109;" d="M514 324L334 324L344 366Q347 379 347 390Q347 421 313 421Q291 421 281.50 411Q272 401 263 364L217 170Q212 147 212 139Q212 109 247 109Q286 109 297 162L303 191L490 191L475 129Q440-13 236-13Q25-13 25 129Q25 152 32 183L77 376Q98 468 157 504.50Q216 541 330 541Q530 541 530 420Q530 392 521 354L514 324M525 574L384 574L359 631L307 574L157 574L276 696L464 696L525 574Z"  horiz-adv-x="500" vert-adv-y="1000"  />

      
      <glyph glyph-name="uni010A" unicode="&#x010A;" d="M352 261L549 261L541 223Q515 100 468 53Q403-13 258-13Q143-13 88 25Q33 63 33 143Q33 181 52 262L107 498Q136 624 196 672Q256 720 381 720Q612 720 612 572Q612 541 605 513L590 446L395 446L410 511Q414 530 414 544Q414 579 369 579Q339 579 328 564Q317 549 306 501L235 197Q230 176 230 162Q230 126 277 126Q303 126 315.50 140Q328 154 336 191L352 261M514 870L491 760L319 760L342 870L514 870Z"  horiz-adv-x="542" vert-adv-y="1000"  />

      
      <glyph glyph-name="uni010B" unicode="&#x010B;" d="M514 324L334 324L344 366Q347 379 347 390Q347 421 313 421Q291 421 281.50 411Q272 401 263 364L217 170Q212 147 212 139Q212 109 247 109Q286 109 297 162L303 191L490 191L475 129Q440-13 236-13Q25-13 25 129Q25 152 32 183L77 376Q98 468 157 504.50Q216 541 330 541Q530 541 530 420Q530 392 521 354L514 324M455 695L427 573L255 573L283 695L455 695Z"  horiz-adv-x="500" vert-adv-y="1000"  />

      
      <glyph glyph-name="uni010C" unicode="&#x010C;" d="M352 261L549 261L541 223Q515 100 468 53Q403-13 258-13Q143-13 88 25Q33 63 33 143Q33 181 52 262L107 498Q136 624 196 672Q256 720 381 720Q612 720 612 572Q612 541 605 513L590 446L395 446L410 511Q414 530 414 544Q414 579 369 579Q339 579 328 564Q317 549 306 501L235 197Q230 176 230 162Q230 126 277 126Q303 126 315.50 140Q328 154 336 191L352 261M594 867L495 758L293 758L240 867L384 867L405 822L441 867L594 867Z"  horiz-adv-x="542" vert-adv-y="1000"  />

      
      <glyph glyph-name="uni010D" unicode="&#x010D;" d="M514 324L334 324L344 366Q347 379 347 390Q347 421 313 421Q291 421 281.50 411Q272 401 263 364L217 170Q212 147 212 139Q212 109 247 109Q286 109 297 162L303 191L490 191L475 129Q440-13 236-13Q25-13 25 129Q25 152 32 183L77 376Q98 468 157 504.50Q216 541 330 541Q530 541 530 420Q530 392 521 354L514 324M556 696L437 574L248 574L188 696L329 696L354 638L406 696L556 696Z"  horiz-adv-x="500" vert-adv-y="1000"  />

      
      <glyph glyph-name="uni010E" unicode="&#x010E;" d="M163 706L414 706Q619 706 619 552Q619 520 604 455L559 261Q542 189 525.50 145.50Q509 102 488 71Q467 40 433.50 25.50Q400 11 359.50 5.50Q319 0 252 0L0 0L163 706M331 570L230 132L260 132Q309 132 322 143Q335 154 346 200L415 499Q419 517 419 527Q419 570 361 570L331 570M568 867L469 758L267 758L214 867L358 867L379 822L415 867L568 867Z"  horiz-adv-x="562" vert-adv-y="1000"  />

      
      <glyph glyph-name="uni010F" unicode="&#x010F;" d="M618 706L455 0L266 0L280 61Q225-11 136-11Q79-11 47.50 14.50Q16 40 16 86Q16 113 30 174L77 377Q97 461 137.50 499.50Q178 538 249 538Q341 538 375 470L429 706L618 706M301 155L351 372Q355 392 355 397Q355 429 317 429Q295 429 284 417.50Q273 406 266 377L215 159Q211 139 211 135Q211 104 248 104Q273 104 284 115Q295 126 301 155M738 602L671 548L628 548L658 602L616 602L640 706L762 706L738 602Z"  horiz-adv-x="521" vert-adv-y="1000"  />

      
      <glyph glyph-name="uni0110" unicode="&#x0110;" d="M163 706L418 706Q511 706 565 668.50Q619 631 619 552Q619 520 604 455L551 227Q519 89 462.50 44.50Q406 0 268 0L0 0L77 334L43 334L67 435L101 435L163 706M331 570L300 435L361 435L338 334L277 334L230 132L258 132Q306 132 320.50 142.50Q335 153 346 200L415 499Q419 517 419 527Q419 570 361 570L331 570Z"  horiz-adv-x="562" vert-adv-y="1000"  />

      
      <glyph glyph-name="uni0111" unicode="&#x0111;" d="M584 558L455 0L266 0L280 61Q225-11 136-11Q79-11 47.50 14.50Q16 40 16 86Q16 113 30 174L77 377Q97 461 137.50 499.50Q178 538 249 538Q341 538 375 470L395 558L305 558L328 659L418 659L429 706L618 706L607 659L646 659L623 558L584 558M301 155L351 372Q355 392 355 397Q355 429 317 429Q295 429 284 417.50Q273 406 266 377L215 159Q211 139 211 135Q211 104 248 104Q273 104 284 115Q295 126 301 155Z"  horiz-adv-x="521" vert-adv-y="1000"  />

      
      <glyph glyph-name="uni0112" unicode="&#x0112;" d="M549 706L517 569L330 569L297 426L470 426L439 291L266 291L230 136L417 136L386 0L0 0L163 706L549 706M558 854L537 760L194 760L215 854L558 854Z"  horiz-adv-x="437" vert-adv-y="1000"  />

      
      <glyph glyph-name="uni0113" unicode="&#x0113;" d="M496 236L231 236L214 167Q209 146 209 138Q209 107 248 107Q269 107 280 118Q291 129 298 158L304 184L484 184L477 155Q454 62 401 24.50Q348-13 236-13Q23-13 23 120Q23 158 34 205L69 352Q94 457 148.50 499.50Q203 542 314 542Q529 542 529 405Q529 372 521 341L496 236M250 321L339 321L353 381Q355 389 355 399Q355 431 315 431Q276 431 266 389L250 321M533 692L512 598L175 598L196 692L533 692Z"  horiz-adv-x="496" vert-adv-y="1000"  />

      
      <glyph glyph-name="uni0114" unicode="&#x0114;" d="M549 706L517 569L330 569L297 426L470 426L439 291L266 291L230 136L417 136L386 0L0 0L163 706L549 706M468 899L542 899Q514 755 356 755Q289 755 252.50 785Q216 815 216 872Q216 883 218 899L293 899Q293 875 313.50 860Q334 845 370 845Q411 845 432.50 858.50Q454 872 468 899Z"  horiz-adv-x="437" vert-adv-y="1000"  />

      
      <glyph glyph-name="uni0115" unicode="&#x0115;" d="M496 236L231 236L214 167Q209 146 209 138Q209 107 248 107Q269 107 280 118Q291 129 298 158L304 184L484 184L477 155Q454 62 401 24.50Q348-13 236-13Q23-13 23 120Q23 158 34 205L69 352Q94 457 148.50 499.50Q203 542 314 542Q529 542 529 405Q529 372 521 341L496 236M250 321L339 321L353 381Q355 389 355 399Q355 431 315 431Q276 431 266 389L250 321M448 721L519 721Q493 577 339 577Q275 577 240 607Q205 637 205 694Q205 705 207 721L279 721Q279 697 298.50 682Q318 667 353 667Q423 667 448 721Z"  horiz-adv-x="496" vert-adv-y="1000"  />

      
      <glyph glyph-name="uni0116" unicode="&#x0116;" d="M549 706L517 569L330 569L297 426L470 426L439 291L266 291L230 136L417 136L386 0L0 0L163 706L549 706M475 870L452 760L280 760L303 870L475 870Z"  horiz-adv-x="437" vert-adv-y="1000"  />

      
      <glyph glyph-name="uni0117" unicode="&#x0117;" d="M496 236L231 236L214 167Q209 146 209 138Q209 107 248 107Q269 107 280 118Q291 129 298 158L304 184L484 184L477 155Q454 62 401 24.50Q348-13 236-13Q23-13 23 120Q23 158 34 205L69 352Q94 457 148.50 499.50Q203 542 314 542Q529 542 529 405Q529 372 521 341L496 236M250 321L339 321L353 381Q355 389 355 399Q355 431 315 431Q276 431 266 389L250 321M449 695L421 573L249 573L277 695L449 695Z"  horiz-adv-x="496" vert-adv-y="1000"  />

      
      <glyph glyph-name="uni0118" unicode="&#x0118;" d="M549 706L517 569L330 569L297 426L470 426L439 291L266 291L230 136L417 136L386 0L359 0Q328-7 308-26.50Q288-46 288-62Q288-73 300.50-79.50Q313-86 332-86Q335-86 351-84L333-188Q305-191 284-191Q163-191 163-116Q163-57 229 0L0 0L163 706L549 706Z"  horiz-adv-x="437" vert-adv-y="1000"  />

      
      <glyph glyph-name="uni0119" unicode="&#x0119;" d="M496 236L231 236L214 167Q209 146 209 138Q209 107 248 107Q269 107 280 118Q291 129 298 158L304 184L484 184L477 155Q459 82 428.50 48Q398 14 344-1Q305-12 287.50-29.50Q270-47 270-62Q270-73 282.50-79.50Q295-86 314-86Q317-86 333-84L315-188Q287-191 266-191Q145-191 145-116Q145-64 198-12Q23 0 23 120Q23 158 34 205L69 352Q94 457 148.50 499.50Q203 542 314 542Q529 542 529 405Q529 372 521 341L496 236M250 321L339 321L353 381Q355 389 355 399Q355 431 315 431Q276 431 266 389L250 321Z"  horiz-adv-x="496" vert-adv-y="1000"  />

      
      <glyph glyph-name="uni011A" unicode="&#x011A;" d="M549 706L517 569L330 569L297 426L470 426L439 291L266 291L230 136L417 136L386 0L0 0L163 706L549 706M552 867L453 758L251 758L198 867L342 867L363 822L399 867L552 867Z"  horiz-adv-x="437" vert-adv-y="1000"  />

      
      <glyph glyph-name="uni011B" unicode="&#x011B;" d="M496 236L231 236L214 167Q209 146 209 138Q209 107 248 107Q269 107 280 118Q291 129 298 158L304 184L484 184L477 155Q454 62 401 24.50Q348-13 236-13Q23-13 23 120Q23 158 34 205L69 352Q94 457 148.50 499.50Q203 542 314 542Q529 542 529 405Q529 372 521 341L496 236M250 321L339 321L353 381Q355 389 355 399Q355 431 315 431Q276 431 266 389L250 321M542 696L423 574L234 574L174 696L315 696L340 638L392 696L542 696Z"  horiz-adv-x="496" vert-adv-y="1000"  />

      
      <glyph glyph-name="uni011C" unicode="&#x011C;" d="M330 369L582 369L497 0L306 0L322 71Q264-11 170-11Q103-11 64.50 23Q26 57 26 116Q26 148 36 192L107 498Q137 625 197 672Q257 719 383 719Q501 719 562 683Q623 647 623 579Q623 555 612 500L604 462L413 462L423 507Q427 525 427 537Q427 578 375 578Q349 578 335 565Q321 552 311 511L238 194Q232 166 232 154Q232 113 278 113Q306 113 323.50 129.50Q341 146 351 193L362 244L301 244L330 369M579 758L435 758L414 803L378 758L225 758L324 867L526 867L579 758Z"  horiz-adv-x="562" vert-adv-y="1000"  />

      
      <glyph glyph-name="uni011D" unicode="&#x011D;" d="M577 528L451-22Q435-91 417.50-128Q400-165 372-188Q307-241 185-241Q77-241 26.50-210.50Q-24-180-24-115Q-24-89-16-57L164-57Q158-81 158-91Q158-121 197-121Q222-121 234.50-107.50Q247-94 255-58L281 54Q228-11 149-11Q21-11 21 103Q21 136 34 191L75 365Q97 455 130.50 497Q164 539 241 539Q345 539 376 465L390 528L577 528M305 157L354 371Q357 383 357 391Q357 426 316 426Q277 426 265 377L215 164Q212 152 212 143Q212 110 252 110Q275 110 287 121Q299 132 305 157M542 574L401 574L376 631L324 574L174 574L293 696L481 696L542 574Z"  horiz-adv-x="521" vert-adv-y="1000"  />

      
      <glyph glyph-name="uni011E" unicode="&#x011E;" d="M330 369L582 369L497 0L306 0L322 71Q264-11 170-11Q103-11 64.50 23Q26 57 26 116Q26 148 36 192L107 498Q137 625 197 672Q257 719 383 719Q501 719 562 683Q623 647 623 579Q623 555 612 500L604 462L413 462L423 507Q427 525 427 537Q427 578 375 578Q349 578 335 565Q321 552 311 511L238 194Q232 166 232 154Q232 113 278 113Q306 113 323.50 129.50Q341 146 351 193L362 244L301 244L330 369M516 899L590 899Q562 755 404 755Q337 755 300.50 785Q264 815 264 872Q264 883 266 899L341 899Q341 875 361.50 860Q382 845 418 845Q459 845 480.50 858.50Q502 872 516 899Z"  horiz-adv-x="562" vert-adv-y="1000"  />

      
      <glyph glyph-name="uni011F" unicode="&#x011F;" d="M577 528L451-22Q435-91 417.50-128Q400-165 372-188Q307-241 185-241Q77-241 26.50-210.50Q-24-180-24-115Q-24-89-16-57L164-57Q158-81 158-91Q158-121 197-121Q222-121 234.50-107.50Q247-94 255-58L281 54Q228-11 149-11Q21-11 21 103Q21 136 34 191L75 365Q97 455 130.50 497Q164 539 241 539Q345 539 376 465L390 528L577 528M305 157L354 371Q357 383 357 391Q357 426 316 426Q277 426 265 377L215 164Q212 152 212 143Q212 110 252 110Q275 110 287 121Q299 132 305 157M463 721L534 721Q508 577 354 577Q290 577 255 607Q220 637 220 694Q220 705 222 721L294 721Q294 697 313.50 682Q333 667 368 667Q438 667 463 721Z"  horiz-adv-x="521" vert-adv-y="1000"  />

      
      <glyph glyph-name="uni0120" unicode="&#x0120;" d="M330 369L582 369L497 0L306 0L322 71Q264-11 170-11Q103-11 64.50 23Q26 57 26 116Q26 148 36 192L107 498Q137 625 197 672Q257 719 383 719Q501 719 562 683Q623 647 623 579Q623 555 612 500L604 462L413 462L423 507Q427 525 427 537Q427 578 375 578Q349 578 335 565Q321 552 311 511L238 194Q232 166 232 154Q232 113 278 113Q306 113 323.50 129.50Q341 146 351 193L362 244L301 244L330 369M516 870L493 760L321 760L344 870L516 870Z"  horiz-adv-x="562" vert-adv-y="1000"  />

      
      <glyph glyph-name="uni0121" unicode="&#x0121;" d="M577 528L451-22Q435-91 417.50-128Q400-165 372-188Q307-241 185-241Q77-241 26.50-210.50Q-24-180-24-115Q-24-89-16-57L164-57Q158-81 158-91Q158-121 197-121Q222-121 234.50-107.50Q247-94 255-58L281 54Q228-11 149-11Q21-11 21 103Q21 136 34 191L75 365Q97 455 130.50 497Q164 539 241 539Q345 539 376 465L390 528L577 528M305 157L354 371Q357 383 357 391Q357 426 316 426Q277 426 265 377L215 164Q212 152 212 143Q212 110 252 110Q275 110 287 121Q299 132 305 157M468 695L440 573L268 573L296 695L468 695Z"  horiz-adv-x="521" vert-adv-y="1000"  />

      
      <glyph glyph-name="uni0122" unicode="&#x0122;" d="M330 369L582 369L497 0L306 0L322 71Q264-11 170-11Q103-11 64.50 23Q26 57 26 116Q26 148 36 192L107 498Q137 625 197 672Q257 719 383 719Q501 719 562 683Q623 647 623 579Q623 555 612 500L604 462L413 462L423 507Q427 525 427 537Q427 578 375 578Q349 578 335 565Q321 552 311 511L238 194Q232 166 232 154Q232 113 278 113Q306 113 323.50 129.50Q341 146 351 193L362 244L301 244L330 369M291-118L231-166L187-166L217-118L182-118L202-31L311-31L291-118Z"  horiz-adv-x="562" vert-adv-y="1000"  />

      
      <glyph glyph-name="uni0123" unicode="&#x0123;" d="M577 528L451-22Q435-91 417.50-128Q400-165 372-188Q307-241 185-241Q77-241 26.50-210.50Q-24-180-24-115Q-24-89-16-57L164-57Q158-81 158-91Q158-121 197-121Q222-121 234.50-107.50Q247-94 255-58L281 54Q228-11 149-11Q21-11 21 103Q21 136 34 191L75 365Q97 455 130.50 497Q164 539 241 539Q345 539 376 465L390 528L577 528M305 157L354 371Q357 383 357 391Q357 426 316 426Q277 426 265 377L215 164Q212 152 212 143Q212 110 252 110Q275 110 287 121Q299 132 305 157M308 659L368 707L412 707L382 659L417 659L397 572L288 572L308 659Z"  horiz-adv-x="521" vert-adv-y="1000"  />

      
      <glyph glyph-name="uni0124" unicode="&#x0124;" d="M654 706L491 0L293 0L358 282L265 282L200 0L0 0L163 706L363 706L299 428L392 428L456 706L654 706M590 758L446 758L425 803L389 758L236 758L335 867L537 867L590 758Z"  horiz-adv-x="562" vert-adv-y="1000"  />

      
      <glyph glyph-name="uni0125" unicode="&#x0125;" d="M160 706L348 706L295 475Q349 539 426 539Q483 539 516.50 511Q550 483 550 436Q550 408 539 359L456 0L266 0L351 370Q354 382 354 392Q354 422 323 422Q284 422 272 372L186 0L-3 0L160 706M440 758L296 758L275 803L239 758L86 758L185 867L387 867L440 758Z"  horiz-adv-x="521" vert-adv-y="1000"  />

      
      <glyph glyph-name="uni0126" unicode="&#x0126;" d="M78 504L109 640L148 640L163 706L363 706L348 640L441 640L456 706L654 706L639 640L679 640L648 504L607 504L491 0L293 0L358 282L265 282L200 0L0 0L116 504L78 504M299 428L392 428L409 504L316 504L299 428Z"  horiz-adv-x="562" vert-adv-y="1000"  />

      
      <glyph glyph-name="uni0127" unicode="&#x0127;" d="M112 659L149 659L160 706L348 706L337 659L427 659L403 558L314 558L295 475Q349 539 426 539Q483 539 516.50 511Q550 483 550 436Q550 408 539 359L456 0L266 0L351 370Q354 382 354 392Q354 422 323 422Q284 422 272 372L186 0L-3 0L126 558L88 558L112 659Z"  horiz-adv-x="521" vert-adv-y="1000"  />

      
      <glyph glyph-name="uni0128" unicode="&#x0128;" d="M363 706L200 0L0 0L163 706L363 706M403 861L458 861Q446 810 429 788Q395 741 331 741Q308 741 263 758Q218 775 200 775Q180 775 166 746L108 746Q118 802 151 833Q184 864 233 864Q258 864 306 848Q354 832 368 832Q392 832 403 861Z"  horiz-adv-x="271" vert-adv-y="1000"  />

      
      <glyph glyph-name="uni0129" unicode="&#x0129;" d="M307 528L186 0L-3 0L118 528L307 528M337 694L397 694Q387 637 355.50 605Q324 573 277 573Q257 573 242.50 577Q228 581 183 599Q157 609 144 609Q116 609 109 578L47 578Q78 695 170 695Q196 695 242 677Q282 662 299 662Q329 662 337 694Z"  horiz-adv-x="250" vert-adv-y="1000"  />

      
      <glyph glyph-name="uni012A" unicode="&#x012A;" d="M363 706L200 0L0 0L163 706L363 706M425 854L404 760L131 760L152 854L425 854Z"  horiz-adv-x="271" vert-adv-y="1000"  />

      
      <glyph glyph-name="uni012B" unicode="&#x012B;" d="M307 528L186 0L-3 0L118 528L307 528M380 692L359 598L86 598L107 692L380 692Z"  horiz-adv-x="250" vert-adv-y="1000"  />

      
      <glyph glyph-name="uni012C" unicode="&#x012C;" d="M363 706L200 0L0 0L163 706L363 706M384 899L458 899Q430 755 272 755Q205 755 168.50 785Q132 815 132 872Q132 883 134 899L209 899Q209 875 229.50 860Q250 845 286 845Q327 845 348.50 858.50Q370 872 384 899Z"  horiz-adv-x="271" vert-adv-y="1000"  />

      
      <glyph glyph-name="uni012D" unicode="&#x012D;" d="M307 528L186 0L-3 0L118 528L307 528M334 721L405 721Q379 577 225 577Q161 577 126 607Q91 637 91 694Q91 705 93 721L165 721Q165 697 184.50 682Q204 667 239 667Q309 667 334 721Z"  horiz-adv-x="250" vert-adv-y="1000"  />

      
      <glyph glyph-name="uni012E" unicode="&#x012E;" d="M41 0L0 0L163 706L363 706L200 0L173 0Q140-5 120-25.50Q100-46 100-62Q100-73 112.50-79.50Q125-86 144-86Q147-86 163-84L145-188Q117-191 96-191Q-25-191-25-116Q-25-59 41 0Z"  horiz-adv-x="271" vert-adv-y="1000"  />

      
      <glyph glyph-name="uni012F" unicode="&#x012F;" d="M38 0L-3 0L118 528L307 528L186 0L170 0Q138-5 117.50-25.50Q97-46 97-62Q97-73 109.50-79.50Q122-86 141-86Q144-86 160-84L142-188Q113-191 93-191Q-28-191-28-116Q-28-59 38 0M349 706L320 580L131 580L160 706L349 706Z"  horiz-adv-x="250" vert-adv-y="1000"  />

      
      <glyph glyph-name="uni0130" unicode="&#x0130;" d="M363 706L200 0L0 0L163 706L363 706M380 870L357 760L185 760L208 870L380 870Z"  horiz-adv-x="271" vert-adv-y="1000"  />

      
      <glyph glyph-name="uni0131" unicode="&#x0131;" d="M307 528L186 0L-3 0L118 528L307 528Z"  horiz-adv-x="250" vert-adv-y="1000"  />

      
      <glyph glyph-name="uni0132" unicode="&#x0132;" d="M363 706L200 0L0 0L163 706L363 706M719 706L599 186Q589 141 579 112Q569 83 553.50 61.50Q538 40 522.50 28.50Q507 17 478.50 10Q450 3 421 1.50Q392 0 343 0L249 0L280 135L342 135Q369 135 381.50 146Q394 157 403 195L521 706L719 706Z"  horiz-adv-x="625" vert-adv-y="1000"  />

      
      <glyph glyph-name="uni0133" unicode="&#x0133;" d="M349 706L320 580L131 580L160 706L349 706M307 528L186 0L-3 0L118 528L307 528M598 706L568 580L381 580L410 706L598 706M557 528L425-44Q405-133 373-161Q341-189 244-189L145-189L167-92L172-92Q207-92 218-83.50Q229-75 238-37L368 528L557 528Z"  horiz-adv-x="500" vert-adv-y="1000"  />

      
      <glyph glyph-name="uni0134" unicode="&#x0134;" d="M448 706L328 186Q318 141 308 112Q298 83 282.50 61.50Q267 40 251.50 28.50Q236 17 207.50 10Q179 3 150 1.50Q121 0 72 0L-22 0L9 135L71 135Q98 135 110.50 146Q123 157 132 195L250 706L448 706M534 758L390 758L369 803L333 758L180 758L279 867L481 867L534 758Z"  horiz-adv-x="354" vert-adv-y="1000"  />

      
      <glyph glyph-name="uni0135" unicode="&#x0135;" d="M307 528L175-44Q155-133 123-161Q91-189-6-189L-105-189L-83-92L-78-92Q-43-92-32-83.50Q-21-75-12-37L118 528L307 528M407 574L266 574L241 631L189 574L39 574L158 696L346 696L407 574Z"  horiz-adv-x="250" vert-adv-y="1000"  />

      
      <glyph glyph-name="uni0136" unicode="&#x0136;" d="M675 706L453 361L536 0L333 0L271 327L196 0L0 0L163 706L359 706L284 382L472 706L675 706M290-118L230-166L186-166L216-118L181-118L201-31L310-31L290-118Z"  horiz-adv-x="562" vert-adv-y="1000"  />

      
      <glyph glyph-name="uni0137" unicode="&#x0137;" d="M588 528L403 288L489 0L295 0L238 254L179 0L-3 0L160 706L342 706L251 313L398 528L588 528M261-118L201-166L157-166L187-118L152-118L172-31L281-31L261-118Z"  horiz-adv-x="521" vert-adv-y="1000"  />

      
      <glyph glyph-name="uni0138" unicode="&#x0138;" d="M588 528L403 288L489 0L295 0L238 254L179 0L-3 0L120 528L302 528L251 313L398 528L588 528Z"  horiz-adv-x="521" vert-adv-y="1000"  />

      
      <glyph glyph-name="uni0139" unicode="&#x0139;" d="M411 134L380 0L0 0L163 706L360 706L228 134L411 134M459 876L336 764L187 764L268 876L459 876Z"  horiz-adv-x="417" vert-adv-y="1000"  />

      
      <glyph glyph-name="uni013A" unicode="&#x013A;" d="M348 706L185 0L-3 0L160 706L348 706M454 876L331 764L182 764L263 876L454 876Z"  horiz-adv-x="250" vert-adv-y="1000"  />

      
      <glyph glyph-name="uni013B" unicode="&#x013B;" d="M411 134L380 0L0 0L163 706L360 706L228 134L411 134M224-118L164-166L120-166L150-118L115-118L135-31L244-31L224-118Z"  horiz-adv-x="417" vert-adv-y="1000"  />

      
      <glyph glyph-name="uni013C" unicode="&#x013C;" d="M348 706L185 0L-3 0L160 706L348 706M120-118L60-166L16-166L46-118L11-118L31-31L140-31L120-118Z"  horiz-adv-x="250" vert-adv-y="1000"  />

      
      <glyph glyph-name="uni013D" unicode="&#x013D;" d="M411 134L380 0L0 0L163 706L360 706L228 134L411 134M480 602L413 548L370 548L400 602L358 602L382 706L504 706L480 602Z"  horiz-adv-x="417" vert-adv-y="1000"  />

      
      <glyph glyph-name="uni013E" unicode="&#x013E;" d="M348 706L185 0L-3 0L160 706L348 706M468 602L401 548L358 548L388 602L346 602L370 706L492 706L468 602Z"  horiz-adv-x="250" vert-adv-y="1000"  />

      
      <glyph glyph-name="uni013F" unicode="&#x013F;" d="M411 134L380 0L0 0L163 706L360 706L228 134L411 134M449 279L292 279L331 451L488 451L449 279Z"  horiz-adv-x="417" vert-adv-y="1000"  />

      
      <glyph glyph-name="uni0140" unicode="&#x0140;" d="M344 706L181 0L-7 0L156 706L344 706M435 281L274 281L312 447L473 447L435 281Z"  horiz-adv-x="402" vert-adv-y="1000"  />

      
      <glyph glyph-name="uni0141" unicode="&#x0141;" d="M428 575L396 436L278 349L228 134L411 134L380 0L0 0L51 215L0 177L30 311L81 350L163 706L360 706L310 487L428 575Z"  horiz-adv-x="417" vert-adv-y="1000"  />

      
      <glyph glyph-name="uni0142" unicode="&#x0142;" d="M348 706L300 496L344 532L316 412L271 376L185 0L-3 0L52 239L7 205L35 324L79 358L160 706L348 706Z"  horiz-adv-x="250" vert-adv-y="1000"  />

      
      <glyph glyph-name="uni0143" unicode="&#x0143;" d="M652 706L489 0L302 0L266 448L166 0L0 0L163 706L346 706L384 253L486 706L652 706M593 876L470 764L321 764L402 876L593 876Z"  horiz-adv-x="562" vert-adv-y="1000"  />

      
      <glyph glyph-name="uni0144" unicode="&#x0144;" d="M119 528L308 528L295 475Q347 539 426 539Q483 539 516.50 511Q550 483 550 436Q550 408 539 359L456 0L266 0L351 370Q354 382 354 392Q354 422 323 422Q284 422 272 372L186 0L-3 0L119 528M544 696L392 572L242 572L340 696L544 696Z"  horiz-adv-x="521" vert-adv-y="1000"  />

      
      <glyph glyph-name="uni0145" unicode="&#x0145;" d="M652 706L489 0L302 0L266 448L166 0L0 0L163 706L346 706L384 253L486 706L652 706M290-118L230-166L186-166L216-118L181-118L201-31L310-31L290-118Z"  horiz-adv-x="562" vert-adv-y="1000"  />

      
      <glyph glyph-name="uni0146" unicode="&#x0146;" d="M119 528L308 528L295 475Q347 539 426 539Q483 539 516.50 511Q550 483 550 436Q550 408 539 359L456 0L266 0L351 370Q354 382 354 392Q354 422 323 422Q284 422 272 372L186 0L-3 0L119 528M252-118L192-166L148-166L178-118L143-118L163-31L272-31L252-118Z"  horiz-adv-x="521" vert-adv-y="1000"  />

      
      <glyph glyph-name="uni0147" unicode="&#x0147;" d="M652 706L489 0L302 0L266 448L166 0L0 0L163 706L346 706L384 253L486 706L652 706M605 867L506 758L304 758L251 867L395 867L416 822L452 867L605 867Z"  horiz-adv-x="562" vert-adv-y="1000"  />

      
      <glyph glyph-name="uni0148" unicode="&#x0148;" d="M119 528L308 528L295 475Q347 539 426 539Q483 539 516.50 511Q550 483 550 436Q550 408 539 359L456 0L266 0L351 370Q354 382 354 392Q354 422 323 422Q284 422 272 372L186 0L-3 0L119 528M543 696L424 574L235 574L175 696L316 696L341 638L393 696L543 696Z"  horiz-adv-x="521" vert-adv-y="1000"  />

      
      <glyph glyph-name="uni0149" unicode="&#x0149;" d="M119 528L308 528L295 475Q347 539 426 539Q483 539 516.50 511Q550 483 550 436Q550 408 539 359L456 0L266 0L351 370Q354 382 354 392Q354 422 323 422Q284 422 272 372L186 0L-3 0L119 528M149 602L82 548L39 548L69 602L27 602L51 706L173 706L149 602Z"  horiz-adv-x="521" vert-adv-y="1000"  />

      
      <glyph glyph-name="uni014A" unicode="&#x014A;" d="M314-37L266 448L166 0L0 0L163 706L346 706L385 262L486 706L652 706L478-52Q460-131 426.50-161Q393-191 314-191L228-191L259-59L277-59Q298-59 304.50-55Q311-51 314-37Z"  horiz-adv-x="562" vert-adv-y="1000"  />

      
      <glyph glyph-name="uni014B" unicode="&#x014B;" d="M186 0L-3 0L119 528L308 528L295 475Q347 539 426 539Q483 539 516.50 511Q550 483 550 436Q550 408 539 359L448-38Q430-116 397-143Q364-170 279-170L180-170L203-73L217-73Q236-73 244.50-65Q253-57 259-32L351 370Q354 382 354 392Q354 422 323 422Q284 422 272 372L186 0Z"  horiz-adv-x="521" vert-adv-y="1000"  />

      
      <glyph glyph-name="uni014C" unicode="&#x014C;" d="M601 453L547 220Q537 178 529.50 153Q522 128 502 93Q482 58 455.50 38.50Q429 19 382.50 4.50Q336-10 274-10Q229-10 189.50-2.50Q150 5 114 22Q78 39 57 71.50Q36 104 36 149Q36 190 51 254L110 509Q136 622 197.50 669.50Q259 717 378 717Q616 717 616 555Q616 520 601 453M339 187L415 518Q419 534 419 544Q419 583 373 583Q344 583 331.50 566.50Q319 550 308 503L236 190Q232 174 232 163Q232 145 244.50 134.50Q257 124 279 124Q303 124 316.50 135.50Q330 147 339 187M597 854L576 760L233 760L254 854L597 854Z"  horiz-adv-x="562" vert-adv-y="1000"  />

      
      <glyph glyph-name="uni014D" unicode="&#x014D;" d="M532 313L501 173Q480 76 423 31Q366-14 249-14Q29-14 29 133Q29 163 41 217L72 356Q94 454 150 498.50Q206 543 324 543Q544 543 544 397Q544 367 532 313M311 160L357 364Q359 373 359 382Q359 419 317 419Q274 419 262 370L216 165Q214 158 214 147Q214 110 256 110Q300 110 311 160M537 692L516 598L179 598L200 692L537 692Z"  horiz-adv-x="521" vert-adv-y="1000"  />

      
      <glyph glyph-name="uni014E" unicode="&#x014E;" d="M601 453L547 220Q537 178 529.50 153Q522 128 502 93Q482 58 455.50 38.50Q429 19 382.50 4.50Q336-10 274-10Q229-10 189.50-2.50Q150 5 114 22Q78 39 57 71.50Q36 104 36 149Q36 190 51 254L110 509Q136 622 197.50 669.50Q259 717 378 717Q616 717 616 555Q616 520 601 453M339 187L415 518Q419 534 419 544Q419 583 373 583Q344 583 331.50 566.50Q319 550 308 503L236 190Q232 174 232 163Q232 145 244.50 134.50Q257 124 279 124Q303 124 316.50 135.50Q330 147 339 187M516 899L590 899Q562 755 404 755Q337 755 300.50 785Q264 815 264 872Q264 883 266 899L341 899Q341 875 361.50 860Q382 845 418 845Q459 845 480.50 858.50Q502 872 516 899Z"  horiz-adv-x="562" vert-adv-y="1000"  />

      
      <glyph glyph-name="uni014F" unicode="&#x014F;" d="M532 313L501 173Q480 76 423 31Q366-14 249-14Q29-14 29 133Q29 163 41 217L72 356Q94 454 150 498.50Q206 543 324 543Q544 543 544 397Q544 367 532 313M311 160L357 364Q359 373 359 382Q359 419 317 419Q274 419 262 370L216 165Q214 158 214 147Q214 110 256 110Q300 110 311 160M455 721L526 721Q500 577 346 577Q282 577 247 607Q212 637 212 694Q212 705 214 721L286 721Q286 697 305.50 682Q325 667 360 667Q430 667 455 721Z"  horiz-adv-x="521" vert-adv-y="1000"  />

      
      <glyph glyph-name="uni0150" unicode="&#x0150;" d="M601 453L547 220Q537 178 529.50 153Q522 128 502 93Q482 58 455.50 38.50Q429 19 382.50 4.50Q336-10 274-10Q229-10 189.50-2.50Q150 5 114 22Q78 39 57 71.50Q36 104 36 149Q36 190 51 254L110 509Q136 622 197.50 669.50Q259 717 378 717Q616 717 616 555Q616 520 601 453M339 187L415 518Q419 534 419 544Q419 583 373 583Q344 583 331.50 566.50Q319 550 308 503L236 190Q232 174 232 163Q232 145 244.50 134.50Q257 124 279 124Q303 124 316.50 135.50Q330 147 339 187M487 876L364 764L241 764L322 876L487 876M690 876L567 764L444 764L525 876L690 876Z"  horiz-adv-x="562" vert-adv-y="1000"  />

      
      <glyph glyph-name="uni0151" unicode="&#x0151;" d="M532 313L501 173Q480 76 423 31Q366-14 249-14Q29-14 29 133Q29 163 41 217L72 356Q94 454 150 498.50Q206 543 324 543Q544 543 544 397Q544 367 532 313M311 160L357 364Q359 373 359 382Q359 419 317 419Q274 419 262 370L216 165Q214 158 214 147Q214 110 256 110Q300 110 311 160M656 696L504 572L380 572L479 696L656 696M441 696L290 572L166 572L264 696L441 696Z"  horiz-adv-x="521" vert-adv-y="1000"  />

      
      </font>
</defs>
</svg>
