<?xml version="1.0" standalone="no"?>
  <!DOCTYPE svg PUBLIC "-//W3C//DTD SVG 1.1//EN" "http://www.w3.org/Graphics/SVG/1.1/DTD/svg11.dtd" >
  <svg>
  <metadata>
  Created by font-carrier
  </metadata>
  <defs>
  <font id="AkzidenzGroteskPro-LigExtIt" horiz-adv-x="1571" vert-adv-y="1571" >
    <font-face
      
      font-family="Akzidenz-Grotesk Pro Light Ext"
      
      font-weight="400"
      
      font-stretch="normal"
      
      units-per-em="1000"
      
      ascent="998"
      
      descent="-441"
      
    />
      <missing-glyph />

      

      
      <glyph glyph-name="uni21" unicode="&#x21;" d="M311 706L244 415L181 200L135 200L173 414L240 706L311 706M174 99L151 0L74 0L97 99L174 99Z"  horiz-adv-x="313" vert-adv-y="1000"  />

      
      <glyph glyph-name="uni22" unicode="&#x22;" d="M400 744L307 453L271 453L311 744L400 744M211 744L118 453L83 453L123 744L211 744Z"  horiz-adv-x="347" vert-adv-y="1000"  />

      
      <glyph glyph-name="uni23" unicode="&#x23;" d="M747 467L733 410L540 410L511 313L702 313L689 259L496 259L420 0L358 0L437 259L291 259L212 0L154 0L231 259L29 259L42 313L248 313L276 410L74 410L87 467L292 467L362 706L425 706L353 467L498 467L567 706L627 706L556 467L747 467M481 410L336 410L307 313L452 313L481 410Z"  horiz-adv-x="768" vert-adv-y="1000"  />

      
      <glyph glyph-name="uni24" unicode="&#x24;" d="M774 565L710 532Q650 629 507 656L448 402L482 395Q529 385 560 377Q591 369 626 354Q661 339 681.50 321Q702 303 715.50 275Q729 247 729 211Q729 106 638.50 45.50Q548-15 372-15L352-15L338-77L274-77L290-10Q175 9 108 51Q60 81 35 114Q10 147-10 206L65 228Q87 148 142.50 108Q198 68 305 50L374 349L271 372Q108 408 108 526Q108 619 191.50 670.50Q275 722 425 722Q445 722 461 721L475 783L537 783L521 714Q574 707 639 679Q724 644 774 565M389 415L448 665Q433 666 414 666Q307 666 242 629.50Q177 593 177 534Q177 514 184.50 498Q192 482 202 472.50Q212 463 230 455.50Q248 448 261 444.50Q274 441 295 436L389 415M433 336L366 45Q504 45 581 84.50Q658 124 658 205Q658 238 643 259Q628 280 578 299.50Q528 319 433 336Z"  horiz-adv-x="812" vert-adv-y="1000"  />

      
      <glyph glyph-name="uni25" unicode="&#x25;" d="M1034 243Q1034 138 968.50 66.50Q903-5 806-5Q723-5 670.50 48Q618 101 618 186Q618 290 683.50 362.50Q749 435 843 435Q928 435 981 382Q1034 329 1034 243M822 688L314 0L254 0L762 688L822 688M454 499Q454 393 388.50 321.50Q323 250 226 250Q143 250 90.50 303Q38 356 38 441Q38 545 103.50 617.50Q169 690 263 690Q348 690 401 637Q454 584 454 499M983 245Q983 311 945 351.50Q907 392 844 392Q769 392 719.50 334Q670 276 670 188Q670 120 708.50 78.50Q747 37 810 37Q885 37 934 96.50Q983 156 983 245M403 501Q403 567 364.50 607Q326 647 264 647Q189 647 139 589Q89 531 89 444Q89 377 128 335Q167 293 230 293Q304 293 353.50 352Q403 411 403 501Z"  horiz-adv-x="1083" vert-adv-y="1000"  />

      
      <glyph glyph-name="uni26" unicode="&#x26;" d="M635 373L699 373Q659 224 566 127L580 116Q618 86 642.50 74Q667 62 702 58L691-2Q644-2 606.50 14Q569 30 512 81Q392-18 236-18Q130-18 67 30Q4 78 4 160Q4 241 61.50 295Q119 349 264 391Q212 465 212 528Q212 602 263.50 647.50Q315 693 397 693Q468 693 513 655.50Q558 618 558 557Q558 506 518 459Q493 429 466.50 413.50Q440 398 362 365Q399 313 434 268Q472 220 523 167L529 174Q601 258 635 373M331 413Q409 436 451.50 474Q494 512 494 558Q494 593 465.50 615.50Q437 638 391 638Q339 638 309.50 611.50Q280 585 280 538Q280 510 289.50 486.50Q299 463 331 413M471 121Q437 155 386 218Q335 281 296 342Q169 302 123 267.50Q77 233 77 170Q77 111 122 76Q167 41 243 41Q363 41 471 121Z"  horiz-adv-x="771" vert-adv-y="1000"  />

      
      <glyph glyph-name="uni27" unicode="&#x27;" d="M211 744L118 453L83 453L123 744L211 744Z"  horiz-adv-x="158" vert-adv-y="1000"  />

      
      <glyph glyph-name="uni28" unicode="&#x28;" d="M401 737L427 709Q344 645 293 592.50Q242 540 205 476Q116 319 116 129Q116 41 144-46Q172-133 218-189L187-216Q117-149 79.50-52Q42 45 42 156Q42 378 183 558Q267 664 401 737Z"  horiz-adv-x="354" vert-adv-y="1000"  />

      
      <glyph glyph-name="uni29" unicode="&#x29;" d="M90 717L120 744Q190 676 227.50 580Q265 484 265 372Q265 291 250 230Q215 81 124-30Q78-86 29-127Q-20-168-94-209L-120-180Q26-79 102 53Q192 207 192 400Q192 488 164 575Q136 662 90 717Z"  horiz-adv-x="354" vert-adv-y="1000"  />

      
      <glyph glyph-name="uni2a" unicode="&#x2a;" d="M371 561L254 547L299 444L257 426L211 528L131 455L101 490L182 565L86 619L108 658L206 606L231 712L277 701L251 593L365 604L371 561Z"  horiz-adv-x="357" vert-adv-y="1000"  />

      
      <glyph glyph-name="uni2b" unicode="&#x2b;" d="M675 323L661 264L399 264L344 25L284 25L339 264L78 264L92 323L353 323L408 560L468 560L413 323L675 323Z"  horiz-adv-x="772" vert-adv-y="1000"  />

      
      <glyph glyph-name="uni2c" unicode="&#x2c;" d="M35 99L110 99L82-20Q61-108-13-116L-5-80Q10-80 25-63.50Q40-47 48-9L50 0L12 0L35 99Z"  horiz-adv-x="271" vert-adv-y="1000"  />

      
      <glyph glyph-name="uni2d" unicode="&#x2d;" d="M320 324L307 264L18 264L32 324L320 324Z"  horiz-adv-x="364" vert-adv-y="1000"  />

      
      <glyph glyph-name="uni2e" unicode="&#x2e;" d="M112 99L89 0L12 0L35 99L112 99Z"  horiz-adv-x="271" vert-adv-y="1000"  />

      
      <glyph glyph-name="uni2f" unicode="&#x2f;" d="M538 706L27 0L-44 0L468 706L538 706Z"  horiz-adv-x="500" vert-adv-y="1000"  />

      
      <glyph glyph-name="uni30" unicode="&#x30;" d="M700 391Q700 266 627 155Q516-13 319-13Q185-13 102.50 72Q20 157 20 294Q20 460 129 580Q238 700 390 700Q530 700 615 615.50Q700 531 700 391M628 398Q628 508 565 573.50Q502 639 396 639Q337 639 294.50 624Q252 609 212 574Q157 528 124.50 449.50Q92 371 92 287Q92 180 156 113.50Q220 47 322 47Q453 47 540.50 147.50Q628 248 628 398Z"  horiz-adv-x="729" vert-adv-y="1000"  />

      
      <glyph glyph-name="uni31" unicode="&#x31;" d="M494 693L334 0L266 0L391 543Q319 496 214 496L197 496L212 556Q307 558 358.50 588.50Q410 619 448 693L494 693Z"  horiz-adv-x="729" vert-adv-y="1000"  />

      
      <glyph glyph-name="uni32" unicode="&#x32;" d="M602 57L592 0L-14 0L0 66Q144 116 240 158Q397 227 473 282Q598 372 598 482Q598 554 541.50 598.50Q485 643 393 643Q326 643 270 618.50Q214 594 182 550Q157 515 141 451L74 466Q89 515 104 544Q143 619 220.50 660Q298 701 399 701Q521 701 595 641.50Q669 582 669 485Q669 337 509 234Q407 170 271 112Q204 83 104 51Q569 57 602 57Z"  horiz-adv-x="729" vert-adv-y="1000"  />

      
      <glyph glyph-name="uni33" unicode="&#x33;" d="M281 330L293 389L372 389Q452 389 488 395Q524 401 551 420Q601 454 601 512Q601 570 544.50 604.50Q488 639 395 639Q220 639 158 499L96 525Q188 696 396 696Q519 696 595 646.50Q671 597 671 517Q671 456 630 414Q589 372 516 358Q574 344 606 307.50Q638 271 638 219Q638 117 552 53.50Q466-10 327-10Q203-10 119 40.50Q35 91 11 198L82 214Q97 132 166.50 89Q236 46 332 46Q439 46 504 92Q569 138 569 214Q569 268 530 298Q505 317 471.50 323.50Q438 330 363 330L281 330Z"  horiz-adv-x="729" vert-adv-y="1000"  />

      
      <glyph glyph-name="uni34" unicode="&#x34;" d="M670 244L656 185L507 185L464 0L397 0L440 185L5 185L19 244L551 695L625 695L521 244L670 244M539 613L108 244L454 244L539 613Z"  horiz-adv-x="729" vert-adv-y="1000"  />

      
      <glyph glyph-name="uni35" unicode="&#x35;" d="M709 687L696 632L220 632L153 410Q205 447 255.50 463Q306 479 373 479Q501 479 575.50 421.50Q650 364 650 265Q650 142 557 66Q464-10 313-10Q175-10 95.50 49.50Q16 109 5 195L77 209Q83 135 146.50 91Q210 47 312 47Q433 47 507 104Q581 161 581 255Q581 331 521 376Q461 421 359 421Q227 421 129 327L66 332L173 687L709 687Z"  horiz-adv-x="729" vert-adv-y="1000"  />

      
      <glyph glyph-name="uni36" unicode="&#x36;" d="M719 523L650 499Q621 569 560 604.50Q499 640 420 640Q307 640 229.50 566Q152 492 117 350Q149 403 219 431Q289 459 377 459Q508 459 591.50 399Q675 339 675 246Q675 134 581.50 61Q488-12 343-12Q204-12 123.50 60.50Q43 133 43 258Q43 444 155 571.50Q267 699 431 699Q528 699 605.50 653.50Q683 608 719 523M606 234Q606 308 541 352.50Q476 397 368 397Q255 397 188 349Q121 301 121 219Q121 142 185 96Q249 50 356 50Q462 50 534 103Q606 156 606 234Z"  horiz-adv-x="729" vert-adv-y="1000"  />

      
      <glyph glyph-name="uni37" unicode="&#x37;" d="M703 688L691 638Q527 524 400 355.50Q273 187 220 0L145 0Q194 174 316.50 345Q439 516 591 628L88 628L101 688L703 688Z"  horiz-adv-x="729" vert-adv-y="1000"  />

      
      <glyph glyph-name="uni38" unicode="&#x38;" d="M499 355Q572 340 612.50 299.50Q653 259 653 200Q653 105 560 45Q467-15 321-15Q184-15 99.50 37Q15 89 15 172Q15 252 76 302Q100 322 125.50 334Q151 346 169 351Q187 356 232 366Q171 378 138 414Q105 450 105 503Q105 592 187 646.50Q269 701 403 701Q531 701 607.50 653Q684 605 684 525Q684 463 637 416Q590 369 499 355M617 521Q617 577 558.50 611Q500 645 402 645Q296 645 237 610Q178 575 178 513Q178 455 235 423Q292 391 393 391Q498 391 557.50 425.50Q617 460 617 521M584 197Q584 255 517 291Q450 327 342 327Q221 327 153.50 289Q86 251 86 183Q86 119 152 81.50Q218 44 329 44Q443 44 513.50 86Q584 128 584 197Z"  horiz-adv-x="729" vert-adv-y="1000"  />

      
      <glyph glyph-name="uni39" unicode="&#x39;" d="M0 163L69 186Q100 113 154 79.50Q208 46 298 46Q530 46 603 335Q516 228 342 228Q210 228 127 287Q44 346 44 440Q44 552 138 624.50Q232 697 376 697Q516 697 596.50 625Q677 553 677 428Q677 310 625 201Q523-14 285-14Q178-14 109.50 29Q41 72 0 163M598 466Q598 543 534 589Q470 635 363 635Q257 635 185 582Q113 529 113 451Q113 378 178 334.50Q243 291 352 291Q465 291 531.50 338.50Q598 386 598 466Z"  horiz-adv-x="729" vert-adv-y="1000"  />

      
      <glyph glyph-name="uni3a" unicode="&#x3a;" d="M244 488L221 389L144 389L167 488L244 488M154 99L131 0L54 0L77 99L154 99Z"  horiz-adv-x="313" vert-adv-y="1000"  />

      
      <glyph glyph-name="uni3b" unicode="&#x3b;" d="M244 488L221 389L144 389L167 488L244 488M76 100L151 100L124-19Q103-107 29-115L37-79Q52-79 67-62.50Q82-46 90-8L92 1L54 1L76 100Z"  horiz-adv-x="313" vert-adv-y="1000"  />

      
      <glyph glyph-name="uni3c" unicode="&#x3c;" d="M698 570L682 501L156 292L586 89L572 27L84 261L100 328L698 570Z"  horiz-adv-x="772" vert-adv-y="1000"  />

      
      <glyph glyph-name="uni3d" unicode="&#x3d;" d="M695 408L681 350L98 350L112 408L695 408M653 231L639 173L56 173L70 231L653 231Z"  horiz-adv-x="772" vert-adv-y="1000"  />

      
      <glyph glyph-name="uni3e" unicode="&#x3e;" d="M670 337L655 270L57 28L73 97L599 306L168 509L182 570L670 337Z"  horiz-adv-x="772" vert-adv-y="1000"  />

      
      <glyph glyph-name="uni3f" unicode="&#x3f;" d="M333 197L271 197L275 214Q287 268 311.50 291Q336 314 390 329L427 339Q522 365 562 397Q589 419 605 453.50Q621 488 621 524Q621 591 569.50 628Q518 665 423 665Q337 665 278.50 623.50Q220 582 168 483L109 507Q169 622 246.50 672Q324 722 440 722Q557 722 623.50 671.50Q690 621 690 532Q690 459 645 398Q600 337 523 310Q497 301 426 281Q369 265 357 254Q345 243 333 197M316 99L293 0L218 0L241 99L316 99Z"  horiz-adv-x="708" vert-adv-y="1000"  />

      
      <glyph glyph-name="uni40" unicode="&#x40;" d="M791 70L823 34Q759-22 702-54Q570-127 423-127Q310-127 219.50-87Q129-47 73.50 35.50Q18 118 18 232Q18 362 83 473Q148 584 259.50 648Q371 712 502 712Q654 712 746.50 632.50Q839 553 839 423Q839 290 760.50 181Q682 72 586 72Q548 72 525 93.50Q502 115 502 152L502 165Q430 73 337 73Q275 73 238.50 114.50Q202 156 202 226Q202 339 272.50 427Q343 515 434 515Q478 515 508.50 493.50Q539 472 561 420L580 492L641 492L575 228Q568 199 568 170Q568 120 608 120Q619 120 634 126Q695 153 740.50 242Q786 331 786 423Q786 534 707.50 599.50Q629 665 496 665Q321 665 197 538.50Q73 412 73 234Q73 92 170 7Q267-78 428-78Q562-78 681-10Q734 21 791 70M537 347L537 354Q537 402 510 432Q483 462 440 462Q374 462 322.50 392Q271 322 271 232Q271 183 296 155Q321 127 365 127Q432 127 484.50 192.50Q537 258 537 347Z"  horiz-adv-x="896" vert-adv-y="1000"  />

      
      <glyph glyph-name="uni41" unicode="&#x41;" d="M712 0L643 0L587 183L134 183L7 0L-68 0L418 706L494 706L712 0M570 239L448 645L173 239L570 239Z"  horiz-adv-x="792" vert-adv-y="1000"  />

      
      <glyph glyph-name="uni42" unicode="&#x42;" d="M0 0L163 706L627 706Q721 706 761 694Q806 681 832 643Q858 605 858 552Q858 482 817.50 435.50Q777 389 703 374Q820 340 820 221Q820 120 751.50 60Q683 0 568 0L0 0M161 399L577 399Q698 399 747 442Q791 483 791 546Q791 577 777 602Q763 627 737 637Q708 649 642 649L219 649L161 399M83 59L522 59Q619 59 668 80Q704 96 726.50 133Q749 170 749 213Q749 260 724 291Q703 319 667.50 329Q632 339 557 339L147 339L83 59Z"  horiz-adv-x="912" vert-adv-y="1000"  />

      
      <glyph glyph-name="uni43" unicode="&#x43;" d="M807 517L742 488Q672 665 464 665Q312 665 209 567.50Q106 470 106 325Q106 228 147 166Q185 107 257 73Q329 39 415 39Q551 39 645 119Q686 154 723 211L778 178Q720 83 625.50 32.50Q531-18 410-18Q241-18 138 73Q35 164 35 312Q35 490 158 606.50Q281 723 470 723Q711 723 807 517Z"  horiz-adv-x="812" vert-adv-y="1000"  />

      
      <glyph glyph-name="uni44" unicode="&#x44;" d="M0 0L163 706L417 706Q523 706 580 699Q659 688 710 647Q807 569 807 416Q807 255 710 140Q648 65 557.50 32.50Q467 0 320 0L0 0M84 59L309 59Q510 59 603 126Q664 169 700.50 248.50Q737 328 737 415Q737 512 687 572Q643 626 568 640Q525 648 420 648L220 648L84 59Z"  horiz-adv-x="842" vert-adv-y="1000"  />

      
      <glyph glyph-name="uni45" unicode="&#x45;" d="M839 706L825 648L219 648L161 400L722 400L708 340L147 340L83 59L718 59L705 0L0 0L163 706L839 706Z"  horiz-adv-x="828" vert-adv-y="1000"  />

      
      <glyph glyph-name="uni46" unicode="&#x46;" d="M812 706L799 648L218 648L160 397L680 397L666 336L146 336L69 0L0 0L163 706L812 706Z"  horiz-adv-x="750" vert-adv-y="1000"  />

      
      <glyph glyph-name="uni47" unicode="&#x47;" d="M832 528L770 496Q729 579 664 621Q581 674 462 674Q330 674 239 600Q178 551 143 473Q108 395 108 311Q108 183 183.50 110.50Q259 38 392 38Q567 38 675 171Q726 233 746 310L372 310L385 370L821 370L736 1L675 1L706 135Q593-19 387-19Q227-19 130.50 68.50Q34 156 34 301Q34 489 157.50 610Q281 731 472 731Q726 731 832 528Z"  horiz-adv-x="896" vert-adv-y="1000"  />

      
      <glyph glyph-name="uni48" unicode="&#x48;" d="M892 706L729 0L662 0L741 345L149 345L69 0L0 0L163 706L232 706L162 404L755 404L825 706L892 706Z"  horiz-adv-x="896" vert-adv-y="1000"  />

      
      <glyph glyph-name="uni49" unicode="&#x49;" d="M230 706L67 0L0 0L163 706L230 706Z"  horiz-adv-x="229" vert-adv-y="1000"  />

      
      <glyph glyph-name="uni4a" unicode="&#x4a;" d="M620 706L518 269Q482 115 413.50 48.50Q345-18 222-18Q-3-18-50 188L23 213Q34 150 56 118Q81 83 125.50 62.50Q170 42 222 42Q302 42 357 85Q397 116 419.50 169Q442 222 468 333L554 706L620 706Z"  horiz-adv-x="625" vert-adv-y="1000"  />

      
      <glyph glyph-name="uni4b" unicode="&#x4b;" d="M838 706L442 429L697 0L620 0L389 393L113 201L67 0L0 0L163 706L230 706L132 281L733 706L838 706Z"  horiz-adv-x="788" vert-adv-y="1000"  />

      
      <glyph glyph-name="uni4c" unicode="&#x4c;" d="M597 59L584 0L0 0L163 706L233 706L84 59L597 59Z"  horiz-adv-x="688" vert-adv-y="1000"  />

      
      <glyph glyph-name="uni4d" unicode="&#x4d;" d="M938 706L775 0L712 0L857 628L424 0L354 0L209 629L64 0L0 0L163 706L250 706L401 60L847 706L938 706Z"  horiz-adv-x="937" vert-adv-y="1000"  />

      
      <glyph glyph-name="uni4e" unicode="&#x4e;" d="M894 706L731 0L668 0L205 616L63 0L0 0L163 706L226 706L688 87L831 706L894 706Z"  horiz-adv-x="896" vert-adv-y="1000"  />

      
      <glyph glyph-name="uni4f" unicode="&#x4f;" d="M874 411Q874 322 835.50 237.50Q797 153 731 95Q607-16 405-16Q236-16 135.50 71Q35 158 35 305Q35 362 51 419Q67 476 103 531.50Q139 587 191.50 629.50Q244 672 323.50 698Q403 724 500 724Q669 724 771.50 638.50Q874 553 874 411M802 407Q802 527 718 597Q634 667 491 667Q321 667 213 566.50Q105 466 105 308Q105 185 189.50 112.50Q274 40 418 40Q582 40 692 145Q802 250 802 407Z"  horiz-adv-x="909" vert-adv-y="1000"  />

      
      <glyph glyph-name="uni50" unicode="&#x50;" d="M0 0L163 706L592 706Q675 706 714.50 697.50Q754 689 783 664Q836 619 836 539Q836 467 795.50 408.50Q755 350 689 332Q653 322 618 319Q583 316 497 316L143 316L70 0L0 0M156 374L579 374Q671 374 716 414.50Q761 455 761 529Q761 568 749.50 593Q738 618 715 629.50Q692 641 670.50 644.50Q649 648 618 648L220 648L156 374Z"  horiz-adv-x="812" vert-adv-y="1000"  />

      
      <glyph glyph-name="uni51" unicode="&#x51;" d="M842-15L806-66L656 41Q547-16 405-16Q236-16 135.50 71Q35 158 35 305Q35 367 52.50 426.50Q70 486 107.50 540Q145 594 198 635Q251 676 328.50 700Q406 724 498 724Q669 724 771.50 638.50Q874 553 874 411Q874 297 815 195Q792 156 772 133Q752 110 710 77L842-15M802 407Q802 527 718 597Q634 667 491 667Q321 667 213 566.50Q105 466 105 308Q105 185 189.50 112.50Q274 40 418 40Q582 40 692 145Q802 250 802 407Z"  horiz-adv-x="909" vert-adv-y="1000"  />

      
      <glyph glyph-name="uni52" unicode="&#x52;" d="M0 0L163 706L613 706Q687 706 724.50 698.50Q762 691 789 672Q852 628 852 540Q852 457 805 397Q768 351 714 334.50Q660 318 554 315L765 0L670 0L464 315L141 315L68 0L0 0M155 375L560 375Q664 375 715 405Q744 422 761 457.50Q778 493 778 535Q778 591 743 620Q711 648 602 648L218 648L155 375Z"  horiz-adv-x="875" vert-adv-y="1000"  />

      
      <glyph glyph-name="uni53" unicode="&#x53;" d="M779 565L715 532Q689 578 636.50 609Q584 640 532 652.50Q480 665 430 665Q314 665 248 630Q182 595 182 534Q182 494 208.50 471.50Q235 449 306 434L541 382Q637 361 685.50 321Q734 281 734 211Q734 105 642 45Q550-15 386-15Q231-15 125.50 43Q20 101-4 206L71 228Q83 186 97.50 162Q112 138 138 117Q226 45 384 45Q516 45 589.50 87Q663 129 663 205Q663 262 617.50 285.50Q572 309 439 336L313 362Q204 385 158.50 423.50Q113 462 113 526Q113 619 197 670.50Q281 722 431 722Q543 722 637.50 682Q732 642 779 565Z"  horiz-adv-x="812" vert-adv-y="1000"  />

      
      <glyph glyph-name="uni54" unicode="&#x54;" d="M766 706L753 648L450 648L300 0L233 0L383 648L66 648L79 706L766 706Z"  horiz-adv-x="688" vert-adv-y="1000"  />

      
      <glyph glyph-name="uni55" unicode="&#x55;" d="M874 706L782 306Q747 153 691 87Q602-18 378-18Q217-18 134.50 38Q52 94 52 203Q52 248 72 332L159 706L224 706L136 326Q119 254 119 205Q119 122 189 81.50Q259 41 385 41Q568 41 644 128Q671 157 688.50 205Q706 253 724 333L810 706L874 706Z"  horiz-adv-x="875" vert-adv-y="1000"  />

      
      <glyph glyph-name="uni56" unicode="&#x56;" d="M795 706L305 0L239 0L69 706L141 706L287 74L716 706L795 706Z"  horiz-adv-x="708" vert-adv-y="1000"  />

      
      <glyph glyph-name="uni57" unicode="&#x57;" d="M1142 706L756 0L674 0L603 637L238 0L158 0L87 706L155 706L214 70L579 706L652 706L728 70L1073 706L1142 706Z"  horiz-adv-x="1062" vert-adv-y="1000"  />

      
      <glyph glyph-name="uni58" unicode="&#x58;" d="M794 706L407 360L654 0L574 0L357 317L6 0L-87 0L323 369L92 706L172 706L373 413L702 706L794 706Z"  horiz-adv-x="729" vert-adv-y="1000"  />

      
      <glyph glyph-name="uni59" unicode="&#x59;" d="M800 706L383 286L317 0L253 0L319 286L84 706L163 706L360 343L716 706L800 706Z"  horiz-adv-x="729" vert-adv-y="1000"  />

      
      <glyph glyph-name="uni5a" unicode="&#x5a;" d="M811 706L797 644L39 59L667 59L654 0L-78 0L-65 57L697 648L103 648L116 706L811 706Z"  horiz-adv-x="748" vert-adv-y="1000"  />

      
      <glyph glyph-name="uni5b" unicode="&#x5b;" d="M362 732L348 670L226 670L36-152L158-152L144-215L-43-215L175 732L362 732Z"  horiz-adv-x="292" vert-adv-y="1000"  />

      
      <glyph glyph-name="uni5c" unicode="&#x5c;" d="M261-17L203-17L90 707L147 707L261-17Z"  horiz-adv-x="354" vert-adv-y="1000"  />

      
      <glyph glyph-name="uni5d" unicode="&#x5d;" d="M284 732L65-215L-122-215L-107-153L15-153L204 669L82 669L97 732L284 732Z"  horiz-adv-x="292" vert-adv-y="1000"  />

      
      <glyph glyph-name="uni5e" unicode="&#x5e;" d="M609 286L546 287L459 643L199 286L127 286L437 706L506 706L609 286Z"  horiz-adv-x="772" vert-adv-y="1000"  />

      
      <glyph glyph-name="uni5f" unicode="&#x5f;" d="M419-206L-101-206L-88-147L432-147L419-206Z"  horiz-adv-x="500" vert-adv-y="1000"  />

      
      <glyph glyph-name="uni60" unicode="&#x60;" d="M232 554L189 554L60 699L169 699L232 554Z"  horiz-adv-x="292" vert-adv-y="1000"  />

      
      <glyph glyph-name="uni61" unicode="&#x61;" d="M605 51L594 1Q559-4 540-4Q468-4 468 57L468 72Q385-13 195-13Q103-13 52.50 24.50Q2 62 2 130Q2 174 24.50 215Q47 256 97 278Q192 320 415 320L526 320Q532 352 532 370Q532 412 475.50 431Q419 450 331 450Q239 450 192.50 425.50Q146 401 126 342L58 346Q83 431 148 468Q213 505 337 505Q469 505 531 473Q593 441 593 373Q593 347 585 315L541 122Q535 98 535 84Q535 65 545.50 58Q556 51 583 51L605 51M507 237L513 266Q496 266 472.50 266.50Q449 267 443 267Q191 267 122 229Q71 200 71 139Q71 90 107 66.50Q143 43 219 43Q346 43 416.50 91Q487 139 507 237Z"  horiz-adv-x="667" vert-adv-y="1000"  />

      
      <glyph glyph-name="uni62" unicode="&#x62;" d="M-5 0L158 706L224 706L160 430Q235 504 383 504Q503 504 572.50 442.50Q642 381 642 273Q642 149 550 68.50Q458-12 315-12Q159-12 83 97L61 0L-5 0M570 276Q570 359 518.50 404.50Q467 450 372 450Q251 450 183.50 385.50Q116 321 116 212Q116 163 136.50 127.50Q157 92 190 74.50Q223 57 256 49.50Q289 42 323 42Q432 42 501 107.50Q570 173 570 276Z"  horiz-adv-x="708" vert-adv-y="1000"  />

      
      <glyph glyph-name="uni63" unicode="&#x63;" d="M613 346L549 320Q485 446 332 446Q219 446 151 386Q83 326 83 225Q83 142 141 92.50Q199 43 296 43Q409 43 480 109Q506 134 540 187L602 159Q543 69 468 27.50Q393-14 289-14Q164-14 89 49Q14 112 14 218Q14 342 104.50 422.50Q195 503 334 503Q432 503 505 462Q578 421 613 346Z"  horiz-adv-x="665" vert-adv-y="1000"  />

      
      <glyph glyph-name="uni64" unicode="&#x64;" d="M713 706L550 0L484 0L499 63Q446 20 395 3Q344-14 274-14Q154-14 84 47.50Q14 109 14 214Q14 341 106 422Q198 503 341 503Q426 503 479 479Q532 455 576 396L648 706L713 706M541 280Q541 360 487 404.50Q433 449 337 449Q224 449 154.50 384.50Q85 320 85 215Q85 132 138 86.50Q191 41 287 41Q405 41 473 105Q541 169 541 280Z"  horiz-adv-x="708" vert-adv-y="1000"  />

      
      <glyph glyph-name="uni65" unicode="&#x65;" d="M518 169L564 131Q508 56 438 21Q368-14 274-14Q156-14 85.50 48.50Q15 111 15 217Q15 345 100.50 425Q186 505 323 505Q448 505 517.50 442.50Q587 380 587 268Q587 251 586 237L83 237Q81 226 81 213Q81 139 138 91Q195 43 283 43Q426 43 518 169M95 292L516 292Q508 369 457.50 410Q407 451 318 451Q234 451 175.50 409Q117 367 95 292Z"  horiz-adv-x="658" vert-adv-y="1000"  />

      
      <glyph glyph-name="uni66" unicode="&#x66;" d="M442 713L427 655Q382 666 342 666Q297 666 276 646.50Q255 627 243 575L223 489L390 489L378 438L211 438L110 0L44 0L146 438L48 438L59 489L157 489L181 591Q198 663 235 693.50Q272 724 344 724Q395 724 442 713Z"  horiz-adv-x="354" vert-adv-y="1000"  />

      
      <glyph glyph-name="uni67" unicode="&#x67;" d="M661 490L560 50Q529-82 490-124Q419-200 245-200Q125-200 61-162.50Q-3-125-3-54Q-3-44-2-37L67-37Q65-49 65-52Q65-99 114.50-121.50Q164-144 269-144Q328-144 378-126Q428-108 450-78Q477-44 499 62Q466 26 406 7Q346-12 278-12Q156-12 85 49Q14 110 14 216Q14 338 104 420.50Q194 503 344 503Q430 503 485 477.50Q540 452 577 395L597 490L661 490M543 279Q543 359 488.50 404Q434 449 337 449Q225 449 155.50 385.50Q86 322 86 218Q86 135 139 89.50Q192 44 288 44Q408 44 475.50 106.50Q543 169 543 279Z"  horiz-adv-x="688" vert-adv-y="1000"  />

      
      <glyph glyph-name="uni68" unicode="&#x68;" d="M-5 0L157 706L223 706L158 420Q227 502 380 502Q499 502 562 454.50Q625 407 625 317Q625 275 612 219L562 0L496 0L545 215Q557 266 557 304Q557 444 372 444Q253 444 188 386Q158 358 142.50 326.50Q127 295 116 244L61 0L-5 0Z"  horiz-adv-x="708" vert-adv-y="1000"  />

      
      <glyph glyph-name="uni69" unicode="&#x69;" d="M218 678L196 582L130 582L152 678L218 678M175 489L61 0L-5 0L109 489L175 489Z"  horiz-adv-x="208" vert-adv-y="1000"  />

      
      <glyph glyph-name="uni6a" unicode="&#x6a;" d="M217 678L194 581L130 581L153 678L217 678M173 489L52-37Q36-103 16-134Q-20-189-107-189Q-158-189-206-177L-191-117Q-151-130-110-130Q-65-130-45-111Q-25-92-12-38L109 489L173 489Z"  horiz-adv-x="208" vert-adv-y="1000"  />

      
      <glyph glyph-name="uni6b" unicode="&#x6b;" d="M637 489L339 297L594 0L510 0L286 262L92 137L61 0L-4 0L159 706L224 706L110 217L529 489L637 489Z"  horiz-adv-x="667" vert-adv-y="1000"  />

      
      <glyph glyph-name="uni6c" unicode="&#x6c;" d="M225 706L62 0L-4 0L159 706L225 706Z"  horiz-adv-x="208" vert-adv-y="1000"  />

      
      <glyph glyph-name="uni6d" unicode="&#x6d;" d="M107 489L173 489L158 420Q227 503 372 503Q455 503 516 473.50Q577 444 599 380Q680 503 859 503Q971 503 1032.50 454Q1094 405 1094 317Q1094 275 1081 219L1031 0L965 0L1014 215Q1026 266 1026 305Q1026 372 980 408Q934 444 849 444Q734 444 673 386Q649 363 634 336.50Q619 310 613 289.50Q607 269 596 219L546 0L480 0L529 215Q541 266 541 305Q541 372 495 408Q449 444 364 444Q254 444 188 386Q158 358 142.50 326.50Q127 295 116 244L61 0L-5 0L107 489Z"  horiz-adv-x="1177" vert-adv-y="1000"  />

      
      <glyph glyph-name="uni6e" unicode="&#x6e;" d="M107 489L173 489L158 420Q227 502 380 502Q499 502 562 454.50Q625 407 625 317Q625 275 612 219L562 0L496 0L545 215Q557 266 557 304Q557 444 372 444Q263 444 201.50 397.50Q140 351 117 249L61 0L-5 0L107 489Z"  horiz-adv-x="708" vert-adv-y="1000"  />

      
      <glyph glyph-name="uni6f" unicode="&#x6f;" d="M634 272Q634 149 538.50 67.50Q443-14 300-14Q170-14 91.50 49Q13 112 13 217Q13 255 24.50 293.50Q36 332 62.50 370Q89 408 127 437Q165 466 224 484Q283 502 354 502Q482 502 558 439.50Q634 377 634 272M563 269Q563 298 553 327Q543 356 521.50 384.50Q500 413 457.50 430.50Q415 448 357 448Q284 448 229 426.50Q174 405 143.50 369.50Q113 334 98.50 296Q84 258 84 219Q84 135 142.50 87.50Q201 40 303 40Q417 40 490 104.50Q563 169 563 269Z"  horiz-adv-x="700" vert-adv-y="1000"  />

      
      <glyph glyph-name="uni70" unicode="&#x70;" d="M107 489L173 489L158 425Q240 502 383 502Q502 502 573 440Q644 378 644 273Q644 145 552.50 64Q461-17 316-17Q156-17 79 86L17-187L-49-187L107 489M572 270Q572 353 519 398.50Q466 444 370 444Q308 444 260.50 427Q213 410 186 385.50Q159 361 142.50 327Q126 293 120.50 265Q115 237 115 208Q115 129 169.50 85Q224 41 321 41Q434 41 503 104Q572 167 572 270Z"  horiz-adv-x="708" vert-adv-y="1000"  />

      
      <glyph glyph-name="uni71" unicode="&#x71;" d="M662 489L507-187L441-187L496 56Q410-19 273-19Q154-19 83 43Q12 105 12 210Q12 339 103.50 420Q195 501 340 501Q506 501 575 399L596 489L662 489M541 276Q541 354 486.50 398.50Q432 443 335 443Q222 443 153 380Q84 317 84 214Q84 131 137 85Q190 39 286 39Q405 39 473 102Q541 165 541 276Z"  horiz-adv-x="708" vert-adv-y="1000"  />

      
      <glyph glyph-name="uni72" unicode="&#x72;" d="M425 504L408 435Q372 439 349 439Q259 439 199.50 393.50Q140 348 121 262L62 0L-4 0L108 489L174 489L156 409Q229 505 387 505Q407 505 425 504Z"  horiz-adv-x="396" vert-adv-y="1000"  />

      
      <glyph glyph-name="uni73" unicode="&#x73;" d="M-20 134L54 146Q62 100 126.50 71Q191 42 283 42Q367 42 421.50 71.50Q476 101 476 146Q476 159 472.50 168.50Q469 178 458.50 185Q448 192 439.50 196Q431 200 410 204Q389 208 376.50 209.50Q364 211 334 215L243 226Q208 230 184 234.50Q160 239 133.50 248Q107 257 91 269Q75 281 64.50 301Q54 321 54 348Q54 416 111 459.50Q168 503 303 503Q558 503 584 374L508 362Q499 406 436 428.50Q373 451 303 451Q216 451 169.50 426.50Q123 402 123 356Q123 326 148 313Q173 300 238 292L370 276Q411 271 439 264Q467 257 492.50 244Q518 231 531 209.50Q544 188 544 158Q544 136 538 115Q532 94 514.50 70Q497 46 468.50 28.50Q440 11 391.50-1Q343-13 279-13Q149-13 72.50 24.50Q-4 62-20 134Z"  horiz-adv-x="625" vert-adv-y="1000"  />

      
      <glyph glyph-name="uni74" unicode="&#x74;" d="M330 489L318 438L183 438L124 182Q112 132 112 104Q112 74 128 60.50Q144 47 179 47Q202 47 233 52L221-3Q189-10 157-10Q103-10 72.50 16Q42 42 42 87Q42 114 55 170L117 438L30 438L42 489L129 489L169 664L242 695L195 489L330 489Z"  horiz-adv-x="310" vert-adv-y="1000"  />

      
      <glyph glyph-name="uni75" unicode="&#x75;" d="M672 489L561 0L495 0L510 69Q441-14 288-14Q168-14 105.50 33.50Q43 81 43 172Q43 212 56 270L105 489L171 489L123 273Q111 216 111 184Q111 44 296 44Q414 44 480 103Q510 129 524.50 160.50Q539 192 551 245L606 489L672 489Z"  horiz-adv-x="708" vert-adv-y="1000"  />

      
      <glyph glyph-name="uni76" unicode="&#x76;" d="M591 489L229 0L169 0L34 489L104 489L212 73L513 489L591 489Z"  horiz-adv-x="562" vert-adv-y="1000"  />

      
      <glyph glyph-name="uni77" unicode="&#x77;" d="M886 489L574 0L511 0L443 414L188 0L125 0L34 489L102 489L172 80L424 489L493 489L558 80L816 489L886 489Z"  horiz-adv-x="854" vert-adv-y="1000"  />

      
      <glyph glyph-name="uni78" unicode="&#x78;" d="M582 489L298 251L482 0L401 0L252 208L6 0L-89 0L218 258L46 489L129 489L266 299L490 489L582 489Z"  horiz-adv-x="562" vert-adv-y="1000"  />

      
      <glyph glyph-name="uni79" unicode="&#x79;" d="M519 489L597 489L241-39Q231-53 221-69.50Q211-86 206.50-93Q202-100 193.50-110Q185-120 174-133Q143-168 107-182.50Q71-197 17-197Q-30-197-107-179L-92-116Q-28-139 19-139Q67-139 101-117Q135-95 175-28L37 489L109 489L227 44L519 489Z"  horiz-adv-x="562" vert-adv-y="1000"  />

      
      <glyph glyph-name="uni7a" unicode="&#x7a;" d="M570 489L560 443L47 54L486 54L473 0L-62 0L-49 53L455 435L71 435L83 489L570 489Z"  horiz-adv-x="562" vert-adv-y="1000"  />

      
      <glyph glyph-name="uni7b" unicode="&#x7b;" d="M356 735L343 677L310 677Q266 677 249 661Q237 650 230.50 633.50Q224 617 213 568L172 389Q157 324 132.50 294Q108 264 60 254Q118 234 118 175Q118 156 110 120L70-52Q59-99 59-116Q59-140 74-150.50Q89-161 126-161L150-161L137-218L86-218Q41-218 15.50-194Q-10-170-10-128Q-10-100 2-51L43 124Q51 158 51 175Q51 204 32.50 216.50Q14 229-30 230L-16 287Q43 288 67 306.50Q91 325 106 393L145 568Q167 667 196.50 701Q226 735 305 735L356 735Z"  horiz-adv-x="268" vert-adv-y="1000"  />

      
      <glyph glyph-name="uni7c" unicode="&#x7c;" d="M228 732L9-215L-57-215L163 732L228 732Z"  horiz-adv-x="229" vert-adv-y="1000"  />

      
      <glyph glyph-name="uni7d" unicode="&#x7d;" d="M256 287L242 229Q181 227 158 209Q135 191 120 123L81-52Q59-150 29-184Q-1-218-80-218L-131-218L-118-160L-85-160Q-42-160-23-144Q-12-134-5.50-117.50Q1-101 12-52L53 127Q68 192 92.50 222Q117 252 165 263Q108 282 108 342Q108 366 115 396L155 569Q166 616 166 632Q166 656 152.50 666.50Q139 677 108 677L75 677L89 735L139 735Q184 735 210 711Q236 687 236 645Q236 622 223 567L183 392Q175 358 175 341Q175 312 193.50 300Q212 288 256 287Z"  horiz-adv-x="268" vert-adv-y="1000"  />

      
      <glyph glyph-name="uni7e" unicode="&#x7e;" d="M665 362L705 318Q595 218 499 218Q447 218 370 256L334 274Q274 304 227 304Q215 304 205 303Q195 302 184 297Q173 292 166.50 289.50Q160 287 146.50 277Q133 267 127.50 263Q122 259 103 243.50Q84 228 76 222L36 268Q97 325 139.50 346.50Q182 368 237 368Q286 368 359 335L423 306Q479 281 506 281Q567 281 665 362Z"  horiz-adv-x="772" vert-adv-y="1000"  />

      
      <glyph glyph-name="unia1" unicode="&#xa1;" d="M243 706L220 607L143 607L166 706L243 706M136 506L182 506L144 291Q83 27 77 0L6 0L73 291L136 506Z"  horiz-adv-x="313" vert-adv-y="1000"  />

      
      <glyph glyph-name="unia2" unicode="&#xa2;" d="M620 346L556 320Q531 373 490 402Q449 431 386 443L294 43L302 43Q386 43 443 75.50Q500 108 547 187L609 159Q505-14 304-14Q291-14 281-13L257-116L202-116L227-8Q129 10 75 69.50Q21 129 21 218Q21 341 111 422Q201 503 337 503L345 503L370 610L425 610L399 499Q561 470 620 346M332 446Q219 441 156 383Q93 325 93 225Q93 88 241 50L332 446Z"  horiz-adv-x="667" vert-adv-y="1000"  />

      
      <glyph glyph-name="unia3" unicode="&#xa3;" d="M758 497L689 488L689 508Q689 662 482 662Q382 662 327.50 622.50Q273 583 273 510Q273 482 283.50 456.50Q294 431 322 391L560 391L547 335L351 335Q395 266 395 214Q395 172 369 128Q431 85 465 69.50Q499 54 535 54Q638 54 664 216L728 216Q711 107 656.50 49Q602-9 517-9Q465-9 429 8Q393 25 331 78Q247-9 130-9Q65-9 28.50 17Q-8 43-8 90Q-8 145 38.50 180.50Q85 216 158 216Q202 216 232.50 206Q263 196 319 163Q328 191 328 207Q328 248 276 322L267 335L64 335L77 391L235 391Q202 449 202 503Q202 603 279.50 661Q357 719 489 719Q642 719 711 644Q735 618 745.50 585.50Q756 553 758 497M286 108Q215 159 157 159Q114 159 86 141.50Q58 124 58 97Q58 74 78 60.50Q98 47 134 47Q224 47 286 108Z"  horiz-adv-x="792" vert-adv-y="1000"  />

      
      <glyph glyph-name="unia4" unicode="&#xa4;" d="M670 560L590 494Q629 439 629 371Q629 254 548 170L614 94L567 55L501 131Q423 84 335 84Q239 84 171 143L89 76L50 121L131 187Q90 254 90 319Q90 432 172 514L106 590L152 630L217 555Q296 599 378 599Q484 599 550 541L629 606L670 560M564 363Q564 443 512.50 492Q461 541 377 541Q282 541 219 478.50Q156 416 156 321Q156 243 207 192Q258 141 336 141Q433 141 498.50 205Q564 269 564 363Z"  horiz-adv-x="715" vert-adv-y="1000"  />

      
      <glyph glyph-name="unia5" unicode="&#xa5;" d="M801 695L473 369L649 369L636 314L418 314L386 281L378 247L621 247L608 192L365 192L321 0L257 0L301 192L45 192L58 247L314 247L322 281L302 314L74 314L86 369L271 369L85 695L164 695L361 337L717 695L801 695Z"  horiz-adv-x="729" vert-adv-y="1000"  />

      
      <glyph glyph-name="unia6" unicode="&#xa6;" d="M228 732L134 327L68 327L163 732L228 732M103 189L9-215L-57-215L38 189L103 189Z"  horiz-adv-x="229" vert-adv-y="1000"  />

      
      <glyph glyph-name="unia7" unicode="&#xa7;" d="M606 641L560 587Q453 661 345 661Q289 661 258.50 638.50Q228 616 228 574Q228 536 258 516.50Q288 497 384 464Q480 431 523 406Q619 350 619 262Q619 198 583.50 142Q548 86 476 53Q500 18 500-25Q500-50 491.50-75.50Q483-101 462.50-129.50Q442-158 397-175.50Q352-193 289-193Q143-193 4-97L51-41Q178-131 302-131Q361-131 394.50-104.50Q428-78 428-32Q428-15 419.50-1Q411 13 401 22.50Q391 32 365.50 43.50Q340 55 323.50 61.50Q307 68 268 81Q135 127 80.50 173.50Q26 220 26 295Q26 363 63.50 420Q101 477 173 507Q158 532 158 568Q158 637 211.50 679Q265 721 352 721Q410 721 465 702.50Q520 684 606 641M429 90Q482 109 514.50 153Q547 197 547 248Q547 305 508 332Q469 359 347 404Q339 407 311 417Q283 427 271.50 431.50Q260 436 241.50 446Q223 456 210 467Q97 412 97 306Q97 261 118 235Q139 209 196 184Q216 175 308 141Q400 107 429 90Z"  horiz-adv-x="688" vert-adv-y="1000"  />

      
      <glyph glyph-name="unia8" unicode="&#xa8;" d="M325 659L303 564L233 564L255 659L325 659M59 659L38 564L-33 564L-11 659L59 659Z"  horiz-adv-x="292" vert-adv-y="1000"  />

      
      <glyph glyph-name="unia9" unicode="&#xa9;" d="M631 449L578 425Q547 520 424 520Q344 520 293.50 469.50Q243 419 243 339Q243 271 287 228.50Q331 186 403 186Q520 186 568 279L614 251Q547 135 400 135Q304 135 243.50 190Q183 245 183 333Q183 435 254.50 503.50Q326 572 433 572Q500 572 552.50 541Q605 510 631 449M768 353Q768 204 663.50 100.50Q559-3 411-3Q262-3 159 101Q56 205 56 355Q56 504 159 606.50Q262 709 412 709Q561 709 664.50 606.50Q768 504 768 353M736 351Q736 488 642 582.50Q548 677 412 677Q277 677 182.50 582.50Q88 488 88 353Q88 218 182.50 123.50Q277 29 412 29Q546 29 641 123.50Q736 218 736 351Z"  horiz-adv-x="833" vert-adv-y="1000"  />

      
      <glyph glyph-name="uniaa" unicode="&#xaa;" d="M468 403L460 363Q436 359 420 359Q392 359 381 369.50Q370 380 368 409Q330 378 290.50 365.50Q251 353 195 353Q124 353 85.50 379Q47 405 47 454Q47 523 116 558Q155 578 227 585Q302 592 402 593Q405 612 405 617Q405 646 375.50 659Q346 672 279 672Q211 672 181 657.50Q151 643 133 601L80 603Q104 667 150.50 692.50Q197 718 288 718Q456 718 456 628Q456 611 446 563L421 444Q418 429 418 422Q418 403 449 403L468 403M391 533L394 548Q381 549 364 549Q338 549 287 546Q196 541 158 528Q103 509 103 461Q103 401 202 401Q318 401 366 466Q382 490 391 533Z"  horiz-adv-x="437" vert-adv-y="1000"  />

      
      <glyph glyph-name="uniab" unicode="&#xab;" d="M483 493L468 430L299 289L402 147L391 94L230 267L243 322L483 493M274 493L259 430L90 289L193 147L182 94L22 267L34 322L274 493Z"  horiz-adv-x="521" vert-adv-y="1000"  />

      
      <glyph glyph-name="uniac" unicode="&#xac;" d="M679 323L604 0L544 0L604 264L41 264L55 323L679 323Z"  horiz-adv-x="772" vert-adv-y="1000"  />

      
      <glyph glyph-name="uniad" unicode="&#xad;" d="M320 324L307 264L18 264L32 324L320 324Z"  horiz-adv-x="365" vert-adv-y="1000"  />

      
      <glyph glyph-name="uniae" unicode="&#xae;" d="M768 353Q768 204 663.50 100.50Q559-3 411-3Q262-3 159 101Q56 205 56 355Q56 504 159 606.50Q262 709 412 709Q561 709 664.50 606.50Q768 504 768 353M736 351Q736 488 642 582.50Q548 677 412 677Q277 677 182.50 582.50Q88 488 88 353Q88 218 182.50 123.50Q277 29 412 29Q546 29 641 123.50Q736 218 736 351M221 147L315 563L491 563Q549 563 581 536Q613 509 613 459Q613 338 456 330L564 147L501 147L397 330L318 330L277 147L221 147M329 378L445 378Q560 378 560 455Q560 483 540.50 499Q521 515 488 515L361 515L329 378Z"  horiz-adv-x="833" vert-adv-y="1000"  />

      
      <glyph glyph-name="uniaf" unicode="&#xaf;" d="M320 621L307 569L-28 569L-15 621L320 621Z"  horiz-adv-x="292" vert-adv-y="1000"  />

      
      <glyph glyph-name="unib0" unicode="&#xb0;" d="M379 602Q379 541 336 498Q293 455 232 455Q171 455 128 498Q85 541 85 602Q85 662 128 705.50Q171 749 231 749Q293 749 336 706.50Q379 664 379 602M322 602Q322 640 296 667Q270 694 233 694Q195 694 168 667Q141 640 141 601Q141 563 168 536Q195 509 233 509Q270 509 296 536Q322 563 322 602Z"  horiz-adv-x="354" vert-adv-y="1000"  />

      
      <glyph glyph-name="unib1" unicode="&#xb1;" d="M700 435L686 376L425 376L370 137L310 137L365 376L103 376L117 435L379 435L433 672L493 672L438 435L700 435M613 58L600 0L17 0L30 58L613 58Z"  horiz-adv-x="772" vert-adv-y="1000"  />

      
      <glyph glyph-name="unib2" unicode="&#xb2;" d="M420 300L412 258L37 258L46 303Q126 334 214 376Q324 429 367.50 468Q411 507 411 557Q411 600 376 626.50Q341 653 283 653Q226 653 189.50 627Q153 601 135 536L89 546Q114 623 161 659Q208 695 286 695Q364 695 412.50 657.50Q461 620 461 561Q461 484 393.50 432Q326 380 141 298Q387 300 420 300Z"  horiz-adv-x="476" vert-adv-y="1000"  />

      
      <glyph glyph-name="unib3" unicode="&#xb3;" d="M211 460L219 499L272 499Q323 499 345.50 504Q368 509 385 525Q411 548 411 578Q411 612 378.50 631Q346 650 288 650Q232 650 198 628.50Q164 607 141 557L100 574Q131 635 175.50 662Q220 689 291 689Q369 689 413.50 660.50Q458 632 458 582Q458 548 434 520.50Q410 493 372 482Q436 450 436 396Q436 332 381 291Q326 250 240 250Q158 250 107.50 282Q57 314 44 375L90 387Q100 339 140.50 315Q181 291 243 291Q307 291 347 318.50Q387 346 387 390Q387 460 271 460L211 460Z"  horiz-adv-x="476" vert-adv-y="1000"  />

      
      <glyph glyph-name="unib4" unicode="&#xb4;" d="M250 700L85 555L42 555L141 700L250 700Z"  horiz-adv-x="292" vert-adv-y="1000"  />

      
      <glyph glyph-name="unib5" unicode="&#xb5;" d="M673 489L590 123Q584 99 584 85Q584 66 594.50 58.50Q605 51 632 51Q634 51 642.50 51.50Q651 52 655 52L643 1Q603-3 589-3Q517-3 517 59L517 78Q445-13 290-13Q145-13 79 81L18-185L-48-185L108 489L173 489L124 274Q112 219 112 185Q112 45 297 45Q507 45 548 228L607 489L673 489Z"  horiz-adv-x="729" vert-adv-y="1000"  />

      
      <glyph glyph-name="unib6" unicode="&#xb6;" d="M640 707L627 653L593 653L404-166L346-166L535 653L373 653L184-166L126-166L238 320Q185 331 153.50 374Q122 417 122 478Q122 535 148 586Q174 637 219 666Q280 707 391 707L640 707Z"  horiz-adv-x="640" vert-adv-y="1000"  />

      
      <glyph glyph-name="unib7" unicode="&#xb7;" d="M168 344L145 245L68 245L91 344L168 344Z"  horiz-adv-x="271" vert-adv-y="1000"  />

      
      <glyph glyph-name="unib8" unicode="&#xb8;" d="M148 11L191 11L171-58Q215-66 233.50-80.50Q252-95 252-122Q252-159 223-179.50Q194-200 142-200Q114-200 55-188L40-185L47-152Q105-163 130-163Q188-163 188-127Q188-111 172-102.50Q156-94 118-90L148 11Z"  horiz-adv-x="292" vert-adv-y="1000"  />

      
      <glyph glyph-name="unib9" unicode="&#xb9;" d="M354 689L255 258L208 258L284 589Q246 564 180 564L165 564L174 604Q229 604 260.50 620.50Q292 637 321 689L354 689Z"  horiz-adv-x="476" vert-adv-y="1000"  />

      
      <glyph glyph-name="uniba" unicode="&#xba;" d="M498 551Q498 463 433 407Q368 351 266 351Q177 351 120 397Q63 443 63 515Q63 604 127 660Q191 716 291 716Q383 716 440.50 670.50Q498 625 498 551M440 548Q440 603 397 637.50Q354 672 285 672Q212 672 166.50 629.50Q121 587 121 519Q121 463 162 429.50Q203 396 270 396Q346 396 393 438Q440 480 440 548Z"  horiz-adv-x="479" vert-adv-y="1000"  />

      
      <glyph glyph-name="unibb" unicode="&#xbb;" d="M469 323L456 268L217 97L232 161L401 302L297 444L309 496L469 323M260 323L247 268L8 97L23 161L192 302L88 444L100 496L260 323Z"  horiz-adv-x="521" vert-adv-y="1000"  />

      
      <glyph glyph-name="unibc" unicode="&#xbc;" d="M970 155L960 113L867 113L842 0L796 0L821 113L553 113L561 152L892 432L940 432L877 155L970 155M816 688L297 0L239 0L760 688L816 688M881 373L626 155L831 155L881 373M382 689L283 258L236 258L312 589Q274 564 208 564L193 564L202 604Q257 604 288.50 620.50Q320 637 349 689L382 689Z"  horiz-adv-x="1083" vert-adv-y="1000"  />

      
      <glyph glyph-name="unibd" unicode="&#xbd;" d="M778 688L259 0L201 0L722 688L778 688M352 689L253 258L206 258L282 589Q244 564 178 564L163 564L172 604Q227 604 258.50 620.50Q290 637 319 689L352 689M949 42L941 0L566 0L575 45Q655 76 743 118Q853 171 896.50 210Q940 249 940 299Q940 342 905 368.50Q870 395 812 395Q755 395 718.50 369Q682 343 664 278L618 288Q643 365 690 401Q737 437 815 437Q893 437 941.50 399.50Q990 362 990 303Q990 226 922.50 174Q855 122 670 40Q916 42 949 42Z"  horiz-adv-x="1083" vert-adv-y="1000"  />

      
      <glyph glyph-name="unibe" unicode="&#xbe;" d="M995 155L985 113L892 113L866 0L820 0L846 113L577 113L586 152L917 432L965 432L902 155L995 155M847 688L327 0L270 0L791 688L847 688M906 373L651 155L856 155L906 373M206 460L214 499L267 499Q318 499 340.50 504Q363 509 380 525Q406 548 406 578Q406 612 373.50 631Q341 650 283 650Q227 650 193 628.50Q159 607 136 557L95 574Q126 635 170.50 662Q215 689 286 689Q364 689 408.50 660.50Q453 632 453 582Q453 548 429 520.50Q405 493 367 482Q431 450 431 396Q431 332 376 291Q321 250 235 250Q153 250 102.50 282Q52 314 39 375L85 387Q95 339 135.50 315Q176 291 238 291Q302 291 342 318.50Q382 346 382 390Q382 460 266 460L206 460Z"  horiz-adv-x="1083" vert-adv-y="1000"  />

      
      <glyph glyph-name="unibf" unicode="&#xbf;" d="M538 222L597 198Q537 83 459.50 33Q382-17 266-17Q149-17 82.50 33.50Q16 84 16 173Q16 246 61 307Q106 368 183 395Q213 405 279 424Q336 440 348.50 451.50Q361 463 373 509L435 509L430 492Q418 438 394 415Q370 392 316 377L279 367Q186 342 144 308Q117 286 100.50 251.50Q84 217 84 181Q84 114 136 77Q188 40 283 40Q369 40 427.50 81.50Q486 123 538 222M389 606L412 705L487 705L464 606L389 606Z"  horiz-adv-x="708" vert-adv-y="1000"  />

      
      <glyph glyph-name="unic0" unicode="&#xc0;" d="M712 0L643 0L587 183L134 183L7 0L-68 0L418 706L494 706L712 0M570 239L448 645L173 239L570 239M503 774L455 774L320 900L431 900L503 774Z"  horiz-adv-x="792" vert-adv-y="1000"  />

      
      <glyph glyph-name="unic1" unicode="&#xc1;" d="M712 0L643 0L587 183L134 183L7 0L-68 0L418 706L494 706L712 0M570 239L448 645L173 239L570 239M615 900L447 774L402 774L504 900L615 900Z"  horiz-adv-x="792" vert-adv-y="1000"  />

      
      <glyph glyph-name="unic2" unicode="&#xc2;" d="M712 0L643 0L587 183L134 183L7 0L-68 0L418 706L494 706L712 0M570 239L448 645L173 239L570 239M609 774L548 774L484 851L374 774L308 774L448 900L527 900L609 774Z"  horiz-adv-x="792" vert-adv-y="1000"  />

      
      <glyph glyph-name="unic3" unicode="&#xc3;" d="M712 0L643 0L587 183L134 183L7 0L-68 0L418 706L494 706L712 0M570 239L448 645L173 239L570 239M619 890L649 876Q631 840 601 814.50Q571 789 530 789Q504 789 459 813.50Q414 838 389 838Q351 838 318 789L289 804Q337 890 405 890Q436 890 479 866Q522 842 543 842Q584 842 619 890Z"  horiz-adv-x="792" vert-adv-y="1000"  />

      
      <glyph glyph-name="unic4" unicode="&#xc4;" d="M712 0L643 0L587 183L134 183L7 0L-68 0L418 706L494 706L712 0M570 239L448 645L173 239L570 239M684 894L662 798L591 798L613 894L684 894M361 894L339 798L268 798L290 894L361 894Z"  horiz-adv-x="792" vert-adv-y="1000"  />

      
      <glyph glyph-name="unic5" unicode="&#xc5;" d="M712 0L643 0L587 183L134 183L7 0L-68 0L418 706L494 706L712 0M570 239L448 645L173 239L570 239M584 830Q584 791 552.50 766.50Q521 742 471 742Q421 742 389 765.50Q357 789 357 826Q357 866 388.50 889.50Q420 913 473 913Q523 913 553.50 890.50Q584 868 584 830M514.50 796.50Q514.50 796.50 522.75 802.25Q531 808 531 828Q531 848 514.50 860Q498 872 470 872Q443 872 426 859.50Q409 847 409 827Q409 808 425.50 796.50Q442 785 470 785Q498 785 514.50 796.50Z"  horiz-adv-x="792" vert-adv-y="1000"  />

      
      <glyph glyph-name="unic6" unicode="&#xc6;" d="M1123 706L1110 648L663 648L604 394L1050 394L1036 334L590 334L527 59L1028 59L1014 0L446 0L486 174L170 174L5 0L-83 0L586 706L1123 706M596 632L222 230L499 230L596 632Z"  horiz-adv-x="1134" vert-adv-y="1000"  />

      
      <glyph glyph-name="unic7" unicode="&#xc7;" d="M807 517L742 488Q672 665 464 665Q312 665 209 567.50Q106 470 106 325Q106 257 128.50 204Q151 151 184 121Q217 91 261 71.50Q305 52 342 45.50Q379 39 415 39Q611 39 723 211L778 178Q722 84 628 33Q534-18 418-18Q405-18 395-17L382-61Q426-69 445-83.50Q464-98 464-125Q464-161 434.50-181.50Q405-202 353-202Q320-202 266-191L251-188L258-154Q308-166 341-166Q399-166 399-130Q399-114 383-105.50Q367-97 329-93L352-14Q207 1 121 89.50Q35 178 35 312Q35 490 158 606.50Q281 723 470 723Q711 723 807 517Z"  horiz-adv-x="812" vert-adv-y="1000"  />

      
      <glyph glyph-name="unic8" unicode="&#xc8;" d="M839 706L825 648L219 648L161 400L722 400L708 340L147 340L83 59L718 59L705 0L0 0L163 706L839 706M533 774L485 774L350 900L461 900L533 774Z"  horiz-adv-x="828" vert-adv-y="1000"  />

      
      <glyph glyph-name="unic9" unicode="&#xc9;" d="M839 706L825 648L219 648L161 400L722 400L708 340L147 340L83 59L718 59L705 0L0 0L163 706L839 706M657 900L489 774L444 774L546 900L657 900Z"  horiz-adv-x="828" vert-adv-y="1000"  />

      
      <glyph glyph-name="unica" unicode="&#xca;" d="M839 706L825 648L219 648L161 400L722 400L708 340L147 340L83 59L718 59L705 0L0 0L163 706L839 706M651 774L590 774L526 851L416 774L350 774L490 900L569 900L651 774Z"  horiz-adv-x="828" vert-adv-y="1000"  />

      
      <glyph glyph-name="unicb" unicode="&#xcb;" d="M839 706L825 648L219 648L161 400L722 400L708 340L147 340L83 59L718 59L705 0L0 0L163 706L839 706M732 894L710 798L639 798L661 894L732 894M409 894L387 798L316 798L338 894L409 894Z"  horiz-adv-x="828" vert-adv-y="1000"  />

      
      <glyph glyph-name="unicc" unicode="&#xcc;" d="M230 706L67 0L0 0L163 706L230 706M254 774L206 774L71 900L182 900L254 774Z"  horiz-adv-x="229" vert-adv-y="1000"  />

      
      <glyph glyph-name="unicd" unicode="&#xcd;" d="M230 706L67 0L0 0L163 706L230 706M362 900L194 774L149 774L251 900L362 900Z"  horiz-adv-x="229" vert-adv-y="1000"  />

      
      <glyph glyph-name="unice" unicode="&#xce;" d="M230 706L67 0L0 0L163 706L230 706M361 774L300 774L236 851L126 774L60 774L200 900L279 900L361 774Z"  horiz-adv-x="229" vert-adv-y="1000"  />

      
      <glyph glyph-name="unicf" unicode="&#xcf;" d="M230 706L67 0L0 0L163 706L230 706M424 894L402 798L331 798L353 894L424 894M101 894L79 798L8 798L30 894L101 894Z"  horiz-adv-x="229" vert-adv-y="1000"  />

      
      <glyph glyph-name="unid0" unicode="&#xd0;" d="M163 706L417 706Q532 706 580 699Q690 684 748.50 608.50Q807 533 807 416Q807 255 710 140Q648 65 557.50 32.50Q467 0 320 0L0 0L82 356L-1 356L11 408L94 408L163 706M220 648L164 407L512 407L500 356L152 356L84 59L309 59Q510 59 603 126Q664 169 700.50 248.50Q737 328 737 415Q737 506 693 565.50Q649 625 568 640Q525 648 420 648L220 648Z"  horiz-adv-x="842" vert-adv-y="1000"  />

      
      <glyph glyph-name="unid1" unicode="&#xd1;" d="M894 706L731 0L668 0L205 616L63 0L0 0L163 706L226 706L688 87L831 706L894 706M695 890L725 876Q707 840 677 814.50Q647 789 606 789Q580 789 535 813.50Q490 838 465 838Q427 838 394 789L365 804Q413 890 481 890Q512 890 555 866Q598 842 619 842Q660 842 695 890Z"  horiz-adv-x="896" vert-adv-y="1000"  />

      
      <glyph glyph-name="unid2" unicode="&#xd2;" d="M874 411Q874 322 835.50 237.50Q797 153 731 95Q607-16 405-16Q236-16 135.50 71Q35 158 35 305Q35 362 51 419Q67 476 103 531.50Q139 587 191.50 629.50Q244 672 323.50 698Q403 724 500 724Q669 724 771.50 638.50Q874 553 874 411M802 407Q802 527 718 597Q634 667 491 667Q321 667 213 566.50Q105 466 105 308Q105 185 189.50 112.50Q274 40 418 40Q582 40 692 145Q802 250 802 407M548 774L500 774L365 900L476 900L548 774Z"  horiz-adv-x="909" vert-adv-y="1000"  />

      
      <glyph glyph-name="unid3" unicode="&#xd3;" d="M874 411Q874 322 835.50 237.50Q797 153 731 95Q607-16 405-16Q236-16 135.50 71Q35 158 35 305Q35 362 51 419Q67 476 103 531.50Q139 587 191.50 629.50Q244 672 323.50 698Q403 724 500 724Q669 724 771.50 638.50Q874 553 874 411M802 407Q802 527 718 597Q634 667 491 667Q321 667 213 566.50Q105 466 105 308Q105 185 189.50 112.50Q274 40 418 40Q582 40 692 145Q802 250 802 407M661 900L493 774L448 774L550 900L661 900Z"  horiz-adv-x="909" vert-adv-y="1000"  />

      
      <glyph glyph-name="unid4" unicode="&#xd4;" d="M874 411Q874 322 835.50 237.50Q797 153 731 95Q607-16 405-16Q236-16 135.50 71Q35 158 35 305Q35 362 51 419Q67 476 103 531.50Q139 587 191.50 629.50Q244 672 323.50 698Q403 724 500 724Q669 724 771.50 638.50Q874 553 874 411M802 407Q802 527 718 597Q634 667 491 667Q321 667 213 566.50Q105 466 105 308Q105 185 189.50 112.50Q274 40 418 40Q582 40 692 145Q802 250 802 407M658 774L597 774L533 851L423 774L357 774L497 900L576 900L658 774Z"  horiz-adv-x="909" vert-adv-y="1000"  />

      
      <glyph glyph-name="unid5" unicode="&#xd5;" d="M874 411Q874 322 835.50 237.50Q797 153 731 95Q607-16 405-16Q236-16 135.50 71Q35 158 35 305Q35 362 51 419Q67 476 103 531.50Q139 587 191.50 629.50Q244 672 323.50 698Q403 724 500 724Q669 724 771.50 638.50Q874 553 874 411M802 407Q802 527 718 597Q634 667 491 667Q321 667 213 566.50Q105 466 105 308Q105 185 189.50 112.50Q274 40 418 40Q582 40 692 145Q802 250 802 407M657 890L687 876Q669 840 639 814.50Q609 789 568 789Q542 789 497 813.50Q452 838 427 838Q389 838 356 789L327 804Q375 890 443 890Q474 890 517 866Q560 842 581 842Q622 842 657 890Z"  horiz-adv-x="909" vert-adv-y="1000"  />

      
      <glyph glyph-name="unid6" unicode="&#xd6;" d="M874 411Q874 322 835.50 237.50Q797 153 731 95Q607-16 405-16Q236-16 135.50 71Q35 158 35 305Q35 362 51 419Q67 476 103 531.50Q139 587 191.50 629.50Q244 672 323.50 698Q403 724 500 724Q669 724 771.50 638.50Q874 553 874 411M802 407Q802 527 718 597Q634 667 491 667Q321 667 213 566.50Q105 466 105 308Q105 185 189.50 112.50Q274 40 418 40Q582 40 692 145Q802 250 802 407M714 894L692 798L621 798L643 894L714 894M391 894L369 798L298 798L320 894L391 894Z"  horiz-adv-x="909" vert-adv-y="1000"  />

      
      <glyph glyph-name="unid7" unicode="&#xd7;" d="M634 445L424 292L611 129L559 92L372 255L162 102L120 139L330 292L144 453L196 489L382 329L592 481L634 445Z"  horiz-adv-x="772" vert-adv-y="1000"  />

      
      <glyph glyph-name="unid8" unicode="&#xd8;" d="M920 635L830 572Q874 497 874 415Q874 362 859 305Q825 178 731 95Q605-16 405-16Q317-16 241.50 10.50Q166 37 121 84L21 17L-9 61L85 127Q34 208 34 304Q34 405 78.50 492Q123 579 204 638Q324 724 499 724Q693 724 796 616L888 680L920 635M143 167L738 577Q659 667 488 667Q320 667 212.50 566Q105 465 105 308Q105 230 143 167M772 533L178 124Q215 84 279 62Q343 40 418 40Q582 40 692 145Q802 250 802 406Q802 452 796.50 475.50Q791 499 772 533Z"  horiz-adv-x="909" vert-adv-y="1000"  />

      
      <glyph glyph-name="unid9" unicode="&#xd9;" d="M874 706L782 306Q747 153 691 87Q602-18 378-18Q217-18 134.50 38Q52 94 52 203Q52 248 72 332L159 706L224 706L136 326Q119 254 119 205Q119 122 189 81.50Q259 41 385 41Q568 41 644 128Q671 157 688.50 205Q706 253 724 333L810 706L874 706M554 774L506 774L371 900L482 900L554 774Z"  horiz-adv-x="875" vert-adv-y="1000"  />

      
      <glyph glyph-name="unida" unicode="&#xda;" d="M874 706L782 306Q747 153 691 87Q602-18 378-18Q217-18 134.50 38Q52 94 52 203Q52 248 72 332L159 706L224 706L136 326Q119 254 119 205Q119 122 189 81.50Q259 41 385 41Q568 41 644 128Q671 157 688.50 205Q706 253 724 333L810 706L874 706M669 900L501 774L456 774L558 900L669 900Z"  horiz-adv-x="875" vert-adv-y="1000"  />

      
      <glyph glyph-name="unidb" unicode="&#xdb;" d="M874 706L782 306Q747 153 691 87Q602-18 378-18Q217-18 134.50 38Q52 94 52 203Q52 248 72 332L159 706L224 706L136 326Q119 254 119 205Q119 122 189 81.50Q259 41 385 41Q568 41 644 128Q671 157 688.50 205Q706 253 724 333L810 706L874 706M674 774L613 774L549 851L439 774L373 774L513 900L592 900L674 774Z"  horiz-adv-x="875" vert-adv-y="1000"  />

      
      <glyph glyph-name="unidc" unicode="&#xdc;" d="M874 706L782 306Q747 153 691 87Q602-18 378-18Q217-18 134.50 38Q52 94 52 203Q52 248 72 332L159 706L224 706L136 326Q119 254 119 205Q119 122 189 81.50Q259 41 385 41Q568 41 644 128Q671 157 688.50 205Q706 253 724 333L810 706L874 706M742 894L720 798L649 798L671 894L742 894M419 894L397 798L326 798L348 894L419 894Z"  horiz-adv-x="875" vert-adv-y="1000"  />

      
      <glyph glyph-name="unidd" unicode="&#xdd;" d="M800 706L383 286L317 0L253 0L319 286L84 706L163 706L360 343L716 706L800 706M613 900L445 774L400 774L502 900L613 900Z"  horiz-adv-x="729" vert-adv-y="1000"  />

      
      <glyph glyph-name="unide" unicode="&#xde;" d="M163 706L233 706L200 565L559 565Q642 565 681.50 556.50Q721 548 749 523Q802 478 802 398Q802 325 762 268Q722 211 655 192Q619 181 583 178Q547 175 464 175L110 175L70 0L0 0L163 706M186 507L123 233L482 233Q558 233 602.50 239.50Q647 246 675 267Q728 306 728 389Q728 443 700 474Q682 494 652 500.50Q622 507 546 507L186 507Z"  horiz-adv-x="812" vert-adv-y="1000"  />

      
      <glyph glyph-name="unidf" unicode="&#xdf;" d="M311 389L324 443L371 443Q458 443 504 457Q602 486 602 564Q602 612 548.50 641Q495 670 407 670Q298 670 244 630Q196 596 166 467L58 0L-5 0L104 471Q123 554 142 595Q174 661 238.50 692.50Q303 724 408 724Q533 724 601.50 685.50Q670 647 670 577Q670 450 530 416Q642 379 642 261Q642 216 623.50 162Q605 108 576 70Q516-10 378-10Q207-10 207 123Q207 137 211 164L275 164Q272 138 272 132Q272 86 298 65.50Q324 45 381 45Q461 45 505 83Q536 110 555 159.50Q574 209 574 263Q574 324 534 355Q490 390 377 390Q342 390 311 389Z"  horiz-adv-x="708" vert-adv-y="1000"  />

      
      <glyph glyph-name="unie0" unicode="&#xe0;" d="M605 51L594 1Q559-4 540-4Q468-4 468 57L468 72Q385-13 195-13Q103-13 52.50 24.50Q2 62 2 130Q2 174 24.50 215Q47 256 97 278Q192 320 415 320L526 320Q532 352 532 370Q532 412 475.50 431Q419 450 331 450Q239 450 192.50 425.50Q146 401 126 342L58 346Q83 431 148 468Q213 505 337 505Q469 505 531 473Q593 441 593 373Q593 347 585 315L541 122Q535 98 535 84Q535 65 545.50 58Q556 51 583 51L605 51M507 237L513 266Q496 266 472.50 266.50Q449 267 443 267Q191 267 122 229Q71 200 71 139Q71 90 107 66.50Q143 43 219 43Q346 43 416.50 91Q487 139 507 237M396 554L353 554L224 699L333 699L396 554Z"  horiz-adv-x="667" vert-adv-y="1000"  />

      
      <glyph glyph-name="unie1" unicode="&#xe1;" d="M605 51L594 1Q559-4 540-4Q468-4 468 57L468 72Q385-13 195-13Q103-13 52.50 24.50Q2 62 2 130Q2 174 24.50 215Q47 256 97 278Q192 320 415 320L526 320Q532 352 532 370Q532 412 475.50 431Q419 450 331 450Q239 450 192.50 425.50Q146 401 126 342L58 346Q83 431 148 468Q213 505 337 505Q469 505 531 473Q593 441 593 373Q593 347 585 315L541 122Q535 98 535 84Q535 65 545.50 58Q556 51 583 51L605 51M507 237L513 266Q496 266 472.50 266.50Q449 267 443 267Q191 267 122 229Q71 200 71 139Q71 90 107 66.50Q143 43 219 43Q346 43 416.50 91Q487 139 507 237M499 700L334 555L291 555L390 700L499 700Z"  horiz-adv-x="667" vert-adv-y="1000"  />

      
      <glyph glyph-name="unie2" unicode="&#xe2;" d="M605 51L594 1Q559-4 540-4Q468-4 468 57L468 72Q385-13 195-13Q103-13 52.50 24.50Q2 62 2 130Q2 174 24.50 215Q47 256 97 278Q192 320 415 320L526 320Q532 352 532 370Q532 412 475.50 431Q419 450 331 450Q239 450 192.50 425.50Q146 401 126 342L58 346Q83 431 148 468Q213 505 337 505Q469 505 531 473Q593 441 593 373Q593 347 585 315L541 122Q535 98 535 84Q535 65 545.50 58Q556 51 583 51L605 51M507 237L513 266Q496 266 472.50 266.50Q449 267 443 267Q191 267 122 229Q71 200 71 139Q71 90 107 66.50Q143 43 219 43Q346 43 416.50 91Q487 139 507 237M483 549L434 549L374 634L269 549L213 549L349 681L408 681L483 549Z"  horiz-adv-x="667" vert-adv-y="1000"  />

      
      <glyph glyph-name="unie3" unicode="&#xe3;" d="M605 51L594 1Q559-4 540-4Q468-4 468 57L468 72Q385-13 195-13Q103-13 52.50 24.50Q2 62 2 130Q2 174 24.50 215Q47 256 97 278Q192 320 415 320L526 320Q532 352 532 370Q532 412 475.50 431Q419 450 331 450Q239 450 192.50 425.50Q146 401 126 342L58 346Q83 431 148 468Q213 505 337 505Q469 505 531 473Q593 441 593 373Q593 347 585 315L541 122Q535 98 535 84Q535 65 545.50 58Q556 51 583 51L605 51M507 237L513 266Q496 266 472.50 266.50Q449 267 443 267Q191 267 122 229Q71 200 71 139Q71 90 107 66.50Q143 43 219 43Q346 43 416.50 91Q487 139 507 237M510 670L539 656Q524 621 493 594Q462 567 424 567Q399 567 356 592Q313 617 289 617Q253 617 221 567L193 582Q239 670 304 670Q334 670 374.50 645.50Q415 621 435 621Q477 621 510 670Z"  horiz-adv-x="667" vert-adv-y="1000"  />

      
      <glyph glyph-name="unie4" unicode="&#xe4;" d="M605 51L594 1Q559-4 540-4Q468-4 468 57L468 72Q385-13 195-13Q103-13 52.50 24.50Q2 62 2 130Q2 174 24.50 215Q47 256 97 278Q192 320 415 320L526 320Q532 352 532 370Q532 412 475.50 431Q419 450 331 450Q239 450 192.50 425.50Q146 401 126 342L58 346Q83 431 148 468Q213 505 337 505Q469 505 531 473Q593 441 593 373Q593 347 585 315L541 122Q535 98 535 84Q535 65 545.50 58Q556 51 583 51L605 51M507 237L513 266Q496 266 472.50 266.50Q449 267 443 267Q191 267 122 229Q71 200 71 139Q71 90 107 66.50Q143 43 219 43Q346 43 416.50 91Q487 139 507 237M536 659L514 564L444 564L466 659L536 659M270 659L249 564L178 564L200 659L270 659Z"  horiz-adv-x="667" vert-adv-y="1000"  />

      
      <glyph glyph-name="unie5" unicode="&#xe5;" d="M605 51L594 1Q559-4 540-4Q468-4 468 57L468 72Q385-13 195-13Q103-13 52.50 24.50Q2 62 2 130Q2 174 24.50 215Q47 256 97 278Q192 320 415 320L526 320Q532 352 532 370Q532 412 475.50 431Q419 450 331 450Q239 450 192.50 425.50Q146 401 126 342L58 346Q83 431 148 468Q213 505 337 505Q469 505 531 473Q593 441 593 373Q593 347 585 315L541 122Q535 98 535 84Q535 65 545.50 58Q556 51 583 51L605 51M507 237L513 266Q496 266 472.50 266.50Q449 267 443 267Q191 267 122 229Q71 200 71 139Q71 90 107 66.50Q143 43 219 43Q346 43 416.50 91Q487 139 507 237M475 633Q475 594 443 569.50Q411 545 360 545Q310 545 278.50 569Q247 593 247 630Q247 668 279 692.50Q311 717 362 717Q412 717 443.50 693.50Q475 670 475 633M405 600.50Q405 600.50 413.50 606.25Q422 612 422 631Q422 650 404.50 662.50Q387 675 359 675Q333 675 316 662.50Q299 650 299 631Q299 612 315.50 600.50Q332 589 360 589Q388 589 405 600.50Z"  horiz-adv-x="667" vert-adv-y="1000"  />

      
      <glyph glyph-name="unie6" unicode="&#xe6;" d="M571 237Q570 226 570 213Q570 139 627 91Q684 43 772 43Q916 43 1007 169L1052 131Q945-14 764-14Q675-14 616.50 17Q558 48 521 117Q482 49 407 18Q332-13 213-13Q111-13 56.50 25Q2 63 2 136Q2 204 54 248Q84 272 137.50 282.50Q191 293 288 293L518 293Q531 337 531 358Q531 398 502 415Q445 449 328 449Q218 449 175 415Q141 389 127 344L58 348Q76 406 119 446Q182 505 326 505Q435 505 496 484.50Q557 464 584 418Q633 465 685 485Q737 505 810 505Q937 505 1006 443Q1075 381 1075 268Q1075 251 1074 237L571 237M1005 292Q998 369 947 410Q896 451 807 451Q722 451 663.50 409Q605 367 583 292L1005 292M506 238Q327 237 283 237Q248 237 227.50 236.50Q207 236 178.50 233Q150 230 134 224Q118 218 101.50 208Q85 198 78 181Q71 164 71 141Q71 43 231 43Q409 43 471 137Q490 168 506 238Z"  horiz-adv-x="1146" vert-adv-y="1000"  />

      
      <glyph glyph-name="unie7" unicode="&#xe7;" d="M613 346L549 320Q528 358 513.50 375Q499 392 472 408Q413 446 332 446Q219 446 151 386Q83 326 83 225Q83 142 141 92.50Q199 43 296 43Q380 43 438.50 78Q497 113 540 187L602 159Q577 120 560 101Q543 82 515 60Q468 22 416 5Q364-12 287-14L274-58Q318-66 337-80.50Q356-95 356-122Q356-159 326.50-179.50Q297-200 245-200Q216-200 158-188L143-185L150-151Q197-163 233-163Q291-163 291-127Q291-111 275-102.50Q259-94 221-90L245-11Q137 0 75.50 61Q14 122 14 218Q14 342 104.50 422.50Q195 503 334 503Q432 503 505 462Q578 421 613 346Z"  horiz-adv-x="665" vert-adv-y="1000"  />

      
      <glyph glyph-name="unie8" unicode="&#xe8;" d="M518 169L564 131Q508 56 438 21Q368-14 274-14Q156-14 85.50 48.50Q15 111 15 217Q15 345 100.50 425Q186 505 323 505Q448 505 517.50 442.50Q587 380 587 268Q587 251 586 237L83 237Q81 226 81 213Q81 139 138 91Q195 43 283 43Q426 43 518 169M95 292L516 292Q508 369 457.50 410Q407 451 318 451Q234 451 175.50 409Q117 367 95 292M383 554L340 554L211 699L320 699L383 554Z"  horiz-adv-x="658" vert-adv-y="1000"  />

      
      <glyph glyph-name="unie9" unicode="&#xe9;" d="M518 169L564 131Q508 56 438 21Q368-14 274-14Q156-14 85.50 48.50Q15 111 15 217Q15 345 100.50 425Q186 505 323 505Q448 505 517.50 442.50Q587 380 587 268Q587 251 586 237L83 237Q81 226 81 213Q81 139 138 91Q195 43 283 43Q426 43 518 169M95 292L516 292Q508 369 457.50 410Q407 451 318 451Q234 451 175.50 409Q117 367 95 292M480 700L315 555L272 555L371 700L480 700Z"  horiz-adv-x="658" vert-adv-y="1000"  />

      
      <glyph glyph-name="uniea" unicode="&#xea;" d="M518 169L564 131Q508 56 438 21Q368-14 274-14Q156-14 85.50 48.50Q15 111 15 217Q15 345 100.50 425Q186 505 323 505Q448 505 517.50 442.50Q587 380 587 268Q587 251 586 237L83 237Q81 226 81 213Q81 139 138 91Q195 43 283 43Q426 43 518 169M95 292L516 292Q508 369 457.50 410Q407 451 318 451Q234 451 175.50 409Q117 367 95 292M460 549L411 549L351 634L246 549L190 549L326 681L385 681L460 549Z"  horiz-adv-x="658" vert-adv-y="1000"  />

      
      <glyph glyph-name="unieb" unicode="&#xeb;" d="M518 169L564 131Q508 56 438 21Q368-14 274-14Q156-14 85.50 48.50Q15 111 15 217Q15 345 100.50 425Q186 505 323 505Q448 505 517.50 442.50Q587 380 587 268Q587 251 586 237L83 237Q81 226 81 213Q81 139 138 91Q195 43 283 43Q426 43 518 169M95 292L516 292Q508 369 457.50 410Q407 451 318 451Q234 451 175.50 409Q117 367 95 292M528 659L506 564L436 564L458 659L528 659M262 659L241 564L170 564L192 659L262 659Z"  horiz-adv-x="658" vert-adv-y="1000"  />

      
      <glyph glyph-name="uniec" unicode="&#xec;" d="M175 489L61 0L-5 0L109 489L175 489M199 554L156 554L27 699L136 699L199 554Z"  horiz-adv-x="208" vert-adv-y="1000"  />

      
      <glyph glyph-name="unied" unicode="&#xed;" d="M175 489L61 0L-5 0L109 489L175 489M308 700L143 555L100 555L199 700L308 700Z"  horiz-adv-x="208" vert-adv-y="1000"  />

      
      <glyph glyph-name="uniee" unicode="&#xee;" d="M175 489L61 0L-5 0L109 489L175 489M283 549L234 549L174 634L69 549L13 549L149 681L208 681L283 549Z"  horiz-adv-x="208" vert-adv-y="1000"  />

      
      <glyph glyph-name="unief" unicode="&#xef;" d="M175 489L61 0L-5 0L109 489L175 489M337 659L315 564L245 564L267 659L337 659M71 659L50 564L-21 564L1 659L71 659Z"  horiz-adv-x="208" vert-adv-y="1000"  />

      
      <glyph glyph-name="unif0" unicode="&#xf0;" d="M598 676L614 625L504 607Q634 455 634 288Q634 153 541.50 69.50Q449-14 300-14Q170-14 91.50 49Q13 112 13 217Q13 262 31 308.50Q49 355 86 400Q123 445 192 473.50Q261 502 352 502Q464 502 529 445Q497 523 423 594L204 557L188 607L380 639Q372 647 363 655Q354 663 347 668Q340 673 323 686Q306 699 293 708L379 723Q444 672 461 652L598 676M563 269Q563 348 508.50 398Q454 448 359 448Q232 448 158 384Q84 320 84 219Q84 135 142.50 87.50Q201 40 303 40Q417 40 490 104.50Q563 169 563 269Z"  horiz-adv-x="700" vert-adv-y="1000"  />

      
      <glyph glyph-name="unif1" unicode="&#xf1;" d="M107 489L173 489L158 420Q227 502 380 502Q499 502 562 454.50Q625 407 625 317Q625 275 612 219L562 0L496 0L545 215Q557 266 557 304Q557 444 372 444Q263 444 201.50 397.50Q140 351 117 249L61 0L-5 0L107 489M546 670L575 656Q560 621 529 594Q498 567 460 567Q435 567 392 592Q349 617 325 617Q289 617 257 567L229 582Q275 670 340 670Q370 670 410.50 645.50Q451 621 471 621Q513 621 546 670Z"  horiz-adv-x="708" vert-adv-y="1000"  />

      
      <glyph glyph-name="unif2" unicode="&#xf2;" d="M634 272Q634 149 538.50 67.50Q443-14 300-14Q170-14 91.50 49Q13 112 13 217Q13 255 24.50 293.50Q36 332 62.50 370Q89 408 127 437Q165 466 224 484Q283 502 354 502Q482 502 558 439.50Q634 377 634 272M563 269Q563 298 553 327Q543 356 521.50 384.50Q500 413 457.50 430.50Q415 448 357 448Q284 448 229 426.50Q174 405 143.50 369.50Q113 334 98.50 296Q84 258 84 219Q84 135 142.50 87.50Q201 40 303 40Q417 40 490 104.50Q563 169 563 269M416 554L373 554L244 699L353 699L416 554Z"  horiz-adv-x="700" vert-adv-y="1000"  />

      
      <glyph glyph-name="unif3" unicode="&#xf3;" d="M634 272Q634 149 538.50 67.50Q443-14 300-14Q170-14 91.50 49Q13 112 13 217Q13 255 24.50 293.50Q36 332 62.50 370Q89 408 127 437Q165 466 224 484Q283 502 354 502Q482 502 558 439.50Q634 377 634 272M563 269Q563 298 553 327Q543 356 521.50 384.50Q500 413 457.50 430.50Q415 448 357 448Q284 448 229 426.50Q174 405 143.50 369.50Q113 334 98.50 296Q84 258 84 219Q84 135 142.50 87.50Q201 40 303 40Q417 40 490 104.50Q563 169 563 269M520 700L355 555L312 555L411 700L520 700Z"  horiz-adv-x="700" vert-adv-y="1000"  />

      
      <glyph glyph-name="unif4" unicode="&#xf4;" d="M634 272Q634 149 538.50 67.50Q443-14 300-14Q170-14 91.50 49Q13 112 13 217Q13 255 24.50 293.50Q36 332 62.50 370Q89 408 127 437Q165 466 224 484Q283 502 354 502Q482 502 558 439.50Q634 377 634 272M563 269Q563 298 553 327Q543 356 521.50 384.50Q500 413 457.50 430.50Q415 448 357 448Q284 448 229 426.50Q174 405 143.50 369.50Q113 334 98.50 296Q84 258 84 219Q84 135 142.50 87.50Q201 40 303 40Q417 40 490 104.50Q563 169 563 269M494 549L445 549L385 634L280 549L224 549L360 681L419 681L494 549Z"  horiz-adv-x="700" vert-adv-y="1000"  />

      
      <glyph glyph-name="unif5" unicode="&#xf5;" d="M634 272Q634 149 538.50 67.50Q443-14 300-14Q170-14 91.50 49Q13 112 13 217Q13 255 24.50 293.50Q36 332 62.50 370Q89 408 127 437Q165 466 224 484Q283 502 354 502Q482 502 558 439.50Q634 377 634 272M563 269Q563 298 553 327Q543 356 521.50 384.50Q500 413 457.50 430.50Q415 448 357 448Q284 448 229 426.50Q174 405 143.50 369.50Q113 334 98.50 296Q84 258 84 219Q84 135 142.50 87.50Q201 40 303 40Q417 40 490 104.50Q563 169 563 269M512 670L541 656Q526 621 495 594Q464 567 426 567Q401 567 358 592Q315 617 291 617Q255 617 223 567L195 582Q241 670 306 670Q336 670 376.50 645.50Q417 621 437 621Q479 621 512 670Z"  horiz-adv-x="700" vert-adv-y="1000"  />

      
      <glyph glyph-name="unif6" unicode="&#xf6;" d="M634 272Q634 149 538.50 67.50Q443-14 300-14Q170-14 91.50 49Q13 112 13 217Q13 255 24.50 293.50Q36 332 62.50 370Q89 408 127 437Q165 466 224 484Q283 502 354 502Q482 502 558 439.50Q634 377 634 272M563 269Q563 298 553 327Q543 356 521.50 384.50Q500 413 457.50 430.50Q415 448 357 448Q284 448 229 426.50Q174 405 143.50 369.50Q113 334 98.50 296Q84 258 84 219Q84 135 142.50 87.50Q201 40 303 40Q417 40 490 104.50Q563 169 563 269M559 659L537 564L467 564L489 659L559 659M293 659L272 564L201 564L223 659L293 659Z"  horiz-adv-x="700" vert-adv-y="1000"  />

      
      <glyph glyph-name="unif7" unicode="&#xf7;" d="M458 477L440 395L357 395L376 477L458 477M702 323L687 263L49 263L63 323L702 323M393 188L374 106L291 106L310 188L393 188Z"  horiz-adv-x="772" vert-adv-y="1000"  />

      
      <glyph glyph-name="unif8" unicode="&#xf8;" d="M655 443L594 401Q634 343 634 271Q634 149 538.50 67.50Q443-14 299-14Q168-14 82 57L11 10L-19 53L48 98Q27 132 20 154.50Q13 177 13 217Q13 339 109 422Q201 502 358 502Q492 502 557 440L624 485L655 443M103 135L501 402Q442 448 347 448Q232 448 158 383Q84 318 84 218Q84 169 103 135M537 362L136 93Q199 40 304 40Q417 40 490 104Q563 168 563 268Q563 324 537 362Z"  horiz-adv-x="700" vert-adv-y="1000"  />

      
      <glyph glyph-name="unif9" unicode="&#xf9;" d="M672 489L561 0L495 0L510 69Q441-14 288-14Q168-14 105.50 33.50Q43 81 43 172Q43 212 56 270L105 489L171 489L123 273Q111 216 111 184Q111 44 296 44Q414 44 480 103Q510 129 524.50 160.50Q539 192 551 245L606 489L672 489M442 554L399 554L270 699L379 699L442 554Z"  horiz-adv-x="708" vert-adv-y="1000"  />

      
      <glyph glyph-name="unifa" unicode="&#xfa;" d="M672 489L561 0L495 0L510 69Q441-14 288-14Q168-14 105.50 33.50Q43 81 43 172Q43 212 56 270L105 489L171 489L123 273Q111 216 111 184Q111 44 296 44Q414 44 480 103Q510 129 524.50 160.50Q539 192 551 245L606 489L672 489M543 700L378 555L335 555L434 700L543 700Z"  horiz-adv-x="708" vert-adv-y="1000"  />

      
      <glyph glyph-name="unifb" unicode="&#xfb;" d="M672 489L561 0L495 0L510 69Q441-14 288-14Q168-14 105.50 33.50Q43 81 43 172Q43 212 56 270L105 489L171 489L123 273Q111 216 111 184Q111 44 296 44Q414 44 480 103Q510 129 524.50 160.50Q539 192 551 245L606 489L672 489M520 549L471 549L411 634L306 549L250 549L386 681L445 681L520 549Z"  horiz-adv-x="708" vert-adv-y="1000"  />

      
      <glyph glyph-name="unifc" unicode="&#xfc;" d="M672 489L561 0L495 0L510 69Q441-14 288-14Q168-14 105.50 33.50Q43 81 43 172Q43 212 56 270L105 489L171 489L123 273Q111 216 111 184Q111 44 296 44Q414 44 480 103Q510 129 524.50 160.50Q539 192 551 245L606 489L672 489M586 659L564 564L494 564L516 659L586 659M320 659L299 564L228 564L250 659L320 659Z"  horiz-adv-x="708" vert-adv-y="1000"  />

      
      <glyph glyph-name="unifd" unicode="&#xfd;" d="M519 489L597 489L241-39Q231-53 221-69.50Q211-86 206.50-93Q202-100 193.50-110Q185-120 174-133Q143-168 107-182.50Q71-197 17-197Q-30-197-107-179L-92-116Q-28-139 19-139Q67-139 101-117Q135-95 175-28L37 489L109 489L227 44L519 489M478 700L313 555L270 555L369 700L478 700Z"  horiz-adv-x="562" vert-adv-y="1000"  />

      
      <glyph glyph-name="unife" unicode="&#xfe;" d="M157 706L223 706L158 425Q238 502 383 502Q502 502 573 440Q644 378 644 273Q644 145 552.50 64Q461-17 316-17Q156-17 79 86L17-187L-49-187L157 706M572 270Q572 353 519 398.50Q466 444 370 444Q251 444 183 381.50Q115 319 115 208Q115 129 169.50 85Q224 41 321 41Q434 41 503 104Q572 167 572 270Z"  horiz-adv-x="708" vert-adv-y="1000"  />

      
      <glyph glyph-name="uniff" unicode="&#xff;" d="M519 489L597 489L241-39Q231-53 221-69.50Q211-86 206.50-93Q202-100 193.50-110Q185-120 174-133Q143-168 107-182.50Q71-197 17-197Q-30-197-107-179L-92-116Q-28-139 19-139Q67-139 101-117Q135-95 175-28L37 489L109 489L227 44L519 489M513 659L491 564L421 564L443 659L513 659M247 659L226 564L155 564L177 659L247 659Z"  horiz-adv-x="562" vert-adv-y="1000"  />

      
      <glyph glyph-name="uni0100" unicode="&#x0100;" d="M712 0L643 0L587 183L134 183L7 0L-68 0L418 706L494 706L712 0M570 239L448 645L173 239L570 239M654 861L641 809L306 809L319 861L654 861Z"  horiz-adv-x="792" vert-adv-y="1000"  />

      
      <glyph glyph-name="uni0101" unicode="&#x0101;" d="M605 51L594 1Q559-4 540-4Q468-4 468 57L468 72Q385-13 195-13Q103-13 52.50 24.50Q2 62 2 130Q2 174 24.50 215Q47 256 97 278Q192 320 415 320L526 320Q532 352 532 370Q532 412 475.50 431Q419 450 331 450Q239 450 192.50 425.50Q146 401 126 342L58 346Q83 431 148 468Q213 505 337 505Q469 505 531 473Q593 441 593 373Q593 347 585 315L541 122Q535 98 535 84Q535 65 545.50 58Q556 51 583 51L605 51M507 237L513 266Q496 266 472.50 266.50Q449 267 443 267Q191 267 122 229Q71 200 71 139Q71 90 107 66.50Q143 43 219 43Q346 43 416.50 91Q487 139 507 237M551 621L538 569L203 569L216 621L551 621Z"  horiz-adv-x="667" vert-adv-y="1000"  />

      
      <glyph glyph-name="uni0102" unicode="&#x0102;" d="M712 0L643 0L587 183L134 183L7 0L-68 0L418 706L494 706L712 0M570 239L448 645L173 239L570 239M579 897L629 897Q614 841 569.50 810Q525 779 465 779Q403 779 368 811Q350 827 344 845Q338 863 336 897L387 897Q390 825 471 825Q555 825 579 897Z"  horiz-adv-x="792" vert-adv-y="1000"  />

      
      <glyph glyph-name="uni0103" unicode="&#x0103;" d="M605 51L594 1Q559-4 540-4Q468-4 468 57L468 72Q385-13 195-13Q103-13 52.50 24.50Q2 62 2 130Q2 174 24.50 215Q47 256 97 278Q192 320 415 320L526 320Q532 352 532 370Q532 412 475.50 431Q419 450 331 450Q239 450 192.50 425.50Q146 401 126 342L58 346Q83 431 148 468Q213 505 337 505Q469 505 531 473Q593 441 593 373Q593 347 585 315L541 122Q535 98 535 84Q535 65 545.50 58Q556 51 583 51L605 51M507 237L513 266Q496 266 472.50 266.50Q449 267 443 267Q191 267 122 229Q71 200 71 139Q71 90 107 66.50Q143 43 219 43Q346 43 416.50 91Q487 139 507 237M482 682L531 682Q519 626 476.50 592Q434 558 375 558Q322 558 287.50 588.50Q253 619 253 677L253 682L303 682Q306 604 381 604Q457 604 482 682Z"  horiz-adv-x="667" vert-adv-y="1000"  />

      
      <glyph glyph-name="uni0104" unicode="&#x0104;" d="M494 706L712 0L707 0Q653-5 621.50-29Q590-53 590-84Q590-133 675-133Q691-133 704-132L693-182Q674-183 652-183Q590-183 557-163.50Q524-144 524-107Q524-33 641 6L587 183L134 183L7 0L-68 0L418 706L494 706M570 239L448 645L173 239L570 239Z"  horiz-adv-x="792" vert-adv-y="1000"  />

      
      <glyph glyph-name="uni0105" unicode="&#x0105;" d="M605 51L594 1Q409-4 409-84Q409-133 494-133Q510-133 523-132L512-182Q493-183 471-183Q409-183 376-163.50Q343-144 343-107Q343-26 484 14Q468 30 468 57L468 72Q385-13 195-13Q103-13 52.50 24.50Q2 62 2 130Q2 174 24.50 215Q47 256 97 278Q192 320 415 320L526 320Q532 352 532 370Q532 412 475.50 431Q419 450 331 450Q239 450 192.50 425.50Q146 401 126 342L58 346Q83 431 148 468Q213 505 337 505Q469 505 531 473Q593 441 593 373Q593 347 585 315L541 122Q535 98 535 84Q535 65 545.50 58Q556 51 583 51L605 51M507 237L513 266Q496 266 472.50 266.50Q449 267 443 267Q191 267 122 229Q71 200 71 139Q71 90 107 66.50Q143 43 219 43Q346 43 416.50 91Q487 139 507 237Z"  horiz-adv-x="667" vert-adv-y="1000"  />

      
      <glyph glyph-name="uni0106" unicode="&#x0106;" d="M807 517L742 488Q672 665 464 665Q312 665 209 567.50Q106 470 106 325Q106 228 147 166Q185 107 257 73Q329 39 415 39Q551 39 645 119Q686 154 723 211L778 178Q720 83 625.50 32.50Q531-18 410-18Q241-18 138 73Q35 164 35 312Q35 490 158 606.50Q281 723 470 723Q711 723 807 517M638 900L470 774L425 774L527 900L638 900Z"  horiz-adv-x="812" vert-adv-y="1000"  />

      
      <glyph glyph-name="uni0107" unicode="&#x0107;" d="M613 346L549 320Q485 446 332 446Q219 446 151 386Q83 326 83 225Q83 142 141 92.50Q199 43 296 43Q409 43 480 109Q506 134 540 187L602 159Q543 69 468 27.50Q393-14 289-14Q164-14 89 49Q14 112 14 218Q14 342 104.50 422.50Q195 503 334 503Q432 503 505 462Q578 421 613 346M501 700L336 555L293 555L392 700L501 700Z"  horiz-adv-x="665" vert-adv-y="1000"  />

      
      <glyph glyph-name="uni0108" unicode="&#x0108;" d="M807 517L742 488Q672 665 464 665Q312 665 209 567.50Q106 470 106 325Q106 228 147 166Q185 107 257 73Q329 39 415 39Q551 39 645 119Q686 154 723 211L778 178Q720 83 625.50 32.50Q531-18 410-18Q241-18 138 73Q35 164 35 312Q35 490 158 606.50Q281 723 470 723Q711 723 807 517M644 774L583 774L519 851L409 774L343 774L483 900L562 900L644 774Z"  horiz-adv-x="812" vert-adv-y="1000"  />

      
      <glyph glyph-name="uni0109" unicode="&#x0109;" d="M613 346L549 320Q485 446 332 446Q219 446 151 386Q83 326 83 225Q83 142 141 92.50Q199 43 296 43Q409 43 480 109Q506 134 540 187L602 159Q543 69 468 27.50Q393-14 289-14Q164-14 89 49Q14 112 14 218Q14 342 104.50 422.50Q195 503 334 503Q432 503 505 462Q578 421 613 346M484 549L435 549L375 634L270 549L214 549L350 681L409 681L484 549Z"  horiz-adv-x="665" vert-adv-y="1000"  />

      
      <glyph glyph-name="uni010A" unicode="&#x010A;" d="M807 517L742 488Q672 665 464 665Q312 665 209 567.50Q106 470 106 325Q106 228 147 166Q185 107 257 73Q329 39 415 39Q551 39 645 119Q686 154 723 211L778 178Q720 83 625.50 32.50Q531-18 410-18Q241-18 138 73Q35 164 35 312Q35 490 158 606.50Q281 723 470 723Q711 723 807 517M552 895L529 798L456 798L479 895L552 895Z"  horiz-adv-x="812" vert-adv-y="1000"  />

      
      <glyph glyph-name="uni010B" unicode="&#x010B;" d="M613 346L549 320Q485 446 332 446Q219 446 151 386Q83 326 83 225Q83 142 141 92.50Q199 43 296 43Q409 43 480 109Q506 134 540 187L602 159Q543 69 468 27.50Q393-14 289-14Q164-14 89 49Q14 112 14 218Q14 342 104.50 422.50Q195 503 334 503Q432 503 505 462Q578 421 613 346M414 660L391 563L318 563L341 660L414 660Z"  horiz-adv-x="665" vert-adv-y="1000"  />

      
      <glyph glyph-name="uni010C" unicode="&#x010C;" d="M807 517L742 488Q672 665 464 665Q312 665 209 567.50Q106 470 106 325Q106 228 147 166Q185 107 257 73Q329 39 415 39Q551 39 645 119Q686 154 723 211L778 178Q720 83 625.50 32.50Q531-18 410-18Q241-18 138 73Q35 164 35 312Q35 490 158 606.50Q281 723 470 723Q711 723 807 517M667 900L526 774L447 774L366 900L426 900L491 823L600 900L667 900Z"  horiz-adv-x="812" vert-adv-y="1000"  />

      
      <glyph glyph-name="uni010D" unicode="&#x010D;" d="M613 346L549 320Q485 446 332 446Q219 446 151 386Q83 326 83 225Q83 142 141 92.50Q199 43 296 43Q409 43 480 109Q506 134 540 187L602 159Q543 69 468 27.50Q393-14 289-14Q164-14 89 49Q14 112 14 218Q14 342 104.50 422.50Q195 503 334 503Q432 503 505 462Q578 421 613 346M511 680L375 548L316 548L241 680L291 680L350 595L456 680L511 680Z"  horiz-adv-x="665" vert-adv-y="1000"  />

      
      <glyph glyph-name="uni010E" unicode="&#x010E;" d="M0 0L163 706L417 706Q523 706 580 699Q659 688 710 647Q807 569 807 416Q807 255 710 140Q648 65 557.50 32.50Q467 0 320 0L0 0M84 59L309 59Q510 59 603 126Q664 169 700.50 248.50Q737 328 737 415Q737 512 687 572Q643 626 568 640Q525 648 420 648L220 648L84 59M611 900L470 774L391 774L310 900L370 900L435 823L544 900L611 900Z"  horiz-adv-x="842" vert-adv-y="1000"  />

      
      <glyph glyph-name="uni010F" unicode="&#x010F;" d="M713 706L550 0L484 0L499 63Q446 20 395 3Q344-14 274-14Q154-14 84 47.50Q14 109 14 214Q14 341 106 422Q198 503 341 503Q426 503 479 479Q532 455 576 396L648 706L713 706M541 280Q541 360 487 404.50Q433 449 337 449Q224 449 154.50 384.50Q85 320 85 215Q85 132 138 86.50Q191 41 287 41Q405 41 473 105Q541 169 541 280M747 706L821 706L798 606Q780 528 705 523L712 555Q749 561 760 603L765 623L728 623L747 706Z"  horiz-adv-x="708" vert-adv-y="1000"  />

      
      <glyph glyph-name="uni0110" unicode="&#x0110;" d="M163 706L417 706Q532 706 580 699Q690 684 748.50 608.50Q807 533 807 416Q807 255 710 140Q648 65 557.50 32.50Q467 0 320 0L0 0L82 356L-1 356L11 408L94 408L163 706M220 648L164 407L512 407L500 356L152 356L84 59L309 59Q510 59 603 126Q664 169 700.50 248.50Q737 328 737 415Q737 506 693 565.50Q649 625 568 640Q525 648 420 648L220 648Z"  horiz-adv-x="842" vert-adv-y="1000"  />

      
      <glyph glyph-name="uni0111" unicode="&#x0111;" d="M713 706L690 606L757 606L746 556L678 556L550 0L484 0L499 63Q446 20 395 3Q344-14 274-14Q154-14 84 47.50Q14 109 14 214Q14 341 106 422Q198 503 341 503Q426 503 479 479Q532 455 576 396L613 556L355 556L366 606L624 606L648 706L713 706M541 280Q541 360 487 404.50Q433 449 337 449Q224 449 154.50 384.50Q85 320 85 215Q85 132 138 86.50Q191 41 287 41Q405 41 473 105Q541 169 541 280Z"  horiz-adv-x="708" vert-adv-y="1000"  />

      
      <glyph glyph-name="uni0112" unicode="&#x0112;" d="M839 706L825 648L219 648L161 400L722 400L708 340L147 340L83 59L718 59L705 0L0 0L163 706L839 706M698 861L685 809L350 809L363 861L698 861Z"  horiz-adv-x="828" vert-adv-y="1000"  />

      
      <glyph glyph-name="uni0113" unicode="&#x0113;" d="M518 169L564 131Q508 56 438 21Q368-14 274-14Q156-14 85.50 48.50Q15 111 15 217Q15 345 100.50 425Q186 505 323 505Q448 505 517.50 442.50Q587 380 587 268Q587 251 586 237L83 237Q81 226 81 213Q81 139 138 91Q195 43 283 43Q426 43 518 169M95 292L516 292Q508 369 457.50 410Q407 451 318 451Q234 451 175.50 409Q117 367 95 292M528 621L515 569L180 569L193 621L528 621Z"  horiz-adv-x="658" vert-adv-y="1000"  />

      
      <glyph glyph-name="uni0114" unicode="&#x0114;" d="M839 706L825 648L219 648L161 400L722 400L708 340L147 340L83 59L718 59L705 0L0 0L163 706L839 706M620 897L670 897Q655 841 610.50 810Q566 779 506 779Q444 779 409 811Q391 827 385 845Q379 863 377 897L428 897Q431 825 512 825Q596 825 620 897Z"  horiz-adv-x="828" vert-adv-y="1000"  />

      
      <glyph glyph-name="uni0115" unicode="&#x0115;" d="M518 169L564 131Q508 56 438 21Q368-14 274-14Q156-14 85.50 48.50Q15 111 15 217Q15 345 100.50 425Q186 505 323 505Q448 505 517.50 442.50Q587 380 587 268Q587 251 586 237L83 237Q81 226 81 213Q81 139 138 91Q195 43 283 43Q426 43 518 169M95 292L516 292Q508 369 457.50 410Q407 451 318 451Q234 451 175.50 409Q117 367 95 292M449 682L498 682Q486 626 443.50 592Q401 558 342 558Q289 558 254.50 588.50Q220 619 220 677L220 682L270 682Q273 604 348 604Q424 604 449 682Z"  horiz-adv-x="658" vert-adv-y="1000"  />

      
      <glyph glyph-name="uni0116" unicode="&#x0116;" d="M839 706L825 648L219 648L161 400L722 400L708 340L147 340L83 59L718 59L705 0L0 0L163 706L839 706M569 895L546 798L473 798L496 895L569 895Z"  horiz-adv-x="828" vert-adv-y="1000"  />

      
      <glyph glyph-name="uni0117" unicode="&#x0117;" d="M518 169L564 131Q508 56 438 21Q368-14 274-14Q156-14 85.50 48.50Q15 111 15 217Q15 345 100.50 425Q186 505 323 505Q448 505 517.50 442.50Q587 380 587 268Q587 251 586 237L83 237Q81 226 81 213Q81 139 138 91Q195 43 283 43Q426 43 518 169M95 292L516 292Q508 369 457.50 410Q407 451 318 451Q234 451 175.50 409Q117 367 95 292M399 660L376 563L303 563L326 660L399 660Z"  horiz-adv-x="658" vert-adv-y="1000"  />

      
      <glyph glyph-name="uni0118" unicode="&#x0118;" d="M839 706L825 648L219 648L161 400L722 400L708 340L147 340L83 59L718 59L705 0L655 0Q599-7 568.50-30Q538-53 538-84Q538-133 623-133Q639-133 652-132L641-182Q622-183 600-183Q538-183 505-163.50Q472-144 472-107Q472-38 573 0L0 0L163 706L839 706Z"  horiz-adv-x="828" vert-adv-y="1000"  />

      
      <glyph glyph-name="uni0119" unicode="&#x0119;" d="M518 169L564 131Q521 78 485.50 50.50Q450 23 396 4Q341-16 317.50-36Q294-56 294-84Q294-133 379-133Q395-133 408-132L397-182Q378-183 356-183Q294-183 261-163.50Q228-144 228-107Q228-50 297-14L274-14Q156-14 85.50 48.50Q15 111 15 217Q15 345 100.50 425Q186 505 323 505Q448 505 517.50 442.50Q587 380 587 268Q587 251 586 237L83 237Q81 226 81 213Q81 139 138 91Q195 43 283 43Q426 43 518 169M95 292L516 292Q508 369 457.50 410Q407 451 318 451Q234 451 175.50 409Q117 367 95 292Z"  horiz-adv-x="658" vert-adv-y="1000"  />

      
      <glyph glyph-name="uni011A" unicode="&#x011A;" d="M839 706L825 648L219 648L161 400L722 400L708 340L147 340L83 59L718 59L705 0L0 0L163 706L839 706M689 900L548 774L469 774L388 900L448 900L513 823L622 900L689 900Z"  horiz-adv-x="828" vert-adv-y="1000"  />

      
      <glyph glyph-name="uni011B" unicode="&#x011B;" d="M518 169L564 131Q508 56 438 21Q368-14 274-14Q156-14 85.50 48.50Q15 111 15 217Q15 345 100.50 425Q186 505 323 505Q448 505 517.50 442.50Q587 380 587 268Q587 251 586 237L83 237Q81 226 81 213Q81 139 138 91Q195 43 283 43Q426 43 518 169M95 292L516 292Q508 369 457.50 410Q407 451 318 451Q234 451 175.50 409Q117 367 95 292M501 680L365 548L306 548L231 680L281 680L340 595L446 680L501 680Z"  horiz-adv-x="658" vert-adv-y="1000"  />

      
      <glyph glyph-name="uni011C" unicode="&#x011C;" d="M832 528L770 496Q729 579 664 621Q581 674 462 674Q330 674 239 600Q178 551 143 473Q108 395 108 311Q108 183 183.50 110.50Q259 38 392 38Q567 38 675 171Q726 233 746 310L372 310L385 370L821 370L736 1L675 1L706 135Q593-19 387-19Q227-19 130.50 68.50Q34 156 34 301Q34 489 157.50 610Q281 731 472 731Q726 731 832 528M631 774L570 774L506 851L396 774L330 774L470 900L549 900L631 774Z"  horiz-adv-x="896" vert-adv-y="1000"  />

      
      <glyph glyph-name="uni011D" unicode="&#x011D;" d="M661 490L560 50Q529-82 490-124Q419-200 245-200Q125-200 61-162.50Q-3-125-3-54Q-3-44-2-37L67-37Q65-49 65-52Q65-99 114.50-121.50Q164-144 269-144Q328-144 378-126Q428-108 450-78Q477-44 499 62Q466 26 406 7Q346-12 278-12Q156-12 85 49Q14 110 14 216Q14 338 104 420.50Q194 503 344 503Q430 503 485 477.50Q540 452 577 395L597 490L661 490M543 279Q543 359 488.50 404Q434 449 337 449Q225 449 155.50 385.50Q86 322 86 218Q86 135 139 89.50Q192 44 288 44Q408 44 475.50 106.50Q543 169 543 279M499 549L450 549L390 634L285 549L229 549L365 681L424 681L499 549Z"  horiz-adv-x="688" vert-adv-y="1000"  />

      
      <glyph glyph-name="uni011E" unicode="&#x011E;" d="M832 528L770 496Q729 579 664 621Q581 674 462 674Q330 674 239 600Q178 551 143 473Q108 395 108 311Q108 183 183.50 110.50Q259 38 392 38Q567 38 675 171Q726 233 746 310L372 310L385 370L821 370L736 1L675 1L706 135Q593-19 387-19Q227-19 130.50 68.50Q34 156 34 301Q34 489 157.50 610Q281 731 472 731Q726 731 832 528M614 897L664 897Q649 841 604.50 810Q560 779 500 779Q438 779 403 811Q385 827 379 845Q373 863 371 897L422 897Q425 825 506 825Q590 825 614 897Z"  horiz-adv-x="896" vert-adv-y="1000"  />

      
      <glyph glyph-name="uni011F" unicode="&#x011F;" d="M661 490L560 50Q529-82 490-124Q419-200 245-200Q125-200 61-162.50Q-3-125-3-54Q-3-44-2-37L67-37Q65-49 65-52Q65-99 114.50-121.50Q164-144 269-144Q328-144 378-126Q428-108 450-78Q477-44 499 62Q466 26 406 7Q346-12 278-12Q156-12 85 49Q14 110 14 216Q14 338 104 420.50Q194 503 344 503Q430 503 485 477.50Q540 452 577 395L597 490L661 490M543 279Q543 359 488.50 404Q434 449 337 449Q225 449 155.50 385.50Q86 322 86 218Q86 135 139 89.50Q192 44 288 44Q408 44 475.50 106.50Q543 169 543 279M484 682L533 682Q521 626 478.50 592Q436 558 377 558Q324 558 289.50 588.50Q255 619 255 677L255 682L305 682Q308 604 383 604Q459 604 484 682Z"  horiz-adv-x="688" vert-adv-y="1000"  />

      
      <glyph glyph-name="uni0120" unicode="&#x0120;" d="M832 528L770 496Q729 579 664 621Q581 674 462 674Q330 674 239 600Q178 551 143 473Q108 395 108 311Q108 183 183.50 110.50Q259 38 392 38Q567 38 675 171Q726 233 746 310L372 310L385 370L821 370L736 1L675 1L706 135Q593-19 387-19Q227-19 130.50 68.50Q34 156 34 301Q34 489 157.50 610Q281 731 472 731Q726 731 832 528M555 895L532 798L459 798L482 895L555 895Z"  horiz-adv-x="896" vert-adv-y="1000"  />

      
      <glyph glyph-name="uni0121" unicode="&#x0121;" d="M661 490L560 50Q529-82 490-124Q419-200 245-200Q125-200 61-162.50Q-3-125-3-54Q-3-44-2-37L67-37Q65-49 65-52Q65-99 114.50-121.50Q164-144 269-144Q328-144 378-126Q428-108 450-78Q477-44 499 62Q466 26 406 7Q346-12 278-12Q156-12 85 49Q14 110 14 216Q14 338 104 420.50Q194 503 344 503Q430 503 485 477.50Q540 452 577 395L597 490L661 490M543 279Q543 359 488.50 404Q434 449 337 449Q225 449 155.50 385.50Q86 322 86 218Q86 135 139 89.50Q192 44 288 44Q408 44 475.50 106.50Q543 169 543 279M421 660L398 563L325 563L348 660L421 660Z"  horiz-adv-x="688" vert-adv-y="1000"  />

      
      <glyph glyph-name="uni0122" unicode="&#x0122;" d="M832 528L770 496Q729 579 664 621Q581 674 462 674Q330 674 239 600Q178 551 143 473Q108 395 108 311Q108 183 183.50 110.50Q259 38 392 38Q567 38 675 171Q726 233 746 310L372 310L385 370L821 370L736 1L675 1L706 135Q593-19 387-19Q227-19 130.50 68.50Q34 156 34 301Q34 489 157.50 610Q281 731 472 731Q726 731 832 528M350-39L421-39L406-104Q389-178 316-184L323-155Q359-147 366-110L333-110L350-39Z"  horiz-adv-x="896" vert-adv-y="1000"  />

      
      <glyph glyph-name="uni0123" unicode="&#x0123;" d="M661 490L560 50Q529-82 490-124Q419-200 245-200Q125-200 61-162.50Q-3-125-3-54Q-3-44-2-37L67-37Q65-49 65-52Q65-99 114.50-121.50Q164-144 269-144Q328-144 378-126Q428-108 450-78Q477-44 499 62Q466 26 406 7Q346-12 278-12Q156-12 85 49Q14 110 14 216Q14 338 104 420.50Q194 503 344 503Q430 503 485 477.50Q540 452 577 395L597 490L661 490M543 279Q543 359 488.50 404Q434 449 337 449Q225 449 155.50 385.50Q86 322 86 218Q86 135 139 89.50Q192 44 288 44Q408 44 475.50 106.50Q543 169 543 279M400 555L329 555L344 620Q361 694 434 700L427 671Q391 663 384 626L417 626L400 555Z"  horiz-adv-x="688" vert-adv-y="1000"  />

      
      <glyph glyph-name="uni0124" unicode="&#x0124;" d="M892 706L729 0L662 0L741 345L149 345L69 0L0 0L163 706L232 706L162 404L755 404L825 706L892 706M676 774L615 774L551 851L441 774L375 774L515 900L594 900L676 774Z"  horiz-adv-x="896" vert-adv-y="1000"  />

      
      <glyph glyph-name="uni0125" unicode="&#x0125;" d="M-5 0L157 706L223 706L158 420Q227 502 380 502Q499 502 562 454.50Q625 407 625 317Q625 275 612 219L562 0L496 0L545 215Q557 266 557 304Q557 444 372 444Q253 444 188 386Q158 358 142.50 326.50Q127 295 116 244L61 0L-5 0M356 774L295 774L231 851L121 774L55 774L195 900L274 900L356 774Z"  horiz-adv-x="708" vert-adv-y="1000"  />

      
      <glyph glyph-name="uni0126" unicode="&#x0126;" d="M50 514L64 574L132 574L163 706L232 706L201 574L794 574L825 706L892 706L861 574L930 574L916 514L847 514L729 0L662 0L741 345L149 345L69 0L0 0L118 514L50 514M162 404L755 404L780 514L187 514L162 404Z"  horiz-adv-x="896" vert-adv-y="1000"  />

      
      <glyph glyph-name="uni0127" unicode="&#x0127;" d="M447 556L189 556L158 420Q227 502 380 502Q499 502 562 454.50Q625 407 625 317Q625 275 612 219L562 0L496 0L545 215Q557 266 557 304Q557 444 372 444Q253 444 188 386Q158 358 142.50 326.50Q127 295 116 244L61 0L-5 0L122 556L55 556L66 606L134 606L157 706L223 706L200 606L458 606L447 556Z"  horiz-adv-x="708" vert-adv-y="1000"  />

      
      <glyph glyph-name="uni0128" unicode="&#x0128;" d="M230 706L67 0L0 0L163 706L230 706M371 890L401 876Q383 840 353 814.50Q323 789 282 789Q256 789 211 813.50Q166 838 141 838Q103 838 70 789L41 804Q89 890 157 890Q188 890 231 866Q274 842 295 842Q336 842 371 890Z"  horiz-adv-x="229" vert-adv-y="1000"  />

      
      <glyph glyph-name="uni0129" unicode="&#x0129;" d="M175 489L61 0L-5 0L109 489L175 489M316 670L345 656Q330 621 299 594Q268 567 230 567Q205 567 162 592Q119 617 95 617Q59 617 27 567L-1 582Q45 670 110 670Q140 670 180.50 645.50Q221 621 241 621Q283 621 316 670Z"  horiz-adv-x="208" vert-adv-y="1000"  />

      
      <glyph glyph-name="uni012A" unicode="&#x012A;" d="M230 706L67 0L0 0L163 706L230 706M345 861L332 809L86 809L99 861L345 861Z"  horiz-adv-x="229" vert-adv-y="1000"  />

      
      <glyph glyph-name="uni012B" unicode="&#x012B;" d="M175 489L61 0L-5 0L109 489L175 489M277 621L264 569L40 569L53 621L277 621Z"  horiz-adv-x="208" vert-adv-y="1000"  />

      
      <glyph glyph-name="uni012C" unicode="&#x012C;" d="M230 706L67 0L0 0L163 706L230 706M321 897L371 897Q356 841 311.50 810Q267 779 207 779Q145 779 110 811Q92 827 86 845Q80 863 78 897L129 897Q132 825 213 825Q297 825 321 897Z"  horiz-adv-x="229" vert-adv-y="1000"  />

      
      <glyph glyph-name="uni012D" unicode="&#x012D;" d="M175 489L61 0L-5 0L109 489L175 489M258 682L307 682Q295 626 252.50 592Q210 558 151 558Q98 558 63.50 588.50Q29 619 29 677L29 682L79 682Q82 604 157 604Q233 604 258 682Z"  horiz-adv-x="208" vert-adv-y="1000"  />

      
      <glyph glyph-name="uni012E" unicode="&#x012E;" d="M230 706L67 0Q18-10-9.50-32.50Q-37-55-37-84Q-37-133 48-133Q64-133 77-132L66-182Q47-183 25-183Q-37-183-70-163.50Q-103-144-103-107Q-103-37 0 1L163 706L230 706Z"  horiz-adv-x="229" vert-adv-y="1000"  />

      
      <glyph glyph-name="uni012F" unicode="&#x012F;" d="M175 489L61 0Q-43-26-43-84Q-43-133 42-133Q58-133 71-132L60-182Q41-183 19-183Q-43-183-76-163.50Q-109-144-109-107Q-109-35-5 1L109 489L175 489M218 678L196 582L130 582L152 678L218 678Z"  horiz-adv-x="208" vert-adv-y="1000"  />

      
      <glyph glyph-name="uni0130" unicode="&#x0130;" d="M230 706L67 0L0 0L163 706L230 706M276 895L253 798L180 798L203 895L276 895Z"  horiz-adv-x="229" vert-adv-y="1000"  />

      
      <glyph glyph-name="uni0131" unicode="&#x0131;" d="M175 489L61 0L-5 0L109 489L175 489Z"  horiz-adv-x="208" vert-adv-y="1000"  />

      
      <glyph glyph-name="uni0132" unicode="&#x0132;" d="M230 706L67 0L0 0L163 706L230 706M849 706L747 269Q711 115 642.50 48.50Q574-18 451-18Q226-18 179 188L252 213Q263 150 285 118Q310 83 354.50 62.50Q399 42 451 42Q531 42 586 85Q626 116 648.50 169Q671 222 697 333L783 706L849 706Z"  horiz-adv-x="854" vert-adv-y="1000"  />

      
      <glyph glyph-name="uni0133" unicode="&#x0133;" d="M218 678L196 582L130 582L152 678L218 678M175 489L61 0L-5 0L109 489L175 489M425 678L402 581L338 581L361 678L425 678M381 489L260-37Q244-103 224-134Q188-189 101-189Q50-189 2-177L17-117Q57-130 98-130Q143-130 163-111Q183-92 196-38L317 489L381 489Z"  horiz-adv-x="416" vert-adv-y="1000"  />

      
      <glyph glyph-name="uni0134" unicode="&#x0134;" d="M620 706L518 269Q482 115 413.50 48.50Q345-18 222-18Q-3-18-50 188L23 213Q34 150 56 118Q81 83 125.50 62.50Q170 42 222 42Q302 42 357 85Q397 116 419.50 169Q442 222 468 333L554 706L620 706M740 774L679 774L615 851L505 774L439 774L579 900L658 900L740 774Z"  horiz-adv-x="625" vert-adv-y="1000"  />

      
      <glyph glyph-name="uni0135" unicode="&#x0135;" d="M173 489L52-37Q36-103 16-134Q-20-189-107-189Q-158-189-206-177L-191-117Q-151-130-110-130Q-65-130-45-111Q-25-92-12-38L109 489L173 489M283 549L234 549L174 634L69 549L13 549L149 681L208 681L283 549Z"  horiz-adv-x="208" vert-adv-y="1000"  />

      
      <glyph glyph-name="uni0136" unicode="&#x0136;" d="M838 706L442 429L697 0L620 0L389 393L113 201L67 0L0 0L163 706L230 706L132 281L733 706L838 706M288-39L359-39L344-104Q327-178 254-184L261-155Q297-147 304-110L271-110L288-39Z"  horiz-adv-x="788" vert-adv-y="1000"  />

      
      <glyph glyph-name="uni0137" unicode="&#x0137;" d="M637 489L339 297L594 0L510 0L286 262L92 137L61 0L-4 0L159 706L224 706L110 217L529 489L637 489M230-39L301-39L286-104Q269-178 196-184L203-155Q239-147 246-110L213-110L230-39Z"  horiz-adv-x="667" vert-adv-y="1000"  />

      
      <glyph glyph-name="uni0138" unicode="&#x0138;" d="M637 489L339 297L594 0L510 0L286 262L92 137L61 0L-4 0L109 489L174 489L110 217L529 489L637 489Z"  horiz-adv-x="667" vert-adv-y="1000"  />

      
      <glyph glyph-name="uni0139" unicode="&#x0139;" d="M597 59L584 0L0 0L163 706L233 706L84 59L597 59M401 900L233 774L188 774L290 900L401 900Z"  horiz-adv-x="688" vert-adv-y="1000"  />

      
      <glyph glyph-name="uni013A" unicode="&#x013A;" d="M225 706L62 0L-4 0L159 706L225 706M389 900L221 774L176 774L278 900L389 900Z"  horiz-adv-x="208" vert-adv-y="1000"  />

      
      <glyph glyph-name="uni013B" unicode="&#x013B;" d="M597 59L584 0L0 0L163 706L233 706L84 59L597 59M256-39L327-39L312-104Q295-178 222-184L229-155Q265-147 272-110L239-110L256-39Z"  horiz-adv-x="688" vert-adv-y="1000"  />

      
      <glyph glyph-name="uni013C" unicode="&#x013C;" d="M225 706L62 0L-4 0L159 706L225 706M-16-39L55-39L40-104Q23-178-50-184L-43-155Q-7-147 0-110L-33-110L-16-39Z"  horiz-adv-x="208" vert-adv-y="1000"  />

      
      <glyph glyph-name="uni013D" unicode="&#x013D;" d="M597 59L584 0L0 0L163 706L233 706L84 59L597 59M267 706L341 706L318 606Q300 528 225 523L232 555Q269 561 280 603L285 623L248 623L267 706Z"  horiz-adv-x="688" vert-adv-y="1000"  />

      
      <glyph glyph-name="uni013E" unicode="&#x013E;" d="M225 706L62 0L-4 0L159 706L225 706M259 706L333 706L310 606Q292 528 217 523L224 555Q261 561 272 603L277 623L240 623L259 706Z"  horiz-adv-x="208" vert-adv-y="1000"  />

      
      <glyph glyph-name="uni013F" unicode="&#x013F;" d="M597 59L584 0L0 0L163 706L233 706L84 59L597 59M484 418L462 324L384 324L406 418L484 418Z"  horiz-adv-x="688" vert-adv-y="1000"  />

      
      <glyph glyph-name="uni0140" unicode="&#x0140;" d="M225 706L62 0L-4 0L159 706L225 706M287 415L264 321L194 321L217 415L287 415Z"  horiz-adv-x="249" vert-adv-y="1000"  />

      
      <glyph glyph-name="uni0141" unicode="&#x0141;" d="M597 59L583 0L0 0L52 227L-42 180L-27 243L67 290L163 706L232 706L146 329L541 525L526 462L131 266L83 59L597 59Z"  horiz-adv-x="688" vert-adv-y="1000"  />

      
      <glyph glyph-name="uni0142" unicode="&#x0142;" d="M247 504L231 435L149 381L61 0L-5 0L71 330L-14 275L2 344L87 399L158 706L224 706L165 450L247 504Z"  horiz-adv-x="208" vert-adv-y="1000"  />

      
      <glyph glyph-name="uni0143" unicode="&#x0143;" d="M894 706L731 0L668 0L205 616L63 0L0 0L163 706L226 706L688 87L831 706L894 706M686 900L518 774L473 774L575 900L686 900Z"  horiz-adv-x="896" vert-adv-y="1000"  />

      
      <glyph glyph-name="uni0144" unicode="&#x0144;" d="M107 489L173 489L158 420Q227 502 380 502Q499 502 562 454.50Q625 407 625 317Q625 275 612 219L562 0L496 0L545 215Q557 266 557 304Q557 444 372 444Q263 444 201.50 397.50Q140 351 117 249L61 0L-5 0L107 489M540 700L375 555L332 555L431 700L540 700Z"  horiz-adv-x="708" vert-adv-y="1000"  />

      
      <glyph glyph-name="uni0145" unicode="&#x0145;" d="M894 706L731 0L668 0L205 616L63 0L0 0L163 706L226 706L688 87L831 706L894 706M328-39L399-39L384-104Q367-178 294-184L301-155Q337-147 344-110L311-110L328-39Z"  horiz-adv-x="896" vert-adv-y="1000"  />

      
      <glyph glyph-name="uni0146" unicode="&#x0146;" d="M107 489L173 489L158 420Q227 502 380 502Q499 502 562 454.50Q625 407 625 317Q625 275 612 219L562 0L496 0L545 215Q557 266 557 304Q557 444 372 444Q263 444 201.50 397.50Q140 351 117 249L61 0L-5 0L107 489M237-39L308-39L293-104Q276-178 203-184L210-155Q246-147 253-110L220-110L237-39Z"  horiz-adv-x="708" vert-adv-y="1000"  />

      
      <glyph glyph-name="uni0147" unicode="&#x0147;" d="M894 706L731 0L668 0L205 616L63 0L0 0L163 706L226 706L688 87L831 706L894 706M709 900L568 774L489 774L408 900L468 900L533 823L642 900L709 900Z"  horiz-adv-x="896" vert-adv-y="1000"  />

      
      <glyph glyph-name="uni0148" unicode="&#x0148;" d="M107 489L173 489L158 420Q227 502 380 502Q499 502 562 454.50Q625 407 625 317Q625 275 612 219L562 0L496 0L545 215Q557 266 557 304Q557 444 372 444Q263 444 201.50 397.50Q140 351 117 249L61 0L-5 0L107 489M536 680L400 548L341 548L266 680L316 680L375 595L481 680L536 680Z"  horiz-adv-x="708" vert-adv-y="1000"  />

      
      <glyph glyph-name="uni0149" unicode="&#x0149;" d="M107 489L173 489L158 420Q227 502 380 502Q499 502 562 454.50Q625 407 625 317Q625 275 612 219L562 0L496 0L545 215Q557 266 557 304Q557 444 372 444Q263 444 201.50 397.50Q140 351 117 249L61 0L-5 0L107 489M101 706L175 706L152 606Q134 528 59 523L66 555Q103 561 114 603L119 623L82 623L101 706Z"  horiz-adv-x="708" vert-adv-y="1000"  />

      
      <glyph glyph-name="uni014A" unicode="&#x014A;" d="M894 706L724-33Q708-101 688-131Q652-185 571-185Q526-185 492-176L507-116Q540-126 568-126Q608-126 628-105Q648-84 663-21L668 0L205 616L63 0L0 0L163 706L226 706L688 87L831 706L894 706Z"  horiz-adv-x="896" vert-adv-y="1000"  />

      
      <glyph glyph-name="uni014B" unicode="&#x014B;" d="M107 489L173 489L158 420Q227 502 380 502Q499 502 562 454.50Q625 407 625 317Q625 275 612 219L560-13Q543-84 526-110Q490-165 410-165Q366-165 329-157L344-97Q372-106 406-106Q443-106 461.50-86.50Q480-67 493-14L545 215Q557 266 557 304Q557 444 372 444Q263 444 201.50 397.50Q140 351 117 249L61 0L-5 0L107 489Z"  horiz-adv-x="708" vert-adv-y="1000"  />

      
      <glyph glyph-name="uni014C" unicode="&#x014C;" d="M874 411Q874 322 835.50 237.50Q797 153 731 95Q607-16 405-16Q236-16 135.50 71Q35 158 35 305Q35 362 51 419Q67 476 103 531.50Q139 587 191.50 629.50Q244 672 323.50 698Q403 724 500 724Q669 724 771.50 638.50Q874 553 874 411M802 407Q802 527 718 597Q634 667 491 667Q321 667 213 566.50Q105 466 105 308Q105 185 189.50 112.50Q274 40 418 40Q582 40 692 145Q802 250 802 407M715 861L702 809L367 809L380 861L715 861Z"  horiz-adv-x="909" vert-adv-y="1000"  />

      
      <glyph glyph-name="uni014D" unicode="&#x014D;" d="M634 272Q634 149 538.50 67.50Q443-14 300-14Q170-14 91.50 49Q13 112 13 217Q13 255 24.50 293.50Q36 332 62.50 370Q89 408 127 437Q165 466 224 484Q283 502 354 502Q482 502 558 439.50Q634 377 634 272M563 269Q563 298 553 327Q543 356 521.50 384.50Q500 413 457.50 430.50Q415 448 357 448Q284 448 229 426.50Q174 405 143.50 369.50Q113 334 98.50 296Q84 258 84 219Q84 135 142.50 87.50Q201 40 303 40Q417 40 490 104.50Q563 169 563 269M554 621L541 569L206 569L219 621L554 621Z"  horiz-adv-x="700" vert-adv-y="1000"  />

      
      <glyph glyph-name="uni014E" unicode="&#x014E;" d="M874 411Q874 322 835.50 237.50Q797 153 731 95Q607-16 405-16Q236-16 135.50 71Q35 158 35 305Q35 362 51 419Q67 476 103 531.50Q139 587 191.50 629.50Q244 672 323.50 698Q403 724 500 724Q669 724 771.50 638.50Q874 553 874 411M802 407Q802 527 718 597Q634 667 491 667Q321 667 213 566.50Q105 466 105 308Q105 185 189.50 112.50Q274 40 418 40Q582 40 692 145Q802 250 802 407M625 897L675 897Q660 841 615.50 810Q571 779 511 779Q449 779 414 811Q396 827 390 845Q384 863 382 897L433 897Q436 825 517 825Q601 825 625 897Z"  horiz-adv-x="909" vert-adv-y="1000"  />

      
      <glyph glyph-name="uni014F" unicode="&#x014F;" d="M634 272Q634 149 538.50 67.50Q443-14 300-14Q170-14 91.50 49Q13 112 13 217Q13 255 24.50 293.50Q36 332 62.50 370Q89 408 127 437Q165 466 224 484Q283 502 354 502Q482 502 558 439.50Q634 377 634 272M563 269Q563 298 553 327Q543 356 521.50 384.50Q500 413 457.50 430.50Q415 448 357 448Q284 448 229 426.50Q174 405 143.50 369.50Q113 334 98.50 296Q84 258 84 219Q84 135 142.50 87.50Q201 40 303 40Q417 40 490 104.50Q563 169 563 269M482 682L531 682Q519 626 476.50 592Q434 558 375 558Q322 558 287.50 588.50Q253 619 253 677L253 682L303 682Q306 604 381 604Q457 604 482 682Z"  horiz-adv-x="700" vert-adv-y="1000"  />

      
      </font>
</defs>
</svg>
