<svg width="100" height="100" viewBox="0 0 100 100" fill="none" xmlns="http://www.w3.org/2000/svg">
<path d="M5.24301 29.8162H3.57153L3.58241 29.2239L3.61415 28.6354L3.66599 28.0524L3.73869 27.4762L3.8308 26.9047L3.94219 26.3408L4.07375 25.7823L4.22391 25.2323L4.39182 24.6892L4.57832 24.1547L4.78182 23.6285L5.00308 23.1108L5.24142 22.6023L5.49601 22.1023L5.76767 21.6139L6.05392 21.1331L6.35725 20.6647L6.67455 20.207L7.00652 19.76L7.35398 19.3247L7.71451 18.9008L8.08986 18.49L8.47676 18.0908L8.87832 17.7054L9.2916 17.3338L9.7172 16.9746L10.1559 16.6293L10.6055 16.2993L11.0659 15.9838L11.5379 15.6831L12.02 15.3985L12.5121 15.1285L13.2937 16.5977L12.8495 16.84L12.4154 17.097L11.9914 17.367L11.5759 17.6516L11.1711 17.9492L10.7773 18.2592L10.3934 18.5831L10.0205 18.9192L9.65916 19.2662L9.30936 19.6254L8.9712 19.9962L8.64618 20.377L8.33439 20.7692L8.03492 21.1716L7.74859 21.5847L7.47617 22.0069L7.21773 22.4385L6.97403 22.8793L6.74415 23.3285L6.5306 23.7862L6.33095 24.2516L6.14755 24.7254L5.97964 25.2062L5.8288 25.6939L5.69414 26.1885L5.57649 26.6901L5.47591 27.197L5.39308 27.71L5.3281 28.2293L5.28094 28.7538L5.2523 29.2823L5.24301 29.8162V29.8162ZM3.57153 50.64V29.8162H5.24301V50.64H3.57153ZM20.2704 65.5785V67.24L19.4145 67.2185L18.5695 67.1538L17.7362 67.0477L16.9151 66.9016L16.1088 66.7146L15.318 66.49L14.5426 66.2285L13.7851 65.9292L13.0453 65.5954L12.3257 65.2277L11.6262 64.8269L10.9483 64.3939L10.2936 63.93L9.66302 63.437L9.05712 62.9147L8.476 62.3646L7.9227 61.787L7.39728 61.1846L6.90126 60.5577L6.43463 59.9069L5.99898 59.2331L5.59583 58.5377L5.226 57.8223L4.89011 57.0869L4.58912 56.3338L4.326 55.5631L4.10005 54.777L3.91204 53.9754L3.76499 53.1593L3.65821 52.3308L3.59322 51.4908L3.57153 50.64H5.24301L5.26311 51.4062L5.32039 52.1616L5.41636 52.9069L5.54943 53.64L5.71734 54.3601L5.9216 55.0677L6.15843 55.76L6.42851 56.4377L6.73025 57.0992L7.06297 57.7423L7.42592 58.3685L7.81827 58.9746L8.23842 59.5608L8.68646 60.1262L9.15921 60.67L9.65833 61.1892L10.1807 61.6854L10.7278 62.1554L11.2965 62.6008L11.8861 63.0185L12.4959 63.4085L13.1258 63.7692L13.7727 64.1L14.4382 64.4L15.1199 64.6685L15.8163 64.9038L16.5282 65.107L17.2525 65.2739L17.9899 65.4062L18.7398 65.5016L19.4997 65.5585L20.2704 65.5785V65.5785ZM64.5826 67.24H20.2704V65.5785H64.5826V67.24ZM79.6092 50.64H81.2806L81.2589 51.4908L81.1939 52.3308L81.0871 53.1593L80.9402 53.9754L80.7521 54.7777L80.5261 55.5639L80.2631 56.3347L79.962 57.0885L79.6262 57.8223L79.2563 58.5385L78.8531 59.2331L78.4175 59.9069L77.9509 60.5577L77.4549 61.1846L76.9295 61.787L76.3762 62.3646L75.7958 62.9147L75.1892 63.437L74.5585 63.9308L73.9031 64.3946L73.226 64.8269L72.5273 65.2277L71.8069 65.5954L71.0687 65.9292L70.3103 66.2285L69.5349 66.49L68.7441 66.7146L67.9371 66.9016L67.1168 67.0477L66.2834 67.1538L65.4384 67.2185L64.5826 67.24V65.5785L65.3533 65.5585L66.1132 65.5016L66.863 65.4062L67.5997 65.2739L68.3247 65.107L69.0366 64.9038L69.7331 64.6685L70.414 64.4L71.0795 64.1L71.7271 63.7692L72.3562 63.4085L72.9668 63.0192L73.5556 62.6016L74.1244 62.1569L74.6707 61.6854L75.1938 61.1892L75.6929 60.67L76.1657 60.1262L76.6138 59.5608L77.0339 58.9746L77.4263 58.3685L77.7892 57.7431L78.122 57.0992L78.4237 56.4377L78.6938 55.7608L78.9305 55.0685L79.1349 54.3608L79.3028 53.64L79.4358 52.9069L79.5318 52.1616L79.5891 51.4062L79.6092 50.64V50.64ZM81.2806 29.8162V50.64H79.6092V29.8162H81.2806ZM64.5826 14.8785V13.2169L65.4384 13.2385L66.2834 13.3031L67.1168 13.4093L67.9378 13.5554L68.7441 13.7423L69.5349 13.9669L70.3103 14.2285L71.0679 14.5277L71.8076 14.8608L72.5273 15.2293L73.226 15.63L73.9031 16.0615L74.5585 16.5261L75.1899 17.0201L75.7958 17.5423L76.3762 18.0923L76.9295 18.6692L77.4549 19.2716L77.9517 19.8993L78.4191 20.5508L78.8531 21.2239L79.2563 21.9185L79.627 22.6339L79.962 23.3692L80.2631 24.1223L80.5261 24.8931L80.7521 25.6792L80.9402 26.4808L81.0871 27.297L81.1939 28.1254L81.2589 28.9654L81.2806 29.8162H79.6092L79.5891 29.05L79.5318 28.2946L79.4358 27.5493L79.3028 26.8162L79.1349 26.0962L78.9305 25.3884L78.6938 24.6961L78.4237 24.0185L78.1227 23.357L77.7892 22.7139L77.4263 22.0885L77.0339 21.4816L76.6145 20.8946L76.1673 20.33L75.6929 19.7877L75.1938 19.2677L74.6707 18.7716L74.1252 18.3L73.5572 17.8554L72.9668 17.4385L72.3562 17.0485L71.7271 16.6877L71.0803 16.3561L70.4148 16.0569L69.7331 15.7885L69.0366 15.5531L68.3247 15.35L67.6004 15.1831L66.863 15.0508L66.1132 14.9554L65.3533 14.8985L64.5826 14.8785V14.8785ZM26.0972 13.2169H64.5826V14.8785H26.0972L25.5037 14.6324L26.0972 13.2169ZM26.0972 14.8785H25.749L25.5037 14.6324L26.0972 14.8785ZM14.5596 1.29312L26.6907 13.4631L25.5037 14.6324L13.3726 2.46236L13.1328 1.81543L14.5596 1.29312ZM13.1328 1.81543L13.2705 0L14.5596 1.29312L13.1328 1.81543ZM12.0695 15.8008L13.1328 1.81543L14.7996 1.94005L13.7363 15.9254L13.2937 16.5977L12.0695 15.8008V15.8008ZM13.7363 15.9254L13.7015 16.3831L13.2937 16.5977L13.7363 15.9254V15.9254Z" fill="#292929"/>
<path fill-rule="evenodd" clip-rule="evenodd" d="M59.599 46.5596L96.9716 61.4596L84.7965 70.9549L86.9972 86.1811L55.7856 73.7372L45.3631 99.5696L39.2029 97.1134L59.599 46.5596Z" fill="#FABF3F"/>
</svg>
